<svg width="160" height="32" viewBox="0 0 160 32" fill="none" xmlns="http://www.w3.org/2000/svg">
<path fill-rule="evenodd" clip-rule="evenodd" d="M4 0C1.79085 0 0 1.79086 0 4V24C0 26.2091 1.79085 28 4 28H21.3333L26.1418 31.6065C26.4746 31.8537 26.8869 32 27.3333 32C28.4378 32 29.3333 31.1046 29.3333 30V4C29.3333 1.79086 27.5425 0 25.3333 0H4ZM18.6667 8C18.6667 6.52724 19.8606 5.33333 21.3333 5.33333C22.8061 5.33333 24 6.52724 24 8V21.3333C24 22.8061 22.8061 24 21.3333 24C19.8606 24 18.6667 22.8061 18.6667 21.3333V8ZM14.6667 13.3333C13.1939 13.3333 12 14.5272 12 16L12 21.3333C12 22.8061 13.1939 24 14.6667 24C16.1394 24 17.3333 22.8061 17.3333 21.3333V16C17.3333 14.5272 16.1394 13.3333 14.6667 13.3333ZM5.33333 10.6667C5.33333 9.19391 6.52724 8 8 8C9.47276 8 10.6667 9.19391 10.6667 10.6667L10.6667 21.3333C10.6667 22.8061 9.47276 24 8 24C6.52724 24 5.33333 22.8061 5.33333 21.3333L5.33333 10.6667Z" fill="#8BBDF3"/>
<path d="M41.334 13.8377H43.5161V12.7151H43.5838C43.8633 13.3553 44.4855 13.9369 45.5315 13.9369C47.0644 13.9369 48.2997 12.7376 48.2997 10.3796C48.2997 7.93598 46.9922 6.82236 45.545 6.82236C44.4494 6.82236 43.8498 7.46258 43.5838 8.09829H43.5387V4.60415H41.334V13.8377ZM43.4936 10.3751C43.4936 9.24346 43.9625 8.54464 44.7695 8.54464C45.5856 8.54464 46.0364 9.2615 46.0364 10.3751C46.0364 11.4932 45.5856 12.2191 44.7695 12.2191C43.9625 12.2191 43.4936 11.4977 43.4936 10.3751Z" fill="#253648"/>
<path d="M53.6585 10.8485C53.6585 11.6555 53.1446 12.1064 52.4908 12.1064C51.8145 12.1064 51.3997 11.6465 51.3952 10.8936V6.91253H49.1905V11.3264C49.195 12.8909 50.1464 13.9279 51.5711 13.9279C52.608 13.9279 53.379 13.3959 53.6856 12.5482H53.7577V13.8377H55.8587V6.91253H53.6585V10.8485Z" fill="#253648"/>
<path d="M63.0435 9.02705C62.9263 7.65645 61.8036 6.82236 59.9281 6.82236C58.0525 6.82236 56.8577 7.63841 56.8667 9.02705C56.8577 10.0911 57.5385 10.7764 58.9227 11.0334L60.131 11.2633C60.7035 11.376 60.965 11.5564 60.9741 11.8629C60.965 12.2101 60.5773 12.44 60.0137 12.44C59.387 12.44 58.9632 12.1695 58.8686 11.6646L56.6909 11.7187C56.8487 13.0893 58.0254 13.9684 60.0047 13.9684C61.8577 13.9684 63.2058 13.0442 63.2148 11.6195C63.2058 10.6096 62.5385 10.0099 61.1589 9.74391L59.8244 9.49143C59.2383 9.37421 59.0489 9.16682 59.0534 8.90081C59.0489 8.54914 59.4592 8.33273 59.9686 8.33273C60.5502 8.33273 60.956 8.64382 61.0191 9.08115L63.0435 9.02705Z" fill="#253648"/>
<path d="M64.0357 13.8377H66.2404V6.91253H64.0357V13.8377ZM65.1403 6.1055C65.767 6.1055 66.272 5.6321 66.272 5.0505C66.272 4.46889 65.767 4 65.1403 4C64.5182 4 64.0087 4.46889 64.0087 5.0505C64.0087 5.6321 64.5182 6.1055 65.1403 6.1055Z" fill="#253648"/>
<path d="M69.5839 9.88819C69.5884 9.09919 70.0483 8.6303 70.7471 8.6303C71.446 8.6303 71.8607 9.09017 71.8562 9.85663V13.8377H74.0609V9.42381C74.0654 7.86384 73.1141 6.82236 71.6579 6.82236C70.6344 6.82236 69.8589 7.34085 69.5524 8.18395H69.4757V6.91253H67.3792V13.8377H69.5839V9.88819Z" fill="#253648"/>
<path d="M78.3985 13.9684C80.2155 13.9684 81.4103 13.0893 81.6627 11.7277L79.6384 11.6691C79.4671 12.1289 79.0162 12.3769 78.4391 12.3769C77.5915 12.3769 77.0685 11.8133 77.0685 10.9657V10.9071H81.6853V10.3571C81.6853 8.07574 80.2966 6.82236 78.3309 6.82236C76.2389 6.82236 74.8954 8.25609 74.8954 10.4022C74.8954 12.6204 76.2209 13.9684 78.3985 13.9684ZM77.0685 9.62669C77.1001 8.93688 77.6456 8.41389 78.376 8.41389C79.1019 8.41389 79.6249 8.91885 79.6339 9.62669H77.0685Z" fill="#253648"/>
<path d="M88.5928 9.02705C88.4756 7.65645 87.3529 6.82236 85.4774 6.82236C83.6018 6.82236 82.407 7.63841 82.416 9.02705C82.407 10.0911 83.0878 10.7764 84.472 11.0334L85.6802 11.2633C86.2528 11.376 86.5143 11.5564 86.5233 11.8629C86.5143 12.2101 86.1266 12.44 85.563 12.44C84.9363 12.44 84.5125 12.1695 84.4179 11.6646L82.2402 11.7187C82.398 13.0893 83.5747 13.9684 85.554 13.9684C87.407 13.9684 88.7551 13.0442 88.7641 11.6195C88.7551 10.6096 88.0878 10.0099 86.7082 9.74391L85.3737 9.49143C84.7876 9.37421 84.5982 9.16682 84.6027 8.90081C84.5982 8.54914 85.0085 8.33273 85.5179 8.33273C86.0995 8.33273 86.5053 8.64382 86.5684 9.08115L88.5928 9.02705Z" fill="#253648"/>
<path d="M95.631 9.02705C95.5138 7.65645 94.3912 6.82236 92.5156 6.82236C90.64 6.82236 89.4453 7.63841 89.4543 9.02705C89.4453 10.0911 90.1261 10.7764 91.5102 11.0334L92.7185 11.2633C93.2911 11.376 93.5526 11.5564 93.5616 11.8629C93.5526 12.2101 93.1648 12.44 92.6013 12.44C91.9746 12.44 91.5508 12.1695 91.4561 11.6646L89.2785 11.7187C89.4363 13.0893 90.613 13.9684 92.5923 13.9684C94.4453 13.9684 95.7933 13.0442 95.8024 11.6195C95.7933 10.6096 95.1261 10.0099 93.7464 9.74391L92.4119 9.49143C91.8258 9.37421 91.6364 9.16682 91.6409 8.90081C91.6364 8.54914 92.0467 8.33273 92.5562 8.33273C93.1378 8.33273 93.5436 8.64382 93.6067 9.08115L95.631 9.02705Z" fill="#253648"/>
<path d="M101.976 13.982C103.311 13.982 103.762 13.1524 103.996 12.7737H104.123V13.8377H105.15V4.60415H104.086V8.01262H103.996C103.762 7.65194 103.347 6.82236 101.994 6.82236C100.245 6.82236 99.0369 8.211 99.0369 10.3931C99.0369 12.5933 100.245 13.982 101.976 13.982ZM102.121 13.0262C100.786 13.0262 100.101 11.8539 100.101 10.3751C100.101 8.91434 100.768 7.77818 102.121 7.77818C103.419 7.77818 104.105 8.82417 104.105 10.3751C104.105 11.9441 103.401 13.0262 102.121 13.0262Z" fill="#253648"/>
<path d="M109.02 14C110.229 14 110.86 13.3508 111.076 12.8999H111.13V13.8377H112.194V9.27502C112.194 7.07484 110.517 6.82236 109.634 6.82236C108.588 6.82236 107.397 7.18305 106.856 8.44545L107.866 8.80613C108.101 8.30117 108.655 7.76014 109.67 7.76014C110.648 7.76014 111.13 8.27863 111.13 9.16682V9.20289C111.13 9.71686 110.607 9.67178 109.345 9.83408C108.06 10.0009 106.658 10.2849 106.658 11.872C106.658 13.2245 107.704 14 109.02 14ZM109.183 13.0442C108.335 13.0442 107.722 12.6655 107.722 11.9261C107.722 11.1145 108.461 10.862 109.291 10.7538C109.742 10.6997 110.95 10.5735 111.13 10.3571V11.3309C111.13 12.1966 110.445 13.0442 109.183 13.0442Z" fill="#253648"/>
<path d="M118.777 8.46348C118.444 7.48061 117.695 6.82236 116.325 6.82236C114.864 6.82236 113.782 7.65194 113.782 8.82417C113.782 9.77998 114.35 10.4202 115.621 10.7178L116.775 10.9883C117.474 11.1506 117.803 11.4842 117.803 11.9621C117.803 12.5573 117.172 13.0442 116.18 13.0442C115.31 13.0442 114.765 12.67 114.575 11.9261L113.565 12.1785C113.813 13.3553 114.783 13.982 116.198 13.982C117.808 13.982 118.904 13.1028 118.904 11.908C118.904 10.9432 118.299 10.3345 117.064 10.0325L116.036 9.77998C115.215 9.5771 114.846 9.30207 114.846 8.77006C114.846 8.17493 115.477 7.74211 116.325 7.74211C117.253 7.74211 117.637 8.25609 117.821 8.73399L118.777 8.46348Z" fill="#253648"/>
<path d="M121.305 9.67178C121.305 8.46348 122.076 7.77818 123.126 7.77818C124.127 7.77818 124.731 8.40938 124.731 9.50947V13.8377H125.795V9.43733C125.795 7.65645 124.848 6.82236 123.433 6.82236C122.342 6.82236 121.719 7.27773 121.395 7.99459H121.305V4.60415H120.241V13.8377H121.305V9.67178Z" fill="#253648"/>
<path d="M127.622 13.8377H128.65V12.7737H128.776C129.01 13.1524 129.461 13.982 130.796 13.982C132.527 13.982 133.735 12.5933 133.735 10.3931C133.735 8.211 132.527 6.82236 130.778 6.82236C129.425 6.82236 129.01 7.65194 128.776 8.01262H128.686V4.60415H127.622V13.8377ZM128.668 10.3751C128.668 8.82417 129.353 7.77818 130.651 7.77818C132.004 7.77818 132.671 8.91434 132.671 10.3751C132.671 11.8539 131.986 13.0262 130.651 13.0262C129.371 13.0262 128.668 11.9441 128.668 10.3751Z" fill="#253648"/>
<path d="M137.912 13.982C139.787 13.982 141.05 12.5573 141.05 10.4112C141.05 8.24707 139.787 6.82236 137.912 6.82236C136.036 6.82236 134.774 8.24707 134.774 10.4112C134.774 12.5573 136.036 13.982 137.912 13.982ZM137.912 13.0262C136.487 13.0262 135.838 11.7998 135.838 10.4112C135.838 9.02254 136.487 7.77818 137.912 7.77818C139.336 7.77818 139.986 9.02254 139.986 10.4112C139.986 11.7998 139.336 13.0262 137.912 13.0262Z" fill="#253648"/>
<path d="M144.447 14C145.655 14 146.287 13.3508 146.503 12.8999H146.557V13.8377H147.621V9.27502C147.621 7.07484 145.944 6.82236 145.06 6.82236C144.014 6.82236 142.824 7.18305 142.283 8.44545L143.293 8.80613C143.527 8.30117 144.082 7.76014 145.096 7.76014C146.075 7.76014 146.557 8.27863 146.557 9.16682V9.20289C146.557 9.71686 146.034 9.67178 144.772 9.83408C143.487 10.0009 142.085 10.2849 142.085 11.872C142.085 13.2245 143.131 14 144.447 14ZM144.609 13.0442C143.762 13.0442 143.149 12.6655 143.149 11.9261C143.149 11.1145 143.888 10.862 144.718 10.7538C145.169 10.6997 146.377 10.5735 146.557 10.3571V11.3309C146.557 12.1966 145.872 13.0442 144.609 13.0442Z" fill="#253648"/>
<path d="M149.299 13.8377H150.363V9.45537C150.363 8.51758 151.102 7.83228 152.112 7.83228C152.396 7.83228 152.689 7.88638 152.761 7.90442V6.82236C152.64 6.81335 152.36 6.80433 152.202 6.80433C151.373 6.80433 150.651 7.27322 150.399 7.95852H150.327V6.91253H149.299V13.8377Z" fill="#253648"/>
<path d="M156.162 13.982C157.497 13.982 157.948 13.1524 158.182 12.7737H158.308V13.8377H159.336V4.60415H158.272V8.01262H158.182C157.948 7.65194 157.533 6.82236 156.18 6.82236C154.431 6.82236 153.223 8.211 153.223 10.3931C153.223 12.5933 154.431 13.982 156.162 13.982ZM156.307 13.0262C154.972 13.0262 154.287 11.8539 154.287 10.3751C154.287 8.91434 154.954 7.77818 156.307 7.77818C157.605 7.77818 158.29 8.82417 158.29 10.3751C158.29 11.9441 157.587 13.0262 156.307 13.0262Z" fill="#253648"/>
<path d="M43.8794 26C45.6522 26 46.7033 24.9034 46.7033 23.0852C46.7033 21.2727 45.6522 20.1818 43.9192 20.1818H41.9078V26H43.8794ZM42.9618 25.0881V21.0938H43.8596C45.0414 21.0938 45.6578 21.7528 45.6578 23.0852C45.6578 24.4233 45.0414 25.0881 43.8283 25.0881H42.9618ZM49.5627 26.0852C50.8411 26.0852 51.6536 25.1847 51.6536 23.8352C51.6536 22.483 50.8411 21.5795 49.5627 21.5795C48.2843 21.5795 47.4718 22.483 47.4718 23.8352C47.4718 25.1847 48.2843 26.0852 49.5627 26.0852ZM49.5684 25.2614C48.861 25.2614 48.5144 24.6307 48.5144 23.8324C48.5144 23.0341 48.861 22.3949 49.5684 22.3949C50.2644 22.3949 50.611 23.0341 50.611 23.8324C50.611 24.6307 50.2644 25.2614 49.5684 25.2614ZM54.4299 26.0852C55.5265 26.0852 56.2253 25.4347 56.2992 24.5085H55.3162C55.2282 24.9773 54.8901 25.2472 54.4384 25.2472C53.7963 25.2472 53.3816 24.7102 53.3816 23.8182C53.3816 22.9375 53.8049 22.4091 54.4384 22.4091C54.9327 22.4091 55.2367 22.7273 55.3162 23.1477H56.2992C56.2282 22.2017 55.4895 21.5795 54.4242 21.5795C53.1458 21.5795 52.339 22.5028 52.339 23.8352C52.339 25.1562 53.1259 26.0852 54.4299 26.0852ZM59.9249 24.1648C59.9249 24.8295 59.4505 25.1591 58.9959 25.1591C58.5016 25.1591 58.1721 24.8097 58.1721 24.2557V21.6364H57.1436V24.4148C57.1436 25.4631 57.7402 26.0568 58.5982 26.0568C59.2516 26.0568 59.7118 25.7131 59.9107 25.2244H59.9561V26H60.9533V21.6364H59.9249V24.1648ZM62.0108 26H63.0392V23.3466C63.0392 22.8097 63.3972 22.446 63.8404 22.446C64.275 22.446 64.5733 22.7386 64.5733 23.1875V26H65.5819V23.2784C65.5819 22.7869 65.8745 22.446 66.3716 22.446C66.7864 22.446 67.1159 22.6903 67.1159 23.2301V26H68.1472V23.071C68.1472 22.0966 67.5847 21.5795 66.7836 21.5795C66.15 21.5795 65.6671 21.892 65.4739 22.3778H65.4284C65.2608 21.8835 64.8375 21.5795 64.2495 21.5795C63.6642 21.5795 63.2267 21.8807 63.0449 22.3778H62.9938V21.6364H62.0108V26ZM71.1223 26.0852C72.1394 26.0852 72.8382 25.5881 73.0201 24.8295L72.0598 24.7216C71.9206 25.0909 71.5797 25.2841 71.1365 25.2841C70.4718 25.2841 70.0314 24.8466 70.0229 24.0994H73.0627V23.7841C73.0627 22.2528 72.1422 21.5795 71.0684 21.5795C69.8184 21.5795 69.003 22.4972 69.003 23.8438C69.003 25.2131 69.807 26.0852 71.1223 26.0852ZM70.0257 23.4062C70.057 22.8494 70.4689 22.3807 71.0826 22.3807C71.6735 22.3807 72.0712 22.8125 72.0769 23.4062H70.0257ZM74.9611 23.4432C74.9611 22.8125 75.3418 22.4489 75.8844 22.4489C76.4157 22.4489 76.7338 22.7983 76.7338 23.3807V26H77.7623V23.2216C77.7651 22.1761 77.1685 21.5795 76.2679 21.5795C75.6145 21.5795 75.1657 21.892 74.9668 22.3778H74.9157V21.6364H73.9327V26H74.9611V23.4432ZM80.9867 21.6364H80.1259V20.5909H79.0975V21.6364H78.4782V22.4318H79.0975V24.858C79.0918 25.679 79.6884 26.0824 80.4611 26.0597C80.7537 26.0511 80.9554 25.9943 81.0662 25.9574L80.8929 25.1534C80.8361 25.1676 80.7196 25.1932 80.5918 25.1932C80.3333 25.1932 80.1259 25.1023 80.1259 24.6875V22.4318H80.9867V21.6364ZM83.1025 26.0881C83.7871 26.0881 84.1962 25.767 84.3837 25.4006H84.4178V26H85.4064V23.0795C85.4064 21.9261 84.4661 21.5795 83.6337 21.5795C82.7161 21.5795 82.0115 21.9886 81.7843 22.7841L82.7445 22.9205C82.8468 22.6222 83.1365 22.3665 83.6394 22.3665C84.1167 22.3665 84.378 22.6108 84.378 23.0398V23.0568C84.378 23.3523 84.0684 23.3665 83.2985 23.4489C82.4519 23.5398 81.6422 23.7926 81.6422 24.7756C81.6422 25.6335 82.2701 26.0881 83.1025 26.0881ZM83.3695 25.3324C82.9405 25.3324 82.6337 25.1364 82.6337 24.7585C82.6337 24.3636 82.9775 24.1989 83.4377 24.1335C83.7076 24.0966 84.2473 24.0284 84.3809 23.9205V24.4347C84.3809 24.9205 83.9888 25.3324 83.3695 25.3324ZM88.6195 21.6364H87.7587V20.5909H86.7303V21.6364H86.111V22.4318H86.7303V24.858C86.7246 25.679 87.3212 26.0824 88.0939 26.0597C88.3865 26.0511 88.5882 25.9943 88.699 25.9574L88.5257 25.1534C88.4689 25.1676 88.3525 25.1932 88.2246 25.1932C87.9661 25.1932 87.7587 25.1023 87.7587 24.6875V22.4318H88.6195V21.6364ZM89.4796 26H90.508V21.6364H89.4796V26ZM89.9966 21.017C90.3233 21.017 90.5904 20.767 90.5904 20.4602C90.5904 20.1506 90.3233 19.9006 89.9966 19.9006C89.6671 19.9006 89.4 20.1506 89.4 20.4602C89.4 20.767 89.6671 21.017 89.9966 21.017ZM93.4689 26.0852C94.7473 26.0852 95.5598 25.1847 95.5598 23.8352C95.5598 22.483 94.7473 21.5795 93.4689 21.5795C92.1905 21.5795 91.378 22.483 91.378 23.8352C91.378 25.1847 92.1905 26.0852 93.4689 26.0852ZM93.4746 25.2614C92.7672 25.2614 92.4206 24.6307 92.4206 23.8324C92.4206 23.0341 92.7672 22.3949 93.4746 22.3949C94.1706 22.3949 94.5172 23.0341 94.5172 23.8324C94.5172 24.6307 94.1706 25.2614 93.4746 25.2614ZM97.4611 23.4432C97.4611 22.8125 97.8418 22.4489 98.3844 22.4489C98.9157 22.4489 99.2338 22.7983 99.2338 23.3807V26H100.262V23.2216C100.265 22.1761 99.6685 21.5795 98.7679 21.5795C98.1145 21.5795 97.6657 21.892 97.4668 22.3778H97.4157V21.6364H96.4327V26H97.4611V23.4432Z" fill="#313F4E"/>
</svg>
