<svg width="24" height="24" viewBox="0 0 24 24" fill="none" xmlns="http://www.w3.org/2000/svg">
<path d="M20.71 19.29L17.3 15.88C18.5468 14.2721 19.134 12.2495 18.9423 10.2239C18.7505 8.19834 17.7942 6.32192 16.2678 4.97651C14.7415 3.63111 12.7599 2.91784 10.7262 2.98184C8.69259 3.04584 6.75974 3.88231 5.32102 5.32102C3.88231 6.75974 3.04584 8.69259 2.98184 10.7262C2.91784 12.7599 3.63111 14.7415 4.97651 16.2678C6.32192 17.7942 8.19834 18.7505 10.2239 18.9423C12.2495 19.134 14.2721 18.5468 15.88 17.3L19.29 20.71C19.383 20.8037 19.4936 20.8781 19.6154 20.9289C19.7373 20.9797 19.868 21.0058 20 21.0058C20.132 21.0058 20.2627 20.9797 20.3846 20.9289C20.5064 20.8781 20.617 20.8037 20.71 20.71C20.8037 20.617 20.8781 20.5064 20.9289 20.3846C20.9797 20.2627 21.0058 20.132 21.0058 20C21.0058 19.868 20.9797 19.7373 20.9289 19.6154C20.8781 19.4936 20.8037 19.383 20.71 19.29ZM5 11C5 9.81331 5.35189 8.65327 6.01118 7.66658C6.67047 6.67988 7.60754 5.91085 8.7039 5.45672C9.80026 5.0026 11.0067 4.88378 12.1705 5.11529C13.3344 5.3468 14.4035 5.91824 15.2426 6.75736C16.0818 7.59647 16.6532 8.66557 16.8847 9.82946C17.1162 10.9933 16.9974 12.1997 16.5433 13.2961C16.0892 14.3925 15.3201 15.3295 14.3334 15.9888C13.3467 16.6481 12.1867 17 11 17C9.4087 17 7.88258 16.3679 6.75736 15.2426C5.63214 14.1174 5 12.5913 5 11Z" fill="#626E6D"/>
</svg>
