<svg width="60" height="40" viewBox="0 0 60 40" fill="none" xmlns="http://www.w3.org/2000/svg">
<rect x="28.5" y="16.5" width="31" height="15" rx="7.5" fill="#F5F6F8" stroke="#C6D0DB"/>
<path d="M35 21V26.6406H37.2188C38.9062 26.6406 39.8633 25.6133 39.8633 23.7812C39.8633 22.0156 38.8945 21 37.2188 21H35ZM36.1797 22.0078H37.0312C38.0547 22.0078 38.6602 22.6602 38.6602 23.8008C38.6602 24.9922 38.0742 25.6328 37.0312 25.6328H36.1797V22.0078Z" fill="#313F4E"/>
<path d="M42.5234 26.7344C43.8477 26.7344 44.6445 25.8945 44.6445 24.4844C44.6445 23.0859 43.8359 22.2383 42.5234 22.2383C41.2109 22.2383 40.4023 23.0898 40.4023 24.4844C40.4023 25.8945 41.1992 26.7344 42.5234 26.7344ZM42.5234 25.8047C41.9141 25.8047 41.5703 25.3242 41.5703 24.4844C41.5703 23.6562 41.918 23.168 42.5234 23.168C43.125 23.168 43.4766 23.6562 43.4766 24.4844C43.4766 25.3203 43.1289 25.8047 42.5234 25.8047Z" fill="#313F4E"/>
<path d="M49.1367 23.8516C49.043 22.8711 48.3594 22.2383 47.2188 22.2383C45.8711 22.2383 45.1133 23.0469 45.1133 24.4766C45.1133 25.9219 45.875 26.7344 47.2188 26.7344C48.3398 26.7344 49.043 26.1133 49.1367 25.1484H48.0742C47.9883 25.5742 47.6836 25.8008 47.2188 25.8008C46.6094 25.8008 46.2617 25.3359 46.2617 24.4766C46.2617 23.6289 46.6055 23.1719 47.2188 23.1719C47.7031 23.1719 47.9961 23.4414 48.0742 23.8516H49.1367Z" fill="#313F4E"/>
<path d="M49.6797 23.5977C49.6797 24.2617 50.0859 24.6602 50.9219 24.8438L51.7031 25.0195C52.082 25.1016 52.2461 25.2305 52.2461 25.4414C52.2461 25.7188 51.9414 25.9023 51.5 25.9023C51.0469 25.9023 50.7695 25.7344 50.6836 25.4414H49.5742C49.6523 26.2695 50.3398 26.7344 51.4766 26.7344C52.6055 26.7344 53.375 26.1719 53.375 25.3125C53.375 24.668 53 24.3164 52.1641 24.1328L51.3555 23.957C50.957 23.8672 50.7734 23.7383 50.7734 23.5273C50.7734 23.2539 51.0742 23.0703 51.4805 23.0703C51.9023 23.0703 52.1641 23.2422 52.2227 23.5195H53.2734C53.2109 22.6953 52.5664 22.2383 51.4727 22.2383C50.3984 22.2383 49.6797 22.7812 49.6797 23.5977Z" fill="#313F4E"/>
<path d="M23.8501 27.6897L22.2205 25.5306C21.8564 25.049 21.6591 24.4596 21.6591 23.8533C21.6591 23.247 21.8564 22.6576 22.2205 22.1761L23.776 20.1151C25.5831 17.7226 25.2839 14.2589 22.9827 12.3377C22.426 11.8737 21.7844 11.5252 21.0946 11.3122C20.4048 11.0992 19.6803 11.0258 18.9625 11.0962C18.2446 11.1667 17.5476 11.3795 16.911 11.7226C16.2745 12.0658 15.7111 12.5324 15.2528 13.096C15.2107 13.1469 15.1696 13.1997 15.1293 13.2524L13.992 14.7468V31.1007C13.9922 31.653 13.9104 32.2023 13.7495 32.7302L15.0643 34.4718C15.5007 35.0531 16.046 35.5417 16.6691 35.9096C17.2922 36.2775 17.9808 36.5176 18.6957 36.6161C19.4105 36.7145 20.1375 36.6694 20.8351 36.4834C21.5327 36.2974 22.1872 35.9741 22.7612 35.5319C22.7669 35.5265 22.773 35.5215 22.7795 35.5171L22.8308 35.4801C23.4034 35.0364 23.8839 34.4829 24.2451 33.8512C24.6062 33.2195 24.8408 32.522 24.9354 31.7986C25.0301 31.0751 24.983 30.3399 24.7967 29.6349C24.6105 28.9299 24.2888 28.2689 23.8501 27.6897Z" fill="#006FE6"/>
<path d="M8.50849 3.3335C7.05247 3.3335 5.65608 3.91878 4.62652 4.9606C3.59696 6.00242 3.01855 7.41543 3.01855 8.88878V31.1099C3.02073 32.4389 3.49365 33.723 4.35149 34.7293C5.20934 35.7356 6.39527 36.3974 7.69408 36.5946C8.99288 36.7917 10.3185 36.5112 11.4304 35.8038C12.5422 35.0965 13.3667 34.0093 13.7541 32.7395L12.5299 31.1099H8.50391L10.7804 28.8063L9.61928 27.2694C8.89114 26.3054 8.49665 25.1259 8.49665 23.9126C8.49665 22.6993 8.89114 21.5197 9.61928 20.5558L13.9929 14.7598V8.88971C13.9929 7.41635 13.4145 6.00335 12.385 4.96153C11.3554 3.91971 9.95902 3.33442 8.503 3.33442L8.50849 3.3335Z" fill="#006FE6"/>
</svg>
