<svg width="140" height="32" viewBox="0 0 140 32" fill="none" xmlns="http://www.w3.org/2000/svg">
<path d="M40.2276 27.8787C40.1568 27.8787 40.1012 27.8584 40.0607 27.818C40.0202 27.7775 40 27.7219 40 27.6511V17.4854C40 17.4146 40.0202 17.359 40.0607 17.3185C40.1012 17.2781 40.1568 17.2578 40.2276 17.2578H43.8238C44.8759 17.2578 45.7155 17.536 46.3427 18.0923C46.9699 18.6385 47.2835 19.3719 47.2835 20.2924V24.8441C47.2835 25.7646 46.9699 26.503 46.3427 27.0593C45.7155 27.6055 44.8759 27.8787 43.8238 27.8787H40.2276ZM41.4567 26.5435C41.4567 26.594 41.482 26.6193 41.5326 26.6193H43.8845C44.4712 26.6193 44.9366 26.4423 45.2805 26.0883C45.6346 25.7241 45.8167 25.2386 45.8268 24.6317V20.5048C45.8268 19.8979 45.6497 19.4174 45.2957 19.0634C44.9517 18.6992 44.4814 18.5172 43.8845 18.5172H41.5326C41.482 18.5172 41.4567 18.5425 41.4567 18.593V26.5435Z" fill="#060807"/>
<path d="M52.3692 28C51.6105 28 50.953 27.8129 50.3966 27.4386C49.8503 27.0543 49.4659 26.5232 49.2434 25.8455C49.0613 25.2993 48.9703 24.6823 48.9703 23.9945C48.9703 23.2763 49.0562 22.6694 49.2282 22.1738C49.4508 21.5062 49.8402 20.9852 50.3966 20.611C50.953 20.2266 51.6156 20.0344 52.3844 20.0344C53.1127 20.0344 53.745 20.2266 54.2811 20.611C54.8274 20.9852 55.2168 21.5011 55.4495 22.1586C55.6316 22.6745 55.7226 23.2814 55.7226 23.9793C55.7226 24.6874 55.6316 25.3094 55.4495 25.8455C55.227 26.5232 54.8426 27.0543 54.2963 27.4386C53.75 27.8129 53.1077 28 52.3692 28ZM52.3692 26.7407C52.7739 26.7407 53.1279 26.6294 53.4314 26.4069C53.7349 26.1743 53.9524 25.8506 54.0839 25.4359C54.1951 25.0515 54.2508 24.5761 54.2508 24.0096C54.2508 23.4432 54.2002 22.9728 54.099 22.5986C53.9675 22.1839 53.75 21.8653 53.4466 21.6427C53.1431 21.4101 52.7739 21.2937 52.3389 21.2937C51.9241 21.2937 51.565 21.4101 51.2615 21.6427C50.958 21.8653 50.7405 22.1839 50.609 22.5986C50.4978 22.9526 50.4421 23.423 50.4421 24.0096C50.4421 24.5963 50.4978 25.0717 50.609 25.4359C50.7304 25.8506 50.9429 26.1743 51.2463 26.4069C51.5599 26.6294 51.9342 26.7407 52.3692 26.7407Z" fill="#060807"/>
<path d="M60.7101 28C59.9413 28 59.2838 27.8078 58.7375 27.4235C58.1912 27.029 57.817 26.4979 57.6146 25.8304C57.4629 25.3651 57.387 24.7531 57.387 23.9945C57.387 23.2965 57.4629 22.6846 57.6146 22.1586C57.817 21.5112 58.1912 20.9954 58.7375 20.611C59.2939 20.2266 59.9514 20.0344 60.7101 20.0344C61.4688 20.0344 62.1314 20.2266 62.6979 20.611C63.2644 20.9954 63.6336 21.4809 63.8056 22.0676C63.8562 22.199 63.8916 22.3407 63.9118 22.4924V22.5227C63.9118 22.6441 63.8461 22.7149 63.7145 22.7351L62.7282 22.8717H62.6827C62.5714 22.8717 62.5006 22.8161 62.4703 22.7048L62.4248 22.5076C62.3438 22.1636 62.1466 21.8754 61.833 21.6427C61.5194 21.4101 61.14 21.2937 60.6949 21.2937C60.26 21.2937 59.8907 21.4101 59.5872 21.6427C59.2838 21.8754 59.0865 22.1839 58.9955 22.5682C58.9044 22.9324 58.8589 23.4129 58.8589 24.0096C58.8589 24.5963 58.9044 25.0717 58.9955 25.4359C59.0966 25.8405 59.2939 26.1591 59.5872 26.3917C59.8907 26.6244 60.26 26.7407 60.6949 26.7407C61.1299 26.7407 61.5042 26.6294 61.8178 26.4069C62.1314 26.1743 62.3337 25.8809 62.4248 25.5269L62.4399 25.4662V25.451C62.4501 25.4005 62.4804 25.3549 62.531 25.3145C62.5816 25.2639 62.6372 25.2437 62.6979 25.2538L63.6842 25.4207C63.8258 25.451 63.8916 25.532 63.8815 25.6635C63.8713 25.7039 63.8461 25.8 63.8056 25.9517C63.6336 26.5688 63.2644 27.0644 62.6979 27.4386C62.1314 27.8129 61.4688 28 60.7101 28Z" fill="#060807"/>
<path d="M70.1994 20.3834C70.1994 20.3126 70.2196 20.257 70.2601 20.2165C70.3005 20.176 70.3562 20.1558 70.427 20.1558H71.4133C71.4841 20.1558 71.5397 20.176 71.5802 20.2165C71.6207 20.257 71.6409 20.3126 71.6409 20.3834V27.6511C71.6409 27.7219 71.6207 27.7775 71.5802 27.818C71.5397 27.8584 71.4841 27.8787 71.4133 27.8787H70.427C70.3562 27.8787 70.3005 27.8584 70.2601 27.818C70.2196 27.7775 70.1994 27.7219 70.1994 27.6511V27.1959C70.1994 27.1655 70.1893 27.1504 70.169 27.1504C70.1488 27.1403 70.1286 27.1453 70.1083 27.1655C69.7037 27.7118 69.0866 27.9849 68.2571 27.9849C67.7614 27.9849 67.3012 27.8888 66.8763 27.6966C66.4615 27.5044 66.1277 27.2212 65.8748 26.8469C65.6219 26.4727 65.4955 26.0175 65.4955 25.4814V20.3834C65.4955 20.3126 65.5157 20.257 65.5562 20.2165C65.5966 20.176 65.6523 20.1558 65.7231 20.1558H66.7094C66.7802 20.1558 66.8358 20.176 66.8763 20.2165C66.9168 20.257 66.937 20.3126 66.937 20.3834V25.0262C66.937 25.5522 67.0735 25.9669 67.3467 26.2704C67.6299 26.5738 68.0244 26.7255 68.5302 26.7255C69.036 26.7255 69.4407 26.5738 69.7442 26.2704C70.0476 25.9568 70.1994 25.5421 70.1994 25.0262V20.3834Z" fill="#060807"/>
<path d="M81.7935 20.0496C82.5623 20.0496 83.1693 20.2822 83.6144 20.7475C84.0595 21.2027 84.2821 21.84 84.2821 22.6593V27.6511C84.2821 27.7219 84.2618 27.7775 84.2214 27.818C84.1809 27.8584 84.1253 27.8787 84.0544 27.8787H83.0681C82.9973 27.8787 82.9417 27.8584 82.9012 27.818C82.8608 27.7775 82.8405 27.7219 82.8405 27.6511V22.9627C82.8405 22.457 82.6989 22.0574 82.4157 21.7641C82.1425 21.4606 81.7733 21.3089 81.308 21.3089C80.8426 21.3089 80.4633 21.4556 80.1699 21.7489C79.8766 22.0423 79.7299 22.4367 79.7299 22.9324V27.6511C79.7299 27.7219 79.7096 27.7775 79.6692 27.818C79.6287 27.8584 79.5731 27.8787 79.5023 27.8787H78.516C78.4452 27.8787 78.3895 27.8584 78.3491 27.818C78.3086 27.7775 78.2884 27.7219 78.2884 27.6511V22.9627C78.2884 22.457 78.1467 22.0574 77.8635 21.7641C77.5904 21.4606 77.2211 21.3089 76.7558 21.3089C76.2905 21.3089 75.9162 21.4556 75.6329 21.7489C75.3598 22.0423 75.2232 22.4367 75.2232 22.9324V27.6511C75.2232 27.7219 75.203 27.7775 75.1625 27.818C75.1221 27.8584 75.0664 27.8787 74.9956 27.8787H73.9941C73.9233 27.8787 73.8677 27.8584 73.8272 27.818C73.7868 27.7775 73.7665 27.7219 73.7665 27.6511V20.3834C73.7665 20.3126 73.7868 20.257 73.8272 20.2165C73.8677 20.176 73.9233 20.1558 73.9941 20.1558H74.9956C75.0664 20.1558 75.1221 20.176 75.1625 20.2165C75.203 20.257 75.2232 20.3126 75.2232 20.3834V20.7931C75.2232 20.8234 75.2334 20.8436 75.2536 20.8537C75.2738 20.8639 75.294 20.8588 75.3143 20.8386C75.7695 20.3126 76.4119 20.0496 77.2414 20.0496C77.7472 20.0496 78.1821 20.1507 78.5463 20.353C78.9206 20.5452 79.2089 20.8285 79.4112 21.2027C79.4416 21.2432 79.477 21.2432 79.5174 21.2027C79.7501 20.8082 80.0637 20.5199 80.4582 20.3379C80.8629 20.1457 81.308 20.0496 81.7935 20.0496Z" fill="#060807"/>
<path d="M89.55 26.7559C90.3694 26.7458 90.9561 26.4271 91.3102 25.8C91.3608 25.709 91.4164 25.6635 91.4771 25.6635C91.5277 25.6635 91.5732 25.6786 91.6137 25.709L92.2358 26.0883C92.3167 26.1389 92.3572 26.2046 92.3572 26.2855L92.3268 26.4069C92.0537 26.9025 91.6642 27.292 91.1584 27.5752C90.6628 27.8584 90.0811 28 89.4134 28C88.6952 28 88.0882 27.8432 87.5926 27.5297C87.0969 27.206 86.7226 26.7458 86.4697 26.149C86.2168 25.532 86.0904 24.8087 86.0904 23.9793C86.0904 23.2409 86.146 22.6795 86.2573 22.2951C86.4394 21.5972 86.8035 21.0459 87.3498 20.6413C87.896 20.2367 88.5586 20.0344 89.3376 20.0344C90.2986 20.0344 91.032 20.2873 91.5378 20.7931C92.0436 21.2887 92.3723 22.0119 92.5241 22.9627C92.5747 23.337 92.6101 23.7922 92.6303 24.3283C92.6303 24.48 92.5544 24.5559 92.4027 24.5559H87.6077C87.5572 24.5559 87.5319 24.5811 87.5319 24.6317C87.5521 25.0161 87.5875 25.2892 87.6381 25.451C87.7494 25.8556 87.9719 26.1743 88.3057 26.4069C88.6396 26.6396 89.0543 26.7559 89.55 26.7559ZM89.3376 21.2937C88.8925 21.2937 88.5283 21.4 88.245 21.6124C87.9719 21.8248 87.7848 22.1181 87.6836 22.4924C87.6128 22.7149 87.5673 22.9981 87.547 23.342C87.547 23.3926 87.5723 23.4179 87.6229 23.4179H91.0674C91.118 23.4179 91.1433 23.3926 91.1433 23.342C91.123 23.0083 91.0927 22.7604 91.0522 22.5986C90.9511 22.2041 90.7487 21.8905 90.4453 21.6579C90.1519 21.4151 89.7827 21.2937 89.3376 21.2937Z" fill="#060807"/>
<path d="M97.9121 20.0496C98.7416 20.0496 99.3992 20.2924 99.8847 20.7779C100.37 21.2533 100.613 21.9007 100.613 22.72V27.6511C100.613 27.7219 100.593 27.7775 100.552 27.818C100.512 27.8584 100.456 27.8787 100.385 27.8787H99.384C99.3132 27.8787 99.2575 27.8584 99.2171 27.818C99.1766 27.7775 99.1564 27.7219 99.1564 27.6511V23.0083C99.1564 22.5025 99.0097 22.0928 98.7163 21.7793C98.423 21.4657 98.0335 21.3089 97.5479 21.3089C97.113 21.3089 96.7437 21.4404 96.4403 21.7034C96.1469 21.9563 95.9749 22.3002 95.9243 22.7351V27.6511C95.9243 27.7219 95.9041 27.7775 95.8636 27.818C95.8232 27.8584 95.7675 27.8787 95.6967 27.8787H94.6953C94.6244 27.8787 94.5688 27.8584 94.5283 27.818C94.4879 27.7775 94.4676 27.7219 94.4676 27.6511V20.3834C94.4676 20.3126 94.4879 20.257 94.5283 20.2165C94.5688 20.176 94.6244 20.1558 94.6953 20.1558H95.6967C95.7675 20.1558 95.8232 20.176 95.8636 20.2165C95.9041 20.257 95.9243 20.3126 95.9243 20.3834V20.8082C95.9243 20.8386 95.9345 20.8588 95.9547 20.8689C95.9749 20.879 95.9901 20.874 96.0002 20.8537C96.4251 20.3176 97.0624 20.0496 97.9121 20.0496Z" fill="#060807"/>
<path d="M106.5 21.1269C106.5 21.1977 106.48 21.2533 106.44 21.2937C106.399 21.3342 106.344 21.3544 106.273 21.3544H104.725C104.674 21.3544 104.649 21.3797 104.649 21.4303V25.3903C104.649 25.8253 104.74 26.1338 104.922 26.3159C105.115 26.4979 105.418 26.589 105.833 26.589H106.197C106.268 26.589 106.323 26.6092 106.364 26.6497C106.404 26.6901 106.425 26.7458 106.425 26.8166V27.6055C106.425 27.7472 106.349 27.8281 106.197 27.8483L105.575 27.8635C104.796 27.8635 104.214 27.7269 103.83 27.4538C103.445 27.1807 103.253 26.6699 103.253 25.9214V21.4303C103.253 21.3797 103.228 21.3544 103.177 21.3544H102.343C102.272 21.3544 102.216 21.3342 102.176 21.2937C102.135 21.2533 102.115 21.1977 102.115 21.1269V20.3834C102.115 20.3126 102.135 20.257 102.176 20.2165C102.216 20.176 102.272 20.1558 102.343 20.1558H103.177C103.228 20.1558 103.253 20.1305 103.253 20.0799V18.3806C103.253 18.3098 103.273 18.2542 103.314 18.2137C103.354 18.1733 103.41 18.153 103.481 18.153H104.422C104.492 18.153 104.548 18.1733 104.589 18.2137C104.629 18.2542 104.649 18.3098 104.649 18.3806V20.0799C104.649 20.1305 104.674 20.1558 104.725 20.1558H106.273C106.344 20.1558 106.399 20.176 106.44 20.2165C106.48 20.257 106.5 20.3126 106.5 20.3834V21.1269Z" fill="#060807"/>
<path d="M111.131 20.0344C111.748 20.0344 112.284 20.1457 112.739 20.3682C113.204 20.5806 113.558 20.8841 113.801 21.2786C114.054 21.6629 114.181 22.103 114.181 22.5986V27.6511C114.181 27.7219 114.16 27.7775 114.12 27.818C114.079 27.8584 114.024 27.8787 113.953 27.8787H112.951C112.881 27.8787 112.825 27.8584 112.785 27.818C112.744 27.7775 112.724 27.7219 112.724 27.6511V27.2262C112.724 27.1959 112.714 27.1757 112.694 27.1655C112.673 27.1554 112.653 27.1605 112.633 27.1807C112.35 27.4437 112.011 27.646 111.616 27.7876C111.232 27.9292 110.812 28 110.357 28C109.618 28 109.011 27.8129 108.536 27.4386C108.06 27.0543 107.823 26.4777 107.823 25.709C107.823 24.92 108.096 24.303 108.642 23.8579C109.198 23.4027 109.972 23.1751 110.964 23.1751H112.648C112.699 23.1751 112.724 23.1499 112.724 23.0993V22.7048C112.724 22.2597 112.592 21.9158 112.329 21.6731C112.076 21.4202 111.687 21.2937 111.161 21.2937C110.746 21.2937 110.407 21.3696 110.144 21.5213C109.891 21.6731 109.724 21.8855 109.644 22.1586C109.603 22.2901 109.517 22.3508 109.386 22.3407L108.293 22.2041C108.222 22.194 108.167 22.1738 108.126 22.1434C108.086 22.103 108.071 22.0574 108.081 22.0069C108.172 21.4303 108.495 20.96 109.052 20.5958C109.618 20.2216 110.311 20.0344 111.131 20.0344ZM110.721 26.7711C111.257 26.7711 111.722 26.6294 112.117 26.3462C112.522 26.063 112.724 25.7039 112.724 25.269V24.389C112.724 24.3384 112.699 24.3131 112.648 24.3131H111.237C110.64 24.3131 110.165 24.4294 109.81 24.6621C109.456 24.8947 109.279 25.2184 109.279 25.6331C109.279 26.0074 109.411 26.2906 109.674 26.4828C109.947 26.675 110.296 26.7711 110.721 26.7711Z" fill="#060807"/>
<path d="M119.837 21.1269C119.837 21.1977 119.817 21.2533 119.776 21.2937C119.736 21.3342 119.68 21.3544 119.609 21.3544H118.062C118.011 21.3544 117.986 21.3797 117.986 21.4303V25.3903C117.986 25.8253 118.077 26.1338 118.259 26.3159C118.451 26.4979 118.754 26.589 119.169 26.589H119.533C119.604 26.589 119.66 26.6092 119.7 26.6497C119.741 26.6901 119.761 26.7458 119.761 26.8166V27.6055C119.761 27.7472 119.685 27.8281 119.533 27.8483L118.911 27.8635C118.132 27.8635 117.551 27.7269 117.166 27.4538C116.782 27.1807 116.59 26.6699 116.59 25.9214V21.4303C116.59 21.3797 116.564 21.3544 116.514 21.3544H115.679C115.608 21.3544 115.553 21.3342 115.512 21.2937C115.472 21.2533 115.452 21.1977 115.452 21.1269V20.3834C115.452 20.3126 115.472 20.257 115.512 20.2165C115.553 20.176 115.608 20.1558 115.679 20.1558H116.514C116.564 20.1558 116.59 20.1305 116.59 20.0799V18.3806C116.59 18.3098 116.61 18.2542 116.65 18.2137C116.691 18.1733 116.746 18.153 116.817 18.153H117.758C117.829 18.153 117.884 18.1733 117.925 18.2137C117.965 18.2542 117.986 18.3098 117.986 18.3806V20.0799C117.986 20.1305 118.011 20.1558 118.062 20.1558H119.609C119.68 20.1558 119.736 20.176 119.776 20.2165C119.817 20.257 119.837 20.3126 119.837 20.3834V21.1269Z" fill="#060807"/>
<path d="M122.479 19.0027C122.186 19.0027 121.943 18.9167 121.751 18.7448C121.569 18.5627 121.478 18.33 121.478 18.0468C121.478 17.7636 121.569 17.536 121.751 17.364C121.943 17.182 122.186 17.0909 122.479 17.0909C122.773 17.0909 123.01 17.182 123.192 17.364C123.375 17.536 123.466 17.7636 123.466 18.0468C123.466 18.33 123.375 18.5627 123.192 18.7448C123.01 18.9167 122.773 19.0027 122.479 19.0027ZM121.979 27.8787C121.908 27.8787 121.852 27.8584 121.812 27.818C121.771 27.7775 121.751 27.7219 121.751 27.6511V20.3834C121.751 20.3126 121.771 20.257 121.812 20.2165C121.852 20.176 121.908 20.1558 121.979 20.1558H122.98C123.051 20.1558 123.106 20.176 123.147 20.2165C123.187 20.257 123.208 20.3126 123.208 20.3834V27.6511C123.208 27.7219 123.187 27.7775 123.147 27.818C123.106 27.8584 123.051 27.8787 122.98 27.8787H121.979Z" fill="#060807"/>
<path d="M128.609 28C127.85 28 127.193 27.8129 126.637 27.4386C126.09 27.0543 125.706 26.5232 125.483 25.8455C125.301 25.2993 125.21 24.6823 125.21 23.9945C125.21 23.2763 125.296 22.6694 125.468 22.1738C125.691 21.5062 126.08 20.9852 126.637 20.611C127.193 20.2266 127.856 20.0344 128.624 20.0344C129.353 20.0344 129.985 20.2266 130.521 20.611C131.067 20.9852 131.457 21.5011 131.689 22.1586C131.872 22.6745 131.963 23.2814 131.963 23.9793C131.963 24.6874 131.872 25.3094 131.689 25.8455C131.467 26.5232 131.082 27.0543 130.536 27.4386C129.99 27.8129 129.348 28 128.609 28ZM128.609 26.7407C129.014 26.7407 129.368 26.6294 129.671 26.4069C129.975 26.1743 130.192 25.8506 130.324 25.4359C130.435 25.0515 130.491 24.5761 130.491 24.0096C130.491 23.4432 130.44 22.9728 130.339 22.5986C130.207 22.1839 129.99 21.8653 129.686 21.6427C129.383 21.4101 129.014 21.2937 128.579 21.2937C128.164 21.2937 127.805 21.4101 127.501 21.6427C127.198 21.8653 126.98 22.1839 126.849 22.5986C126.738 22.9526 126.682 23.423 126.682 24.0096C126.682 24.5963 126.738 25.0717 126.849 25.4359C126.97 25.8506 127.183 26.1743 127.486 26.4069C127.8 26.6294 128.174 26.7407 128.609 26.7407Z" fill="#060807"/>
<path d="M137.299 20.0496C138.129 20.0496 138.786 20.2924 139.272 20.7779C139.757 21.2533 140 21.9007 140 22.72V27.6511C140 27.7219 139.98 27.7775 139.939 27.818C139.899 27.8584 139.843 27.8787 139.772 27.8787H138.771C138.7 27.8787 138.644 27.8584 138.604 27.818C138.564 27.7775 138.543 27.7219 138.543 27.6511V23.0083C138.543 22.5025 138.397 22.0928 138.103 21.7793C137.81 21.4657 137.42 21.3089 136.935 21.3089C136.5 21.3089 136.131 21.4404 135.827 21.7034C135.534 21.9563 135.362 22.3002 135.311 22.7351V27.6511C135.311 27.7219 135.291 27.7775 135.251 27.818C135.21 27.8584 135.154 27.8787 135.084 27.8787H134.082C134.011 27.8787 133.956 27.8584 133.915 27.818C133.875 27.7775 133.855 27.7219 133.855 27.6511V20.3834C133.855 20.3126 133.875 20.257 133.915 20.2165C133.956 20.176 134.011 20.1558 134.082 20.1558H135.084C135.154 20.1558 135.21 20.176 135.251 20.2165C135.291 20.257 135.311 20.3126 135.311 20.3834V20.8082C135.311 20.8386 135.321 20.8588 135.342 20.8689C135.362 20.879 135.377 20.874 135.387 20.8537C135.812 20.3176 136.449 20.0496 137.299 20.0496Z" fill="#060807"/>
<path d="M40.1471 12.6289C40.1063 12.6289 40.0695 12.6166 40.0368 12.5921C40.0123 12.5593 40 12.5224 40 12.4814V4.17209C40 4.13111 40.0123 4.09834 40.0368 4.07375C40.0695 4.04097 40.1063 4.02458 40.1471 4.02458H40.5027C40.5435 4.02458 40.5762 4.04097 40.6007 4.07375C40.6334 4.09834 40.6498 4.13111 40.6498 4.17209V8.48655C40.6498 8.50294 40.658 8.51524 40.6743 8.52343C40.6907 8.53163 40.7029 8.52753 40.7111 8.51114L44.8428 4.09834C44.8836 4.04917 44.9449 4.02458 45.0267 4.02458H45.419C45.5089 4.02458 45.5538 4.05327 45.5538 4.11063C45.5538 4.12702 45.5375 4.15979 45.5048 4.20896L42.4643 7.55237C42.4479 7.56876 42.4479 7.59334 42.4643 7.62612L45.7868 12.4446C45.8031 12.4691 45.8113 12.4978 45.8113 12.5306C45.8113 12.5962 45.7704 12.6289 45.6887 12.6289H45.2596C45.186 12.6289 45.1288 12.5962 45.088 12.5306L42.0229 8.09321C42.0147 8.07682 42.0025 8.06863 41.9861 8.06863C41.9698 8.06863 41.9575 8.07273 41.9494 8.08092L40.6743 9.39616C40.658 9.41255 40.6498 9.43303 40.6498 9.45762V12.4814C40.6498 12.5224 40.6334 12.5593 40.6007 12.5921C40.5762 12.6166 40.5435 12.6289 40.5027 12.6289H40.1471Z" fill="#293232"/>
<path d="M49.1063 6.33547C49.8255 6.33547 50.3732 6.52394 50.7491 6.9009C51.1251 7.26965 51.3131 7.76953 51.3131 8.40051V12.4814C51.3131 12.5224 51.2968 12.5593 51.2641 12.5921C51.2395 12.6166 51.2069 12.6289 51.166 12.6289H50.8104C50.7696 12.6289 50.7328 12.6166 50.7001 12.5921C50.6756 12.5593 50.6633 12.5224 50.6633 12.4814V11.9529C50.6633 11.9365 50.6551 11.9242 50.6388 11.916C50.6306 11.9078 50.6184 11.9119 50.602 11.9283C50.3895 12.1905 50.1075 12.3913 49.7561 12.5306C49.4046 12.6617 49.0286 12.7273 48.6281 12.7273C48.056 12.7273 47.5779 12.588 47.1937 12.3093C46.8095 12.0225 46.6175 11.58 46.6175 10.9818C46.6175 10.3754 46.8422 9.89603 47.2918 9.54366C47.7413 9.19129 48.3584 9.01511 49.1431 9.01511H50.6143C50.647 9.01511 50.6633 8.99872 50.6633 8.96594V8.4128C50.6633 7.94571 50.5366 7.58105 50.2833 7.31882C50.0299 7.0484 49.6335 6.91319 49.094 6.91319C48.6772 6.91319 48.3339 6.99923 48.0642 7.17132C47.7944 7.33521 47.6269 7.56056 47.5615 7.84737C47.537 7.94571 47.4798 7.98668 47.3899 7.97029L47.0098 7.92113C46.9035 7.90474 46.8586 7.85967 46.8749 7.78591C46.9567 7.3516 47.1978 7.00333 47.5983 6.7411C47.9988 6.47068 48.5014 6.33547 49.1063 6.33547ZM48.7507 12.1618C49.2657 12.1618 49.7111 12.0348 50.0871 11.7808C50.4712 11.5268 50.6633 11.1744 50.6633 10.7237V9.60512C50.6633 9.57234 50.647 9.55595 50.6143 9.55595H49.2166C48.6281 9.55595 48.1541 9.67887 47.7944 9.92471C47.443 10.1705 47.2673 10.5106 47.2673 10.9449C47.2673 11.3465 47.4062 11.6497 47.6841 11.8545C47.962 12.0594 48.3175 12.1618 48.7507 12.1618Z" fill="#293232"/>
<path d="M55.5951 6.83944C55.5951 6.88041 55.5788 6.91729 55.5461 6.95006C55.5216 6.97465 55.4889 6.98694 55.448 6.98694H54.0381C54.0054 6.98694 53.989 7.00333 53.989 7.03611V10.9081C53.989 11.326 54.083 11.621 54.271 11.7931C54.459 11.957 54.7614 12.0389 55.1783 12.0389H55.4357C55.4766 12.0389 55.5093 12.0553 55.5338 12.0881C55.5665 12.1127 55.5829 12.1455 55.5829 12.1864V12.4691C55.5829 12.5675 55.5338 12.6166 55.4357 12.6166L55.0925 12.6289C54.5285 12.6289 54.0994 12.5183 53.8051 12.2971C53.5109 12.0758 53.3597 11.6702 53.3515 11.0802V7.03611C53.3515 7.00333 53.3352 6.98694 53.3025 6.98694H52.5914C52.5505 6.98694 52.5137 6.97465 52.481 6.95006C52.4565 6.91729 52.4443 6.88041 52.4443 6.83944V6.58131C52.4443 6.54033 52.4565 6.50755 52.481 6.48297C52.5137 6.45019 52.5505 6.4338 52.5914 6.4338H53.3025C53.3352 6.4338 53.3515 6.41741 53.3515 6.38463V5.00794C53.3515 4.96697 53.3638 4.93419 53.3883 4.9096C53.421 4.87682 53.4578 4.86043 53.4986 4.86043H53.8419C53.8828 4.86043 53.9155 4.87682 53.94 4.9096C53.9727 4.93419 53.989 4.96697 53.989 5.00794V6.38463C53.989 6.41741 54.0054 6.4338 54.0381 6.4338H55.448C55.4889 6.4338 55.5216 6.45019 55.5461 6.48297C55.5788 6.50755 55.5951 6.54033 55.5951 6.58131V6.83944Z" fill="#293232"/>
<path d="M59.2696 6.33547C59.9888 6.33547 60.5365 6.52394 60.9124 6.9009C61.2884 7.26965 61.4764 7.76953 61.4764 8.40051V12.4814C61.4764 12.5224 61.4601 12.5593 61.4274 12.5921C61.4029 12.6166 61.3702 12.6289 61.3293 12.6289H60.9737C60.9329 12.6289 60.8961 12.6166 60.8634 12.5921C60.8389 12.5593 60.8266 12.5224 60.8266 12.4814V11.9529C60.8266 11.9365 60.8185 11.9242 60.8021 11.916C60.7939 11.9078 60.7817 11.9119 60.7653 11.9283C60.5528 12.1905 60.2708 12.3913 59.9194 12.5306C59.5679 12.6617 59.1919 12.7273 58.7914 12.7273C58.2193 12.7273 57.7412 12.588 57.357 12.3093C56.9729 12.0225 56.7808 11.58 56.7808 10.9818C56.7808 10.3754 57.0055 9.89603 57.4551 9.54366C57.9046 9.19129 58.5217 9.01511 59.3064 9.01511H60.7776C60.8103 9.01511 60.8266 8.99872 60.8266 8.96594V8.4128C60.8266 7.94571 60.6999 7.58105 60.4466 7.31882C60.1932 7.0484 59.7968 6.91319 59.2573 6.91319C58.8405 6.91319 58.4972 6.99923 58.2275 7.17132C57.9578 7.33521 57.7902 7.56056 57.7248 7.84737C57.7003 7.94571 57.6431 7.98668 57.5532 7.97029L57.1731 7.92113C57.0668 7.90474 57.0219 7.85967 57.0382 7.78591C57.12 7.3516 57.3611 7.00333 57.7616 6.7411C58.1621 6.47068 58.6648 6.33547 59.2696 6.33547ZM58.914 12.1618C59.429 12.1618 59.8744 12.0348 60.2504 11.7808C60.6345 11.5268 60.8266 11.1744 60.8266 10.7237V9.60512C60.8266 9.57234 60.8103 9.55595 60.7776 9.55595H59.3799C58.7914 9.55595 58.3174 9.67887 57.9578 9.92471C57.6063 10.1705 57.4306 10.5106 57.4306 10.9449C57.4306 11.3465 57.5695 11.6497 57.8474 11.8545C58.1253 12.0594 58.4809 12.1618 58.914 12.1618Z" fill="#293232"/>
<path d="M68.8413 4C69.5361 4 70.096 4.21716 70.521 4.65147C70.946 5.07759 71.1585 5.64302 71.1585 6.34776C71.1585 7.0443 70.9419 7.60563 70.5087 8.03175C70.0837 8.45787 69.5197 8.67093 68.8168 8.67093H66.2667C66.234 8.67093 66.2177 8.68732 66.2177 8.7201V12.4814C66.2177 12.5224 66.2013 12.5593 66.1686 12.5921C66.1441 12.6166 66.1114 12.6289 66.0705 12.6289H65.715C65.6741 12.6289 65.6374 12.6166 65.6047 12.5921C65.5801 12.5593 65.5679 12.5224 65.5679 12.4814V4.1475C65.5679 4.10653 65.5801 4.07375 65.6047 4.04917C65.6374 4.01639 65.6741 4 65.715 4H68.8413ZM68.7923 8.1178C69.3072 8.1178 69.72 7.958 70.0306 7.63841C70.3493 7.31063 70.5087 6.88451 70.5087 6.36005C70.5087 5.8274 70.3493 5.40128 70.0306 5.08169C69.72 4.75391 69.3072 4.59001 68.7923 4.59001H66.2667C66.234 4.59001 66.2177 4.6064 66.2177 4.63918V8.06863C66.2177 8.10141 66.234 8.1178 66.2667 8.1178H68.7923Z" fill="#293232"/>
<path d="M72.6442 12.6289C72.6033 12.6289 72.5665 12.6166 72.5338 12.5921C72.5093 12.5593 72.497 12.5224 72.497 12.4814V4.17209C72.497 4.13111 72.5093 4.09834 72.5338 4.07375C72.5665 4.04097 72.6033 4.02458 72.6442 4.02458H72.9997C73.0406 4.02458 73.0733 4.04097 73.0978 4.07375C73.1305 4.09834 73.1468 4.13111 73.1468 4.17209V12.4814C73.1468 12.5224 73.1305 12.5593 73.0978 12.5921C73.0733 12.6166 73.0406 12.6289 72.9997 12.6289H72.6442Z" fill="#293232"/>
<path d="M77.1178 6.33547C77.8371 6.33547 78.3847 6.52394 78.7607 6.9009C79.1367 7.26965 79.3247 7.76953 79.3247 8.40051V12.4814C79.3247 12.5224 79.3083 12.5593 79.2756 12.5921C79.2511 12.6166 79.2184 12.6289 79.1775 12.6289H78.822C78.7811 12.6289 78.7443 12.6166 78.7116 12.5921C78.6871 12.5593 78.6749 12.5224 78.6749 12.4814V11.9529C78.6749 11.9365 78.6667 11.9242 78.6503 11.916C78.6422 11.9078 78.6299 11.9119 78.6136 11.9283C78.4011 12.1905 78.1191 12.3913 77.7676 12.5306C77.4162 12.6617 77.0402 12.7273 76.6397 12.7273C76.0675 12.7273 75.5894 12.588 75.2052 12.3093C74.8211 12.0225 74.629 11.58 74.629 10.9818C74.629 10.3754 74.8538 9.89603 75.3033 9.54366C75.7529 9.19129 76.37 9.01511 77.1546 9.01511H78.6258C78.6585 9.01511 78.6749 8.99872 78.6749 8.96594V8.4128C78.6749 7.94571 78.5482 7.58105 78.2948 7.31882C78.0414 7.0484 77.645 6.91319 77.1056 6.91319C76.6887 6.91319 76.3454 6.99923 76.0757 7.17132C75.806 7.33521 75.6384 7.56056 75.5731 7.84737C75.5485 7.94571 75.4913 7.98668 75.4014 7.97029L75.0213 7.92113C74.9151 7.90474 74.8701 7.85967 74.8865 7.78591C74.9682 7.3516 75.2093 7.00333 75.6098 6.7411C76.0103 6.47068 76.513 6.33547 77.1178 6.33547ZM76.7623 12.1618C77.2772 12.1618 77.7227 12.0348 78.0986 11.7808C78.4828 11.5268 78.6749 11.1744 78.6749 10.7237V9.60512C78.6749 9.57234 78.6585 9.55595 78.6258 9.55595H77.2282C76.6397 9.55595 76.1656 9.67887 75.806 9.92471C75.4545 10.1705 75.2788 10.5106 75.2788 10.9449C75.2788 11.3465 75.4178 11.6497 75.6957 11.8545C75.9735 12.0594 76.3291 12.1618 76.7623 12.1618Z" fill="#293232"/>
<path d="M83.6067 6.83944C83.6067 6.88041 83.5903 6.91729 83.5576 6.95006C83.5331 6.97465 83.5004 6.98694 83.4595 6.98694H82.0496C82.0169 6.98694 82.0006 7.00333 82.0006 7.03611V10.9081C82.0006 11.326 82.0946 11.621 82.2826 11.7931C82.4706 11.957 82.773 12.0389 83.1898 12.0389H83.4473C83.4882 12.0389 83.5209 12.0553 83.5454 12.0881C83.5781 12.1127 83.5944 12.1455 83.5944 12.1864V12.4691C83.5944 12.5675 83.5454 12.6166 83.4473 12.6166L83.104 12.6289C82.54 12.6289 82.1109 12.5183 81.8167 12.2971C81.5224 12.0758 81.3712 11.6702 81.3631 11.0802V7.03611C81.3631 7.00333 81.3467 6.98694 81.314 6.98694H80.6029C80.5621 6.98694 80.5253 6.97465 80.4926 6.95006C80.4681 6.91729 80.4558 6.88041 80.4558 6.83944V6.58131C80.4558 6.54033 80.4681 6.50755 80.4926 6.48297C80.5253 6.45019 80.5621 6.4338 80.6029 6.4338H81.314C81.3467 6.4338 81.3631 6.41741 81.3631 6.38463V5.00794C81.3631 4.96697 81.3753 4.93419 81.3998 4.9096C81.4325 4.87682 81.4693 4.86043 81.5102 4.86043H81.8535C81.8943 4.86043 81.927 4.87682 81.9516 4.9096C81.9842 4.93419 82.0006 4.96697 82.0006 5.00794V6.38463C82.0006 6.41741 82.0169 6.4338 82.0496 6.4338H83.4595C83.5004 6.4338 83.5331 6.45019 83.5576 6.48297C83.5903 6.50755 83.6067 6.54033 83.6067 6.58131V6.83944Z" fill="#293232"/>
<path d="M87.4896 4.6023C87.0073 4.6023 86.6763 4.71703 86.4965 4.94648C86.3248 5.17593 86.239 5.54878 86.239 6.06504V6.38463C86.239 6.41741 86.2554 6.4338 86.2881 6.4338H87.698C87.7388 6.4338 87.7715 6.45019 87.7961 6.48297C87.8288 6.50755 87.8451 6.54033 87.8451 6.58131V6.8886C87.8451 6.92958 87.8288 6.96645 87.7961 6.99923C87.7715 7.02382 87.7388 7.03611 87.698 7.03611H86.2881C86.2554 7.03611 86.239 7.0525 86.239 7.08527V12.4814C86.239 12.5224 86.2227 12.5593 86.19 12.5921C86.1655 12.6166 86.1328 12.6289 86.0919 12.6289H85.7364C85.6955 12.6289 85.6587 12.6166 85.626 12.5921C85.6015 12.5593 85.5892 12.5224 85.5892 12.4814V7.08527C85.5892 7.0525 85.5729 7.03611 85.5402 7.03611H84.7555C84.7147 7.03611 84.6779 7.02382 84.6452 6.99923C84.6207 6.96645 84.6084 6.92958 84.6084 6.8886V6.58131C84.6084 6.54033 84.6207 6.50755 84.6452 6.48297C84.6779 6.45019 84.7147 6.4338 84.7555 6.4338H85.5402C85.5729 6.4338 85.5892 6.41741 85.5892 6.38463V6.04046C85.5892 5.55698 85.6424 5.17183 85.7486 4.88502C85.863 4.59821 86.051 4.38515 86.3126 4.24584C86.5823 4.09834 86.9583 4.02458 87.4405 4.02458H87.7348C87.7756 4.02458 87.8083 4.04097 87.8328 4.07375C87.8655 4.09834 87.8819 4.13111 87.8819 4.17209V4.4548C87.8819 4.49577 87.8655 4.53265 87.8328 4.56543C87.8083 4.59001 87.7756 4.6023 87.7348 4.6023H87.4896Z" fill="#293232"/>
<path d="M90.9247 12.7273C90.3444 12.7273 89.8499 12.5757 89.4412 12.2725C89.0407 11.9693 88.7669 11.5636 88.6198 11.0556C88.5217 10.7278 88.4726 10.2156 88.4726 9.51908C88.4726 8.86351 88.5176 8.35544 88.6075 7.99488C88.7546 7.48681 89.0325 7.08527 89.4412 6.79027C89.8499 6.48707 90.3444 6.33547 90.9247 6.33547C91.4968 6.33547 91.9872 6.48707 92.3959 6.79027C92.8127 7.09347 93.0906 7.49501 93.2296 7.99488C93.3195 8.32266 93.3644 8.83073 93.3644 9.51908C93.3644 10.2156 93.3195 10.7278 93.2296 11.0556C93.0906 11.5636 92.8127 11.9693 92.3959 12.2725C91.9872 12.5757 91.4968 12.7273 90.9247 12.7273ZM90.9247 12.1496C91.3579 12.1496 91.7257 12.0307 92.0281 11.7931C92.3387 11.5554 92.5389 11.2359 92.6288 10.8343C92.6779 10.6049 92.7024 10.1705 92.7024 9.53137C92.7024 8.8758 92.6779 8.44148 92.6288 8.22842C92.5389 7.82689 92.3387 7.5073 92.0281 7.26965C91.7257 7.03201 91.3538 6.91319 90.9124 6.91319C90.471 6.91319 90.0991 7.03201 89.7967 7.26965C89.4943 7.5073 89.2982 7.82689 89.2082 8.22842C89.1592 8.44148 89.1347 8.8758 89.1347 9.53137C89.1347 10.1869 89.1592 10.6213 89.2082 10.8343C89.2982 11.2359 89.4943 11.5554 89.7967 11.7931C90.0991 12.0307 90.4751 12.1496 90.9247 12.1496Z" fill="#293232"/>
<path d="M97.4151 6.38463C97.6685 6.38463 97.9014 6.42971 98.114 6.51985C98.1875 6.55262 98.212 6.61408 98.1875 6.70422L98.0894 7.06069C98.0649 7.15903 98.0036 7.18771 97.9055 7.14673C97.7257 7.08937 97.5296 7.06479 97.3171 7.07298C96.8593 7.08118 96.4793 7.25736 96.1769 7.60154C95.8826 7.93752 95.7355 8.35134 95.7355 8.84302V12.4814C95.7355 12.5224 95.7191 12.5593 95.6865 12.5921C95.6619 12.6166 95.6292 12.6289 95.5884 12.6289H95.2328C95.192 12.6289 95.1552 12.6166 95.1225 12.5921C95.098 12.5593 95.0857 12.5224 95.0857 12.4814V6.58131C95.0857 6.54033 95.098 6.50755 95.1225 6.48297C95.1552 6.45019 95.192 6.4338 95.2328 6.4338H95.5884C95.6292 6.4338 95.6619 6.45019 95.6865 6.48297C95.7191 6.50755 95.7355 6.54033 95.7355 6.58131V7.39257C95.7355 7.41716 95.7396 7.43355 95.7478 7.44174C95.7641 7.44174 95.7764 7.42945 95.7845 7.40487C95.9562 7.08527 96.1769 6.83534 96.4466 6.65506C96.7245 6.47478 97.0473 6.38463 97.4151 6.38463Z" fill="#293232"/>
<path d="M105.417 6.34776C106.014 6.34776 106.492 6.52804 106.852 6.8886C107.211 7.24917 107.391 7.74494 107.391 8.37593V12.4814C107.391 12.5224 107.375 12.5593 107.342 12.5921C107.318 12.6166 107.285 12.6289 107.244 12.6289H106.901C106.86 12.6289 106.823 12.6166 106.791 12.5921C106.766 12.5593 106.754 12.5224 106.754 12.4814V8.49885C106.754 8.01536 106.611 7.63431 106.325 7.3557C106.047 7.06889 105.683 6.92548 105.234 6.92548C104.759 6.92548 104.375 7.06479 104.081 7.34341C103.795 7.62202 103.652 7.99897 103.652 8.47426V12.4814C103.652 12.5224 103.636 12.5593 103.603 12.5921C103.578 12.6166 103.546 12.6289 103.505 12.6289H103.162C103.121 12.6289 103.084 12.6166 103.051 12.5921C103.027 12.5593 103.014 12.5224 103.014 12.4814V8.49885C103.014 8.01536 102.875 7.63431 102.598 7.3557C102.32 7.06889 101.956 6.92548 101.506 6.92548C101.024 6.92548 100.64 7.06479 100.354 7.34341C100.076 7.62202 99.9371 7.99897 99.9371 8.47426V12.4814C99.9371 12.5224 99.9208 12.5593 99.8881 12.5921C99.8636 12.6166 99.8309 12.6289 99.79 12.6289H99.4345C99.3936 12.6289 99.3568 12.6166 99.3241 12.5921C99.2996 12.5593 99.2874 12.5224 99.2874 12.4814V6.58131C99.2874 6.54033 99.2996 6.50755 99.3241 6.48297C99.3568 6.45019 99.3936 6.4338 99.4345 6.4338H99.79C99.8309 6.4338 99.8636 6.45019 99.8881 6.48297C99.9208 6.50755 99.9371 6.54033 99.9371 6.58131V7.10986C99.9371 7.12625 99.9453 7.13854 99.9617 7.14673C99.978 7.15493 99.9903 7.15083 99.9984 7.13444C100.17 6.87221 100.399 6.67554 100.685 6.54443C100.979 6.41332 101.31 6.34776 101.678 6.34776C102.103 6.34776 102.467 6.442 102.769 6.63047C103.08 6.81076 103.313 7.06889 103.468 7.40487C103.484 7.43764 103.505 7.44174 103.529 7.41716C103.701 7.06479 103.95 6.79846 104.277 6.61818C104.604 6.4379 104.984 6.34776 105.417 6.34776Z" fill="#293232"/>
<path d="M15.799 25.0153L17.3671 23.4188C19.3641 21.3856 19.3641 18.0892 17.3671 16.056L16.5383 15.2123C15.0897 13.7374 15.0897 11.3461 16.5383 9.87122C18.8101 7.55839 22.4928 7.55839 24.7645 9.87122L25.3186 10.4353L30.2966 15.5044C32.5636 17.8124 32.5674 21.5503 30.3098 23.8641L28.4632 25.746L25.7626 28.4955L24.0242 30.2653C21.7525 32.5782 18.0697 32.5782 15.798 30.2653C14.3748 28.8154 14.3748 26.4652 15.799 25.0153Z" fill="#004793"/>
<path d="M16.201 16.8787L14.6329 15.2822C12.6358 13.249 12.6358 9.95261 14.6329 7.91942L15.4616 7.07569C16.9102 5.60084 16.9102 3.20948 15.4616 1.73463C13.1899 -0.578208 9.50715 -0.578208 7.23542 1.73463L6.68137 2.29871L1.70333 7.36779C-0.563692 9.67583 -0.567455 13.4137 1.69016 15.7275L3.5367 17.6094L6.23737 20.3589L7.97573 22.1287C10.2475 24.4416 13.9302 24.4416 16.2019 22.1287C17.6252 20.6788 17.6251 18.3277 16.201 16.8787Z" fill="#006FE6"/>
</svg>
