<svg width="104" height="32" viewBox="0 0 104 32" fill="none" xmlns="http://www.w3.org/2000/svg">
<path d="M29.3714 6.11345C29.3347 5.70187 29.293 5.29275 29.2489 4.88852C29.2132 4.5483 29.0656 4.22953 28.8294 3.98215C28.5931 3.73477 28.2814 3.57276 27.9431 3.5215C27.5389 3.46026 27.1322 3.40391 26.7182 3.34756C26.158 3.27407 25.5864 3.20629 25.0033 3.14423C24.7779 3.11973 24.5525 3.09278 24.3247 3.07073C23.5506 2.98743 22.7568 2.91149 21.9337 2.86494C20.062 2.7351 18.1388 2.6665 16.1863 2.6665C14.2338 2.6665 12.3131 2.7351 10.4389 2.86494C9.62803 2.92129 8.82448 2.98743 8.03318 3.06828C7.80534 3.09033 7.57996 3.11728 7.35212 3.14178C6.7813 3.20302 6.21294 3.27162 5.65192 3.34511C5.2428 3.40146 4.83367 3.45781 4.42699 3.51905C4.08954 3.5716 3.77887 3.73407 3.54321 3.98125C3.30754 4.22844 3.16007 4.5465 3.12367 4.88607C3.08202 5.29275 3.04038 5.69942 3.00363 6.111C2.82234 8.05618 2.70965 10.07 2.668 12.1107C2.66696 12.1967 2.69386 12.2807 2.74467 12.35C2.79548 12.4194 2.86744 12.4704 2.94973 12.4953C3.44457 12.6405 3.95785 12.7131 4.47354 12.7109C4.64503 12.7109 4.81407 12.7109 4.98066 12.6864C4.98066 13.0808 4.98066 13.4777 4.98066 13.8746C4.98066 14.2715 4.98066 14.6365 4.98066 15.0162C5.01343 17.7516 5.18678 20.4836 5.50003 23.2012C5.53939 23.5482 5.69529 23.8717 5.94225 24.1186C6.18922 24.3656 6.51266 24.5215 6.8597 24.5609C9.9558 24.9162 13.0699 25.092 16.1863 25.0876C17.0707 25.0876 17.9894 25.0729 18.9252 25.041C20.5421 26.4668 22.1272 27.7971 23.6437 28.9975C23.9161 29.214 24.2536 29.3323 24.6015 29.3332C24.7872 29.333 24.9714 29.2998 25.1454 29.2352C25.3949 29.1438 25.6164 28.9892 25.7882 28.7865C25.96 28.5838 26.0762 28.34 26.1254 28.0788C26.4071 26.6089 26.6447 25.0802 26.8358 23.5099C27.1717 20.6905 27.3573 17.8553 27.3919 15.0162C27.3919 14.6365 27.3919 14.2568 27.3919 13.8746C27.3919 13.4924 27.3919 13.0808 27.3919 12.6864C27.5585 12.7011 27.7276 12.7109 27.8991 12.7109C28.4151 12.7106 28.9284 12.6355 29.4229 12.488C29.5051 12.463 29.5771 12.412 29.6279 12.3427C29.6787 12.2733 29.7056 12.1893 29.7046 12.1033C29.6654 10.07 29.5527 8.05618 29.3714 6.11345ZM7.73675 5.43239C8.22672 5.38176 8.71669 5.3344 9.20666 5.2903C11.4605 5.09431 13.8001 4.99142 16.1887 4.99142C18.6386 4.99142 20.9709 5.09676 23.1733 5.2903C23.6633 5.3344 24.1532 5.38094 24.6432 5.43239C25.4516 5.51813 26.2405 5.61858 27.0073 5.72882C27.2327 7.97534 27.3674 10.3101 27.3993 12.6938C27.3037 12.6938 27.2106 12.6717 27.1151 12.657L27.0294 12.6423L26.8285 12.6031L26.7378 12.5835L26.5247 12.5296L26.4585 12.5125C26.3654 12.4855 26.2748 12.4561 26.1817 12.4243H26.1597C26.0764 12.3949 25.9931 12.363 25.9147 12.3287L25.851 12.3018C25.7799 12.2724 25.7089 12.2405 25.6403 12.2062L25.5839 12.1793C25.4057 12.0897 25.2324 11.9907 25.0646 11.8829C24.9739 11.8216 24.8833 11.7604 24.7951 11.6942L24.7608 11.6697C24.6701 11.6011 24.5819 11.5276 24.4962 11.4541C24.4178 11.3831 24.3394 11.312 24.2512 11.2361C24.2316 11.2189 24.2145 11.1993 24.1973 11.1822C24.1189 11.1038 24.0454 11.0254 23.9719 10.9372C23.8321 10.7755 23.6601 10.6447 23.4669 10.5532C23.2737 10.4617 23.0636 10.4114 22.8499 10.4056C22.7054 10.4014 22.561 10.4179 22.4212 10.4546C22.1442 10.5222 21.8915 10.6655 21.6912 10.8683C21.4909 11.0712 21.3509 11.3258 21.2869 11.6036C21.0276 12.7619 20.3815 13.7973 19.455 14.5393C18.5285 15.2813 17.3769 15.6856 16.19 15.6856C15.003 15.6856 13.8514 15.2813 12.9249 14.5393C11.9985 13.7973 11.3524 12.7619 11.093 11.6036C11.0312 11.3243 10.8927 11.0677 10.6932 10.8626C10.4938 10.6575 10.2412 10.512 9.96366 10.4423C9.83818 10.4091 9.70885 10.3926 9.57904 10.3933C9.35831 10.3934 9.14019 10.441 8.93942 10.5327C8.73865 10.6244 8.55993 10.7582 8.41536 10.925C8.34186 11.0083 8.26592 11.0867 8.18997 11.1699L8.13607 11.2238C8.06013 11.2998 7.98173 11.3733 7.89109 11.4419C7.80534 11.5154 7.7147 11.5889 7.62405 11.6575L7.59221 11.682C7.50401 11.7481 7.41337 11.8118 7.32027 11.8706C7.15302 11.9794 6.9796 12.0783 6.8009 12.167L6.74456 12.194C6.67596 12.2283 6.60491 12.2601 6.53387 12.2895L6.47017 12.3165C6.38933 12.3508 6.30603 12.3826 6.22519 12.412H6.20314C6.11004 12.4447 6.01695 12.4741 5.92385 12.5002L5.86016 12.5174L5.64702 12.5713L5.55638 12.5909L5.35304 12.6301L5.26974 12.6448C5.1742 12.6595 5.0811 12.6717 4.98556 12.6815C5.01741 10.2954 5.1497 7.96309 5.37509 5.71412C6.14761 5.61123 6.93483 5.51732 7.73675 5.43239ZM24.5305 23.2453C24.4007 24.311 24.2488 25.3595 24.0748 26.3786C22.8303 25.3571 21.5319 24.262 20.2335 23.1032C19.9512 22.8528 19.5867 22.715 19.2094 22.7161H19.1506C18.1388 22.7529 17.1417 22.77 16.1863 22.77C13.3655 22.7742 10.5465 22.6262 7.74165 22.3266C7.46366 19.7224 7.31648 17.106 7.30067 14.4871L7.35702 14.4626C7.50156 14.4038 7.6461 14.3401 7.78574 14.2715L7.85189 14.2372C7.99888 14.1637 8.14342 14.082 8.28551 13.9922L8.32961 13.9677C8.4766 13.8795 8.62359 13.7864 8.76569 13.6884L8.79263 13.6908C8.93963 13.588 9.08417 13.4802 9.22626 13.365C9.80298 14.7388 10.771 15.9126 12.0099 16.7402C13.2488 17.5679 14.7038 18.0129 16.1936 18.0197C17.684 18.0133 19.1394 17.5686 20.3788 16.7409C21.6182 15.9132 22.5866 14.7392 23.1635 13.365C23.3031 13.4802 23.4477 13.588 23.5971 13.6908L23.6167 13.7055C23.7588 13.8035 23.9033 13.8966 24.0528 13.9848L24.0969 14.0093C24.2365 14.0926 24.3811 14.171 24.5281 14.2543L24.5966 14.2886C24.7355 14.3572 24.8776 14.4209 25.0229 14.4797L25.0793 14.5042C25.0606 17.4259 24.8774 20.3442 24.5305 23.2453Z" fill="#006FE6"/>
<path d="M53.6608 10.9114C53.5091 11.4708 53.2642 12.0006 52.9365 12.4785L53.7562 13.2982L52.6796 14.384L51.8461 13.5566C51.0351 14.1072 50.0709 14.3829 48.9533 14.384C48.0276 14.4071 47.1134 14.1746 46.3113 13.7119C45.5659 13.2626 44.9695 12.6036 44.5965 11.8172C44.1848 10.9334 43.9812 9.96697 44.0014 8.99215C43.9812 8.01734 44.1848 7.05088 44.5965 6.16706C44.9691 5.38086 45.5657 4.72225 46.3113 4.27393C47.1131 3.81054 48.0275 3.57795 48.9533 3.60187C49.8812 3.57721 50.7978 3.80981 51.6016 4.27393C52.3475 4.72182 52.9442 5.38055 53.3163 6.16706C53.7293 7.05051 53.9335 8.01715 53.913 8.99215C53.9191 9.64056 53.8342 10.2866 53.6608 10.9114ZM50.6204 12.3355L49.7223 11.4435L50.808 10.3578L51.6339 11.1852C51.949 10.4981 52.1016 9.74771 52.0799 8.99215C52.096 8.30871 51.9752 7.62895 51.7246 6.99291C51.5104 6.46063 51.1378 6.007 50.6573 5.69339C50.1326 5.37211 49.5252 5.2117 48.9103 5.23203C48.3076 5.2114 47.713 5.37561 47.2063 5.70262C46.7353 6.02755 46.3739 6.48761 46.1698 7.02213C45.9288 7.66048 45.8129 8.33923 45.8284 9.02137C45.8125 9.69994 45.9338 10.3747 46.1852 11.0052C46.3981 11.537 46.7697 11.9902 47.2494 12.3032C47.7727 12.6238 48.3784 12.7842 48.9918 12.7646C49.5638 12.7739 50.1273 12.6255 50.6204 12.3355Z" fill="#006FE6"/>
<path d="M57.3779 5.23203H55.6447V3.63725H57.3779V5.23203ZM57.3779 14.3947H55.6447V6.4039H57.3779V14.3947Z" fill="#006FE6"/>
<path d="M60.9427 13.8626C60.3614 13.5184 59.8911 13.0145 59.5878 12.4109C59.2602 11.751 59.0962 11.0221 59.1095 10.2855C59.0958 9.54607 59.2627 8.81444 59.5955 8.154C59.901 7.55147 60.3735 7.04962 60.9565 6.70839C61.5771 6.36891 62.273 6.19098 62.9804 6.19098C63.6877 6.19098 64.3837 6.36891 65.0042 6.70839C65.5857 7.05336 66.0568 7.55697 66.3622 8.16015C66.692 8.81874 66.8572 9.54752 66.8435 10.284C66.8578 11.0233 66.6915 11.7549 66.3591 12.4155C66.0525 13.0195 65.5784 13.5225 64.9935 13.8642C64.3729 14.2051 63.6762 14.3839 62.9681 14.3839C62.26 14.3839 61.5633 14.2051 60.9427 13.8642V13.8626ZM64.4906 12.091C64.8381 11.645 65.0119 11.0432 65.0119 10.2855C65.0119 9.52784 64.8381 8.92448 64.4906 8.47542C64.143 8.03353 63.636 7.8131 62.9696 7.81413C62.3032 7.81516 61.7967 8.03661 61.4502 8.47849C61.1119 8.92141 60.9427 9.52374 60.9427 10.2855C60.9427 11.0473 61.1165 11.6527 61.464 12.1017C61.8116 12.5395 62.3135 12.7584 62.9696 12.7584C63.6258 12.7584 64.1328 12.5359 64.4906 12.091Z" fill="#006FE6"/>
<path d="M69.4518 13.7365C69.1555 13.5236 68.9058 13.2524 68.7181 12.9396C68.5303 12.6267 68.4084 12.2788 68.3599 11.9172L70.1269 11.645C70.2011 12.0148 70.4169 12.341 70.7283 12.5539C71.0785 12.7828 71.4912 12.8973 71.9093 12.8815C72.2487 12.901 72.5857 12.8145 72.8736 12.6339C72.9833 12.5585 73.0724 12.4567 73.1326 12.338C73.1928 12.2192 73.2222 12.0872 73.2181 11.9541C73.2272 11.7984 73.179 11.6447 73.0828 11.522C72.931 11.3872 72.7514 11.2874 72.5568 11.2298C72.2923 11.1273 71.8524 10.995 71.2373 10.833C70.6997 10.7042 70.1778 10.517 69.681 10.2748C69.3483 10.1184 69.064 9.87501 68.8582 9.57041C68.6817 9.26926 68.5943 8.92424 68.606 8.5754C68.5969 8.12698 68.7287 7.687 68.9828 7.31741C69.2547 6.94253 69.6282 6.65331 70.0593 6.48388C70.5696 6.27801 71.1162 6.17757 71.6664 6.1886C72.2136 6.1795 72.7575 6.27503 73.2688 6.47003C73.7102 6.63675 74.1022 6.91237 74.4084 7.27127C74.6968 7.61569 74.8799 8.03587 74.9359 8.48159L73.1673 8.79839C73.148 8.6431 73.0971 8.49341 73.0177 8.35853C72.9384 8.22365 72.8323 8.10643 72.706 8.01407C72.4085 7.81154 72.0585 7.69987 71.6987 7.69265C71.3591 7.66004 71.0173 7.72626 70.7144 7.88335C70.6004 7.9402 70.5049 8.02812 70.4387 8.13697C70.3726 8.24582 70.3386 8.37116 70.3407 8.4985C70.3379 8.57025 70.3502 8.64179 70.3766 8.70853C70.4031 8.77527 70.4433 8.83573 70.4945 8.88605C70.6699 9.02704 70.8718 9.13161 71.0881 9.19362C71.3803 9.29615 71.8381 9.42687 72.4614 9.58578C72.9787 9.70751 73.4795 9.8908 73.9532 10.1317C74.2795 10.2958 74.5549 10.5457 74.7498 10.8545C74.9245 11.1692 75.0106 11.5253 74.999 11.8849C75.0109 12.3607 74.8767 12.8287 74.6145 13.226C74.3387 13.6173 73.9535 13.9185 73.5072 14.0918C72.9616 14.3069 72.3788 14.4114 71.7925 14.3994C70.8318 14.3891 70.0516 14.1682 69.4518 13.7365Z" fill="#006FE6"/>
<path d="M46.5455 26.4004C48.3182 26.4004 49.3693 25.3038 49.3693 23.4856C49.3693 21.6731 48.3182 20.5822 46.5852 20.5822H44.5739V26.4004H46.5455ZM45.6278 25.4885V21.4941H46.5256C47.7074 21.4941 48.3239 22.1532 48.3239 23.4856C48.3239 24.8237 47.7074 25.4885 46.4943 25.4885H45.6278ZM52.2287 26.4856C53.5071 26.4856 54.3196 25.585 54.3196 24.2356C54.3196 22.8833 53.5071 21.9799 52.2287 21.9799C50.9503 21.9799 50.1378 22.8833 50.1378 24.2356C50.1378 25.585 50.9503 26.4856 52.2287 26.4856ZM52.2344 25.6618C51.527 25.6618 51.1804 25.0311 51.1804 24.2328C51.1804 23.4345 51.527 22.7953 52.2344 22.7953C52.9304 22.7953 53.277 23.4345 53.277 24.2328C53.277 25.0311 52.9304 25.6618 52.2344 25.6618ZM57.0959 26.4856C58.1925 26.4856 58.8913 25.835 58.9652 24.9089H57.9822C57.8942 25.3777 57.5561 25.6475 57.1044 25.6475C56.4624 25.6475 56.0476 25.1106 56.0476 24.2186C56.0476 23.3379 56.4709 22.8095 57.1044 22.8095C57.5987 22.8095 57.9027 23.1277 57.9822 23.5481H58.9652C58.8942 22.6021 58.1555 21.9799 57.0902 21.9799C55.8118 21.9799 55.005 22.9032 55.005 24.2356C55.005 25.5566 55.7919 26.4856 57.0959 26.4856ZM62.5909 24.5652C62.5909 25.2299 62.1165 25.5595 61.6619 25.5595C61.1676 25.5595 60.8381 25.21 60.8381 24.6561V22.0368H59.8097V24.8152C59.8097 25.8635 60.4062 26.4572 61.2642 26.4572C61.9176 26.4572 62.3778 26.1135 62.5767 25.6248H62.6222V26.4004H63.6193V22.0368H62.5909V24.5652ZM64.6768 26.4004H65.7053V23.747C65.7053 23.21 66.0632 22.8464 66.5064 22.8464C66.9411 22.8464 67.2393 23.139 67.2393 23.5879V26.4004H68.2479V23.6788C68.2479 23.1873 68.5405 22.8464 69.0376 22.8464C69.4524 22.8464 69.782 23.0907 69.782 23.6305V26.4004H70.8132V23.4714C70.8132 22.497 70.2507 21.9799 69.4496 21.9799C68.8161 21.9799 68.3331 22.2924 68.1399 22.7782H68.0945C67.9268 22.2839 67.5036 21.9799 66.9155 21.9799C66.3303 21.9799 65.8928 22.2811 65.7109 22.7782H65.6598V22.0368H64.6768V26.4004ZM73.7884 26.4856C74.8054 26.4856 75.5043 25.9885 75.6861 25.2299L74.7259 25.122C74.5866 25.4913 74.2457 25.6845 73.8026 25.6845C73.1378 25.6845 72.6974 25.247 72.6889 24.4998H75.7287V24.1845C75.7287 22.6532 74.8082 21.9799 73.7344 21.9799C72.4844 21.9799 71.669 22.8975 71.669 24.2441C71.669 25.6135 72.473 26.4856 73.7884 26.4856ZM72.6918 23.8066C72.723 23.2498 73.1349 22.7811 73.7486 22.7811C74.3395 22.7811 74.7372 23.2129 74.7429 23.8066H72.6918ZM77.6271 23.8436C77.6271 23.2129 78.0078 22.8493 78.5504 22.8493C79.0817 22.8493 79.3999 23.1987 79.3999 23.7811V26.4004H80.4283V23.622C80.4311 22.5765 79.8345 21.9799 78.9339 21.9799C78.2805 21.9799 77.8317 22.2924 77.6328 22.7782H77.5817V22.0368H76.5987V26.4004H77.6271V23.8436ZM83.6527 22.0368H82.7919V20.9913H81.7635V22.0368H81.1442V22.8322H81.7635V25.2583C81.7578 26.0794 82.3544 26.4828 83.1271 26.46C83.4197 26.4515 83.6214 26.3947 83.7322 26.3578L83.5589 25.5538C83.5021 25.568 83.3857 25.5936 83.2578 25.5936C82.9993 25.5936 82.7919 25.5027 82.7919 25.0879V22.8322H83.6527V22.0368ZM85.7685 26.4885C86.4531 26.4885 86.8622 26.1674 87.0497 25.801H87.0838V26.4004H88.0724V23.4799C88.0724 22.3265 87.1321 21.9799 86.2997 21.9799C85.3821 21.9799 84.6776 22.389 84.4503 23.1845L85.4105 23.3208C85.5128 23.0225 85.8026 22.7669 86.3054 22.7669C86.7827 22.7669 87.044 23.0112 87.044 23.4402V23.4572C87.044 23.7527 86.7344 23.7669 85.9645 23.8493C85.1179 23.9402 84.3082 24.193 84.3082 25.176C84.3082 26.0339 84.9361 26.4885 85.7685 26.4885ZM86.0355 25.7328C85.6065 25.7328 85.2997 25.5368 85.2997 25.1589C85.2997 24.764 85.6435 24.5993 86.1037 24.5339C86.3736 24.497 86.9134 24.4288 87.0469 24.3208V24.835C87.0469 25.3208 86.6548 25.7328 86.0355 25.7328ZM91.2855 22.0368H90.4247V20.9913H89.3963V22.0368H88.777V22.8322H89.3963V25.2583C89.3906 26.0794 89.9872 26.4828 90.7599 26.46C91.0526 26.4515 91.2543 26.3947 91.3651 26.3578L91.1918 25.5538C91.1349 25.568 91.0185 25.5936 90.8906 25.5936C90.6321 25.5936 90.4247 25.5027 90.4247 25.0879V22.8322H91.2855V22.0368ZM92.1456 26.4004H93.174V22.0368H92.1456V26.4004ZM92.6626 21.4174C92.9893 21.4174 93.2564 21.1674 93.2564 20.8606C93.2564 20.551 92.9893 20.301 92.6626 20.301C92.3331 20.301 92.0661 20.551 92.0661 20.8606C92.0661 21.1674 92.3331 21.4174 92.6626 21.4174ZM96.1349 26.4856C97.4134 26.4856 98.2259 25.585 98.2259 24.2356C98.2259 22.8833 97.4134 21.9799 96.1349 21.9799C94.8565 21.9799 94.044 22.8833 94.044 24.2356C94.044 25.585 94.8565 26.4856 96.1349 26.4856ZM96.1406 25.6618C95.4332 25.6618 95.0866 25.0311 95.0866 24.2328C95.0866 23.4345 95.4332 22.7953 96.1406 22.7953C96.8366 22.7953 97.1832 23.4345 97.1832 24.2328C97.1832 25.0311 96.8366 25.6618 96.1406 25.6618ZM100.127 23.8436C100.127 23.2129 100.508 22.8493 101.05 22.8493C101.582 22.8493 101.9 23.1987 101.9 23.7811V26.4004H102.928V23.622C102.931 22.5765 102.335 21.9799 101.434 21.9799C100.781 21.9799 100.332 22.2924 100.133 22.7782H100.082V22.0368H99.0987V26.4004H100.127V23.8436Z" fill="#313F4E"/>
</svg>
