<svg width="16px" height="13px" viewBox="0 0 16 13" version="1.1" xmlns="http://www.w3.org/2000/svg">
  <g stroke="none" stroke-width="1" fill="#293232" fill-rule="evenodd">
    <path d="M16,1.53896714 C15.4121031,1.8 14.7791278,1.97652582 14.1151611,2.05539906 C14.7932148,1.64976526 15.3134942,1.00657277 15.5586077,0.240375587 C14.9237542,0.615962441 14.2222222,0.889201878 13.4727945,1.03568075 C12.8755063,0.398122066 12.0218348,0 11.0770676,0 C9.26548101,0 7.79573869,1.46948357 7.79573869,3.28169014 C7.79573869,3.53896714 7.82391266,3.78873239 7.88026061,4.02910798 C5.15208077,3.89201878 2.73381464,2.58685446 1.11381112,0.599061033 C0.831132242,1.08544601 0.669601456,1.64976526 0.669601456,2.25070423 C0.669601456,3.38873239 1.24904619,4.39342723 2.12995246,4.98215962 C1.59276868,4.96619718 1.08563714,4.81690141 0.642366614,4.57276995 L0.642366614,4.61314554 C0.642366614,6.20375587 1.77402125,7.53051643 3.27663321,7.83098592 C3.00146739,7.90798122 2.71127546,7.94647887 2.4116922,7.94647887 C2.20038739,7.94647887 1.99377825,7.92676056 1.79374303,7.88826291 C2.21165698,9.1915493 3.42313788,10.1408451 4.86001057,10.1661972 C3.73680812,11.0469484 2.32059635,11.571831 0.783236485,11.571831 C0.518401127,11.571831 0.256383166,11.5568075 0,11.5267606 C1.45283794,12.456338 3.17896343,13 5.03187181,13 C11.0704936,13 14.3715443,8 14.3715443,3.6629108 C14.3715443,3.52018779 14.3687269,3.37746479 14.3630921,3.23755869 C15.0045196,2.77464789 15.5614251,2.1971831 16,1.53896714" id="Twitter"></path>
  </g>
</svg>
