<svg width="16px" height="16px" viewBox="0 0 16 16" version="1.1" xmlns="http://www.w3.org/2000/svg">
  <g stroke="none" stroke-width="1" fill="#293232" fill-rule="evenodd">
    <path d="M15.3704532,4.88585919 C15.1710749,4.41162677 14.9219611,3.95440912 14.6331461,3.52729454 C14.3478213,3.10410645 14.018869,2.70534984 13.6576321,2.344113 C13.2950864,1.9820036 12.8972024,1.65348748 12.4731417,1.36772645 C12.0460272,1.07803894 11.5888095,0.830233953 11.1145771,0.629110542 C10.6307466,0.425805748 10.124666,0.267873698 9.61116868,0.163603643 C9.08414681,0.0554071004 8.54229154,0 8.00043628,0 C7.45770846,0 6.91585319,0.0554071004 6.38883132,0.163603643 C5.87489775,0.267873698 5.36881715,0.425805748 4.88542292,0.629110542 C4.41119049,0.830233953 3.95397284,1.07803894 3.52598571,1.36772645 C3.10236135,1.65348748 2.70447729,1.9820036 2.34236789,2.344113 C1.98113105,2.70534984 1.65261493,3.10410645 1.3668539,3.52729454 C1.07803894,3.95440912 0.828488848,4.41162677 0.629110542,4.88585919 C0.424060642,5.36925342 0.267001145,5.87620658 0.161422261,6.39014015 C0.0545345476,6.91585319 0,7.45770846 0,7.99956372 C0,8.54316409 0.0545345476,9.08501936 0.161422261,9.61160495 C0.267001145,10.1255385 0.424060642,10.6316191 0.629110542,11.1141408 C0.828488848,11.5883732 1.07803894,12.047336 1.3668539,12.4744506 C1.65261493,12.8976387 1.98113105,13.2946502 2.34236789,13.6576321 C2.70447729,14.018869 3.10236135,14.3465125 3.52598571,14.6331461 C3.95397284,14.9219611 4.41119049,15.1702023 4.88542292,15.3708895 C5.36881715,15.5759394 5.87489775,15.7321263 6.38883132,15.8363964 C6.91585319,15.9454655 7.45770846,16 8.00043628,16 C8.54229154,16 9.08414681,15.9454655 9.61116868,15.8363964 C10.124666,15.7321263 10.6307466,15.5759394 11.1145771,15.3708895 C11.5888095,15.1702023 12.0460272,14.9219611 12.4731417,14.6331461 C12.8972024,14.3465125 13.2950864,14.018869 13.6576321,13.6576321 C14.018869,13.2946502 14.3478213,12.8976387 14.6331461,12.4744506 C14.9219611,12.047336 15.1710749,11.5883732 15.3704532,11.1141408 C15.5746305,10.6316191 15.7329989,10.1255385 15.8381415,9.61160495 C15.9454655,9.08501936 16,8.54316409 16,7.99956372 C16,7.45770846 15.9454655,6.91585319 15.8381415,6.39014015 C15.7329989,5.87620658 15.5746305,5.36925342 15.3704532,4.88585919 L15.3704532,4.88585919 Z M8.00043628,1.16791187 C9.72939957,1.16791187 11.3091564,1.81360092 12.5124066,2.87375252 C12.4953918,2.89905655 11.5229318,4.38065114 8.94322954,5.34656705 C7.77531766,3.20095981 6.49222883,1.49642799 6.38970388,1.36118231 C6.90625511,1.23597099 7.44549272,1.16791187 8.00043628,1.16791187 L8.00043628,1.16791187 Z M6.36352729,1.36641763 C6.36352729,1.36772645 6.36221847,1.36859901 6.36221847,1.36859901 C6.36221847,1.36859901 6.35392921,1.37034411 6.34171348,1.37208922 C6.34913017,1.37034411 6.35567432,1.36947156 6.36352729,1.36641763 L6.36352729,1.36641763 Z M5.08480122,1.82189017 C5.17598299,1.943175 6.43943938,3.65643235 7.62218465,5.75797568 C4.34138627,6.62965589 1.49381033,6.59519005 1.31406446,6.59213612 C1.75732126,4.47575939 3.17870971,2.72105579 5.08480122,1.82189017 L5.08480122,1.82189017 Z M2.91825271,12.5656323 C1.82974314,11.3549654 1.1674756,9.7547036 1.1674756,7.99956372 C1.1674756,7.92714184 1.17096581,7.85559252 1.17314719,7.78404319 C1.29443202,7.78709713 4.66990238,7.86300922 8.18759884,6.81027431 C8.38348694,7.19332497 8.57064951,7.58379233 8.74166985,7.97207831 C8.65136064,7.99650979 8.56192398,8.0239952 8.47248732,8.05409827 C4.78551562,9.24513279 2.91519878,12.5617058 2.91519878,12.5617058 C2.91519878,12.5617058 2.91825271,12.5647598 2.91825271,12.5656323 L2.91825271,12.5656323 Z M8.00043628,14.8325244 C6.38664994,14.8325244 4.90461908,14.2719093 3.7349621,13.3360964 C3.71053062,13.3169003 3.68173638,13.2946502 3.64727055,13.2662922 C3.68173638,13.2946502 3.71053062,13.3169003 3.7349621,13.3360964 C3.77466325,13.3666358 3.80040356,13.3858319 3.80040356,13.3858319 C3.80040356,13.3858319 5.11010525,10.5299667 9.16224028,9.11774009 C9.17750995,9.11250477 9.1932159,9.10857828 9.20848558,9.10377924 C10.1696024,11.6014615 10.5661777,13.6934068 10.6673938,14.2906691 C9.84806675,14.6388177 8.94584719,14.8325244 8.00043628,14.8325244 L8.00043628,14.8325244 Z M11.8182909,13.6663576 C11.7484867,13.2540765 11.3841959,11.2485139 10.4876479,8.78660632 C12.6938976,8.434095 14.6047881,9.03877406 14.7461417,9.08501936 C14.442057,10.9889295 13.3518024,12.6306375 11.8182909,13.6663576 L11.8182909,13.6663576 Z M10.0718765,7.70769482 C10.0230136,7.59120903 9.97502318,7.47341441 9.92441512,7.35605606 C9.78218902,7.0209958 9.62905601,6.68986203 9.46981513,6.36439985 C12.1681845,5.26280199 13.2632383,3.67999127 13.2763266,3.66079511 C14.2339532,4.8247805 14.8146371,6.31073785 14.8307793,7.93194088 C14.7317446,7.91012707 12.4194797,7.41233571 10.0718765,7.70769482 L10.0718765,7.70769482 Z" id="Dribbble"></path>
  </g>
</svg>
