<svg width="16px" height="16px" viewBox="0 0 16 16" version="1.1" xmlns="http://www.w3.org/2000/svg">
  <g stroke="none" stroke-width="1" fill="none" fill-rule="evenodd">
    <rect class="square" fill="#293232" x="0" y="0" width="16" height="16" rx="1"></rect>
    <path class="shape" fill="#fff" d="M3.25223424,6.20655654 L5.20131703,6.20655654 L5.20131703,12.9993597 L3.25223424,12.9993597 L3.25223424,6.20655654 Z M4.17709313,5.35689589 L4.16298213,5.35689589 C3.4574318,5.35689589 3,4.83762326 3,4.18004866 C3,3.50902804 3.47095484,3 4.19061618,3 C4.90968956,3 5.35183443,3.50774747 5.36594544,4.1781278 C5.36594544,4.83570239 4.90968956,5.35689589 4.17709313,5.35689589 L4.17709313,5.35689589 Z M13,13 L10.7898636,13 L10.7898636,9.48418491 C10.7898636,8.56409271 10.4441439,7.9366116 9.68391345,7.9366116 C9.10242239,7.9366116 8.77904516,8.35984121 8.62852775,8.76898451 C8.57208373,8.91496991 8.5809031,9.11922141 8.5809031,9.3241132 L8.5809031,13 L6.39134525,13 C6.39134525,13 6.41956726,6.77257011 6.39134525,6.20655654 L8.5809031,6.20655654 L8.5809031,7.27263414 C8.710254,6.80650531 9.40992474,6.14124728 10.5264581,6.14124728 C11.9116886,6.14124728 13,7.1189653 13,9.22230759 L13,13 L13,13 Z"></path>
  </g>
</svg>
