<svg width="16px" height="16px" viewBox="0 0 16 16" version="1.1" xmlns="http://www.w3.org/2000/svg">
  <g stroke="none" stroke-width="1" fill="none" fill-rule="evenodd">
    <rect fill="#293232" x="0" y="0" width="16" height="16"></rect>
    <path fill="#fff" d="M3.81818095,5.35103634 C3.83153541,5.21908982 3.78121846,5.08867536 3.68269291,4.99987036 L2.67907778,3.79085606 L2.67907778,3.61025641 L5.79530274,3.61025641 L8.20397903,8.89279606 L10.321607,3.61025641 L13.2923077,3.61025641 L13.2923077,3.79085606 L12.4342168,4.61358778 C12.3602399,4.66997725 12.3235436,4.76265733 12.3388734,4.85438731 L12.3388734,10.8994589 C12.3235436,10.9911888 12.3602399,11.0838689 12.4342168,11.1402584 L13.2722354,11.9629901 L13.2722354,12.1435897 L9.0570519,12.1435897 L9.0570519,11.9629901 L9.92517899,11.1201918 C10.0104862,11.0349086 10.0104862,11.0098253 10.0104862,10.8793922 L10.0104862,5.99316843 L7.59679188,12.1235231 L7.27061697,12.1235231 L4.46049462,5.99316843 L4.46049462,10.1018104 C4.43706485,10.2745493 4.49443445,10.4484595 4.61605497,10.5733762 L5.74512198,11.9429235 L5.74512198,12.1235231 L2.54358974,12.1235231 L2.54358974,11.9429235 L3.67265675,10.5733762 C3.79339176,10.4482524 3.84741611,10.2731885 3.81818095,10.1018104 L3.81818095,5.35103634 Z"></path>
  </g>
</svg>
