<svg xmlns="http://www.w3.org/2000/svg" width="98" height="56" viewBox="0 0 98 56">
    <defs>
        <linearGradient id="a" x1="50%" x2="50%" y1="0%" y2="100%">
            <stop offset="0%" stop-color="#00CCE9"/>
            <stop offset="39.017%" stop-color="#1D6DCC"/>
            <stop offset="100%" stop-color="#04A"/>
        </linearGradient>
        <linearGradient id="b" x1="50%" x2="50%" y1="0%" y2="100%">
            <stop offset="0%" stop-color="#2A90FF"/>
            <stop offset="33.333%" stop-color="#1D6DCC"/>
            <stop offset="100%" stop-color="#04A"/>
        </linearGradient>
        <linearGradient id="c" x1="4.561%" x2="83.221%" y1="47.147%" y2="47.147%">
            <stop offset="0%" stop-color="#003CC1"/>
            <stop offset="100%" stop-color="#001B8A"/>
        </linearGradient>
    </defs>
    <g fill="none" fill-rule="evenodd">
        <g fill="#2053AE" fill-rule="nonzero">
            <path d="M45.018 27.413c0-.23.122-.355.346-.355h.184c.224 0 .346.125.346.355v6.16h2.653l3.937-6.285a.428.428 0 0 1 .407-.23h.286c.287 0 .388.188.246.439L49.3 33.949v.043l4.407 7.267c.163.23.061.417-.224.417h-.307a.428.428 0 0 1-.408-.23l-4.222-7.037h-2.653v6.912c0 .23-.122.355-.347.355h-.183c-.224 0-.346-.125-.346-.355V27.413zM61.481 35.306h.674v-.355c0-2.318-1.163-3.112-2.795-3.112a4.874 4.874 0 0 0-2.631.794c-.185.125-.347.105-.49-.083l-.082-.125c-.143-.189-.123-.376.062-.501.468-.335 1.57-.94 3.182-.94 2.346 0 3.61 1.337 3.61 3.947v6.39c0 .23-.122.355-.346.355H62.5c-.224 0-.346-.125-.346-.355v-1.023c0-.565.082-.94.082-.94h-.041c.02 0-.918 2.568-3.57 2.568-1.653 0-3.469-.94-3.469-3.027 0-3.55 4.508-3.593 6.324-3.593zm-2.814 5.806c2.223 0 3.488-2.36 3.488-4.427v-.564h-.652c-1.735 0-5.448 0-5.448 2.715 0 1.107.877 2.276 2.612 2.276zM66.5 32.09h-1c-.224 0-.346-.124-.346-.354v-.084c0-.23.122-.355.347-.355h1v-2.61c0-.23.122-.355.346-.355h.164c.224 0 .346.125.346.355v2.61h2.326c.225 0 .347.125.347.355v.084c0 .23-.122.355-.347.355h-2.326v5.743c0 2.798 1.653 3.069 2.49 3.11.305.022.407.126.407.356v.104c0 .21-.08.355-.346.355-2.407 0-3.407-1.566-3.407-3.863v-5.805zM77.72 35.306h.674v-.355c0-2.318-1.162-3.112-2.795-3.112a4.874 4.874 0 0 0-2.631.794c-.185.125-.347.105-.49-.083l-.081-.125c-.144-.189-.124-.376.06-.501.47-.335 1.57-.94 3.183-.94 2.346 0 3.61 1.337 3.61 3.947v6.39c0 .23-.122.355-.346.355h-.164c-.224 0-.346-.125-.346-.355v-1.023c0-.565.082-.94.082-.94h-.041c.02 0-.918 2.568-3.57 2.568-1.653 0-3.469-.94-3.469-3.027 0-3.55 4.509-3.593 6.324-3.593zm-2.814 5.806c2.223 0 3.488-2.36 3.488-4.427v-.564h-.652c-1.735 0-5.447 0-5.447 2.715 0 1.107.876 2.276 2.61 2.276zM82.352 40.715c0-.23.122-.355.347-.355h.55c.225 0 .347.125.347.355v.606c0 .23-.122.355-.346.355h-.551c-.225 0-.347-.125-.347-.355v-.606zM92.246 35.306h.673v-.355c0-2.318-1.162-3.112-2.794-3.112a4.874 4.874 0 0 0-2.631.794c-.185.125-.347.105-.49-.083l-.082-.125c-.143-.189-.123-.376.061-.501.47-.335 1.57-.94 3.183-.94 2.346 0 3.61 1.337 3.61 3.947v6.39c0 .23-.122.355-.347.355h-.163c-.224 0-.347-.125-.347-.355v-1.023c0-.565.083-.94.083-.94h-.041c.02 0-.918 2.568-3.57 2.568-1.653 0-3.469-.94-3.469-3.027 0-3.55 4.508-3.593 6.324-3.593zm-2.814 5.806c2.223 0 3.488-2.36 3.488-4.427v-.564h-.653c-1.734 0-5.447 0-5.447 2.715 0 1.107.877 2.276 2.612 2.276zM96.98 28.227v-.814c0-.23.122-.355.347-.355h.326c.225 0 .347.125.347.355v.814c0 .23-.122.355-.347.355h-.326c-.225 0-.347-.125-.347-.355zm.08 3.362c0-.23.123-.355.348-.355h.163c.224 0 .347.125.347.355v9.732c0 .23-.123.355-.347.355h-.163c-.225 0-.347-.125-.347-.355V31.59z"/>
        </g>
        <path fill="url(#a)" d="M9.637 55.253c-5.3 0-9.637-4.232-9.637-9.406V9.677C0 4.505 4.337.272 9.637.272c5.3 0 9.638 4.233 9.638 9.407v36.169c0 5.174-4.337 9.406-9.638 9.406"/>
        <path fill="url(#b)" d="M35.467 43.786l-2.685-2.621a8.404 8.404 0 0 1 0-12.088l1.419-1.386a6.096 6.096 0 0 0 0-8.768c-3.89-3.797-10.195-3.797-14.085 0l-.949.926v25.995c0 1.295-.27 2.53-.76 3.656l2.976 2.905c3.889 3.798 10.195 3.798 14.084 0a5.993 5.993 0 0 0 0-8.619"/>
        <path fill="url(#c)" d="M19.233 45.677V19.444l-8.293 8.398c-3.775 3.824-3.782 10.017-.022 13.85L7.84 44.81h6.154l7.394 7.488-2.896-2.933a9.498 9.498 0 0 0 .74-3.688"/>
    </g>
</svg>
