<?xml version="1.0" standalone="no"?>
<!DOCTYPE svg PUBLIC "-//W3C//DTD SVG 20010904//EN"
 "http://www.w3.org/TR/2001/REC-SVG-20010904/DTD/svg10.dtd">
<svg version="1.0" xmlns="http://www.w3.org/2000/svg"
 width="512.000000pt" height="512.000000pt" viewBox="0 0 512.000000 512.000000"
 preserveAspectRatio="xMidYMid meet">
<metadata>
Created by potrace 1.11, written by Peter Selinger 2001-2013
</metadata>
<g transform="translate(0.000000,512.000000) scale(0.100000,-0.100000)"
fill="#000000" stroke="none">
<path d="M0 2560 l0 -2560 2560 0 2560 0 0 2560 0 2560 -2560 0 -2560 0 0
-2560z m2175 1695 c163 -29 335 -146 399 -272 38 -75 53 -175 38 -254 -18 -97
-55 -161 -153 -264 -151 -158 -199 -262 -199 -434 0 -185 41 -270 226 -464
147 -155 187 -219 204 -322 34 -209 -113 -412 -357 -493 -65 -21 -97 -26 -193
-26 -99 0 -125 3 -188 26 -135 49 -167 75 -507 418 -426 430 -473 482 -517
565 -100 191 -98 414 5 610 24 44 93 123 259 295 459 477 532 541 663 589 113
41 197 48 320 26z m1008 -870 c38 -8 103 -31 145 -51 71 -34 97 -56 331 -288
361 -358 488 -497 533 -581 100 -191 98 -414 -5 -610 -55 -104 -801 -863 -907
-922 -225 -127 -520 -95 -711 76 -108 97 -162 239 -139 370 19 108 59 172 196
311 186 190 234 286 234 469 0 173 -44 271 -189 428 -55 58 -111 129 -125 158
-85 166 -45 361 101 495 142 130 346 185 536 145z"/>
</g>
</svg>
