<?xml version="1.0" standalone="no"?>
<!DOCTYPE svg PUBLIC "-//W3C//DTD SVG 20010904//EN"
 "http://www.w3.org/TR/2001/REC-SVG-20010904/DTD/svg10.dtd">
<svg version="1.0" xmlns="http://www.w3.org/2000/svg"
 width="301.000000pt" height="301.000000pt" viewBox="0 0 301.000000 301.000000"
 preserveAspectRatio="xMidYMid meet">
<metadata>
Created by potrace 1.11, written by Peter Selinger 2001-2013
</metadata>
<g transform="translate(0.000000,301.000000) scale(0.100000,-0.100000)"
fill="#000000" stroke="none">
<path d="M894 2995 c-189 -51 -335 -200 -379 -387 -12 -53 -14 -223 -12 -1123
2 -583 6 -1073 11 -1090 12 -50 73 -168 107 -209 46 -55 139 -121 207 -146 77
-29 86 -31 167 -34 137 -6 263 39 363 129 51 46 122 141 122 164 0 23 19 9
106 -80 151 -154 258 -208 424 -213 197 -7 386 97 458 252 23 48 27 70 26 137
-1 117 -25 164 -158 300 -59 61 -120 128 -135 150 -44 64 -73 151 -77 235 -6
150 34 244 163 382 117 125 147 186 144 298 -5 162 -122 296 -316 360 -92 30
-221 31 -316 1 -74 -23 -164 -79 -226 -140 l-42 -41 -3 333 c-3 314 -4 335
-25 390 -57 152 -179 271 -328 322 -66 22 -215 27 -281 10z"/>
</g>
</svg>
