<svg width="88" height="88" viewBox="0 0 88 88" fill="none" xmlns="http://www.w3.org/2000/svg">
<path d="M44.0002 73.11C43.019 73.1245 42.0377 73.0878 41.0602 73C40.9945 72.9938 40.9306 72.9746 40.8722 72.9435C40.8139 72.9124 40.7624 72.87 40.7205 72.8189C40.6787 72.7677 40.6474 72.7088 40.6285 72.6455C40.6095 72.5822 40.6033 72.5157 40.6102 72.45C40.6277 72.3192 40.6943 72.2 40.7964 72.1164C40.8985 72.0329 41.0286 71.9912 41.1602 72C42.1002 72.1 43.0802 72.12 44.0002 72.14H44.1002C44.2328 72.14 44.36 72.1927 44.4538 72.2865C44.5476 72.3802 44.6002 72.5074 44.6002 72.64C44.6002 72.7726 44.5476 72.8998 44.4538 72.9936C44.36 73.0873 44.2328 73.14 44.1002 73.14H44.0002V73.11ZM47.1002 73C46.9676 73.0133 46.8352 72.9733 46.732 72.8889C46.6289 72.8045 46.5635 72.6826 46.5502 72.55C46.537 72.4174 46.5769 72.285 46.6613 72.1818C46.7457 72.0787 46.8676 72.0133 47.0002 72C48.0094 71.8847 49.0111 71.7111 50.0002 71.48C50.0646 71.4669 50.1309 71.4665 50.1954 71.479C50.2599 71.4915 50.3212 71.5166 50.376 71.5528C50.4308 71.589 50.4779 71.6357 50.5147 71.6901C50.5514 71.7445 50.5771 71.8057 50.5902 71.87C50.6049 71.9338 50.6066 71.9998 50.5954 72.0642C50.5841 72.1286 50.5601 72.1902 50.5247 72.2452C50.4892 72.3001 50.4432 72.3475 50.3892 72.3844C50.3352 72.4213 50.2743 72.447 50.2102 72.46C49.2198 72.6772 48.2183 72.8408 47.2102 72.95L47.1002 73ZM38.1002 72.56H38.0002C37.0039 72.3562 36.0191 72.0992 35.0502 71.79C34.9259 71.7467 34.8231 71.6569 34.7635 71.5394C34.7038 71.422 34.6919 71.286 34.7302 71.16C34.7714 71.0341 34.8609 70.9297 34.979 70.8697C35.0972 70.8097 35.2343 70.799 35.3602 70.84C36.2963 71.1403 37.2476 71.3907 38.2102 71.59C38.3428 71.6033 38.4648 71.6687 38.5491 71.7718C38.6335 71.875 38.6735 72.0074 38.6602 72.14C38.647 72.2726 38.5816 72.3945 38.4784 72.4789C38.3753 72.5633 38.2428 72.6033 38.1102 72.59L38.1002 72.56ZM53.0002 71.69C52.8933 71.6907 52.789 71.657 52.7026 71.594C52.6162 71.531 52.5523 71.442 52.5202 71.34C52.4819 71.214 52.4938 71.0781 52.5535 70.9606C52.6131 70.8432 52.7159 70.7534 52.8402 70.71C53.775 70.4055 54.6929 70.0517 55.5902 69.65C55.6498 69.6218 55.7144 69.606 55.7803 69.6033C55.8461 69.6007 55.9118 69.6114 55.9734 69.6347C56.035 69.6581 56.0913 69.6936 56.1388 69.7392C56.1864 69.7848 56.2243 69.8395 56.2502 69.9C56.3017 70.021 56.3044 70.1573 56.2578 70.2803C56.2113 70.4032 56.119 70.5035 56.0002 70.56C55.073 70.975 54.1251 71.3421 53.1602 71.66L53.0002 71.69ZM32.5002 70.69C32.4309 70.7038 32.3596 70.7038 32.2902 70.69C31.3702 70.28 30.4502 69.82 29.5702 69.32C29.456 69.2513 29.3732 69.1407 29.3396 69.0117C29.306 68.8828 29.3241 68.7457 29.3902 68.63C29.446 68.5235 29.539 68.4413 29.6514 68.3989C29.7639 68.3564 29.8881 68.3569 30.0002 68.4C30.8531 68.889 31.731 69.3329 32.6302 69.73C32.6908 69.756 32.7455 69.7939 32.7911 69.8414C32.8367 69.889 32.8722 69.9453 32.8955 70.0069C32.9189 70.0685 32.9296 70.1342 32.9269 70.2C32.9243 70.2658 32.9084 70.3305 32.8802 70.39C32.8434 70.4749 32.7836 70.5479 32.7077 70.6009C32.6318 70.6539 32.5427 70.6847 32.4502 70.69H32.5002ZM58.5002 69.23C58.3911 69.2289 58.2854 69.1921 58.1991 69.1253C58.1128 69.0585 58.0508 68.9652 58.0225 68.8598C57.9942 68.7545 58.0011 68.6427 58.0422 68.5416C58.0833 68.4405 58.1564 68.3557 58.2502 68.3C59.0902 67.8 59.9202 67.3 60.7102 66.68C60.7619 66.6324 60.823 66.5962 60.8896 66.5738C60.9562 66.5514 61.0268 66.5432 61.0967 66.5499C61.1667 66.5566 61.2344 66.578 61.2955 66.6126C61.3567 66.6472 61.4098 66.6943 61.4515 66.7509C61.4932 66.8074 61.5226 66.8721 61.5376 66.9408C61.5526 67.0094 61.553 67.0804 61.5387 67.1492C61.5244 67.218 61.4958 67.283 61.4547 67.34C61.4136 67.397 61.361 67.4447 61.3002 67.48C60.4822 68.087 59.6308 68.6479 58.7502 69.16C58.65 69.2259 58.5284 69.2509 58.4102 69.23H58.5002ZM27.2502 67.71C27.1458 67.706 27.0449 67.6712 26.9602 67.61C26.1375 67.0151 25.3464 66.3776 24.5902 65.7C24.5434 65.6535 24.5062 65.5982 24.4808 65.5373C24.4554 65.4764 24.4423 65.411 24.4423 65.345C24.4423 65.279 24.4554 65.2137 24.4808 65.1527C24.5062 65.0918 24.5434 65.0365 24.5902 64.99C24.6837 64.8984 24.8094 64.8471 24.9402 64.8471C25.0711 64.8471 25.1968 64.8984 25.2902 64.99C26.0231 65.6476 26.7908 66.2652 27.5902 66.84C27.6957 66.9197 27.7661 67.0372 27.7867 67.1678C27.8072 67.2984 27.7762 67.4318 27.7002 67.54C27.6445 67.6025 27.5744 67.6506 27.4961 67.6802C27.4177 67.7098 27.3334 67.72 27.2502 67.71ZM63.2502 65.71C63.1807 65.7111 63.1118 65.6974 63.048 65.6698C62.9842 65.6422 62.927 65.6014 62.8802 65.55C62.8334 65.5035 62.7962 65.4482 62.7708 65.3873C62.7454 65.3264 62.7323 65.261 62.7323 65.195C62.7323 65.129 62.7454 65.0637 62.7708 65.0027C62.7962 64.9418 62.8334 64.8865 62.8802 64.84C63.6253 64.1729 64.3331 63.4651 65.0002 62.72C65.0954 62.6278 65.2227 62.5762 65.3552 62.5762C65.4878 62.5762 65.6151 62.6278 65.7102 62.72C65.7571 62.7665 65.7943 62.8218 65.8197 62.8827C65.8451 62.9437 65.8581 63.009 65.8581 63.075C65.8581 63.141 65.8451 63.2064 65.8197 63.2673C65.7943 63.3282 65.7571 63.3835 65.7102 63.43C65.0316 64.1869 64.314 64.9079 63.5602 65.59C63.4685 65.6589 63.3544 65.691 63.2402 65.68L63.2502 65.71ZM22.8002 63.71C22.7308 63.7105 22.6621 63.6965 22.5984 63.669C22.5347 63.6414 22.4774 63.6009 22.4302 63.55C21.7462 62.7941 21.1019 62.003 20.5002 61.18C20.4615 61.1268 20.4336 61.0665 20.4182 61.0026C20.4027 60.9386 20.4 60.8722 20.4103 60.8072C20.4205 60.7422 20.4434 60.6799 20.4777 60.6237C20.512 60.5676 20.5571 60.5188 20.6102 60.48C20.6634 60.4413 20.7237 60.4134 20.7877 60.398C20.8516 60.3825 20.918 60.3798 20.983 60.39C21.048 60.4003 21.1104 60.4232 21.1665 60.4575C21.2227 60.4918 21.2715 60.5368 21.3102 60.59C21.8902 61.38 22.5202 62.15 23.1702 62.88C23.2168 62.9256 23.2538 62.9801 23.279 63.0402C23.3043 63.1003 23.3173 63.1648 23.3173 63.23C23.3173 63.2952 23.3043 63.3597 23.279 63.4198C23.2538 63.4799 23.2168 63.5344 23.1702 63.58C23.1193 63.6268 23.0593 63.6625 22.9939 63.6849C22.9285 63.7072 22.8591 63.7158 22.7902 63.71H22.8002ZM67.2402 61.22C67.1317 61.2223 67.0257 61.187 66.9402 61.12C66.8354 61.0421 66.7653 60.9264 66.7447 60.7974C66.7242 60.6685 66.7549 60.5366 66.8302 60.43C67.4002 59.63 67.9402 58.8 68.4302 57.95C68.4591 57.8863 68.5009 57.8293 68.5532 57.7827C68.6054 57.7362 68.6668 57.7011 68.7334 57.6798C68.8 57.6584 68.8704 57.6513 68.94 57.6589C69.0095 57.6664 69.0767 57.6885 69.1372 57.7237C69.1977 57.7589 69.2501 57.8063 69.2911 57.863C69.3321 57.9197 69.3607 57.9844 69.3751 58.0528C69.3896 58.1213 69.3895 58.192 69.3748 58.2604C69.3602 58.3289 69.3314 58.3934 69.2902 58.45C68.7825 59.3289 68.2284 60.1801 67.6302 61C67.5864 61.0664 67.5271 61.1211 67.4574 61.1595C67.3877 61.1978 67.3098 61.2186 67.2302 61.22H67.2402ZM19.2402 58.88C19.1515 58.8802 19.0642 58.8573 18.987 58.8134C18.9099 58.7696 18.8455 58.7064 18.8002 58.63C18.2895 57.7518 17.8255 56.8472 17.4102 55.92C17.3561 55.7993 17.3521 55.6621 17.3989 55.5384C17.4458 55.4147 17.5397 55.3146 17.6602 55.26C17.7198 55.2318 17.7844 55.216 17.8503 55.2133C17.9161 55.2107 17.9818 55.2214 18.0434 55.2447C18.105 55.2681 18.1613 55.3036 18.2088 55.3492C18.2564 55.3947 18.2943 55.4495 18.3202 55.51C18.7222 56.4073 19.1729 57.2819 19.6702 58.13C19.7041 58.1862 19.7263 58.2487 19.7355 58.3136C19.7448 58.3785 19.7409 58.4447 19.7241 58.5081C19.7073 58.5715 19.678 58.6309 19.6378 58.6828C19.5976 58.7346 19.5474 58.7779 19.4902 58.81C19.4209 58.8529 19.3417 58.877 19.2602 58.88H19.2402ZM70.2002 56C70.1344 56.015 70.0661 56.015 70.0002 56C69.8797 55.9453 69.7852 55.8458 69.7367 55.7226C69.6882 55.5995 69.6894 55.4623 69.7402 55.34C70.1261 54.4433 70.46 53.5251 70.7402 52.59C70.7816 52.4638 70.8706 52.3587 70.9882 52.2971C71.1059 52.2355 71.2429 52.2222 71.3702 52.26C71.4965 52.3014 71.6015 52.3904 71.6632 52.508C71.7248 52.6257 71.7381 52.7627 71.7002 52.89C71.3892 53.8578 71.0287 54.8091 70.6202 55.74C70.578 55.8154 70.5173 55.8788 70.4438 55.9243C70.3704 55.9697 70.2865 55.9958 70.2002 56ZM16.8002 53.4C16.695 53.3986 16.593 53.3639 16.5086 53.3011C16.4242 53.2383 16.3618 53.1504 16.3302 53.05C16.0088 52.0858 15.7417 51.1042 15.5302 50.11C15.5164 50.0444 15.5157 49.9766 15.5281 49.9107C15.5405 49.8447 15.5658 49.7819 15.6024 49.7257C15.6391 49.6695 15.6865 49.6211 15.7419 49.5833C15.7973 49.5454 15.8596 49.5188 15.9252 49.505C15.9909 49.4912 16.0586 49.4905 16.1246 49.5029C16.1905 49.5153 16.2534 49.5405 16.3095 49.5772C16.3657 49.6139 16.4141 49.6613 16.452 49.7167C16.4899 49.7721 16.5165 49.8344 16.5302 49.9C16.7329 50.8605 16.99 51.8087 17.3002 52.74C17.3412 52.866 17.3306 53.0031 17.2706 53.1212C17.2106 53.2394 17.1062 53.3288 16.9802 53.37C16.9244 53.3991 16.8631 53.4161 16.8002 53.42V53.4ZM72.0002 50.32H71.9002C71.7716 50.2912 71.6591 50.2136 71.5864 50.1036C71.5136 49.9936 71.4864 49.8597 71.5102 49.73C71.7235 48.7657 71.887 47.7911 72.0002 46.81C72.0038 46.7442 72.021 46.6798 72.0506 46.6208C72.0802 46.5619 72.1216 46.5096 72.1722 46.4674C72.2229 46.4252 72.2817 46.3939 72.3451 46.3754C72.4084 46.3569 72.4748 46.3517 72.5402 46.36C72.606 46.3663 72.6699 46.3855 72.7282 46.4166C72.7865 46.4477 72.8381 46.49 72.88 46.5412C72.9218 46.5923 72.9531 46.6512 72.972 46.7146C72.9909 46.7779 72.9971 46.8443 72.9902 46.91C72.8912 47.9176 72.7376 48.9191 72.5302 49.91C72.5083 50.0318 72.442 50.1412 72.3441 50.2169C72.2462 50.2927 72.1237 50.3294 72.0002 50.32ZM15.5502 47.56C15.4259 47.5606 15.3057 47.5149 15.2133 47.4317C15.1208 47.3485 15.0627 47.2338 15.0502 47.11C14.943 46.1136 14.8896 45.1122 14.8902 44.11C14.8889 44.0448 14.9006 43.98 14.9246 43.9194C14.9487 43.8588 14.9845 43.8036 15.0302 43.7571C15.0758 43.7105 15.1303 43.6735 15.1904 43.6483C15.2505 43.623 15.315 43.61 15.3802 43.61C15.512 43.6126 15.6377 43.6661 15.731 43.7593C15.8242 43.8525 15.8777 43.9782 15.8802 44.11C15.8718 45.0748 15.9119 46.0393 16.0002 47C16.0143 47.1312 15.9759 47.2626 15.8935 47.3656C15.8111 47.4687 15.6913 47.5349 15.5602 47.55L15.5502 47.56ZM72.6102 44.5C72.4776 44.5 72.3505 44.4473 72.2567 44.3536C72.1629 44.2598 72.1102 44.1326 72.1102 44C72.1237 43.0188 72.087 42.0375 72.0002 41.06C71.9937 40.9944 72.0001 40.928 72.0192 40.8649C72.0382 40.8017 72.0695 40.7429 72.1113 40.6918C72.1531 40.6408 72.2046 40.5984 72.2627 40.5672C72.3209 40.536 72.3846 40.5166 72.4502 40.51C72.5159 40.5035 72.5822 40.5099 72.6454 40.5289C72.7086 40.548 72.7674 40.5793 72.8184 40.6211C72.9216 40.7055 72.987 40.8274 73.0002 40.96C73.1002 41.96 73.1502 42.96 73.1502 43.96C73.1563 44.0325 73.1465 44.1054 73.1215 44.1736C73.0965 44.2419 73.0569 44.3039 73.0055 44.3553C72.9541 44.4067 72.8921 44.4463 72.8239 44.4713C72.7556 44.4963 72.6827 44.5061 72.6102 44.5ZM15.5302 41.57C15.4558 41.5753 15.3811 41.5638 15.3117 41.5364C15.2422 41.509 15.1798 41.4664 15.129 41.4117C15.0781 41.3571 15.0402 41.2917 15.0179 41.2205C14.9956 41.1492 14.9896 41.0739 15.0002 41C15.1035 39.993 15.257 38.9917 15.4602 38C15.4734 37.9357 15.499 37.8745 15.5358 37.8201C15.5725 37.7657 15.6197 37.719 15.6744 37.6828C15.7292 37.6466 15.7906 37.6215 15.8551 37.609C15.9196 37.5965 15.9859 37.5969 16.0502 37.61C16.1156 37.6231 16.1777 37.6491 16.2329 37.6865C16.2881 37.7239 16.3353 37.772 16.3716 37.8279C16.408 37.8838 16.4328 37.9464 16.4445 38.012C16.4563 38.0776 16.4549 38.145 16.4402 38.21C16.2423 39.1749 16.0954 40.1496 16.0002 41.13C15.9882 41.2478 15.934 41.3572 15.8476 41.438C15.7612 41.5189 15.6485 41.5658 15.5302 41.57ZM71.9902 38.57C71.8767 38.5678 71.7673 38.5269 71.6801 38.4542C71.5928 38.3815 71.5329 38.2813 71.5102 38.17C71.3002 37.17 71.0402 36.25 70.7402 35.32C70.7024 35.1927 70.7157 35.0557 70.7773 34.938C70.8389 34.8204 70.944 34.7314 71.0702 34.69C71.1319 34.6699 71.197 34.6622 71.2617 34.6674C71.3265 34.6726 71.3895 34.6906 71.4472 34.7204C71.5048 34.7501 71.556 34.7911 71.5978 34.8408C71.6395 34.8905 71.6709 34.948 71.6902 35.01C72.0097 35.9775 72.2735 36.9624 72.4802 37.96C72.4949 38.0238 72.4966 38.0898 72.4854 38.1542C72.4741 38.2186 72.4501 38.2802 72.4147 38.3351C72.3792 38.3901 72.3332 38.4375 72.2792 38.4744C72.2252 38.5113 72.1643 38.537 72.1002 38.55L71.9902 38.57ZM16.7602 35.71C16.7107 35.7197 16.6598 35.7197 16.6102 35.71C16.547 35.6907 16.4882 35.6589 16.4373 35.6167C16.3864 35.5744 16.3444 35.5225 16.3137 35.4639C16.283 35.4053 16.2642 35.3412 16.2585 35.2753C16.2528 35.2094 16.2601 35.143 16.2802 35.08C16.5947 34.112 16.9585 33.1608 17.3702 32.23C17.4281 32.1204 17.5246 32.0362 17.641 31.9937C17.7574 31.9512 17.8854 31.9535 18.0002 32C18.0608 32.026 18.1155 32.0638 18.1611 32.1114C18.2067 32.159 18.2422 32.2153 18.2655 32.2769C18.2889 32.3385 18.2996 32.4042 18.2969 32.47C18.2943 32.5358 18.2784 32.6005 18.2502 32.66C17.8545 33.5586 17.5041 34.4764 17.2002 35.41C17.1647 35.4979 17.104 35.5732 17.0257 35.6266C16.9474 35.68 16.855 35.709 16.7602 35.71ZM70.1402 32.85C70.0441 32.8497 69.9501 32.8211 69.8701 32.7677C69.7901 32.7144 69.7275 32.6387 69.6902 32.55C69.2876 31.6548 68.8404 30.7804 68.3502 29.93C68.2993 29.8172 68.2919 29.6895 68.3297 29.5716C68.3674 29.4538 68.4476 29.3541 68.5546 29.2919C68.6616 29.2296 68.7878 29.2093 68.909 29.2348C69.0301 29.2604 69.1374 29.3299 69.2102 29.43C69.723 30.3106 70.187 31.2186 70.6002 32.15C70.6517 32.271 70.6544 32.4073 70.6078 32.5302C70.5613 32.6532 70.469 32.7535 70.3502 32.81C70.2838 32.8378 70.2123 32.8514 70.1402 32.85ZM19.1902 30.24C19.1033 30.2404 19.0175 30.2199 18.9402 30.18C18.8243 30.113 18.7394 30.003 18.7039 29.8739C18.6683 29.7448 18.685 29.6069 18.7502 29.49C19.2602 28.61 19.8202 27.75 20.4102 26.93C20.4885 26.8226 20.6062 26.7507 20.7375 26.73C20.8687 26.7094 21.0028 26.7418 21.1102 26.82C21.2177 26.8983 21.2896 27.016 21.3102 27.1472C21.3308 27.2785 21.2985 27.4126 21.2202 27.52C20.6452 28.319 20.1111 29.1467 19.6202 30C19.5754 30.0737 19.5122 30.1346 19.4368 30.1766C19.3615 30.2187 19.2765 30.2405 19.1902 30.24ZM67.1902 27.67C67.1116 27.6697 67.0342 27.6504 66.9646 27.6139C66.895 27.5773 66.8352 27.5246 66.7902 27.46C66.2094 26.6657 65.5886 25.9014 64.9302 25.17C64.8504 25.0706 64.8116 24.9445 64.8217 24.8174C64.8317 24.6903 64.89 24.5719 64.9845 24.4863C65.079 24.4007 65.2026 24.3545 65.3301 24.357C65.4576 24.3596 65.5792 24.4107 65.6702 24.5C66.3502 25.26 67.0002 26.05 67.6002 26.87C67.6762 26.9782 67.7072 27.1117 67.6867 27.2422C67.6661 27.3728 67.5957 27.4903 67.4902 27.57C67.3907 27.6471 67.2654 27.6829 67.1402 27.67H67.1902ZM22.7002 25.39C22.5746 25.3909 22.4532 25.3445 22.3602 25.26C22.3137 25.2144 22.2767 25.1599 22.2514 25.0998C22.2262 25.0397 22.2132 24.9752 22.2132 24.91C22.2132 24.8448 22.2262 24.7803 22.2514 24.7202C22.2767 24.6601 22.3137 24.6056 22.3602 24.56C23.0388 23.8031 23.7565 23.0821 24.5102 22.4C24.6054 22.3078 24.7327 22.2562 24.8652 22.2562C24.9978 22.2562 25.1251 22.3078 25.2202 22.4C25.2671 22.4465 25.3043 22.5018 25.3297 22.5627C25.3551 22.6237 25.3681 22.689 25.3681 22.755C25.3681 22.821 25.3551 22.8864 25.3297 22.9473C25.3043 23.0082 25.2671 23.0635 25.2202 23.11C24.5002 23.77 23.8002 24.47 23.1402 25.2C23.0893 25.2667 23.0221 25.3192 22.9451 25.3525C22.868 25.3858 22.7837 25.3987 22.7002 25.39ZM63.1302 23.22C63.0694 23.2213 63.0089 23.2104 62.9522 23.1881C62.8956 23.1658 62.8439 23.1325 62.8002 23.09C62.0688 22.4349 61.3045 21.8174 60.5102 21.24C60.4569 21.2014 60.4118 21.1526 60.3774 21.0964C60.343 21.0403 60.3201 20.9779 60.3098 20.9129C60.2996 20.8478 60.3023 20.7814 60.3179 20.7174C60.3334 20.6534 60.3614 20.5932 60.4002 20.54C60.4799 20.4345 60.5974 20.3641 60.728 20.3436C60.8586 20.3231 60.9921 20.3541 61.1002 20.43C61.9102 21.02 62.7102 21.67 63.4702 22.35C63.5171 22.3965 63.5543 22.4518 63.5797 22.5127C63.6051 22.5737 63.6181 22.639 63.6181 22.705C63.6181 22.771 63.6051 22.8364 63.5797 22.8973C63.5543 22.9582 63.5171 23.0135 63.4702 23.06C63.4269 23.1077 63.3745 23.1465 63.3162 23.1739C63.2578 23.2014 63.1947 23.217 63.1302 23.22ZM27.1302 21.38C27.0514 21.3805 26.9737 21.3616 26.904 21.325C26.8342 21.2884 26.7746 21.2352 26.7302 21.17C26.69 21.1174 26.6609 21.0572 26.6446 20.993C26.6284 20.9288 26.6253 20.8619 26.6356 20.7965C26.6458 20.7311 26.6693 20.6684 26.7045 20.6123C26.7396 20.5562 26.7858 20.5078 26.8402 20.47C27.6562 19.8661 28.5077 19.3117 29.3902 18.81C29.503 18.759 29.6307 18.7517 29.7486 18.7895C29.8665 18.8272 29.9662 18.9073 30.0284 19.0143C30.0906 19.1213 30.1109 19.2476 30.0854 19.3688C30.0599 19.4899 29.9903 19.5972 29.8902 19.67C29.0427 20.1634 28.2216 20.7008 27.4302 21.28C27.3468 21.3435 27.2451 21.3786 27.1402 21.38H27.1302ZM58.2902 19.7C58.2033 19.7004 58.1175 19.6799 58.0402 19.64C57.1909 19.1479 56.3164 18.7006 55.4202 18.3C55.3532 18.2789 55.2914 18.244 55.2388 18.1974C55.1862 18.1508 55.144 18.0936 55.115 18.0296C55.0859 17.9657 55.0707 17.8963 55.0703 17.826C55.0699 17.7558 55.0843 17.6862 55.1126 17.6219C55.1409 17.5575 55.1824 17.4999 55.2344 17.4527C55.2865 17.4055 55.3479 17.3698 55.4146 17.3479C55.4814 17.326 55.552 17.3185 55.6219 17.3257C55.6918 17.333 55.7594 17.3549 55.8202 17.39C56.7525 17.7978 57.6606 18.2585 58.5402 18.77C58.6341 18.8257 58.7072 18.9105 58.7483 19.0116C58.7894 19.1127 58.7963 19.2245 58.768 19.3298C58.7397 19.4352 58.6776 19.5285 58.5914 19.5953C58.5051 19.6621 58.3994 19.6989 58.2902 19.7ZM32.2902 18.37C32.1576 18.3979 32.0194 18.3719 31.9059 18.2978C31.7925 18.2237 31.7131 18.1076 31.6852 17.975C31.6574 17.8424 31.6834 17.7042 31.7574 17.5907C31.8315 17.4773 31.9476 17.3979 32.0802 17.37C33.0347 16.9696 34.0093 16.6191 35.0002 16.32C35.0626 16.2983 35.1286 16.2894 35.1944 16.2938C35.2603 16.2983 35.3246 16.316 35.3834 16.3459C35.4422 16.3757 35.4944 16.4172 35.5368 16.4677C35.5792 16.5183 35.611 16.5769 35.6302 16.64C35.6713 16.766 35.6606 16.9031 35.6006 17.0212C35.5406 17.1394 35.4362 17.2288 35.3102 17.27C34.3749 17.5729 33.4569 17.9267 32.5602 18.33C32.4854 18.3651 32.4024 18.379 32.3202 18.37H32.2902ZM52.7902 17.27H52.6302C51.6981 16.9653 50.75 16.7116 49.7902 16.51C49.6595 16.4812 49.5453 16.4022 49.4723 16.2899C49.3994 16.1777 49.3735 16.0412 49.4002 15.91C49.4313 15.7832 49.5097 15.6731 49.6195 15.6024C49.7293 15.5317 49.8619 15.5058 49.9902 15.53C50.9866 15.7382 51.9712 15.9985 52.9402 16.31C53.0662 16.3512 53.1706 16.4407 53.2306 16.5588C53.2906 16.6769 53.3013 16.814 53.2602 16.94C53.2296 17.0335 53.1709 17.1153 53.0922 17.1743C53.0135 17.2333 52.9186 17.2667 52.8202 17.27H52.7902ZM38.0002 16.51C37.8864 16.5105 37.7757 16.4722 37.6866 16.4012C37.5975 16.3303 37.5353 16.2311 37.5102 16.12C37.4835 15.9888 37.5094 15.8524 37.5823 15.7401C37.6553 15.6279 37.7695 15.5488 37.9002 15.52C38.8909 15.3086 39.8924 15.1517 40.9002 15.05C40.9656 15.0402 41.0324 15.044 41.0962 15.0612C41.1601 15.0784 41.2197 15.1086 41.2713 15.1499C41.323 15.1912 41.3655 15.2427 41.3963 15.3013C41.4271 15.3598 41.4455 15.4241 41.4502 15.49C41.4534 15.6161 41.4088 15.7387 41.3253 15.8333C41.2419 15.9279 41.1257 15.9874 41.0002 16C40.023 16.1037 39.0518 16.2572 38.0902 16.46L38.0002 16.51ZM47.0002 16H46.9502C45.9695 15.9119 44.9848 15.8752 44.0002 15.89C43.8657 15.8901 43.7364 15.8381 43.6394 15.7449C43.5425 15.6516 43.4854 15.5244 43.4802 15.39C43.4789 15.3248 43.4906 15.26 43.5146 15.1994C43.5387 15.1388 43.5745 15.0836 43.6202 15.0371C43.6658 14.9905 43.7203 14.9535 43.7804 14.9283C43.8405 14.903 43.905 14.89 43.9702 14.89C44.9814 14.8759 45.9927 14.9126 47.0002 15C47.1328 15 47.26 15.0527 47.3538 15.1465C47.4476 15.2402 47.5002 15.3674 47.5002 15.5C47.5002 15.6326 47.4476 15.7598 47.3538 15.8536C47.26 15.9473 47.1328 16 47.0002 16Z" fill="#B9D7F8"/>
<path d="M39.2899 30.4H13.1099V44.76H39.2899V30.4Z" fill="white"/>
<path d="M15.4698 19.12C15.4639 19.1723 15.4754 19.2252 15.5025 19.2704C15.5296 19.3155 15.5708 19.3505 15.6198 19.37C16.183 19.5915 16.6914 19.9327 17.1098 20.37L17.2598 20.56C17.4654 20.9136 17.756 21.2103 18.1052 21.4233C18.4544 21.6364 18.8513 21.7589 19.2598 21.78C20.0857 21.8745 20.8617 22.224 21.4798 22.78C21.8018 23.0262 22.2071 23.1374 22.6098 23.09C22.3838 23.495 22.2652 23.9512 22.2652 24.415C22.2652 24.8788 22.3838 25.3349 22.6098 25.74C23.0105 26.312 23.5434 26.779 24.1632 27.101C24.783 27.4231 25.4713 27.5908 26.1698 27.59C26.9032 27.583 27.624 27.3977 28.2698 27.05C28.9831 26.6914 29.6134 26.1872 30.1198 25.57C30.3481 25.2827 30.6325 25.045 30.9558 24.8713C31.279 24.6977 31.6342 24.5917 31.9998 24.56C33.9398 24.21 33.9998 24.19 34.8698 23.13L35.0798 22.88C35.2878 22.6455 35.5704 22.4901 35.8798 22.44C36.746 22.792 37.5419 23.2966 38.2298 23.93C38.6821 24.3584 39.0908 24.8307 39.4498 25.34C38.6451 25.8042 37.7462 26.0811 36.8198 26.15C36.7902 26.1545 36.7621 26.1658 36.7378 26.1832C36.7135 26.2006 36.6936 26.2235 36.6798 26.25C36.6626 26.275 36.6534 26.3046 36.6534 26.335C36.6534 26.3653 36.6626 26.395 36.6798 26.42C38.7232 27.9936 41.131 29.0255 43.6798 29.42H43.8798C45.3098 29.42 46.6398 28.23 47.5298 27.42C47.7698 27.21 47.9798 27.02 48.1498 26.89C49.0233 26.4083 49.9688 26.0707 50.9498 25.89C50.9803 25.8827 51.008 25.8667 51.0294 25.8439C51.0509 25.821 51.0652 25.7924 51.0705 25.7615C51.0758 25.7306 51.072 25.6988 51.0594 25.6701C51.0468 25.6414 51.0261 25.617 50.9998 25.6C50.0437 24.9007 49.1918 24.069 48.4698 23.13C47.7298 21.93 47.2998 21.78 45.2298 21.48C44.2855 21.3539 43.4224 20.8796 42.8098 20.15C42.413 19.7362 41.9662 19.3734 41.4798 19.07C40.7381 18.6755 39.88 18.5585 39.0598 18.74C38.7178 18.8037 38.3828 18.9008 38.0598 19.03C37.7471 18.8327 37.4112 18.6749 37.0598 18.56C36.397 18.3029 35.8164 17.8709 35.3798 17.31C35.1684 17.0613 34.9303 16.8366 34.6698 16.64C34.2181 16.3747 33.7243 16.1886 33.2098 16.09C32.6491 15.9774 32.1093 15.7783 31.6098 15.5C31.4198 15.38 31.2098 15.21 30.9598 15.02C29.8948 14.0016 28.4924 13.4107 27.0198 13.36C25.2428 13.3437 23.5016 13.8591 22.0198 14.84C21.821 15.0035 21.6308 15.177 21.4498 15.36C21.169 15.6733 20.8292 15.9281 20.4498 16.11C19.8254 15.4855 19.4217 14.6745 19.2998 13.8C19.238 13.4602 19.2885 13.1096 19.4436 12.8011C19.5988 12.4926 19.8502 12.2429 20.1598 12.09C20.4211 11.9587 20.7207 11.9248 21.0048 11.9945C21.2888 12.0641 21.5388 12.2327 21.7098 12.47C21.8998 12.88 21.1698 12.81 21.1798 12.47C21.1898 12.13 20.8598 12.06 20.6998 12.25C20.6741 12.2399 20.6455 12.2399 20.6198 12.25C20.5993 12.2486 20.5787 12.2515 20.5593 12.2584C20.5399 12.2653 20.5222 12.2761 20.5072 12.2902C20.4922 12.3043 20.4802 12.3213 20.4721 12.3402C20.4639 12.359 20.4597 12.3794 20.4598 12.4C20.4487 12.5869 20.4943 12.7728 20.5907 12.9334C20.687 13.094 20.8296 13.2218 20.9998 13.3C21.1557 13.3753 21.3266 13.4144 21.4998 13.4144C21.6729 13.4144 21.8438 13.3753 21.9998 13.3C22.122 13.231 22.2253 13.1327 22.3003 13.0141C22.3754 12.8954 22.4198 12.76 22.4298 12.62C22.4454 12.4683 22.4235 12.315 22.3659 12.1738C22.3084 12.0325 22.217 11.9076 22.0998 11.81C21.8372 11.6015 21.5302 11.4561 21.2025 11.385C20.8748 11.314 20.5352 11.3191 20.2098 11.4C19.8868 11.4837 19.5836 11.6305 19.3176 11.8318C19.0515 12.0332 18.828 12.2852 18.6598 12.5734C18.4915 12.8615 18.3819 13.1801 18.3373 13.5107C18.2927 13.8414 18.3139 14.1776 18.3998 14.5C18.6426 15.2667 19.1539 15.92 19.8398 16.34H19.7898C18.4798 16.62 18.2498 16.83 17.9598 17.17L17.8998 17.23C17.3063 17.9666 16.5307 18.5353 15.6498 18.88C15.5978 18.8951 15.5522 18.9267 15.5198 18.97C15.4873 19.0132 15.4698 19.0659 15.4698 19.12Z" fill="#E7FAFD"/>
<path d="M36.8698 21.83C37.3546 21.9991 37.8152 22.2311 38.2398 22.52C39.0462 23.1547 39.7776 23.8794 40.4198 24.68L39.6798 25.22C39.6798 25.22 38.7698 24.22 38.4998 23.92C38.0171 23.5367 37.498 23.2017 36.9498 22.92C36.5398 22.7 36.0598 22.46 36.0098 22.27L36.8698 21.83Z" fill="#B9F1F9"/>
<path d="M38.6802 19.64C39.3761 19.5169 40.0927 19.6673 40.6802 20.06C41.4802 20.73 42.6802 22.18 44.0202 22.47C45.3602 22.76 46.6202 22.77 47.1802 23.47C47.7402 24.17 48.0102 24.76 48.4602 25.21C48.4871 25.2272 48.5092 25.2509 48.5245 25.2788C48.5397 25.3068 48.5478 25.3381 48.5478 25.37C48.5478 25.4019 48.5397 25.4332 48.5245 25.4612C48.5092 25.4892 48.4871 25.5128 48.4602 25.53C47.8888 25.7924 47.3542 26.1286 46.8702 26.53C46.1888 27.2752 45.3526 27.8623 44.4202 28.25C43.4202 28.52 39.5702 27.49 38.6802 26.64C39.5328 26.295 40.3337 25.834 41.0602 25.27C41.4368 24.8912 41.9095 24.6222 42.4275 24.4918C42.9455 24.3615 43.4892 24.3747 44.0002 24.53C44.1386 24.6053 44.2588 24.7099 44.3525 24.8366C44.4462 24.9632 44.511 25.1088 44.5424 25.2632C44.5739 25.4175 44.5712 25.5769 44.5345 25.7301C44.4979 25.8833 44.4281 26.0266 44.3302 26.15C44.0302 26.42 43.2202 26.7 42.9602 26.3C42.7002 25.9 43.0702 25.79 43.4202 25.96C43.7702 26.13 44.3302 26.15 44.0102 25.63C44.0102 25.63 44.0102 25.63 44.0102 25.56C43.8369 25.3765 43.6088 25.2539 43.3601 25.2107C43.1114 25.1674 42.8554 25.2058 42.6302 25.32C42.4163 25.4783 42.2704 25.712 42.2221 25.9737C42.1738 26.2355 42.2268 26.5058 42.3702 26.73C42.4772 26.8995 42.6176 27.0453 42.783 27.1585C42.9483 27.2717 43.1351 27.3499 43.3317 27.3883C43.5284 27.4267 43.7309 27.4245 43.9266 27.3818C44.1224 27.3391 44.3074 27.2568 44.4702 27.14C45.0602 26.72 45.5702 26.14 45.4702 25.52C45.3702 24.9 44.8402 23.45 43.4702 23.52C42.6451 23.5443 41.8398 23.7783 41.1302 24.2C40.4407 24.744 39.723 25.2514 38.9802 25.72C38.4702 25.92 36.7402 26.29 36.7402 26.29C37.932 27.2043 39.2576 27.9295 40.6702 28.44C42.5802 29.02 43.9402 29.63 45.5002 28.83C46.4914 28.2904 47.3868 27.5911 48.1502 26.76C48.9862 26.249 49.9077 25.8932 50.8702 25.71C50.0025 24.9309 49.1936 24.0886 48.4502 23.19C48.1789 22.7269 47.7801 22.3515 47.3014 22.1086C46.8227 21.8657 46.2843 21.7655 45.7502 21.82C44.6682 21.7483 43.6535 21.2696 42.9102 20.48C42.4963 19.9564 41.9667 19.5358 41.3629 19.2513C40.7591 18.9667 40.0976 18.8259 39.4302 18.84L38.0302 19.19L38.6802 19.64Z" fill="#B9F1F9"/>
<path d="M20.67 16.23C19.953 15.5972 19.4703 14.7411 19.3 13.8C19.2382 13.4602 19.2887 13.1096 19.4439 12.8011C19.599 12.4926 19.8504 12.243 20.16 12.09C20.4214 11.9587 20.7209 11.9248 21.005 11.9945C21.2891 12.0641 21.539 12.2327 21.71 12.47C21.9 12.88 21.17 12.81 21.18 12.47C21.18 11.9 20.63 12.11 20.62 12.47C20.61 12.83 21.34 13.6 21.87 13.23C22.4 12.86 22.49 12.34 22.24 12.06C21.99 11.78 21.24 11.13 20.52 11.37C19.8 11.61 19.12 11.79 18.81 12.59C18.5486 13.2255 18.5133 13.9315 18.71 14.59C18.91 15.42 20.33 16.5 20.33 16.5L20.67 16.23Z" fill="#B9F1F9"/>
<path d="M26.6499 22.78C26.6499 22.78 27.9599 23.18 28.5199 22.5C29.0799 21.82 29.6799 20.85 30.6699 20.75C31.4039 20.7044 32.1151 20.4777 32.7399 20.09C32.9324 19.9468 33.1446 19.8323 33.3699 19.75C32.783 19.6709 32.2239 19.4514 31.7399 19.11C31.0592 18.6263 30.2335 18.3898 29.3999 18.44C28.4619 18.3126 27.5784 17.9245 26.8499 17.32C26.5867 17.1446 26.2747 17.0569 25.9586 17.0695C25.6425 17.082 25.3384 17.1942 25.0899 17.39C24.5499 17.72 24.0199 18.6 23.2199 18.8C23.712 19.0595 24.1747 19.3713 24.5999 19.73C25.0399 20.15 25.5999 20.78 26.2099 20.65C26.8199 20.52 27.3399 20.19 27.1599 19.82C26.9799 19.45 26.7499 19.69 26.7899 19.95C26.7899 19.95 26.3699 20.27 26.1499 20.11C25.9299 19.95 25.6099 19.34 26.0599 19.03C26.5099 18.72 26.9899 18.52 27.4299 18.84C27.8699 19.16 28.2199 19.9 27.9599 20.35C27.7647 20.6867 27.4868 20.968 27.1527 21.1675C26.8185 21.3669 26.4389 21.4779 26.0499 21.49C25.3464 21.4658 24.6812 21.1638 24.1999 20.65C23.701 20.2234 23.1328 19.8852 22.5199 19.65C22.2099 19.55 21.1199 19.29 20.9399 18.72C21.6578 18.6648 22.348 18.4198 22.9399 18.01C23.5386 17.4054 24.2105 16.878 24.9399 16.44C25.1988 16.2633 25.4937 16.1465 25.8034 16.0981C26.113 16.0497 26.4295 16.0708 26.7299 16.16C27.2783 16.3983 27.7769 16.7375 28.1999 17.16C28.5799 17.53 29.5199 17.52 30.0899 17.53C30.3789 17.5131 30.6683 17.554 30.9413 17.6501C31.2142 17.7462 31.4654 17.8958 31.6799 18.09C32.1303 18.449 32.6518 18.7081 33.2099 18.85C33.8325 18.8922 34.4187 19.1587 34.8599 19.6L35.2499 20.24C34.7879 20.1601 34.3124 20.2265 33.8899 20.43C33.2199 20.77 33.0199 21.15 32.5099 21.37C31.925 21.561 31.3152 21.6655 30.6999 21.68C30.1659 21.8055 29.7025 22.1359 29.4099 22.6C29.2738 22.8587 29.0737 23.0782 28.8286 23.2375C28.5835 23.3968 28.3016 23.4906 28.0099 23.51C27.7145 23.4992 27.4219 23.4487 27.1399 23.36L26.6499 22.78Z" fill="#B9F1F9"/>
<path d="M23.5502 22.54C22.7505 21.9042 21.8973 21.3387 21.0002 20.85C20.3602 20.61 19.3002 20.45 18.8602 19.85C18.7027 19.6706 18.5286 19.5066 18.3402 19.36C18.3152 19.3404 18.2951 19.3153 18.2812 19.2867C18.2673 19.2581 18.2601 19.2268 18.2601 19.195C18.2601 19.1632 18.2673 19.1319 18.2812 19.1033C18.2951 19.0747 18.3152 19.0497 18.3402 19.03C18.6593 18.6926 19.0226 18.4 19.4202 18.16C19.9502 17.89 21.9202 17.42 22.6102 16.7C23.6216 15.6683 24.9905 15.064 26.4343 15.0119C27.8782 14.9598 29.287 15.4638 30.3702 16.42C31.3202 17.17 33.3702 17.06 34.1102 17.65C34.8205 18.3848 35.632 19.0145 36.5202 19.52C36.937 19.6724 37.3444 19.8493 37.7402 20.05C37.283 20.3049 36.8653 20.6249 36.5002 21C36.1402 21.46 35.1602 21.51 34.8202 21.74C34.4802 21.97 33.7502 22.82 33.3502 23.18C32.9502 23.54 31.3502 23.64 30.8502 23.98C29.9715 24.5837 29.1392 25.2523 28.3602 25.98C27.9273 26.3438 27.4138 26.5989 26.8625 26.7242C26.3111 26.8494 25.7377 26.8411 25.1902 26.7C24.656 26.5782 24.1671 26.308 23.7796 25.9206C23.3922 25.5331 23.122 25.0442 23.0002 24.51C22.8802 23.61 23.8902 22.94 24.5102 22.9C25.1302 22.86 26.0302 23.09 26.2802 23.68C26.5302 24.27 25.4602 24.68 25.7202 23.98C25.7202 23.98 25.6102 23.41 25.1502 23.8C24.6902 24.19 24.7402 25.03 25.3502 25.18C25.9602 25.33 26.9202 25.18 27.0602 24.51C27.1715 24.2203 27.1848 23.9021 27.0981 23.6042C27.0114 23.3062 26.8295 23.0448 26.5802 22.86C26.3721 22.6144 26.1014 22.4299 25.7967 22.326C25.4921 22.2221 25.165 22.2028 24.8502 22.27C24.0702 22.45 23.5102 22.27 23.0802 22.85C23.0302 22.92 22.7902 23.14 22.7302 23.23C22.4867 23.6014 22.357 24.0359 22.357 24.48C22.357 24.9241 22.4867 25.3586 22.7302 25.73C23.0516 26.2433 23.4921 26.6713 24.0145 26.9778C24.5368 27.2842 25.1254 27.4599 25.7302 27.49C26.8945 27.5503 28.0424 27.1959 28.9702 26.49C29.6539 25.7964 30.4196 25.1886 31.2502 24.68C31.9202 24.4 33.7402 24.26 34.3202 23.52C34.7233 22.869 35.3601 22.3967 36.1002 22.2C36.7454 21.9559 37.3123 21.5411 37.7402 21C38.2266 20.6782 38.7643 20.4414 39.3302 20.3C38.7024 19.6129 37.9354 19.0674 37.0802 18.7C35.9102 18.3 35.0002 16.9 34.5002 16.77C33.4481 16.4968 32.4263 16.1182 31.4502 15.64C31.1602 15.32 28.5202 13.52 27.4502 13.53C26.3802 13.54 23.8702 13.7 22.8402 14.53C22.0864 15.3006 21.1986 15.9275 20.2202 16.38C19.1402 16.79 18.6302 16.61 17.8402 17.5C17.2139 18.1139 16.4909 18.6207 15.7002 19C15.7002 19 17.2102 20.4 17.5002 20.61C17.8758 21.0553 18.3572 21.3991 18.9002 21.61C19.7402 21.89 21.1502 22.33 21.1502 22.33L21.8802 22.86L22.7102 22.98L23.5502 22.54Z" fill="#B9F1F9"/>
<path d="M50.9998 25.6C50.0437 24.9007 49.1918 24.0691 48.4698 23.13C47.7298 21.93 47.2998 21.78 45.2298 21.48C44.2855 21.354 43.4224 20.8796 42.8098 20.15C42.413 19.7362 41.9662 19.3734 41.4798 19.07C40.7381 18.6756 39.88 18.5586 39.0598 18.74C38.7178 18.8038 38.3828 18.9009 38.0598 19.03C37.7471 18.8328 37.4112 18.6749 37.0598 18.56C36.397 18.303 35.8164 17.871 35.3798 17.31C35.1684 17.0613 34.9303 16.8366 34.6698 16.64C34.2181 16.3747 33.7243 16.1887 33.2098 16.09C32.6491 15.9774 32.1093 15.7784 31.6098 15.5C31.4198 15.38 31.2098 15.21 30.9598 15.02C29.8948 14.0017 28.4924 13.4108 27.0198 13.36C25.2428 13.3437 23.5016 13.8591 22.0198 14.84C21.821 15.0035 21.6308 15.1771 21.4498 15.36C21.1079 15.7562 20.6658 16.0532 20.1698 16.22C19.4298 15.8453 18.8662 15.1955 18.5998 14.41C18.52 14.1238 18.5002 13.8242 18.5415 13.53C18.5828 13.2358 18.6843 12.9532 18.8398 12.7C18.9852 12.4505 19.1799 12.2332 19.412 12.0613C19.6441 11.8894 19.9087 11.7665 20.1898 11.7C20.4779 11.6089 20.7838 11.5886 21.0815 11.6408C21.3792 11.693 21.6598 11.8162 21.8998 12C21.9784 12.0652 22.0403 12.1482 22.0803 12.2421C22.1203 12.336 22.1373 12.4382 22.1298 12.54C22.1225 12.6308 22.0944 12.7186 22.0476 12.7967C22.0007 12.8748 21.9364 12.9409 21.8598 12.99C21.7433 13.0418 21.6173 13.0686 21.4898 13.0686C21.3623 13.0686 21.2362 13.0418 21.1198 12.99C21.0107 12.936 20.9195 12.8515 20.8574 12.7468C20.7953 12.6421 20.7649 12.5217 20.7698 12.4C20.7711 12.379 20.7683 12.3579 20.7615 12.338C20.7547 12.318 20.744 12.2997 20.7301 12.2839C20.7161 12.2681 20.6992 12.2552 20.6803 12.2459C20.6614 12.2367 20.6408 12.2313 20.6198 12.23C20.5993 12.2286 20.5787 12.2315 20.5593 12.2384C20.5399 12.2454 20.5222 12.2562 20.5072 12.2703C20.4922 12.2843 20.4802 12.3013 20.4721 12.3202C20.4639 12.3391 20.4597 12.3594 20.4598 12.38C20.4487 12.567 20.4943 12.7529 20.5907 12.9135C20.687 13.0741 20.8296 13.2018 20.9998 13.28C21.1557 13.3553 21.3266 13.3944 21.4998 13.3944C21.6729 13.3944 21.8438 13.3553 21.9998 13.28C22.122 13.211 22.2253 13.1128 22.3003 12.9941C22.3754 12.8755 22.4198 12.7401 22.4298 12.6C22.4454 12.4483 22.4235 12.2951 22.3659 12.1538C22.3084 12.0125 22.217 11.8876 22.0998 11.79C21.8372 11.5815 21.5302 11.4362 21.2025 11.3651C20.8748 11.294 20.5352 11.2991 20.2098 11.38C19.8846 11.4636 19.5794 11.611 19.3118 11.8138C19.0442 12.0165 18.8196 12.2704 18.6511 12.5608C18.4827 12.8512 18.3737 13.1722 18.3305 13.5052C18.2874 13.8381 18.3109 14.1763 18.3998 14.5C18.6426 15.2667 19.1539 15.9201 19.8398 16.34H19.7898C18.4798 16.62 18.2498 16.83 17.9598 17.17L17.8998 17.23C17.3063 17.9666 16.5307 18.5354 15.6498 18.88C15.5994 18.8946 15.555 18.9247 15.5227 18.966C15.4904 19.0073 15.4719 19.0577 15.4698 19.11C15.4639 19.1624 15.4754 19.2152 15.5025 19.2604C15.5296 19.3056 15.5708 19.3406 15.6198 19.36C16.183 19.5816 16.6914 19.9227 17.1098 20.36L17.2598 20.55C17.4654 20.9036 17.756 21.2004 18.1052 21.4134C18.4544 21.6264 18.8513 21.749 19.2598 21.77C20.0857 21.8646 20.8617 22.2141 21.4798 22.77C21.8018 23.0163 22.2071 23.1274 22.6098 23.08C22.3838 23.4851 22.2652 23.9412 22.2652 24.405C22.2652 24.8688 22.3838 25.3249 22.6098 25.73C23.0105 26.3021 23.5434 26.769 24.1632 27.0911C24.783 27.4131 25.4713 27.5809 26.1698 27.58C26.9032 27.5731 27.624 27.3877 28.2698 27.04C28.9831 26.6814 29.6134 26.1773 30.1198 25.56C30.349 25.2746 30.6338 25.0388 30.957 24.8669C31.2802 24.6949 31.635 24.5905 31.9998 24.56C33.9398 24.21 33.9998 24.19 34.8698 23.13L35.0798 22.88C35.2878 22.6455 35.5704 22.4901 35.8798 22.44C36.746 22.792 37.5419 23.2967 38.2298 23.93C38.6821 24.3585 39.0908 24.8308 39.4498 25.34C38.6451 25.8043 37.7462 26.0811 36.8198 26.15C36.7902 26.1545 36.7621 26.1659 36.7378 26.1833C36.7135 26.2006 36.6936 26.2235 36.6798 26.25C36.6626 26.275 36.6534 26.3047 36.6534 26.335C36.6534 26.3654 36.6626 26.395 36.6798 26.42C38.7232 27.9937 41.131 29.0256 43.6798 29.42H43.8798C45.3098 29.42 46.6398 28.23 47.5298 27.42C47.7698 27.21 47.9798 27.02 48.1498 26.89C49.0233 26.4084 49.9688 26.0707 50.9498 25.89C50.9803 25.8828 51.008 25.8667 51.0294 25.8439C51.0509 25.8211 51.0652 25.7924 51.0705 25.7615C51.0758 25.7306 51.072 25.6989 51.0594 25.6701C51.0468 25.6414 51.0261 25.617 50.9998 25.6ZM34.7898 22.69L34.5898 22.93C33.7598 23.93 33.7598 23.93 31.8998 24.25C31.5047 24.3039 31.1244 24.4361 30.781 24.6387C30.4376 24.8413 30.138 25.1103 29.8998 25.43C29.4187 26.0184 28.819 26.4989 28.1398 26.84C27.2684 27.3085 26.257 27.446 25.2921 27.2273C24.3273 27.0086 23.474 26.4484 22.8898 25.65C22.6599 25.252 22.5551 24.7941 22.589 24.3358C22.6228 23.8774 22.7939 23.4399 23.0798 23.08C23.2536 22.925 23.4449 22.7908 23.6498 22.68C23.9866 22.5071 24.3613 22.4211 24.7398 22.43C25.0874 22.412 25.435 22.4647 25.7616 22.585C26.0882 22.7053 26.387 22.8908 26.6398 23.13C26.8731 23.4351 26.9805 23.8181 26.9398 24.2C26.8686 24.4488 26.7037 24.6603 26.4798 24.79C26.3106 24.9152 26.1107 24.9924 25.9013 25.0136C25.6918 25.0347 25.4806 24.9989 25.2898 24.91C25.1917 24.8542 25.1133 24.7695 25.065 24.6676C25.0167 24.5656 25.0009 24.4512 25.0198 24.34C25.0234 24.2479 25.0509 24.1582 25.0998 24.08C25.1365 24.0243 25.1852 23.9774 25.2423 23.9428C25.2993 23.9083 25.3634 23.8868 25.4298 23.88C25.4513 23.8802 25.4726 23.8758 25.4922 23.867C25.5118 23.8583 25.5294 23.8454 25.5436 23.8293C25.5578 23.8131 25.5684 23.7942 25.5747 23.7736C25.5809 23.753 25.5826 23.7313 25.5798 23.71C25.5785 23.6903 25.5734 23.671 25.5646 23.6533C25.5559 23.6356 25.5437 23.6198 25.5289 23.6068C25.514 23.5938 25.4967 23.5838 25.478 23.5775C25.4593 23.5712 25.4395 23.5687 25.4198 23.57C25.3021 23.5784 25.1879 23.6133 25.0857 23.6722C24.9835 23.7311 24.896 23.8124 24.8298 23.91C24.7524 24.0335 24.7077 24.1745 24.6998 24.32C24.6818 24.4884 24.7117 24.6583 24.786 24.8105C24.8603 24.9626 24.976 25.0907 25.1198 25.18C25.3605 25.3006 25.6299 25.3523 25.8981 25.3293C26.1664 25.3064 26.423 25.2097 26.6398 25.05C26.7918 24.9693 26.9248 24.8571 27.03 24.7208C27.1352 24.5846 27.2101 24.4275 27.2498 24.26C27.3048 24.0468 27.3048 23.8232 27.2498 23.61C27.4794 23.6629 27.7142 23.6897 27.9498 23.69C28.3259 23.7055 28.6962 23.5927 28.9998 23.37C29.2188 23.1747 29.4046 22.9451 29.5498 22.69C29.6695 22.4113 29.8633 22.1708 30.1101 21.9945C30.3569 21.8182 30.6473 21.7129 30.9498 21.69C32.3398 21.56 32.7398 21.45 33.4198 20.74C33.8688 20.3889 34.4309 20.2146 34.9998 20.25C35.0274 20.2536 35.0555 20.2489 35.0805 20.2364C35.1054 20.2239 35.1261 20.2043 35.1398 20.18C35.154 20.1576 35.1616 20.1316 35.1616 20.105C35.1616 20.0785 35.154 20.0524 35.1398 20.03C34.9897 19.7262 34.7669 19.4642 34.4913 19.2671C34.2157 19.07 33.8958 18.9439 33.5598 18.9C32.8855 18.7799 32.2604 18.4674 31.7598 18L31.5898 17.87C31.0743 17.5236 30.4598 17.3551 29.8398 17.39C29.5517 17.3823 29.2644 17.3556 28.9798 17.31C28.5123 17.1936 28.0907 16.9393 27.7698 16.58C27.5431 16.3143 27.2445 16.1198 26.9098 16.02H26.7798C26.3133 15.9057 25.8251 15.9137 25.3626 16.0434C24.9001 16.173 24.4789 16.4199 24.1398 16.76L24.0798 16.81C22.9998 17.73 22.1398 18.45 21.0098 18.43C20.9467 18.4293 20.8846 18.4456 20.83 18.4773C20.7754 18.509 20.7304 18.5549 20.6998 18.61C20.6658 18.6621 20.6477 18.7229 20.6477 18.785C20.6477 18.8472 20.6658 18.908 20.6998 18.96C20.9657 19.3263 21.3512 19.588 21.7898 19.7C22.7009 19.9019 23.5384 20.3518 24.2098 21C24.5628 21.3194 24.9912 21.5438 25.4547 21.6522C25.9182 21.7607 26.4017 21.7496 26.8598 21.62C27.2849 21.4916 27.6553 21.2254 27.9124 20.8633C28.1695 20.5011 28.2987 20.0637 28.2798 19.62C28.2358 19.4008 28.1451 19.1935 28.014 19.0123C27.8829 18.8312 27.7143 18.6803 27.5198 18.57C27.3408 18.4724 27.1434 18.4131 26.9403 18.3959C26.7371 18.3787 26.5326 18.4039 26.3398 18.47C26.1116 18.5576 25.9157 18.7127 25.7781 18.9146C25.6405 19.1165 25.5678 19.3557 25.5698 19.6C25.563 19.7622 25.6104 19.922 25.7046 20.0542C25.7987 20.1864 25.9343 20.2835 26.0898 20.33C26.2102 20.3759 26.3396 20.3935 26.4679 20.3813C26.5963 20.3692 26.7201 20.3277 26.8298 20.26C26.9233 20.1928 27.0012 20.1062 27.0581 20.0061C27.1151 19.906 27.1498 19.7947 27.1598 19.68C27.1611 19.659 27.1583 19.6379 27.1515 19.618C27.1447 19.5981 27.134 19.5797 27.1201 19.5639C27.1061 19.5481 27.0892 19.5352 27.0703 19.5259C27.0514 19.5167 27.0308 19.5113 27.0098 19.51C26.9689 19.5071 26.9285 19.5201 26.8969 19.5461C26.8652 19.5722 26.8448 19.6094 26.8398 19.65C26.8332 19.7181 26.813 19.7842 26.7803 19.8443C26.7477 19.9045 26.7033 19.9574 26.6498 20C26.5767 20.0362 26.4963 20.055 26.4148 20.055C26.3333 20.055 26.2528 20.0362 26.1798 20C26.0886 19.9695 26.0098 19.91 25.9557 19.8306C25.9015 19.7511 25.8748 19.6561 25.8798 19.56C25.8791 19.3813 25.9334 19.2068 26.0354 19.0601C26.1374 18.9134 26.2821 18.8016 26.4498 18.74C26.5998 18.6859 26.7597 18.665 26.9186 18.6788C27.0774 18.6926 27.2314 18.7408 27.3698 18.82C27.5249 18.9092 27.6594 19.0301 27.7645 19.1748C27.8696 19.3196 27.943 19.4849 27.9798 19.66C27.9864 20.026 27.8711 20.3838 27.652 20.6771C27.4329 20.9704 27.1226 21.1825 26.7698 21.28C26.3688 21.3936 25.9458 21.4055 25.539 21.3148C25.1322 21.224 24.7544 21.0333 24.4398 20.76C23.7391 20.0671 22.8598 19.5824 21.8998 19.36C21.531 19.2594 21.2069 19.0375 20.9798 18.73C22.2398 18.73 23.1798 17.95 24.2698 17.03H24.3298C24.6328 16.7224 25.0106 16.4989 25.4261 16.3815C25.8416 16.264 26.2806 16.2566 26.6998 16.36H26.8398C27.1114 16.4554 27.3529 16.621 27.5398 16.84C27.9014 17.2455 28.3802 17.5286 28.9098 17.65C29.2043 17.6983 29.5015 17.7284 29.7998 17.74C30.3573 17.6976 30.9132 17.8418 31.3798 18.15L31.5498 18.28C32.1103 18.7821 32.8056 19.1089 33.5498 19.22C33.7873 19.2515 34.016 19.3306 34.2222 19.4526C34.4284 19.5746 34.6078 19.737 34.7498 19.93C34.1515 19.9377 33.5761 20.1615 33.1298 20.56C32.5198 21.2 32.1798 21.29 30.8598 21.42C30.5146 21.4458 30.182 21.5607 29.8945 21.7535C29.6071 21.9463 29.3746 22.2104 29.2198 22.52C29.0964 22.7467 28.9339 22.9499 28.7398 23.12C28.1598 23.6 27.0598 23.25 27.0498 23.25L26.8798 22.95C26.4322 22.5268 25.8676 22.248 25.2595 22.15C24.6513 22.0519 24.0277 22.139 23.4698 22.4C23.2598 22.5165 23.0622 22.6539 22.8798 22.81H22.8098C22.6148 22.8594 22.4116 22.8672 22.2134 22.8327C22.0153 22.7982 21.8266 22.7224 21.6598 22.61C21.0007 22.004 20.1685 21.6193 19.2798 21.51C18.9151 21.4889 18.5614 21.3772 18.2506 21.1852C17.9399 20.9931 17.6818 20.7267 17.4998 20.41L17.3498 20.22C16.9389 19.7588 16.4343 19.3906 15.8698 19.14C16.7512 18.7721 17.5276 18.1914 18.1298 17.45L18.1798 17.38C18.4098 17.12 18.5798 16.93 19.8498 16.66C20.0098 16.66 20.1498 16.59 20.2898 16.54C20.8594 16.3681 21.369 16.0388 21.7598 15.59C21.9337 15.4102 22.1173 15.2399 22.3098 15.08C23.7295 14.1496 25.3924 13.6591 27.0898 13.67C28.4904 13.7271 29.8213 14.2964 30.8298 15.27C31.0798 15.47 31.2998 15.64 31.4998 15.77C32.0294 16.0611 32.5988 16.2734 33.1898 16.4C33.6659 16.4913 34.1248 16.6566 34.5498 16.89C34.7893 17.0786 35.0103 17.2895 35.2098 17.52C35.6747 18.1199 36.2932 18.5829 36.9998 18.86C37.7925 19.1867 38.5154 19.6619 39.1298 20.26C38.7466 20.2849 38.3722 20.3863 38.0288 20.558C37.6853 20.7297 37.3796 20.9684 37.1298 21.26C36.9738 21.4675 36.7772 21.641 36.552 21.7699C36.3268 21.8989 36.0776 21.9806 35.8198 22.01C35.401 22.0939 35.0315 22.3379 34.7898 22.69ZM47.9598 26.69C47.7798 26.83 47.5698 27.02 47.3198 27.24C46.4298 28.04 45.0798 29.24 43.7098 29.14C41.3541 28.7625 39.1166 27.849 37.1698 26.47C38.234 26.3543 39.2433 25.9381 40.0798 25.27C41.1298 24.35 42.8298 23.47 44.1598 24.04C44.3654 24.1228 44.5486 24.2528 44.6945 24.4196C44.8405 24.5864 44.9451 24.7852 44.9998 25C45.1462 25.5499 45.0708 26.1352 44.7898 26.63C44.5471 26.9091 44.2152 27.0955 43.8505 27.1575C43.4859 27.2195 43.1111 27.1532 42.7898 26.97C42.6005 26.8623 42.4584 26.6875 42.3918 26.4801C42.3251 26.2727 42.3387 26.0479 42.4298 25.85C42.4974 25.713 42.6048 25.5996 42.7378 25.5245C42.8709 25.4495 43.0235 25.4162 43.1757 25.4292C43.3279 25.4422 43.4727 25.5007 43.5912 25.5972C43.7096 25.6936 43.7963 25.8236 43.8398 25.97C43.8482 25.989 43.8606 26.0061 43.876 26.0201C43.8914 26.0341 43.9096 26.0447 43.9294 26.0513C43.9491 26.0579 43.97 26.0603 43.9907 26.0583C44.0115 26.0564 44.0316 26.0501 44.0498 26.04C44.0684 26.0324 44.0852 26.0211 44.0994 26.0068C44.1135 25.9926 44.1246 25.9756 44.1321 25.957C44.1396 25.9383 44.1432 25.9183 44.1428 25.8982C44.1424 25.8782 44.138 25.8584 44.1298 25.84C44.0297 25.5976 43.8511 25.3958 43.6226 25.267C43.3941 25.1383 43.129 25.09 42.8698 25.13C42.6486 25.1889 42.4504 25.3136 42.3017 25.4876C42.1529 25.6615 42.0604 25.8766 42.0366 26.1043C42.0127 26.3319 42.0586 26.5615 42.1681 26.7625C42.2776 26.9635 42.4456 27.1266 42.6498 27.23C43.0342 27.4339 43.4766 27.5004 43.904 27.4186C44.3313 27.3368 44.7179 27.1115 44.9998 26.78C45.1673 26.4984 45.2766 26.186 45.3213 25.8614C45.366 25.5367 45.345 25.2064 45.2598 24.89C45.1961 24.6292 45.0726 24.3868 44.899 24.182C44.7254 23.9772 44.5066 23.8156 44.2598 23.71C42.8198 23.08 40.9998 24 39.8698 25L39.6698 25.17C39.2996 24.6454 38.8811 24.1566 38.4198 23.71C37.803 23.1413 37.1012 22.6723 36.3398 22.32C36.7667 22.1949 37.1397 21.931 37.3998 21.57C37.8454 21.042 38.4815 20.7113 39.1698 20.65C39.2381 20.6449 39.3034 20.6193 39.3569 20.5765C39.4105 20.5336 39.4498 20.4756 39.4698 20.41C39.4934 20.3464 39.4975 20.2772 39.4814 20.2112C39.4654 20.1453 39.43 20.0857 39.3798 20.04C39.0636 19.7588 38.7296 19.4982 38.3798 19.26C38.6141 19.1744 38.8549 19.1075 39.0998 19.06C39.8453 18.8906 40.6269 18.9972 41.2998 19.36C41.7633 19.6389 42.19 19.9748 42.5698 20.36C43.2296 21.1335 44.152 21.6357 45.1598 21.77C47.2198 22.07 47.5298 22.22 48.1598 23.28C48.8205 24.177 49.6127 24.9693 50.5098 25.63C49.6217 25.8265 48.7732 26.1713 47.9998 26.65L47.9598 26.69Z" fill="#8BE7F5"/>
<path d="M42.45 63.74C42.4461 63.7857 42.4565 63.8314 42.4798 63.8708C42.5031 63.9103 42.5381 63.9414 42.58 63.96C43.0602 64.1561 43.4906 64.4567 43.84 64.84L44 65C44.1779 65.2904 44.4238 65.5332 44.7165 65.7075C45.0092 65.8817 45.3399 65.9821 45.68 66C46.3836 66.0882 47.0415 66.3962 47.56 66.88C47.8466 67.0939 48.2055 67.1872 48.56 67.14C48.3682 67.484 48.2675 67.8712 48.2675 68.265C48.2675 68.6588 48.3682 69.0461 48.56 69.39C48.8989 69.8709 49.3482 70.2635 49.8702 70.535C50.3922 70.8064 50.9717 70.9487 51.56 70.95C52.1823 70.9468 52.794 70.7887 53.34 70.49C53.9471 70.191 54.4825 69.7646 54.91 69.24C55.0946 68.9881 55.3294 68.7771 55.5997 68.6205C55.8699 68.4639 56.1696 68.365 56.48 68.33C58.12 68.03 58.16 68.01 58.91 67.11L59.09 66.9C59.2645 66.6968 59.5055 66.5621 59.77 66.52C60.5032 66.8282 61.1793 67.2575 61.77 67.79C62.1396 68.1547 62.4744 68.5531 62.77 68.98C62.09 69.3793 61.3267 69.6155 60.54 69.67C60.5142 69.6741 60.4897 69.6844 60.4688 69.7001C60.4479 69.7158 60.4311 69.7364 60.42 69.76C60.4053 69.7804 60.3975 69.8049 60.3975 69.83C60.3975 69.8551 60.4053 69.8796 60.42 69.9C62.1519 71.2315 64.1913 72.105 66.35 72.44H66.52C67.73 72.44 68.86 71.44 69.61 70.76C69.81 70.57 69.99 70.42 70.13 70.31C70.8732 69.8979 71.6762 69.6043 72.51 69.44C72.5345 69.4348 72.557 69.4225 72.5748 69.4048C72.5925 69.3871 72.6048 69.3646 72.61 69.34C72.6206 69.3182 72.6261 69.2943 72.6261 69.27C72.6261 69.2458 72.6206 69.2218 72.61 69.2C71.7938 68.6136 71.0692 67.9093 70.46 67.11C69.83 66.11 69.46 65.97 67.72 65.72C66.9374 65.6012 66.2257 65.199 65.72 64.59C65.3838 64.2396 65.004 63.9338 64.59 63.68C63.9769 63.355 63.2701 63.2525 62.59 63.39C62.3068 63.4499 62.0291 63.5335 61.76 63.64C61.5068 63.475 61.2349 63.3408 60.95 63.24C60.385 63.0248 59.8902 62.658 59.52 62.18C59.3428 61.9674 59.1414 61.7761 58.92 61.61C58.5369 61.3927 58.1217 61.2374 57.69 61.15C57.2152 61.0489 56.7572 60.8806 56.33 60.65C56.1389 60.5241 55.9553 60.3872 55.78 60.24C54.88 59.3783 53.6952 58.8766 52.45 58.83C50.9496 58.8231 49.481 59.2616 48.23 60.09C48.0612 60.2268 47.9009 60.3737 47.75 60.53C47.5123 60.798 47.2233 61.0156 46.9 61.17C46.3343 60.6396 45.9613 59.9359 45.84 59.17C45.788 58.8819 45.831 58.5846 45.9627 58.323C46.0944 58.0615 46.3075 57.8498 46.57 57.72C46.7889 57.6003 47.0447 57.5668 47.2871 57.626C47.5294 57.6852 47.7409 57.8329 47.88 58.04C48.05 58.39 47.43 58.33 47.43 58.04C47.43 57.75 47.17 57.69 47.03 57.85H46.96C46.9429 57.8487 46.9257 57.8507 46.9094 57.856C46.8931 57.8613 46.8781 57.8697 46.865 57.8809C46.852 57.8921 46.8414 57.9057 46.8336 57.921C46.8259 57.9363 46.8213 57.9529 46.82 57.97C46.8143 58.1277 46.8548 58.2837 46.9365 58.4187C47.0182 58.5537 47.1376 58.6619 47.28 58.73C47.4143 58.794 47.5612 58.8272 47.71 58.8272C47.8588 58.8272 48.0057 58.794 48.14 58.73C48.2422 58.6693 48.3282 58.585 48.3909 58.484C48.4535 58.3831 48.491 58.2685 48.5 58.15C48.5167 58.0216 48.5006 57.891 48.4534 57.7704C48.4063 57.6498 48.3294 57.543 48.23 57.46C48.0046 57.2856 47.7427 57.1645 47.4639 57.1056C47.1851 57.0467 46.8966 57.0517 46.62 57.12C46.3448 57.1909 46.0863 57.3157 45.8596 57.4871C45.6329 57.6585 45.4424 57.8732 45.2992 58.1187C45.156 58.3642 45.0629 58.6357 45.0253 58.9174C44.9876 59.1991 45.0062 59.4855 45.08 59.76C45.2895 60.4079 45.7217 60.9606 46.3 61.32C45.19 61.56 45 61.73 44.74 62.02C44.2374 62.6464 43.5786 63.1293 42.83 63.42C42.7876 63.3696 42.7268 63.3382 42.6612 63.3325C42.5956 63.3269 42.5304 63.3476 42.48 63.39C42.4296 63.4325 42.3981 63.4932 42.3925 63.5588C42.3869 63.6244 42.4076 63.6896 42.45 63.74Z" fill="#E7FAFD"/>
<path d="M60.5801 66C60.9917 66.1432 61.3819 66.3417 61.7401 66.59C62.4259 67.1225 63.0439 67.7371 63.5801 68.42L62.9601 68.88C62.9601 68.88 62.1801 68 61.9601 67.77C61.5453 67.4723 61.1034 67.2145 60.6401 67C60.3001 66.82 59.8901 66.62 59.8501 66.45L60.5801 66Z" fill="#B9F1F9"/>
<path d="M62.1099 64.19C62.4086 64.1302 62.7163 64.1303 63.015 64.1904C63.3137 64.2505 63.5975 64.3693 63.8499 64.54C64.5199 65.11 65.5399 66.34 66.6799 66.54C67.8199 66.74 68.8799 66.8 69.3499 67.37C69.8199 67.94 70.0599 68.47 70.4399 68.84C70.4626 68.8556 70.4811 68.8765 70.4939 68.9009C70.5067 68.9253 70.5134 68.9524 70.5134 68.98C70.5134 69.0075 70.5067 69.0347 70.4939 69.0591C70.4811 69.0834 70.4626 69.1044 70.4399 69.12C69.9584 69.3484 69.5081 69.6375 69.0999 69.98C68.5192 70.6265 67.8018 71.1354 66.9999 71.47C65.2855 71.4728 63.6038 71.0021 62.1399 70.11C62.8546 69.813 63.5271 69.4229 64.1399 68.95C64.4558 68.6374 64.8495 68.4151 65.2804 68.3061C65.7112 68.197 66.1633 68.2053 66.5899 68.33C66.7061 68.3944 66.807 68.4832 66.8856 68.5903C66.9643 68.6974 67.0188 68.8203 67.0454 68.9505C67.072 69.0807 67.0701 69.2151 67.0398 69.3445C67.0095 69.4739 66.9515 69.5951 66.8699 69.7C66.6099 69.93 65.8699 70.17 65.7099 69.83C65.5499 69.49 65.7999 69.39 66.0999 69.54C66.3999 69.69 66.8699 69.7 66.5899 69.26C66.5899 69.26 66.5899 69.26 66.5899 69.2C66.441 69.0438 66.2457 68.94 66.0331 68.904C65.8204 68.8679 65.6018 68.9016 65.4099 69C65.2276 69.1344 65.1027 69.3326 65.06 69.555C65.0174 69.7774 65.0602 70.0077 65.1799 70.2C65.2697 70.3445 65.3883 70.469 65.5283 70.5657C65.6684 70.6624 65.8268 70.7292 65.9938 70.7621C66.1607 70.7949 66.3327 70.793 66.4989 70.7565C66.6651 70.72 66.822 70.6497 66.9599 70.55C67.4599 70.19 67.8999 69.67 67.7799 69.18C67.6599 68.69 67.2499 67.43 66.0799 67.5C65.3744 67.518 64.6855 67.7178 64.0799 68.08C63.1899 68.66 62.6899 69.19 62.2599 69.36C61.6356 69.5566 61.0014 69.7202 60.3599 69.85C61.3718 70.621 62.4945 71.2346 63.6899 71.67C65.3099 72.16 66.4599 72.67 67.7799 72C68.6245 71.5456 69.3854 70.9504 70.0299 70.24C70.7409 69.8084 71.5231 69.5071 72.3399 69.35C71.6008 68.6926 70.9122 67.9806 70.2799 67.22C70.0538 66.8252 69.7181 66.5045 69.3134 66.2969C68.9087 66.0892 68.4524 66.0034 67.9999 66.05C67.0832 65.9891 66.2229 65.5858 65.5899 64.92C65.2345 64.4679 64.7778 64.1057 64.2567 63.8625C63.7356 63.6193 63.1646 63.502 62.5899 63.52L61.4099 63.82L62.1099 64.19Z" fill="#B9F1F9"/>
<path d="M46.86 61.3C46.2487 60.765 45.8364 60.039 45.69 59.24C45.6379 58.9518 45.681 58.6545 45.8127 58.393C45.9443 58.1314 46.1575 57.9198 46.42 57.79C46.6389 57.6703 46.8946 57.6367 47.137 57.6959C47.3794 57.7551 47.5909 57.9028 47.73 58.11C47.9 58.46 47.28 58.4 47.29 58.11C47.29 57.63 46.82 57.8 46.81 58.11C46.8 58.42 47.42 59.11 47.87 58.75C48.32 58.39 48.4 58 48.18 57.75C47.96 57.5 47.36 56.96 46.73 57.17C46.1 57.38 45.54 57.52 45.28 58.17C45.0529 58.7124 45.0211 59.3167 45.19 59.88C45.36 60.59 46.56 61.5 46.56 61.5L46.86 61.3Z" fill="#B9F1F9"/>
<path d="M51.9201 66.84C51.9201 66.84 53.0201 67.18 53.5001 66.61C53.9801 66.04 54.5001 65.21 55.3301 65.12C55.9502 65.0856 56.5518 64.8965 57.0801 64.57C57.2414 64.442 57.4242 64.3438 57.6201 64.28C57.1199 64.215 56.643 64.0297 56.2301 63.74C55.6508 63.3216 54.9429 63.1198 54.2301 63.17C53.4306 63.0455 52.6822 62.699 52.0701 62.17C51.8471 62.0216 51.5829 61.9475 51.3153 61.9583C51.0477 61.9691 50.7904 62.0642 50.5801 62.23C50.1201 62.51 49.6701 63.23 48.9901 63.42C49.4065 63.6418 49.7987 63.9066 50.1601 64.21C50.5301 64.57 51.0101 65.1 51.5201 64.99C52.0301 64.88 52.5201 64.6 52.3301 64.29C52.1401 63.98 51.9801 64.18 52.0201 64.4C52.0201 64.4 51.6601 64.67 51.4701 64.53C51.2801 64.39 51.0201 63.88 51.4001 63.62C51.7801 63.36 52.1901 63.19 52.5601 63.46C52.9301 63.73 53.2301 64.36 53.0101 64.73C52.8495 65.0225 52.6159 65.2684 52.332 65.4437C52.048 65.6189 51.7235 65.7176 51.3901 65.73C50.7979 65.6985 50.2416 65.4365 49.8401 65C49.4184 64.6432 48.9379 64.3624 48.4201 64.17C48.1601 64.09 47.2301 63.86 47.0801 63.38C47.6871 63.3353 48.2708 63.1281 48.7701 62.78C49.2786 62.267 49.8497 61.8201 50.4701 61.45C50.6949 61.3066 50.9484 61.2144 51.2128 61.1798C51.4772 61.1453 51.746 61.1692 52.0001 61.25C52.4634 61.4524 52.8842 61.7409 53.2401 62.1C53.5601 62.41 54.3601 62.41 54.8401 62.42C55.0852 62.4026 55.3313 62.4353 55.5634 62.5161C55.7955 62.5969 56.0087 62.7241 56.1901 62.89C56.5678 63.2015 57.0129 63.4206 57.4901 63.53C58.0184 63.5687 58.5152 63.7958 58.8901 64.17L59.2101 64.71C58.8195 64.6407 58.4169 64.6967 58.0601 64.87C57.5001 65.16 57.3201 65.49 56.9001 65.67C56.403 65.8348 55.8837 65.9225 55.3601 65.93C55.1361 65.982 54.9245 66.0777 54.7374 66.2115C54.5504 66.3454 54.3916 66.5148 54.2701 66.71C54.155 66.9301 53.9849 67.1166 53.7764 67.2516C53.5679 67.3865 53.328 67.4652 53.0801 67.48C52.8294 67.4711 52.5808 67.4308 52.3401 67.36L51.9201 66.84Z" fill="#B9F1F9"/>
<path d="M49.3002 66.65C48.6272 66.1077 47.9078 65.6258 47.1502 65.21C46.6002 65.01 45.7102 64.87 45.3302 64.34C45.2012 64.189 45.0571 64.0516 44.9002 63.93C44.8791 63.9122 44.8622 63.89 44.8506 63.8649C44.839 63.8399 44.8329 63.8126 44.8329 63.785C44.8329 63.7574 44.839 63.7301 44.8506 63.7051C44.8622 63.68 44.8791 63.6578 44.9002 63.64C45.1693 63.3569 45.4754 63.1114 45.8102 62.91C46.2602 62.68 47.9302 62.28 48.5102 61.67C49.4422 60.756 50.6948 60.2428 52.0002 60.24C53.106 60.2857 54.1636 60.7053 55.0002 61.43C55.8102 62.07 57.5602 61.97 58.1702 62.43C58.7555 63.0549 59.4294 63.5906 60.1702 64.02C60.9502 64.33 61.1702 64.47 61.1702 64.47C60.7976 64.6795 60.4602 64.946 60.1702 65.26C59.8602 65.64 59.0302 65.69 58.7402 65.88C58.4502 66.07 57.8402 66.8 57.5002 67.1C57.1602 67.4 55.8402 67.49 55.3702 67.78C54.6318 68.2903 53.9301 68.8517 53.2702 69.46C52.9033 69.7694 52.4675 69.9863 51.9994 70.0925C51.5313 70.1986 51.0446 70.1909 50.5802 70.07C50.137 69.9705 49.7299 69.7509 49.4035 69.4351C49.0772 69.1193 48.8442 68.7196 48.7302 68.28C48.6402 67.51 49.4902 66.94 50.0202 66.91C50.5502 66.88 51.3102 67.07 51.5102 67.57C51.7102 68.07 50.8202 68.4 51.0402 67.82C51.0402 67.82 50.9402 67.34 50.5502 67.67C50.1602 68 50.2102 68.67 50.7302 68.84C51.2502 69.01 52.0602 68.84 52.1802 68.27C52.2727 68.0253 52.2827 67.757 52.2087 67.5061C52.1347 67.2552 51.9807 67.0353 51.7702 66.88C51.5941 66.6705 51.364 66.5131 51.1049 66.425C50.8458 66.3369 50.5675 66.3213 50.3002 66.38C49.6402 66.53 49.1702 66.38 48.8002 66.86C48.8002 66.92 48.5602 67.11 48.5102 67.19C48.3008 67.5039 48.189 67.8727 48.189 68.25C48.189 68.6273 48.3008 68.9961 48.5102 69.31C48.7836 69.7455 49.1583 70.1084 49.6023 70.3679C50.0463 70.6273 50.5465 70.7756 51.0602 70.8C52.0694 70.8868 53.0757 70.6023 53.8902 70C54.4723 69.4103 55.1237 68.8932 55.8302 68.46C56.3902 68.23 57.9402 68.11 58.4302 67.46C58.767 66.9072 59.3044 66.5059 59.9302 66.34C60.471 66.1303 60.9494 65.7861 61.3202 65.34C61.7289 65.0643 62.1823 64.8613 62.6602 64.74C62.1285 64.1592 61.4813 63.696 60.7602 63.38C59.7602 63.04 58.9602 61.86 58.5702 61.74C57.6758 61.503 56.8106 61.1676 55.9902 60.74C55.7402 60.53 53.5002 59 52.6202 59C51.7402 59 49.6202 59.15 48.7102 59.86C48.0736 60.509 47.3248 61.0375 46.5002 61.42C45.5902 61.77 45.1502 61.62 44.5002 62.42C43.9651 62.952 43.3427 63.3883 42.6602 63.71C42.6602 63.71 43.9402 64.9 44.1902 65.08C44.5124 65.4412 44.9172 65.7192 45.3702 65.89C46.0802 66.13 47.2802 66.49 47.2802 66.49L47.9002 66.94L48.6002 67.04L49.3002 66.65Z" fill="#B9F1F9"/>
<path d="M72.5602 69.23C71.744 68.6436 71.0195 67.9393 70.4102 67.14C69.7802 66.14 69.4102 66 67.6702 65.75C66.8876 65.6312 66.1759 65.229 65.6702 64.62C65.334 64.2696 64.9542 63.9638 64.5402 63.71C63.9271 63.385 63.2204 63.2825 62.5402 63.42C62.257 63.4799 61.9794 63.5635 61.7102 63.67C61.457 63.505 61.1851 63.3708 60.9002 63.27C60.3352 63.0548 59.8404 62.688 59.4702 62.21C59.293 61.9974 59.0916 61.8061 58.8702 61.64C58.4871 61.4227 58.0719 61.2674 57.6402 61.18C57.1654 61.0789 56.7074 60.9106 56.2802 60.68C56.0891 60.5541 55.9055 60.4172 55.7302 60.27C54.8302 59.4083 53.6454 58.9066 52.4002 58.86C50.8998 58.8531 49.4312 59.2916 48.1802 60.12C48.0114 60.2568 47.8511 60.4037 47.7002 60.56C47.4087 60.8964 47.0323 61.1485 46.6102 61.29C45.9874 60.9718 45.5137 60.4227 45.2902 59.76C45.2211 59.516 45.2032 59.2604 45.2377 59.0091C45.2721 58.7579 45.3581 58.5165 45.4902 58.3C45.613 58.0887 45.7773 57.9045 45.9732 57.7584C46.1692 57.6123 46.3926 57.5074 46.6302 57.45C46.8633 57.39 47.1069 57.3841 47.3426 57.4326C47.5783 57.4811 47.7998 57.5829 47.9902 57.73C48.0588 57.782 48.1131 57.8506 48.1481 57.9293C48.1831 58.008 48.1976 58.0942 48.1902 58.18C48.1871 58.2576 48.1643 58.3332 48.1241 58.3996C48.0839 58.4661 48.0275 58.5213 47.9602 58.56C47.8636 58.6069 47.7576 58.6313 47.6502 58.6313C47.5428 58.6313 47.4368 58.6069 47.3402 58.56C47.2468 58.5151 47.1686 58.4439 47.1153 58.355C47.0619 58.2661 47.0359 58.1636 47.0402 58.06C47.0416 58.0421 47.0392 58.0241 47.0333 58.0072C47.0274 57.9903 47.0181 57.9747 47.0059 57.9616C46.9936 57.9484 46.9788 57.9379 46.9624 57.9308C46.9459 57.9236 46.9282 57.92 46.9102 57.92C46.8931 57.9187 46.8759 57.9207 46.8596 57.926C46.8433 57.9313 46.8283 57.9398 46.8153 57.9509C46.8022 57.9621 46.7916 57.9757 46.7838 57.991C46.7761 58.0063 46.7715 58.0229 46.7702 58.04C46.7645 58.1977 46.805 58.3537 46.8867 58.4887C46.9684 58.6237 47.0878 58.7319 47.2302 58.8C47.3645 58.864 47.5114 58.8972 47.6602 58.8972C47.809 58.8972 47.9559 58.864 48.0902 58.8C48.1924 58.7393 48.2784 58.655 48.3411 58.554C48.4037 58.4531 48.4412 58.3385 48.4502 58.22C48.4669 58.0916 48.4509 57.961 48.4037 57.8404C48.3565 57.7198 48.2796 57.613 48.1802 57.53C47.9548 57.3556 47.693 57.2345 47.4142 57.1756C47.1353 57.1167 46.8468 57.1217 46.5702 57.19C46.295 57.2609 46.0365 57.3857 45.8098 57.5571C45.5831 57.7285 45.3926 57.9432 45.2494 58.1887C45.1062 58.4342 45.0131 58.7057 44.9755 58.9874C44.9378 59.2691 44.9564 59.5555 45.0302 59.83C45.2397 60.4779 45.6719 61.0306 46.2502 61.39C45.1402 61.63 44.9502 61.8 44.6902 62.09C44.1876 62.7164 43.5288 63.1993 42.7802 63.49C42.737 63.4993 42.6984 63.5234 42.671 63.558C42.6437 63.5927 42.6292 63.6359 42.6302 63.68C42.6263 63.7257 42.6367 63.7714 42.66 63.8108C42.6833 63.8503 42.7183 63.8815 42.7602 63.9C43.2404 64.0961 43.6708 64.3967 44.0202 64.78L44.0002 65C44.1781 65.2905 44.4241 65.5332 44.7167 65.7075C45.0094 65.8817 45.3401 65.9821 45.6802 66C46.3839 66.0882 47.0417 66.3962 47.5602 66.88C47.8468 67.0939 48.2057 67.1872 48.5602 67.14C48.3684 67.484 48.2677 67.8712 48.2677 68.265C48.2677 68.6588 48.3684 69.0461 48.5602 69.39C48.8991 69.8709 49.3484 70.2636 49.8704 70.535C50.3924 70.8064 50.9719 70.9487 51.5602 70.95C52.1825 70.9468 52.7942 70.7887 53.3402 70.49C53.9473 70.191 54.4827 69.7646 54.9102 69.24C55.0948 68.9881 55.3296 68.7771 55.5999 68.6205C55.8701 68.4639 56.1698 68.365 56.4802 68.33C58.1202 68.03 58.1602 68.01 58.9102 67.11L59.0902 66.9C59.2647 66.6968 59.5057 66.5621 59.7702 66.52C60.5034 66.8282 61.1795 67.2575 61.7702 67.79C62.1399 68.1547 62.4746 68.5531 62.7702 68.98C62.0902 69.3793 61.3269 69.6155 60.5402 69.67C60.5144 69.6741 60.4899 69.6844 60.469 69.7001C60.4481 69.7158 60.4313 69.7364 60.4202 69.76C60.4056 69.7804 60.3977 69.8049 60.3977 69.83C60.3977 69.8551 60.4056 69.8796 60.4202 69.9C62.1521 71.2315 64.1915 72.105 66.3502 72.44H66.5202C67.7302 72.44 68.8602 71.44 69.6102 70.76C69.8102 70.57 69.9902 70.42 70.1302 70.31C70.8734 69.8979 71.6764 69.6043 72.5102 69.44C72.5347 69.4348 72.5573 69.4226 72.575 69.4048C72.5927 69.3871 72.605 69.3646 72.6102 69.34C72.6086 69.2982 72.5906 69.2587 72.5602 69.23ZM58.8202 66.77L58.6502 66.97C57.9502 67.81 57.9502 67.81 56.3702 68.1C56.0313 68.1435 55.7045 68.2543 55.4091 68.4261C55.1137 68.5978 54.8557 68.827 54.6502 69.1C54.2451 69.602 53.737 70.0112 53.1602 70.3C52.4214 70.6928 51.5663 70.8078 50.75 70.6244C49.9336 70.4409 49.21 69.9711 48.7102 69.3C48.5239 68.9594 48.4407 68.5718 48.4709 68.1847C48.5011 67.7976 48.6433 67.4277 48.8802 67.12C49.0255 66.9872 49.1867 66.873 49.3602 66.78C49.6487 66.6361 49.9678 66.564 50.2902 66.57C50.5843 66.5567 50.8781 66.602 51.1545 66.7033C51.4309 66.8046 51.6844 66.9599 51.9002 67.16C52.093 67.4183 52.1822 67.7393 52.1502 68.06C52.1223 68.1667 52.0735 68.2667 52.0065 68.3543C51.9396 68.4418 51.8558 68.5152 51.7602 68.57C51.6172 68.6735 51.4493 68.7372 51.2737 68.7548C51.098 68.7723 50.9209 68.7431 50.7602 68.67C50.6768 68.6237 50.6099 68.5527 50.5687 68.4667C50.5275 68.3807 50.5141 68.284 50.5302 68.19C50.5353 68.1121 50.5593 68.0366 50.6002 67.97C50.6322 67.9235 50.6737 67.8843 50.722 67.855C50.7703 67.8257 50.8242 67.807 50.8802 67.8C50.9098 67.7919 50.9359 67.7743 50.9545 67.7499C50.9731 67.7255 50.9831 67.6957 50.9831 67.665C50.9831 67.6344 50.9731 67.6045 50.9545 67.5801C50.9359 67.5558 50.9098 67.5381 50.8802 67.53C50.7805 67.538 50.6838 67.5682 50.5973 67.6183C50.5108 67.6685 50.4366 67.7374 50.3802 67.82C50.3169 67.9266 50.2793 68.0464 50.2702 68.17C50.2536 68.3134 50.2787 68.4586 50.3426 68.5881C50.4064 68.7176 50.5063 68.8259 50.6302 68.9C50.8353 68.9991 51.0633 69.0411 51.2903 69.0217C51.5172 69.0024 51.7348 68.9224 51.9202 68.79C52.0488 68.7221 52.1611 68.627 52.2492 68.5113C52.3372 68.3956 52.399 68.2621 52.4302 68.12C52.4755 67.9395 52.4755 67.7506 52.4302 67.57C52.6241 67.6128 52.8217 67.6363 53.0202 67.64C53.347 67.6567 53.6693 67.5576 53.9302 67.36C54.1135 67.1963 54.2689 67.0038 54.3902 66.79C54.4968 66.5719 54.6576 66.3847 54.8572 66.2464C55.0568 66.1081 55.2885 66.0232 55.5302 66C56.7102 65.88 57.0402 65.8 57.6202 65.19C58.0017 64.8581 58.4948 64.683 59.0002 64.7C59.0181 64.7116 59.0389 64.7178 59.0602 64.7178C59.0815 64.7178 59.1024 64.7116 59.1202 64.7C59.1316 64.6803 59.1376 64.6578 59.1376 64.635C59.1376 64.6122 59.1316 64.5898 59.1202 64.57C58.9973 64.3053 58.8105 64.0753 58.5765 63.9007C58.3426 63.7262 58.069 63.6125 57.7802 63.57C57.1954 63.4834 56.6492 63.226 56.2102 62.83L56.0702 62.72C55.6314 62.4256 55.1074 62.285 54.5802 62.32C54.339 62.3112 54.0986 62.2878 53.8602 62.25C53.4737 62.145 53.1262 61.9295 52.8602 61.63C52.6651 61.4066 52.4127 61.2406 52.1302 61.15H52.0002C51.6051 61.0513 51.1911 61.0565 50.7986 61.1652C50.4061 61.2738 50.0483 61.4822 49.7602 61.77C48.8402 62.54 48.1102 63.16 47.1502 63.14C47.0975 63.14 47.0457 63.1538 47.0001 63.1802C46.9545 63.2065 46.9166 63.2444 46.8902 63.29C46.8629 63.3353 46.8484 63.3871 46.8484 63.44C46.8484 63.4929 46.8629 63.5448 46.8902 63.59C47.1199 63.8993 47.4478 64.1215 47.8202 64.22C48.5754 64.4013 49.2669 64.785 49.8202 65.33C50.1207 65.5965 50.483 65.7836 50.8742 65.8744C51.2654 65.9652 51.6731 65.9568 52.0602 65.85C52.4251 65.7498 52.7445 65.5272 52.9648 65.2195C53.1851 64.9118 53.2929 64.5378 53.2702 64.16C53.2354 63.9738 53.1601 63.7975 53.0494 63.6437C52.9388 63.4898 52.7957 63.3623 52.6302 63.27C52.4788 63.1867 52.3118 63.1357 52.1396 63.1202C51.9675 63.1047 51.7941 63.1251 51.6302 63.18C51.427 63.2531 51.2528 63.39 51.1339 63.5702C51.0149 63.7505 50.9575 63.9644 50.9702 64.18C50.9672 64.3172 51.0097 64.4514 51.0911 64.5618C51.1726 64.6722 51.2883 64.7524 51.4202 64.79C51.5164 64.8384 51.6225 64.8636 51.7302 64.8636C51.8379 64.8636 51.944 64.8384 52.0402 64.79C52.1186 64.7303 52.1839 64.6551 52.2321 64.5691C52.2803 64.4831 52.3102 64.3881 52.3202 64.29C52.3259 64.2692 52.3267 64.2474 52.3226 64.2263C52.3185 64.2051 52.3096 64.1852 52.2965 64.1681C52.2835 64.1509 52.2666 64.137 52.2473 64.1275C52.228 64.1179 52.2068 64.1129 52.1852 64.1129C52.1637 64.1129 52.1424 64.1179 52.1231 64.1275C52.1038 64.137 52.0869 64.1509 52.0739 64.1681C52.0608 64.1852 52.0519 64.2051 52.0478 64.2263C52.0437 64.2474 52.0445 64.2692 52.0502 64.29C52.0367 64.4038 51.9793 64.5079 51.8902 64.58C51.8273 64.6082 51.7591 64.6227 51.6902 64.6227C51.6213 64.6227 51.5531 64.6082 51.4902 64.58C51.4139 64.554 51.3482 64.5038 51.3031 64.437C51.258 64.3702 51.2359 64.2905 51.2402 64.21C51.2394 64.0596 51.285 63.9125 51.3709 63.789C51.4569 63.6655 51.5788 63.5715 51.7202 63.52C51.8476 63.4771 51.9823 63.4603 52.1163 63.4706C52.2503 63.4809 52.3809 63.5181 52.5002 63.58C52.6304 63.6558 52.7431 63.7582 52.831 63.8806C52.9189 64.0029 52.98 64.1424 53.0102 64.29C53.1402 64.85 52.5502 65.51 52.0102 65.67C51.6668 65.7716 51.3033 65.7845 50.9536 65.7075C50.6038 65.6306 50.2793 65.4663 50.0102 65.23C49.4319 64.6305 48.6977 64.2045 47.8902 64C47.5793 63.9191 47.3068 63.7315 47.1202 63.47C48.2029 63.3421 49.2001 62.8186 49.9202 62C50.1742 61.7379 50.4928 61.5472 50.8439 61.4471C51.1949 61.3471 51.5661 61.3412 51.9202 61.43H52.0302C52.263 61.506 52.4705 61.6444 52.6302 61.83C52.9363 62.1743 53.3415 62.4154 53.7902 62.52C54.0414 62.5623 54.2955 62.5857 54.5502 62.59C55.0207 62.5638 55.4872 62.6901 55.8802 62.95L56.0202 63.05C56.4958 63.4782 57.0871 63.7565 57.7202 63.85C58.1193 63.9112 58.4784 64.1267 58.7202 64.45C58.213 64.4569 57.7257 64.649 57.3502 64.99C56.8302 65.53 56.5402 65.6 55.4302 65.71C55.1356 65.7281 54.8513 65.8248 54.6068 65.9901C54.3623 66.1555 54.1667 66.3833 54.0402 66.65C53.9287 66.8388 53.7906 67.0105 53.6302 67.16C53.1302 67.56 52.2102 67.27 52.2002 67.27C52.1596 67.1834 52.1128 67.0999 52.0602 67.02C51.681 66.6609 51.2021 66.4248 50.6864 66.3428C50.1707 66.2607 49.6421 66.3364 49.1702 66.56C48.9915 66.6545 48.8238 66.7685 48.6702 66.9H48.6102C48.4414 66.9485 48.2639 66.9585 48.0908 66.929C47.9177 66.8996 47.7534 66.8316 47.6102 66.73C47.0565 66.2195 46.3574 65.8944 45.6102 65.8C45.3025 65.7822 45.0041 65.6878 44.7422 65.5254C44.4802 65.363 44.263 65.1377 44.1102 64.87L43.9802 64.7C43.6294 64.3134 43.1997 64.0065 42.7202 63.8C43.4693 63.4859 44.1289 62.9912 44.6402 62.36V62.3C44.8302 62.08 44.9702 61.92 46.0402 61.69L46.4202 61.59C46.9035 61.4402 47.336 61.1599 47.6702 60.78C47.8102 60.64 47.9502 60.5 48.1302 60.35C49.3215 59.5773 50.7102 59.1642 52.1302 59.16C53.3155 59.2114 54.4418 59.6911 55.3002 60.51C55.4829 60.6628 55.6731 60.8063 55.8702 60.94C56.3176 61.1875 56.7996 61.3662 57.3002 61.47C57.6388 61.5097 57.9656 61.619 58.2598 61.7911C58.5541 61.9632 58.8096 62.1944 59.0102 62.47C59.4061 62.9807 59.9357 63.3718 60.5402 63.6C61.2107 63.8836 61.8241 64.2868 62.3502 64.79C62.0239 64.8158 61.7061 64.9071 61.4158 65.0582C61.1254 65.2094 60.8685 65.4175 60.6602 65.67C60.5287 65.846 60.3622 65.9929 60.1712 66.1013C59.9802 66.2097 59.7687 66.2774 59.5502 66.3C59.2611 66.3706 59.0041 66.5361 58.8202 66.77ZM70.0002 70.13C69.8502 70.24 69.6702 70.4 69.4602 70.59C68.7102 71.27 67.5602 72.29 66.4002 72.2C64.4053 71.8793 62.5102 71.1062 60.8602 69.94C61.7612 69.8454 62.6172 69.4988 63.3302 68.94C64.2202 68.16 65.6502 67.42 66.7802 67.94C66.9536 68.0113 67.1076 68.1228 67.2293 68.2654C67.3511 68.408 67.4371 68.5776 67.4802 68.76C67.6032 69.2259 67.5386 69.7213 67.3002 70.14C67.097 70.3656 66.8242 70.5167 66.5252 70.5692C66.2261 70.6218 65.9181 70.5728 65.6502 70.43C65.5642 70.3847 65.4879 70.323 65.4257 70.2482C65.3636 70.1734 65.3168 70.0871 65.288 69.9943C65.2592 69.9014 65.249 69.8038 65.2579 69.7069C65.2669 69.6101 65.2949 69.516 65.3402 69.43C65.3987 69.3148 65.4902 69.2195 65.6031 69.1565C65.7159 69.0936 65.845 69.0656 65.9738 69.0764C66.1027 69.0871 66.2253 69.136 66.3262 69.2168C66.4271 69.2976 66.5016 69.4067 66.5402 69.53C66.5555 69.5626 66.5827 69.588 66.6162 69.601C66.6497 69.6141 66.687 69.6137 66.7202 69.6C66.751 69.583 66.7742 69.5551 66.7853 69.5217C66.7965 69.4884 66.7946 69.4521 66.7802 69.42C66.6943 69.2172 66.5438 69.0485 66.3521 68.94C66.1604 68.8315 65.9383 68.7893 65.7202 68.82C65.5459 68.8848 65.3931 68.9969 65.279 69.1438C65.1649 69.2906 65.094 69.4663 65.0743 69.6512C65.0546 69.8361 65.0868 70.0229 65.1673 70.1905C65.2478 70.3581 65.3735 70.4999 65.5302 70.6C65.8542 70.7791 66.2299 70.841 66.5942 70.7754C66.9585 70.7099 67.289 70.5208 67.5302 70.24C67.6775 70.002 67.7732 69.7357 67.8111 69.4584C67.849 69.181 67.8282 68.8988 67.7502 68.63C67.6997 68.4086 67.5971 68.2024 67.451 68.0285C67.305 67.8546 67.1196 67.718 66.9102 67.63C65.6702 67.09 64.1202 67.88 63.1702 68.71L63.0002 68.85C62.6828 68.4104 62.3282 67.9989 61.9402 67.62C61.4203 67.1353 60.8261 66.7369 60.1802 66.44C60.5401 66.3322 60.8534 66.1069 61.0702 65.8C61.4505 65.3558 61.9881 65.0762 62.5702 65.02C62.6287 65.0168 62.6848 64.996 62.7312 64.9603C62.7776 64.9246 62.8121 64.8757 62.8302 64.82C62.8502 64.7664 62.8532 64.7079 62.8389 64.6525C62.8246 64.597 62.7936 64.5473 62.7502 64.51C62.4927 64.268 62.2187 64.0441 61.9302 63.84C62.1287 63.7696 62.3327 63.7161 62.5402 63.68C63.1731 63.5321 63.8384 63.621 64.4102 63.93C64.8049 64.1698 65.1649 64.4626 65.4802 64.8C66.0391 65.4593 66.8233 65.8871 67.6802 66C69.4202 66.25 69.6802 66.38 70.2402 67.27C70.7983 68.0371 71.4732 68.7119 72.2402 69.27C71.4499 69.4268 70.6923 69.7176 70.0002 70.13Z" fill="#8BE7F5"/>
<path d="M42.0699 35V17C42.0699 16.7348 41.9645 16.4804 41.777 16.2929C41.5895 16.1054 41.3351 16 41.0699 16C40.8047 16 40.5503 16.1054 40.3628 16.2929C40.1752 16.4804 40.0699 16.7348 40.0699 17V27.89C36.1799 20.28 27.0699 16.25 17.8799 21.3C15.4141 22.69 13.4138 24.7773 12.1299 27.3V17.06C12.1299 16.7948 12.0245 16.5404 11.837 16.3529C11.6495 16.1654 11.3951 16.06 11.1299 16.06C10.8647 16.06 10.6103 16.1654 10.4228 16.3529C10.2352 16.5404 10.1299 16.7948 10.1299 17.06V35C9.59945 35 9.09074 35.2107 8.71567 35.5858C8.3406 35.9609 8.12988 36.4696 8.12988 37V43C8.12988 43.5304 8.3406 44.0391 8.71567 44.4142C9.09074 44.7893 9.59945 45 10.1299 45H10.3899C10.6 45.7523 11.0152 46.4314 11.5892 46.9612C12.1631 47.491 12.8732 47.8507 13.6399 48C17.712 48.6157 21.8218 48.9499 25.9399 49C30.1742 48.9509 34.4004 48.6168 38.5899 48C39.3561 47.8496 40.0656 47.4895 40.6394 46.9599C41.2132 46.4302 41.6288 45.7518 41.8399 45H42.0699C42.6003 45 43.109 44.7893 43.4841 44.4142C43.8592 44.0391 44.0699 43.5304 44.0699 43V37C44.0699 36.4696 43.8592 35.9609 43.4841 35.5858C43.109 35.2107 42.6003 35 42.0699 35ZM37.9999 40.85C37.9999 41.3804 37.7892 41.8891 37.4141 42.2642C37.039 42.6393 36.5303 42.85 35.9999 42.85C35.9999 42.85 28.4799 43.15 25.9999 43.15C23.5199 43.15 16.0699 42.85 16.0699 42.85C15.6341 42.8426 15.2126 42.693 14.8697 42.4241C14.5267 42.1551 14.281 41.7815 14.1699 41.36C14.1154 41.1983 14.0817 41.0303 14.0699 40.86V36.86C14.0724 36.5673 14.1059 36.2757 14.1699 35.99C14.3609 35.1107 14.8429 34.3215 15.5378 33.7499C16.2328 33.1783 17.1002 32.8577 17.9999 32.84C17.9999 32.84 23.9999 32.73 25.9999 32.73C27.9999 32.73 33.9299 32.84 33.9299 32.84C34.9907 32.84 36.0082 33.2614 36.7583 34.0116C37.5085 34.7617 37.9299 35.7791 37.9299 36.84L37.9999 40.85Z" fill="#006FE6"/>
<path d="M31.98 39.54C33.0845 39.54 33.98 38.6445 33.98 37.54C33.98 36.4354 33.0845 35.54 31.98 35.54C30.8754 35.54 29.98 36.4354 29.98 37.54C29.98 38.6445 30.8754 39.54 31.98 39.54Z" fill="#006FE6"/>
<path d="M20.0098 39.54C21.1143 39.54 22.0098 38.6445 22.0098 37.54C22.0098 36.4354 21.1143 35.54 20.0098 35.54C18.9052 35.54 18.0098 36.4354 18.0098 37.54C18.0098 38.6445 18.9052 39.54 20.0098 39.54Z" fill="#006FE6"/>
<path d="M80.2001 56.73L74.2401 41.81H59.3201L53.3501 56.73H80.2001Z" fill="#78BC61"/>
<path d="M74.2398 41.81H59.3198V51.24H74.2398V41.81Z" fill="#639A50"/>
<path d="M59.3202 51.24L55.6602 64.81H78.7602L74.2402 51.24H59.3202Z" fill="#4D783E"/>
<path d="M71.2501 56.73C71.2501 57.9235 70.776 59.068 69.9321 59.912C69.0882 60.7559 67.9436 61.23 66.7501 61.23C65.5566 61.23 64.412 60.7559 63.5681 59.912C62.7242 59.068 62.2501 57.9235 62.2501 56.73H53.3501V65.73C53.3501 66.5256 53.6662 67.2887 54.2288 67.8513C54.7914 68.4139 55.5544 68.73 56.3501 68.73H77.2201C78.0157 68.73 78.7788 68.4139 79.3414 67.8513C79.904 67.2887 80.2201 66.5256 80.2201 65.73V56.73H71.2501Z" fill="#639A50"/>
</svg>
