<svg width="88" height="88" viewBox="0 0 88 88" fill="none" xmlns="http://www.w3.org/2000/svg">
<path d="M44 88C68.3005 88 88 68.3005 88 44C88 19.6995 68.3005 0 44 0C19.6995 0 0 19.6995 0 44C0 68.3005 19.6995 88 44 88Z" fill="white"/>
<path d="M14.6966 55.7278C14.6966 55.7278 21.1028 66.6588 35.8797 69.1038C48.7264 71.2239 63.0518 69.124 74.2963 59.8758C85.5408 50.6276 83.3632 40.8042 80.0782 36.2592C76.7931 31.7142 72.9644 31.3 69.8405 31.159C66.7165 31.0181 60.5463 31.6941 51.0277 26.5306C41.5091 21.3672 34.0387 19.7937 23.4126 25.8719C12.7866 31.9501 8.79104 44.3653 14.6966 55.7278Z" fill="#E7FAFD"/>
<path d="M43.0856 40.7408C42.7347 40.6402 42.4298 40.5682 42.2227 40.5222C42.4298 40.5596 42.7347 40.6402 43.0856 40.7408Z" fill="#E7FAFD"/>
<path d="M43.9283 40.9997C43.6406 40.9019 43.353 40.8128 43.0854 40.7408C43.3501 40.8128 43.6378 40.9019 43.9283 40.9997Z" fill="#E7FAFD"/>
<path d="M68.4164 40.8071C68.3387 40.7323 68.2668 40.6575 68.1978 40.5856C68.2668 40.6575 68.3387 40.7323 68.4164 40.8071Z" fill="#E7FAFD"/>
<path d="M42.2856 39.8261C42.5158 39.6448 42.8293 39.3888 43.1688 39.0925C42.8351 39.3888 42.5215 39.6448 42.2856 39.8261Z" fill="#E7FAFD"/>
<path d="M44.5006 41.2184C44.3136 41.1407 44.1209 41.0688 43.9253 40.9998C44.1209 41.0688 44.3136 41.135 44.5006 41.2184Z" fill="#E7FAFD"/>
<path d="M50.7484 44.8744C50.2359 44.8641 49.7305 44.7527 49.2612 44.5465C49.7305 44.7527 50.2359 44.8641 50.7484 44.8744Z" fill="#E7FAFD"/>
<path d="M73.013 32.9512L72.9785 33.0145L73.013 32.9512Z" fill="#E7FAFD"/>
<path d="M78.8728 24.937C78.7385 24.9728 78.6004 24.9922 78.4614 24.9945C78.6004 24.9922 78.7385 24.9728 78.8728 24.937Z" fill="#E7FAFD"/>
<path d="M79.4194 22.4199C79.6436 22.4204 79.8672 22.4435 80.0868 22.489C79.8672 22.4435 79.6436 22.4204 79.4194 22.4199Z" fill="#E7FAFD"/>
<path d="M78.4499 27.4395H78.4355L78.2744 27.2784L78.4355 27.4395H78.4499Z" fill="#E7FAFD"/>
<path d="M77.4547 37.8528C77.3899 37.5868 77.2841 37.3325 77.1411 37.0991C77.2841 37.3325 77.3899 37.5868 77.4547 37.8528Z" fill="#E7FAFD"/>
<path d="M61.2077 29.8444C61.3515 29.6862 61.4954 29.5337 61.6363 29.3899C61.4925 29.5337 61.3486 29.6775 61.2077 29.8444C60.942 30.1532 60.6536 30.4417 60.3447 30.7074C60.6536 30.4417 60.942 30.1532 61.2077 29.8444Z" fill="#E7FAFD"/>
<path d="M42.2853 39.826C42.0552 40.0073 41.9085 40.1137 41.9027 40.1137C41.8906 40.1269 41.88 40.1413 41.8711 40.1569C41.88 40.1413 41.8906 40.1269 41.9027 40.1137C41.9027 40.1137 42.0609 40.0073 42.2853 39.826Z" fill="#E7FAFD"/>
<path d="M83.938 33.6875L83.7539 33.9234L83.938 33.6875C84.2037 33.3726 84.5184 33.1026 84.87 32.8878C84.5184 33.1026 84.2037 33.3726 83.938 33.6875Z" fill="#E7FAFD"/>
<path d="M78.9502 23.5879L78.9761 23.5419C78.9658 23.5562 78.9571 23.5716 78.9502 23.5879Z" fill="#E7FAFD"/>
<path d="M82.4341 25.1182C82.4623 25.324 82.4691 25.5322 82.4542 25.7395C82.4691 25.5322 82.4623 25.324 82.4341 25.1182Z" fill="#E7FAFD"/>
<path d="M72.3686 31.6768C72.3254 31.6624 72.2794 31.6566 72.2334 31.6451C72.3977 31.7133 72.5556 31.7961 72.7052 31.8925C72.6087 31.7986 72.4942 31.7252 72.3686 31.6768Z" fill="#E7FAFD"/>
<path d="M68.7127 25.6216C67.9909 26.0122 67.3105 26.4748 66.6818 27.0023C66.4402 27.1951 66.2302 27.3562 66.0317 27.4942C66.2302 27.3562 66.4402 27.2066 66.6818 27.0023C67.3105 26.4748 67.9909 26.0122 68.7127 25.6216Z" fill="#E7FAFD"/>
<path d="M79.7989 28.2393L79.7212 28.3198L79.7989 28.2393Z" fill="#E7FAFD"/>
<path d="M57.9542 40.5165C57.3691 40.3543 56.8094 40.1113 56.2915 39.7944C56.8094 40.1113 57.3691 40.3543 57.9542 40.5165Z" fill="#E7FAFD"/>
<path d="M59.6597 40.8472C59.629 40.826 59.5933 40.8131 59.5561 40.8098C59.5561 40.8098 59.2886 40.8098 58.8945 40.7322C59.2886 40.7955 59.5475 40.8098 59.5533 40.8098C59.5914 40.8126 59.6282 40.8256 59.6597 40.8472Z" fill="#E7FAFD"/>
<path d="M63.6411 38.4281C64.2641 38.6028 64.8971 38.7392 65.5368 38.8366C65.8217 38.8859 66.1018 38.96 66.3739 39.0581C66.1018 38.96 65.8217 38.8859 65.5368 38.8366C64.8971 38.7392 64.2641 38.6028 63.6411 38.4281Z" fill="#E7FAFD"/>
<path d="M67.2056 39.5327C67.3521 39.66 67.4905 39.7964 67.6198 39.9412C67.4905 39.7964 67.3521 39.66 67.2056 39.5327Z" fill="#E7FAFD"/>
<path d="M81.0963 24.3761C81.0221 24.1813 80.9172 23.9997 80.7856 23.8381C80.9172 23.9997 81.0221 24.1813 81.0963 24.3761Z" fill="#E7FAFD"/>
<path d="M85.9086 31.9012C85.8672 31.8512 85.8123 31.8142 85.7504 31.7947C85.2608 31.6386 84.8023 31.3981 84.3955 31.0842C84.8023 31.3981 85.2608 31.6386 85.7504 31.7947C85.8123 31.8142 85.8672 31.8512 85.9086 31.9012Z" fill="#E7FAFD"/>
<path d="M57.8999 42.4092C58.5404 42.0565 59.1379 41.6309 59.6805 41.1407C59.7092 41.1147 59.7293 41.0806 59.738 41.0428C59.7293 41.0806 59.7092 41.1147 59.6805 41.1407C59.1379 41.6309 58.5404 42.0565 57.8999 42.4092Z" fill="#E7FAFD"/>
<path d="M79.589 23.5562C79.5524 23.5604 79.5177 23.5743 79.4883 23.5964C79.5171 23.5733 79.5522 23.5593 79.589 23.5562Z" fill="#E7FAFD"/>
<path d="M80.6219 28.6535C80.8232 28.6967 81.0045 28.7398 81.1684 28.7801C81.0045 28.7398 80.8232 28.6967 80.6219 28.6535H80.5586C80.7181 28.5509 80.8717 28.4395 81.0188 28.3198C80.8717 28.4395 80.7181 28.5509 80.5586 28.6535H80.6219Z" fill="#E7FAFD"/>
<path d="M77.5405 39.1559C77.5752 38.8635 77.5752 38.568 77.5405 38.2756C77.5752 38.568 77.5752 38.8635 77.5405 39.1559Z" fill="#E7FAFD"/>
<path d="M78.208 22.6818C78.0369 22.7635 77.8789 22.8701 77.7391 22.9982C77.5942 23.1188 77.4812 23.2732 77.41 23.4477C77.3388 23.6223 77.3115 23.8117 77.3306 23.9992C77.3139 23.814 77.3424 23.6275 77.4135 23.4556C77.4846 23.2838 77.5964 23.1318 77.7391 23.0126C77.8779 22.8794 78.036 22.7679 78.208 22.6818Z" fill="#E7FAFD"/>
<path d="M46.4453 35.6148C46.7782 35.46 47.1289 35.3469 47.4895 35.2782C47.1289 35.3469 46.7782 35.46 46.4453 35.6148Z" fill="#E7FAFD"/>
<path d="M67.6196 39.9412L67.8239 40.1713C67.936 40.3007 68.0597 40.4417 68.1978 40.5855C68.0597 40.4417 67.936 40.2979 67.8239 40.1713L67.6196 39.9412Z" fill="#E7FAFD"/>
<path d="M79.3931 28.2104C79.4592 28.2478 79.5283 28.2852 79.6031 28.3198C79.534 28.2852 79.465 28.2478 79.3931 28.2104Z" fill="#E7FAFD"/>
<path d="M79.9688 28.0725L80.0522 27.9775L79.9688 28.0725Z" fill="#E7FAFD"/>
<path d="M85.9346 32.2694C85.9684 32.2131 85.9845 32.1479 85.9806 32.0824C85.9845 32.1479 85.9684 32.2131 85.9346 32.2694Z" fill="#E7FAFD"/>
<path d="M57.7443 36.3081C58.1937 35.9901 58.6831 35.7329 59.1998 35.5429C59.045 35.4157 58.9077 35.2687 58.7914 35.1057C58.2419 34.447 57.4536 34.0332 56.5994 33.955C56.5154 33.9484 56.4351 33.9174 56.3684 33.8659C56.3017 33.8144 56.2514 33.7446 56.2236 33.665C56.1959 33.5854 56.1919 33.4995 56.2121 33.4177C56.2324 33.3359 56.276 33.2617 56.3376 33.2042C56.4959 33.0575 56.7058 32.8763 56.9388 32.6836C56.4556 32.6347 55.3999 32.6088 54.6577 33.233C53.6711 34.0643 52.1781 35.8708 50.5183 36.2246C48.8586 36.5785 47.2908 36.5957 46.6005 37.4357C46.0108 38.1519 45.5706 39.0437 45.0097 39.5902C44.9808 39.6188 44.9592 39.6539 44.9468 39.6926C44.9343 39.7312 44.9313 39.7723 44.9381 39.8124C44.9449 39.8525 44.9612 39.8903 44.9857 39.9227C45.0102 39.9552 45.0421 39.9812 45.0787 39.9987C45.7882 40.3265 46.4508 40.7473 47.0492 41.25C47.9812 42.0871 48.9132 43.0364 50.0897 43.3729C51.2663 43.7095 56.1018 42.4409 57.2006 41.3823C57.2006 41.3823 55.2934 40.6172 54.2493 39.688C53.2051 38.7589 51.5999 38.3102 50.6679 38.7762C50.4948 38.8686 50.3442 38.9981 50.2269 39.1554C50.1096 39.3128 50.0284 39.494 49.9891 39.6863C49.9498 39.8786 49.9534 40.0772 49.9996 40.2679C50.0459 40.4586 50.1336 40.6368 50.2566 40.7898C50.6305 41.1263 51.6373 41.4801 51.9538 40.9767C52.2184 40.5596 51.8243 40.3439 51.3784 40.5596C51.1554 40.6716 50.8978 40.6932 50.6593 40.62C50.6341 40.632 50.6066 40.6383 50.5787 40.6383C50.5509 40.6383 50.5234 40.632 50.4982 40.62C50.4514 40.5982 50.4152 40.5587 50.3974 40.5102C50.3796 40.4617 50.3817 40.4081 50.4033 40.3611C50.5283 40.063 50.7502 39.8157 51.0331 39.6591C51.316 39.5025 51.6433 39.4459 51.9624 39.4982H51.9854C52.2582 39.5726 52.5023 39.7273 52.6861 39.9422C52.8698 40.1571 52.9846 40.4224 53.0156 40.7034C53.0467 40.9845 52.9924 41.2684 52.86 41.5182C52.7276 41.768 52.5231 41.9723 52.273 42.1043C51.2087 42.7631 49.8251 42.228 49.3418 41.5722C49.2071 41.3623 49.1098 41.1307 49.0542 40.8876C48.8998 40.6207 48.8477 40.3069 48.9075 40.0045L48.9276 39.9354C48.9291 39.6955 48.961 39.4568 49.0225 39.2249C49.1005 38.9017 49.2534 38.6013 49.4687 38.348C49.6841 38.0947 49.9559 37.8955 50.2623 37.7665C50.4189 37.7046 50.5806 37.6565 50.7456 37.6227L50.8261 37.5996C52.2644 37.2832 53.8983 37.9765 55.1209 38.8711C55.584 38.1548 57.1977 36.7482 57.7443 36.3081Z" fill="#E7FAFD"/>
<path d="M81.755 32.954C81.9446 32.7312 82.1577 32.5296 82.3907 32.3528C82.4207 32.3281 82.4454 32.2977 82.4633 32.2632C82.4812 32.2288 82.492 32.1911 82.4949 32.1524C82.4979 32.1137 82.493 32.0748 82.4805 32.0381C82.4681 32.0013 82.4483 31.9675 82.4224 31.9385C82.0263 31.5193 81.5754 31.1555 81.0819 30.857C80.4231 30.529 77.9752 29.9422 77.1266 29.0505C76.278 28.1587 74.1378 26.7952 71.9488 26.9592C69.7597 27.1232 68.6781 27.7733 67.5016 28.7053C66.3251 29.6373 63.7621 29.4963 62.8646 30.2241C61.9671 30.9519 61.0034 32.1025 59.8729 32.5484C59.3578 32.7424 58.8528 32.9622 58.3599 33.2071C58.3599 33.2071 59.4501 33.7824 59.8988 34.3577C60.3476 34.9331 61.5701 34.9935 61.993 35.2754C62.4158 35.5573 63.3104 36.613 63.8052 37.0588C64.3 37.5047 66.2302 37.6342 66.9119 38.0455C67.9975 38.7934 69.028 39.6182 69.9956 40.5136C70.5321 40.9656 71.1691 41.2825 71.8533 41.4377C72.5375 41.5928 73.2488 41.5817 73.9279 41.4053C75.3661 40.9825 76.4938 39.9038 76.6347 38.7762C76.7757 37.6485 75.5272 36.8258 74.7506 36.7626C73.9739 36.6993 72.8664 36.9984 72.5615 37.7262C72.2566 38.454 73.5798 38.9372 73.2576 38.0915C73.2873 37.9511 73.3658 37.8258 73.4791 37.7377C73.488 37.6936 73.5122 37.654 73.5475 37.6261C73.5828 37.5982 73.6269 37.5837 73.6718 37.5853C73.8155 37.5984 73.9544 37.6431 74.0788 37.7162C74.2031 37.7893 74.3097 37.889 74.391 38.0081C74.4896 38.1623 74.5452 38.3401 74.5521 38.523C74.576 38.7313 74.54 38.9421 74.4482 39.1306C74.3565 39.3191 74.2129 39.4776 74.0343 39.5873C73.5366 39.8894 72.7974 39.8261 72.1501 39.4291C72.0897 39.3917 72.0408 39.3515 71.9862 39.3112C71.9315 39.2709 71.9114 39.2623 71.8797 39.2335C71.6368 39.0319 71.467 38.7559 71.3965 38.4482C71.3418 38.1797 71.3556 37.9017 71.4367 37.6399C71.1534 37.7036 70.8642 37.7374 70.5738 37.7406C70.0997 37.7612 69.6328 37.6191 69.2506 37.3379C68.9818 37.0969 68.7535 36.8143 68.5746 36.5008C68.215 35.9255 67.8727 35.4077 66.8314 35.3099C65.1054 35.143 64.6193 35.0222 63.7736 34.1305C63.7325 34.0917 63.6893 34.0552 63.6441 34.0212C63.4858 33.9077 63.3195 33.8058 63.1465 33.7163L63.0458 33.6731C62.6205 33.5228 62.1704 33.4554 61.7197 33.4746C61.7024 33.4746 61.6909 33.4545 61.6737 33.4516C61.6013 33.4574 61.5293 33.467 61.4579 33.4804L61.5413 33.3423C61.5182 33.299 61.5131 33.2484 61.527 33.2014C61.7147 32.8262 61.9914 32.5027 62.3328 32.2591C62.6743 32.0154 63.0701 31.8589 63.4859 31.8033C64.3429 31.6797 65.1439 31.3043 65.7872 30.7246L65.9972 30.5635C66.6818 30.0343 67.4067 29.9882 68.1718 29.9652C68.5264 29.957 68.88 29.9253 69.2304 29.8703C69.8805 29.7581 70.335 29.3324 70.7349 28.9584C71.0772 28.6362 71.4022 28.3342 71.8049 28.2652L71.9632 28.2393C72.7255 28.1041 73.7668 27.92 75.2338 29.1598L75.3057 29.2202C76.6491 30.3708 77.7134 31.2597 79.1172 31.2338C79.1956 31.2333 79.2726 31.2543 79.34 31.2943C79.4074 31.3343 79.4627 31.392 79.4998 31.461C79.5349 31.5291 79.5501 31.6058 79.5435 31.6822C79.5369 31.7586 79.5087 31.8315 79.4624 31.8925C79.1331 32.3474 78.6546 32.6721 78.1104 32.8101C77.1698 33.0489 75.8983 33.6012 75.1533 34.4354C74.4082 35.2696 72.8923 35.4825 71.8711 35.1977C70.8499 34.9129 69.8575 33.7594 70.0991 32.7239C70.1542 32.4522 70.2669 32.1956 70.4297 31.9713C70.5924 31.7469 70.8015 31.5602 71.0427 31.4236C71.2642 31.3011 71.5092 31.2267 71.7615 31.2054C72.0139 31.1841 72.2678 31.2163 72.5068 31.2999C72.7911 31.4071 73.0356 31.5989 73.2074 31.8494C73.3792 32.0999 73.4701 32.3971 73.4676 32.7008C73.4727 32.9014 73.4114 33.0981 73.2934 33.2604C73.1753 33.4226 73.0071 33.5414 72.8146 33.5983C72.6667 33.6568 72.5071 33.6797 72.3488 33.6652C72.1904 33.6507 72.0376 33.5993 71.9028 33.5149C71.6987 33.3675 71.5596 33.1469 71.5144 32.8993L71.4885 32.9453C71.2699 33.4027 71.9229 33.8083 72.6737 33.9752C73.4245 34.142 74.112 33.3596 74.6671 32.8245C75.2008 32.382 75.7793 31.9963 76.3931 31.6739C75.3949 31.4265 74.7419 30.3363 74.0717 29.948C73.4014 29.5596 72.6852 29.3094 71.8884 29.853C71.0916 30.3967 70.1279 31.1302 68.7241 31.2367C67.3204 31.3431 66.6214 31.4409 65.8274 32.0766C65.2232 32.497 64.5284 32.769 63.7995 32.8706C64.0803 32.9675 64.3436 33.1093 64.579 33.2905C65.0623 33.6328 65.9195 33.9752 67.1507 34.1046C68.3818 34.234 69.1154 35.4365 69.8172 36.2764C70.4127 36.9898 71.6582 36.7395 72.0236 36.6475C72.76 35.9226 74.7132 35.4221 76.068 36.1585L76.1399 36.2045C76.6721 35.796 78.4412 34.4786 79.1114 34.2254C79.8939 33.9435 81.2085 33.7335 81.755 32.954Z" fill="#E7FAFD"/>
<path d="M78.7231 27.7072L78.8555 27.8222L78.7231 27.7072Z" fill="#E7FAFD"/>
<path d="M50.4927 34.5993C50.7365 34.4786 50.9677 34.3341 51.183 34.1678C50.9677 34.3341 50.7365 34.4786 50.4927 34.5993Z" fill="#E7FAFD"/>
<path d="M53.7144 32.0306C53.965 31.8817 54.2338 31.7657 54.514 31.6854C54.2338 31.7657 53.965 31.8817 53.7144 32.0306Z" fill="#E7FAFD"/>
<path d="M54.5142 31.6854C54.7739 31.6083 55.0409 31.5582 55.311 31.5358C55.0409 31.5582 54.7739 31.6083 54.5142 31.6854Z" fill="#E7FAFD"/>
<path d="M79.0366 27.9718C79.0884 28.0121 79.1488 28.0524 79.2063 28.0926C79.1488 28.0524 79.0884 28.0121 79.0366 27.9718Z" fill="#E7FAFD"/>
<path d="M55.311 31.5358C55.4405 31.5358 55.5671 31.5186 55.6936 31.5186C55.5671 31.5186 55.4405 31.5243 55.311 31.5358Z" fill="#E7FAFD"/>
<path d="M45.0531 37.0589C45.5133 36.3139 45.8758 35.8939 46.4453 35.6206C45.87 35.9083 45.5133 36.3196 45.0502 37.0589C44.6639 37.6337 44.209 38.1592 43.6953 38.6237C44.2091 38.1585 44.665 37.6331 45.0531 37.0589Z" fill="#E7FAFD"/>
<path d="M81.0586 26.2372C81.0787 26.1796 81.0989 26.125 81.1161 26.0646C81.0989 26.125 81.0787 26.1768 81.0586 26.2372Z" fill="#E7FAFD"/>
<path d="M80.8315 26.7751C80.8603 26.7204 80.8862 26.6629 80.9121 26.6053C80.8948 26.6629 80.8689 26.7204 80.8315 26.7751Z" fill="#E7FAFD"/>
<path d="M71.9371 32.9799C71.9322 32.927 71.9155 32.8759 71.8882 32.8303C71.8991 32.8818 71.9155 32.9319 71.9371 32.9799Z" fill="#E7FAFD"/>
<path d="M81.2429 25.0809C81.2326 24.8395 81.1831 24.6015 81.0962 24.3761C81.1831 24.6015 81.2326 24.8395 81.2429 25.0809Z" fill="#E7FAFD"/>
<path d="M80.584 27.2411C80.6099 27.1979 80.6329 27.1548 80.6616 27.1088L80.584 27.2411Z" fill="#E7FAFD"/>
<path d="M60.1032 36.0434C59.7716 35.9389 59.4644 35.7687 59.2 35.5428C58.6833 35.7328 58.1939 35.9901 57.7444 36.308C57.1979 36.7481 55.5841 38.1548 55.1152 38.8969C55.3281 39.0523 55.5352 39.2162 55.7222 39.3802C55.8027 39.4521 55.8862 39.5183 55.9696 39.5844C56.4362 38.9384 56.9578 38.334 57.5287 37.7779C58.289 37.0664 59.1582 36.4808 60.1032 36.0434Z" fill="#B9F1F9"/>
<path d="M50.8203 37.614L50.7397 37.637L50.8203 37.614Z" fill="#B9F1F9"/>
<path d="M49.0483 40.902C48.9593 40.5926 48.9166 40.2717 48.9217 39.9498L48.9016 40.0189C48.8418 40.3213 48.8939 40.6351 49.0483 40.902Z" fill="#B9F1F9"/>
<path d="M51.3842 40.5596C51.8243 40.3439 52.2184 40.5596 51.9595 40.9767C51.643 41.4801 50.6362 41.1263 50.2623 40.7897C50.1393 40.6368 50.0516 40.4586 50.0054 40.2679C49.9591 40.0771 49.9555 39.8785 49.9948 39.6863C50.0341 39.494 50.1153 39.3127 50.2326 39.1554C50.35 38.9981 50.5005 38.8686 50.6736 38.7761C51.6056 38.3101 53.2108 38.756 54.255 39.688C55.2992 40.62 57.2063 41.3823 57.2063 41.3823C56.1075 42.4409 51.2691 43.7066 50.0954 43.3729C48.9218 43.0392 47.9869 42.0871 47.0549 41.25C46.4566 40.7472 45.7939 40.3264 45.0845 39.9987C45.0478 39.9812 45.0159 39.9551 44.9914 39.9227C44.9669 39.8903 44.9506 39.8524 44.9438 39.8124C44.9371 39.7723 44.94 39.7312 44.9525 39.6925C44.965 39.6539 44.9865 39.6188 45.0154 39.5902C45.5764 39.0436 46.0165 38.1519 46.6062 37.4356C47.2965 36.5957 48.8643 36.5727 50.5241 36.2246C52.1838 35.8765 53.6883 34.0643 54.6634 33.233C55.4056 32.6088 56.4613 32.6346 56.9446 32.6836C57.1287 32.534 57.3243 32.3959 57.54 32.2291C57.2505 32.1246 56.9533 32.0429 56.6511 31.9845C55.7255 31.776 54.7558 31.9067 53.9184 32.3527C53.343 32.7182 52.8171 33.1561 52.3536 33.6558C51.5567 34.4325 50.806 35.1689 49.1376 35.4077C46.586 35.7701 46.2035 35.9628 45.398 37.2717C44.7105 38.3878 43.1773 39.6506 42.4927 40.1828C43.2607 40.364 44.8889 40.807 45.7116 41.4283C45.9359 41.598 46.1977 41.8339 46.5026 42.1072C47.6101 43.1025 49.2814 44.6012 50.9843 44.4689C53.0324 44.302 57.1977 42.6911 59.0934 41.1579C58.3023 41.0544 56.6713 40.7207 55.4775 39.6679C54.1773 38.5172 52.0716 37.4328 50.4234 38.1433C50.1706 38.2491 49.9466 38.4137 49.7701 38.6232C49.5935 38.8328 49.4694 39.0815 49.4079 39.3486C49.3169 39.6849 49.2931 40.0359 49.338 40.3815C49.3829 40.727 49.4957 41.0603 49.6697 41.3622C50.0005 41.8109 51.1511 42.369 52.0832 41.7936C52.2695 41.7023 52.4234 41.5562 52.5244 41.375C52.6254 41.1938 52.6686 40.986 52.6483 40.7795C52.6279 40.573 52.545 40.3777 52.4106 40.2196C52.2762 40.0616 52.0967 39.9483 51.8962 39.8951C51.6636 39.8636 51.4271 39.9108 51.2244 40.0291C51.0216 40.1474 50.8642 40.3301 50.7772 40.5481C50.7568 40.5889 50.7219 40.6207 50.6794 40.6373C50.9157 40.7013 51.1675 40.6735 51.3842 40.5596Z" fill="#B9F1F9"/>
<path d="M80.0292 28.4953C80.3168 28.3429 81.571 27.6324 81.9709 26.2487C82.1577 25.5404 82.0557 24.7868 81.6873 24.1536C81.3189 23.5204 80.7143 23.0593 80.0062 22.8716C79.2352 22.7106 78.4499 22.8716 77.9925 23.283C77.8952 23.3629 77.8183 23.4648 77.7682 23.5804C77.7182 23.696 77.6965 23.8218 77.7049 23.9475C77.7112 24.0609 77.7452 24.171 77.8038 24.2683C77.8625 24.3656 77.9441 24.447 78.0414 24.5055C78.1839 24.5731 78.3397 24.6081 78.4974 24.6081C78.6551 24.6081 78.8108 24.5731 78.9533 24.5055C79.0918 24.4392 79.2076 24.3333 79.2859 24.2012C79.3643 24.0691 79.4017 23.9167 79.3934 23.7634C79.3931 23.7318 79.4008 23.7007 79.4159 23.673C79.431 23.6453 79.453 23.6219 79.4797 23.6052C79.4355 23.5536 79.3805 23.5124 79.3186 23.4843H79.2841C79.2312 23.4631 79.1734 23.4571 79.1173 23.4671C79.0607 23.4848 79.0126 23.5227 78.9821 23.5735L78.9562 23.6195C78.9177 23.7044 78.899 23.7968 78.9015 23.8899C78.9015 24.2869 78.0041 24.3761 78.2486 23.8698C78.3543 23.6842 78.5076 23.5302 78.6927 23.4235C78.8777 23.3169 79.0878 23.2614 79.3014 23.2629H79.333C79.4288 23.257 79.5249 23.257 79.6207 23.2629C79.8101 23.2809 79.996 23.3255 80.173 23.3952C80.4157 23.4977 80.6292 23.6588 80.7943 23.8641C80.9259 24.0257 81.0308 24.2073 81.105 24.402C81.1919 24.6274 81.2415 24.8654 81.2517 25.1067C81.2616 25.2437 81.2616 25.3811 81.2517 25.5181C81.2302 25.7128 81.1917 25.9053 81.1366 26.0934C81.1194 26.1538 81.0992 26.2085 81.0791 26.266C81.0396 26.3911 80.9935 26.514 80.941 26.6342C80.9152 26.6917 80.8893 26.7493 80.8605 26.8039C80.803 26.919 80.7426 27.0312 80.6821 27.1376C80.6534 27.1836 80.6304 27.2268 80.6045 27.2699C80.5182 27.408 80.429 27.5374 80.3398 27.6554V27.6726C80.2478 27.7963 80.1557 27.9056 80.0694 28.0063L79.986 28.1012L79.8307 28.2681L79.753 28.3486L79.7185 28.3803C79.8202 28.4235 79.9238 28.4619 80.0292 28.4953Z" fill="#B9F1F9"/>
<path d="M69.797 36.2764C69.0951 35.4364 68.3587 34.234 67.1304 34.1046C65.9021 33.9751 65.042 33.6328 64.5587 33.2905C64.3233 33.1093 64.06 32.9674 63.7792 32.8705C64.5082 32.7689 65.2029 32.4969 65.8072 32.0766C66.6011 31.4409 67.303 31.3459 68.7039 31.2366C70.1047 31.1273 71.0742 30.3967 71.8681 29.853C72.662 29.3093 73.3812 29.5423 74.0514 29.9479C74.7216 30.3535 75.3746 31.4409 76.3728 31.6739C75.759 31.9963 75.1806 32.3819 74.6468 32.8245C74.1003 33.3538 73.4013 34.1333 72.6534 33.9751C71.9055 33.8169 71.2496 33.3998 71.4682 32.9453L71.4941 32.8993C71.4941 32.8619 71.4797 32.8216 71.4769 32.7929C71.4723 32.7659 71.4734 32.7382 71.4802 32.7117C71.487 32.6852 71.4992 32.6604 71.5162 32.639C71.5331 32.6175 71.5544 32.5998 71.5786 32.587C71.6028 32.5743 71.6294 32.5668 71.6567 32.565C71.684 32.5631 71.7114 32.5671 71.7371 32.5765C71.7628 32.5859 71.7862 32.6006 71.8058 32.6196C71.8255 32.6387 71.8409 32.6616 71.8511 32.687C71.8614 32.7124 71.8662 32.7396 71.8652 32.767C71.8652 32.767 71.8652 32.8015 71.8652 32.8216C71.8925 32.8672 71.9092 32.9183 71.9141 32.9712C71.952 33.0601 72.0137 33.1367 72.0925 33.1927C72.1795 33.2416 72.2767 33.2699 72.3764 33.2754C72.4762 33.2809 72.5758 33.2634 72.6678 33.2243C72.7887 33.1922 72.8921 33.1137 72.9554 33.0057L72.9899 32.9424C73.0239 32.8632 73.0424 32.7783 73.0446 32.6922C73.0427 32.5398 73.0096 32.3895 72.9472 32.2504C72.8849 32.1114 72.7947 31.9866 72.6822 31.8839C72.5326 31.7874 72.3747 31.7046 72.2104 31.6365C71.8696 31.5503 71.5088 31.5966 71.2007 31.7659C71.0078 31.8757 70.8408 32.0258 70.7113 32.206C70.5817 32.3862 70.4925 32.5923 70.4499 32.8101C70.2687 33.6156 71.1202 34.5907 71.9429 34.8237C72.8317 35.0711 74.1866 34.8956 74.8194 34.1765C75.6249 33.2761 76.9769 32.6864 77.9837 32.4505C78.4401 32.3326 78.8417 32.0602 79.1199 31.6796C79.1219 31.6761 79.123 31.6722 79.123 31.6681C79.123 31.6641 79.1219 31.6601 79.1199 31.6566C79.1155 31.6543 79.1105 31.6532 79.1055 31.6532C79.1005 31.6532 79.0956 31.6543 79.0912 31.6566C77.5407 31.6767 76.3728 30.6958 75.0208 29.5538L74.9489 29.4934C73.6228 28.3744 72.7224 28.5327 72.0004 28.6621L71.8364 28.688C71.5012 28.8052 71.2033 29.0098 70.9735 29.2806C70.5535 29.6718 70.0328 30.1579 69.2705 30.2931C68.9028 30.3495 68.532 30.3831 68.1602 30.3938C67.4267 30.4283 66.7938 30.4571 66.2041 30.9087L65.9999 31.0698C65.3032 31.6869 64.4413 32.0869 63.5203 32.2204C63.2244 32.2605 62.9397 32.3598 62.6831 32.5126C62.4266 32.6653 62.2036 32.8683 62.0273 33.1093C62.5279 33.1323 63.434 33.2617 64.0409 33.8888C64.8004 34.6828 65.2232 34.7921 66.8542 34.9474C68.0854 35.0682 68.5111 35.7327 68.888 36.3167C69.0443 36.5967 69.2455 36.8494 69.4834 37.0646C70.2083 37.6571 71.5689 37.2285 71.5804 37.2228H71.5977C71.6617 37.0965 71.7338 36.9745 71.8134 36.8574C71.8666 36.7877 71.9263 36.7231 71.9918 36.6647C71.6265 36.7395 70.3924 36.9898 69.797 36.2764Z" fill="#B9F1F9"/>
<path d="M63.6413 34.0356C63.4625 33.8872 63.2603 33.7696 63.043 33.6875L63.1436 33.7306C63.3166 33.8202 63.483 33.9221 63.6413 34.0356Z" fill="#B9F1F9"/>
<path d="M61.6704 33.466C61.6464 33.465 61.6227 33.4591 61.601 33.4488C61.5792 33.4384 61.5598 33.4237 61.5439 33.4056C61.5439 33.4056 61.5439 33.3739 61.5439 33.3567L61.4604 33.4948C61.5299 33.4816 61.6 33.472 61.6704 33.466Z" fill="#B9F1F9"/>
<path d="M71.9863 39.3256L71.8799 39.2479C71.9144 39.2767 71.9518 39.2997 71.9863 39.3256Z" fill="#B9F1F9"/>
<path d="M82.667 30.0112L82.598 29.9335C82.3103 29.6085 82.109 29.3582 80.5384 29.036C80.3399 28.9929 80.1586 28.944 79.9947 28.8922C79.2872 28.6736 78.6547 28.2622 78.1681 27.7042C77.9529 27.4843 77.7263 27.276 77.4892 27.08C76.4939 26.2774 74.2128 25.3857 71.5606 25.331C69.4837 25.285 68.008 26.4558 66.9322 27.3101C66.6157 27.5575 66.3569 27.7732 66.0922 27.9343C65.4362 28.2948 64.7305 28.5565 63.9981 28.711C63.4084 28.827 62.8406 29.0348 62.3153 29.3266C62.0174 29.5583 61.7445 29.8205 61.5012 30.109C60.9575 30.7073 60.3362 31.3862 59.2546 31.7573C58.173 32.1284 57.1432 33.0086 56.6082 33.5062C56.6033 33.5124 56.6006 33.52 56.6006 33.5278C56.6006 33.5357 56.6033 33.5433 56.6082 33.5494C56.6106 33.5583 56.6158 33.5661 56.6231 33.5718C56.6303 33.5775 56.6392 33.5807 56.6484 33.581C57.1268 33.6217 57.5922 33.7574 58.0175 33.9802C58.4428 34.203 58.8193 34.5083 59.1252 34.8784C59.3187 35.1354 59.5632 35.3499 59.8433 35.5082C60.1235 35.6666 60.4332 35.7655 60.7533 35.7989C61.2558 35.8707 61.7144 36.1246 62.042 36.5122L62.2865 36.7999C63.3134 38.0311 63.3134 38.0311 65.6233 38.4511C66.1188 38.5115 66.5969 38.672 67.0286 38.9227C67.4602 39.1734 67.8365 39.5091 68.1346 39.9095C68.7302 40.6395 69.4732 41.2355 70.315 41.6584C73.2951 43.2118 76.0682 41.4312 76.8218 40.1799C77.4575 39.127 77.2159 37.6053 76.5831 36.9984C76.3709 36.8017 76.1339 36.6334 75.8783 36.4979C75.4528 36.2819 74.9803 36.1751 74.5033 36.1872C73.462 36.1872 72.435 36.6273 72.1474 37.0502C71.9633 37.3378 71.667 37.87 71.7763 38.3734C71.8172 38.5284 71.8893 38.6734 71.9882 38.7996C72.0872 38.9257 72.2108 39.0303 72.3516 39.1069C72.8752 39.4262 73.4562 39.4895 73.8302 39.2623C73.9892 39.1489 74.1009 38.9809 74.1439 38.7904C74.1869 38.5999 74.1582 38.4002 74.0632 38.2296C74.0153 38.1606 73.9528 38.103 73.8803 38.0608C73.8077 38.0185 73.7268 37.9927 73.6432 37.9851C73.5921 37.9806 73.5447 37.9566 73.5109 37.918C73.4771 37.8794 73.4596 37.8292 73.462 37.7779C73.462 37.7779 73.462 37.7578 73.4764 37.7463C73.363 37.8343 73.2846 37.9597 73.2549 38.1001C73.577 38.9458 72.2538 38.4626 72.5587 37.7348C72.8637 37.007 73.9711 36.7251 74.7478 36.7711C75.5245 36.8172 76.7614 37.6341 76.632 38.7847C76.5025 39.9354 75.3605 40.9911 73.9251 41.4139C73.2461 41.5903 72.5347 41.6014 71.8505 41.4463C71.1664 41.2911 70.5293 40.9742 69.9928 40.5222C69.0253 39.6268 67.9948 38.802 66.9092 38.0541C66.2274 37.6312 64.2972 37.5162 63.8025 37.0674C63.3077 36.6187 62.4131 35.5659 61.9902 35.284C61.5674 35.0021 60.3419 34.9301 59.8961 34.3663C59.4502 33.8025 58.3571 33.2157 58.3571 33.2157C58.8501 32.9708 59.3551 32.7509 59.8702 32.557C61.0007 32.1111 61.9672 30.9605 62.8618 30.2327C63.7564 29.5049 66.3137 29.6574 67.4989 28.7139C68.684 27.7704 69.757 27.1318 71.946 26.9678C74.1351 26.8038 76.2781 28.1644 77.1239 29.0591C77.9696 29.9537 80.4204 30.5376 81.0791 30.8655C81.5726 31.1641 82.0235 31.5279 82.4196 31.9471C82.4455 31.976 82.4653 32.0099 82.4778 32.0466C82.4903 32.0834 82.4952 32.1223 82.4922 32.161C82.4892 32.1997 82.4785 32.2374 82.4606 32.2718C82.4427 32.3063 82.418 32.3367 82.388 32.3614C82.155 32.5382 81.9418 32.7398 81.7523 32.9626C81.2057 33.7421 79.8911 33.9464 79.0886 34.234C78.4097 34.4785 76.6492 35.8046 76.1171 36.2131C76.3525 36.3424 76.5734 36.4967 76.7758 36.6733C76.8051 36.6661 76.8357 36.6661 76.865 36.6733C76.865 36.6733 77.7279 36.8805 78.286 36.4202C79.1017 35.6658 80.1344 35.1877 81.2374 35.0538C82.5117 34.8841 82.8223 34.4785 83.4437 33.6875C83.5012 33.6127 83.5645 33.5321 83.6307 33.4516C84.1397 32.8817 84.7657 32.4284 85.4659 32.1226C84.5886 31.8091 83.6249 31.087 82.667 30.0112Z" fill="#B9F1F9"/>
<path d="M85.9809 32.0824C85.9759 32.0161 85.9508 31.9529 85.909 31.9011C85.8676 31.8511 85.8127 31.8142 85.7508 31.7947C85.2612 31.6386 84.8027 31.3981 84.3959 31.0842C83.8716 30.6913 83.3896 30.2449 82.9576 29.7523L82.8944 29.6775C82.8483 29.6258 82.8023 29.574 82.7563 29.528C82.4686 29.2403 82.1493 29.0274 81.1684 28.7801C81.0045 28.7398 80.8232 28.6966 80.6219 28.6535H80.5586C80.7181 28.5509 80.8717 28.4395 81.0188 28.3198C81.6466 27.8187 82.1087 27.14 82.3449 26.3724C82.4024 26.1705 82.4391 25.9633 82.4542 25.7539C82.4691 25.5467 82.4624 25.3384 82.4341 25.1326C82.373 24.709 82.2272 24.302 82.0055 23.9359C81.7996 23.5788 81.5234 23.2673 81.1936 23.02C80.8638 22.7728 80.4873 22.5951 80.0868 22.4976C79.8673 22.4522 79.6437 22.4291 79.4195 22.4286C79.2049 22.4285 78.9909 22.4507 78.7809 22.4947C78.5821 22.5371 78.389 22.6028 78.2055 22.6904C78.0345 22.7721 77.8765 22.8787 77.7367 23.0068C77.5918 23.1274 77.4788 23.2818 77.4075 23.4563C77.3363 23.6309 77.3091 23.8203 77.3282 24.0078C77.3431 24.1179 77.3701 24.2259 77.4087 24.33C77.4934 24.552 77.6532 24.7372 77.8604 24.8535C78.0441 24.9528 78.2499 25.0042 78.4587 25.0031C78.5976 25.0007 78.7358 24.9814 78.87 24.9456C78.9552 24.9244 79.0388 24.8975 79.1203 24.865C79.3247 24.7719 79.4974 24.6209 79.617 24.4307C79.7366 24.2406 79.7979 24.0196 79.7934 23.795V23.7489C79.789 23.6976 79.7651 23.6498 79.7266 23.6156C79.688 23.5813 79.6378 23.5632 79.5863 23.5648C79.5496 23.571 79.5155 23.5881 79.4885 23.6137C79.4618 23.6305 79.4398 23.6539 79.4247 23.6816C79.4096 23.7093 79.4018 23.7404 79.4022 23.7719C79.409 23.9236 79.3712 24.0738 79.2934 24.2042C79.2157 24.3346 79.1015 24.4393 78.965 24.5055C78.8225 24.573 78.6667 24.6081 78.509 24.6081C78.3513 24.6081 78.1956 24.573 78.0531 24.5055C77.9557 24.447 77.8741 24.3655 77.8155 24.2683C77.7568 24.171 77.7228 24.0608 77.7165 23.9474C77.7081 23.8218 77.7298 23.6959 77.7799 23.5803C77.8299 23.4648 77.9068 23.3628 78.0042 23.2829C78.4501 22.8716 79.2354 22.7076 80.0178 22.8716C80.7259 23.0593 81.3306 23.5204 81.6989 24.1536C82.0673 24.7868 82.1693 25.5403 81.9825 26.2487C81.5826 27.6237 80.3371 28.3428 80.0408 28.4953C79.9242 28.4534 79.81 28.4054 79.6985 28.3514L79.6208 28.3198C79.546 28.2853 79.477 28.2479 79.4108 28.2105C79.3447 28.1731 79.2785 28.1328 79.2181 28.0926C79.1577 28.0523 79.1002 28.012 79.0484 27.9717C78.9966 27.9315 78.9247 27.8711 78.8672 27.8222L78.7348 27.7071C78.6428 27.6208 78.5536 27.5316 78.4616 27.4396H78.4472L78.2861 27.2785C78.1221 27.1203 77.9524 26.9592 77.7395 26.7866C77.4231 26.5408 77.0818 26.3287 76.7212 26.1537C75.1116 25.3894 73.3567 24.9793 71.5751 24.9513C70.5827 24.9358 69.6023 25.1702 68.7244 25.6331C68.0026 26.0237 67.3222 26.4863 66.6935 27.0138C66.4519 27.2066 66.2419 27.3677 66.0434 27.5057L65.8737 27.615C65.5813 27.794 65.2684 27.9369 64.9417 28.0408C64.6022 28.1558 64.2427 28.2508 63.8889 28.3457C63.2541 28.4703 62.6439 28.6976 62.0824 29.0188C61.9229 29.1343 61.7728 29.2622 61.6336 29.4014C61.4898 29.5452 61.346 29.689 61.205 29.8559C60.9393 30.1647 60.6509 30.4532 60.342 30.7189C59.9795 31.0201 59.5652 31.253 59.1195 31.4064C58.9124 31.4787 58.7106 31.5652 58.5154 31.6653C58.3172 31.7639 58.1251 31.8744 57.9401 31.9961C57.8452 31.9558 57.687 31.8925 57.4799 31.8263C57.3763 31.7918 57.2584 31.7573 57.1347 31.7257C57.011 31.694 56.87 31.6624 56.7262 31.6336C56.3887 31.5689 56.0458 31.5361 55.7021 31.5358C55.5756 31.5358 55.449 31.5358 55.3196 31.5531C55.0495 31.5755 54.7825 31.6256 54.5227 31.7026C54.2425 31.7829 53.9737 31.8989 53.7231 32.0478C53.2567 32.3303 52.8234 32.6641 52.4315 33.0431L52.0662 33.3682L51.7785 33.6558C51.5903 33.8399 51.3915 34.0128 51.183 34.1736C50.9677 34.3399 50.7365 34.4844 50.4927 34.6051C50.0438 34.8173 49.5642 34.9571 49.0716 35.0193C48.4302 35.1114 47.921 35.1919 47.4895 35.284C47.1289 35.3527 46.7782 35.4658 46.4453 35.6205C45.87 35.9082 45.5133 36.3195 45.0531 37.0588C44.665 37.6331 44.2091 38.1585 43.6953 38.6237C43.5199 38.7876 43.3444 38.9458 43.1747 39.0926C42.8352 39.3802 42.5217 39.6449 42.2916 39.8261C42.0614 40.0073 41.9147 40.1137 41.909 40.1137C41.8969 40.1269 41.8862 40.1414 41.8773 40.1569C41.8608 40.1773 41.8485 40.2007 41.8411 40.2259C41.8337 40.2511 41.8313 40.2775 41.8342 40.3036C41.8431 40.3406 41.862 40.3744 41.8888 40.4014C41.916 40.4274 41.9499 40.4454 41.9867 40.4532L42.2312 40.5078C42.4296 40.5539 42.7346 40.6258 43.0941 40.7264C43.3588 40.7984 43.6464 40.8875 43.937 40.9853C44.1297 41.0544 44.3224 41.1263 44.5123 41.204L44.7827 41.3219C45.0263 41.4303 45.2577 41.5644 45.4731 41.7217C45.6859 41.8799 45.9419 42.1101 46.2382 42.3776C46.6525 42.7487 47.1443 43.1888 47.6765 43.5944C47.8577 43.7296 48.0447 43.8619 48.2374 43.9856C48.5627 44.1923 48.9054 44.3704 49.2615 44.5178C49.7308 44.7239 50.2362 44.8354 50.7487 44.8457C50.8321 44.8457 50.9184 44.8457 51.0018 44.8457C52.7278 44.7076 55.7453 43.6433 57.9056 42.4035C58.5461 42.0508 59.1436 41.6251 59.6862 41.1349C59.7149 41.1089 59.735 41.0748 59.7437 41.0371C59.7536 41.0004 59.7536 40.9617 59.7437 40.9249C59.7293 40.8895 59.7054 40.8586 59.6747 40.8358C59.6432 40.8141 59.6064 40.8012 59.5683 40.7984C59.5683 40.7984 59.3036 40.7984 58.9095 40.7207C58.5921 40.6691 58.2781 40.599 57.9689 40.5107C57.3838 40.3485 56.8242 40.1055 56.3062 39.7887C56.404 39.6506 56.568 39.4234 56.8183 39.1271C57.0685 38.8308 57.3936 38.4626 57.8193 38.0397C58.5506 37.3595 59.3869 36.802 60.296 36.3886C60.5003 36.2879 60.6556 36.2217 60.7333 36.1901C61.0038 36.2438 61.2598 36.3546 61.484 36.5151C61.5755 36.5805 61.6578 36.6579 61.7286 36.7453L61.9817 37.0502C62.2676 37.4277 62.5958 37.7713 62.9597 38.0742C63.1712 38.2275 63.4064 38.3451 63.6559 38.4223C64.2788 38.597 64.9119 38.7335 65.5515 38.8308C65.8365 38.8801 66.1165 38.9543 66.3886 39.0523C66.6916 39.1601 66.973 39.3208 67.2199 39.5269C67.3665 39.6542 67.5048 39.7906 67.6342 39.9354L67.8384 40.1655C67.9506 40.295 68.0743 40.4359 68.2123 40.5797C68.2814 40.6517 68.3533 40.7264 68.431 40.8012C68.5086 40.876 68.5949 40.9537 68.6841 41.0314C68.9967 41.3026 69.3337 41.5443 69.6909 41.7534C69.8261 41.8368 69.9786 41.9173 70.1339 42.0008C70.3518 42.1152 70.5766 42.2161 70.807 42.3028C71.4236 42.5415 72.0789 42.6643 72.7401 42.6653C73.5246 42.659 74.2988 42.4866 75.0118 42.1594C75.7248 41.8321 76.3604 41.3575 76.8766 40.7667C76.9815 40.6442 77.0776 40.5145 77.1642 40.3784C77.3829 40.0018 77.5192 39.5832 77.5641 39.1501C77.5987 38.8577 77.5987 38.5622 77.5641 38.2699C77.5454 38.1272 77.5176 37.986 77.4807 37.847C77.4159 37.581 77.3101 37.3267 77.1671 37.0933C77.2706 37.0992 77.3743 37.0992 77.4778 37.0933C77.8727 37.0876 78.2547 36.9521 78.5651 36.7079C79.3237 35.9999 80.2878 35.5516 81.318 35.4278C82.391 35.284 82.8771 34.9676 83.3316 34.4699C83.4812 34.3059 83.6193 34.119 83.7861 33.9147L83.9702 33.6789C84.2359 33.3639 84.5506 33.0939 84.9022 32.8792C85.1963 32.6933 85.504 32.5298 85.8227 32.3901C85.8825 32.3623 85.9326 32.3172 85.9665 32.2607C86.0004 32.2045 86.0165 32.1393 86.0126 32.0737L85.9809 32.0824ZM83.6336 33.4458C83.5675 33.5264 83.5042 33.6069 83.4467 33.6817C82.8253 34.4785 82.5147 34.8784 81.2403 35.0481C80.1374 35.182 79.1046 35.6601 78.289 36.4145C77.7338 36.8747 76.8766 36.6676 76.8679 36.6676C76.8387 36.6604 76.8081 36.6604 76.7788 36.6676C76.5764 36.491 76.3555 36.3367 76.12 36.2074L76.0481 36.1613C74.6933 35.4249 72.7401 35.9255 72.0037 36.6503C71.9382 36.7088 71.8785 36.7733 71.8253 36.8431C71.7457 36.9601 71.6736 37.0821 71.6096 37.2084H71.5923C71.5923 37.2084 70.2202 37.6428 69.4953 37.0502C69.2574 36.835 69.0562 36.5824 68.8998 36.3023C68.523 35.727 68.0973 35.0539 66.8661 34.933C65.2351 34.7777 64.8122 34.6684 64.0528 33.8745C63.4545 33.2474 62.5484 33.1179 62.0392 33.0949C62.2154 32.8539 62.4385 32.6509 62.695 32.4982C62.9516 32.3455 63.2363 32.2461 63.5322 32.206C64.4532 32.0725 65.3151 31.6725 66.0118 31.0554L66.216 30.8943C66.8057 30.4427 67.4385 30.4139 68.1721 30.3794C68.5439 30.3687 68.9147 30.3351 69.2824 30.2787C70.0447 30.1435 70.5654 29.6574 70.9854 29.2662C71.2152 28.9954 71.5131 28.7909 71.8483 28.6736L72.0123 28.6477C72.7343 28.5183 73.6347 28.3601 74.9608 29.4791L75.0327 29.5395C76.3847 30.6901 77.5526 31.6624 79.103 31.6422C79.1075 31.64 79.1124 31.6388 79.1174 31.6388C79.1224 31.6388 79.1273 31.64 79.1318 31.6422C79.1338 31.6457 79.1349 31.6497 79.1349 31.6537C79.1349 31.6578 79.1338 31.6618 79.1318 31.6653C78.8535 32.0458 78.452 32.3183 77.9956 32.4362C77.0003 32.6864 75.6483 33.2761 74.8313 34.1621C74.1899 34.8813 72.835 35.0567 71.9548 34.8093C71.1321 34.5792 70.2806 33.6041 70.4618 32.7957C70.5044 32.5779 70.5936 32.3718 70.7231 32.1916C70.8527 32.0114 71.0197 31.8613 71.2126 31.7515C71.5207 31.5822 71.8815 31.536 72.2223 31.6221C72.2683 31.6221 72.3143 31.6394 72.3575 31.6537C72.4831 31.7022 72.5976 31.7756 72.694 31.8695C72.8066 31.9722 72.8968 32.097 72.9591 32.236C73.0215 32.3751 73.0546 32.5254 73.0565 32.6778C73.0543 32.7639 73.0358 32.8489 73.0018 32.9281L72.9673 32.9914C72.904 33.0993 72.8006 33.1779 72.6797 33.21C72.5877 33.2491 72.4881 33.2665 72.3883 33.261C72.2886 33.2556 72.1914 33.2273 72.1043 33.1783C72.0256 33.1224 71.9639 33.0457 71.926 32.9568C71.9044 32.9088 71.888 32.8587 71.8771 32.8073C71.8771 32.7871 71.8771 32.7641 71.8771 32.7526C71.878 32.7253 71.8733 32.698 71.863 32.6726C71.8528 32.6473 71.8374 32.6243 71.8177 32.6053C71.7981 32.5862 71.7746 32.5715 71.749 32.5621C71.7233 32.5527 71.6959 32.5488 71.6686 32.5506C71.6413 32.5524 71.6147 32.5599 71.5905 32.5727C71.5663 32.5854 71.545 32.6031 71.5281 32.6246C71.5111 32.6461 71.4988 32.6709 71.4921 32.6974C71.4853 32.7239 71.4842 32.7515 71.4888 32.7785C71.4888 32.8072 71.4888 32.8475 71.506 32.8849C71.5512 33.1325 71.6903 33.3531 71.8944 33.5005C72.0292 33.5849 72.182 33.6363 72.3404 33.6508C72.4987 33.6653 72.6583 33.6424 72.8062 33.5839C72.9987 33.527 73.1669 33.4082 73.285 33.246C73.403 33.0837 73.4643 32.887 73.4592 32.6864C73.4617 32.3827 73.3708 32.0855 73.199 31.835C73.0272 31.5844 72.7827 31.3927 72.4984 31.2855C72.2594 31.2019 72.0055 31.1697 71.7531 31.191C71.5008 31.2123 71.2558 31.2867 71.0343 31.4092C70.7931 31.5458 70.584 31.7325 70.4213 31.9569C70.2585 32.1812 70.1458 32.4378 70.0907 32.7094C69.8606 33.7393 70.8703 34.9043 71.8627 35.1833C72.8551 35.4623 74.3912 35.261 75.1449 34.421C75.8985 33.581 77.1585 33.0345 78.102 32.7957C78.6463 32.6577 79.1247 32.3329 79.454 31.8781C79.5003 31.8171 79.5285 31.7442 79.5351 31.6678C79.5417 31.5914 79.5266 31.5147 79.4914 31.4466C79.4543 31.3776 79.399 31.3199 79.3316 31.2799C79.2642 31.2398 79.1872 31.2189 79.1088 31.2194C77.705 31.251 76.6407 30.3564 75.2973 29.2058L75.2254 29.1454C73.7584 27.9056 72.7171 28.0897 71.9548 28.2249L71.7965 28.2508C71.3938 28.3198 71.0688 28.6218 70.7265 28.944C70.3266 29.318 69.8635 29.7437 69.222 29.8559C68.8716 29.9109 68.518 29.9426 68.1634 29.9508C67.3983 29.9882 66.6734 30.0199 65.9888 30.5491L65.7788 30.7102C65.1355 31.2899 64.3345 31.6653 63.4775 31.7889C63.0617 31.8445 62.6659 32.001 62.3244 32.2447C61.983 32.4883 61.7063 32.8118 61.5186 33.187C61.5047 33.234 61.5098 33.2846 61.5329 33.3279C61.5329 33.3452 61.5329 33.3624 61.5329 33.3768C61.5489 33.3949 61.5683 33.4096 61.59 33.42C61.6118 33.4304 61.6354 33.4362 61.6595 33.4372C61.6768 33.4372 61.6883 33.4602 61.7055 33.4602C62.1562 33.441 62.6064 33.5084 63.0316 33.6587C63.249 33.7408 63.4512 33.8584 63.63 34.0068C63.6751 34.0408 63.7183 34.0773 63.7594 34.1161C64.6051 34.9992 65.0941 35.1286 66.8172 35.2955C67.8585 35.3933 68.2008 35.9254 68.5604 36.4864C68.7394 36.7999 68.9676 37.0825 69.2364 37.3235C69.6186 37.6047 70.0855 37.7468 70.5596 37.7262C70.85 37.723 71.1393 37.6892 71.4226 37.6255C71.3415 37.8873 71.3276 38.1653 71.3823 38.4338C71.4529 38.7415 71.6227 39.0175 71.8656 39.2191L71.972 39.2968C72.0267 39.3371 72.0756 39.3773 72.136 39.4147C72.7832 39.8117 73.5225 39.875 74.0201 39.5729C74.1988 39.4632 74.3424 39.3047 74.4341 39.1162C74.5258 38.9277 74.5618 38.7169 74.5379 38.5086C74.5311 38.3257 74.4755 38.1479 74.3768 37.9937C74.2956 37.8746 74.1889 37.7749 74.0646 37.7018C73.9403 37.6286 73.8013 37.5839 73.6577 37.5708C73.6127 37.5693 73.5686 37.5838 73.5333 37.6117C73.498 37.6396 73.4738 37.6792 73.465 37.7233C73.465 37.7233 73.4506 37.7434 73.4506 37.7549C73.4482 37.8062 73.4657 37.8564 73.4995 37.895C73.5333 37.9336 73.5807 37.9577 73.6318 37.9621C73.7154 37.9697 73.7963 37.9956 73.8689 38.0378C73.9414 38.08 74.0039 38.1376 74.0518 38.2066C74.1468 38.3772 74.1755 38.5769 74.1325 38.7674C74.0895 38.9579 73.9778 39.1259 73.8188 39.2393C73.4448 39.4665 72.8638 39.4032 72.3402 39.0839C72.1994 39.0073 72.0757 38.9027 71.9768 38.7766C71.8779 38.6504 71.8058 38.5054 71.7649 38.3504C71.6556 37.847 71.9519 37.3062 72.136 37.0272C72.4236 36.5986 73.4506 36.1642 74.4919 36.1642C74.9633 36.1559 75.4296 36.2635 75.8496 36.4778C76.1053 36.6133 76.3422 36.7816 76.5544 36.9783C77.1872 37.5852 77.4174 39.1069 76.7932 40.1598C76.0366 41.4111 73.2665 43.1917 70.2864 41.6383C69.4445 41.2153 68.7015 40.6194 68.1059 39.8894C67.8078 39.489 67.4316 39.1532 66.9999 38.9026C66.5682 38.6519 66.0902 38.4914 65.5947 38.4309C63.2934 38.011 63.2934 38.011 62.2578 36.7798L62.0133 36.4921C61.6857 36.1045 61.2271 35.8506 60.7246 35.7787C60.4046 35.7454 60.0948 35.6465 59.8147 35.4881C59.5345 35.3297 59.2901 35.1153 59.0965 34.8582C58.7907 34.4882 58.4141 34.1828 57.9888 33.9601C57.5636 33.7373 57.0981 33.6016 56.6198 33.5609C56.6106 33.5606 56.6017 33.5574 56.5944 33.5517C56.5872 33.546 56.5819 33.5382 56.5795 33.5293C56.5746 33.5231 56.5719 33.5155 56.5719 33.5077C56.5719 33.4999 56.5746 33.4922 56.5795 33.4861C57.1145 32.9885 58.1702 32.1025 59.2259 31.7372C60.2816 31.3718 60.9289 30.6872 61.4725 30.0889C61.7159 29.8004 61.9887 29.5382 62.2866 29.3065C62.8119 29.0146 63.3798 28.8069 63.9694 28.6909C64.7019 28.5364 65.4075 28.2747 66.0635 27.9142C66.3167 27.7531 66.5871 27.5374 66.9035 27.29C67.9793 26.427 69.455 25.2764 71.5319 25.3109C74.1841 25.3656 76.4652 26.2573 77.4605 27.0599C77.6976 27.2558 77.9243 27.4642 78.1394 27.6841C78.626 28.2421 79.2586 28.6535 79.966 28.8721C80.13 28.9239 80.3112 28.9728 80.5097 29.0159C82.0803 29.3525 82.2845 29.5912 82.5693 29.9134L82.6383 29.9911C83.5962 31.0669 84.5599 31.7889 85.4401 32.0967C84.7483 32.4119 84.1323 32.872 83.6336 33.4458ZM55.7309 39.3687C55.5439 39.2047 55.3368 39.0408 55.124 38.8854C53.9014 37.9908 52.2761 37.2976 50.8292 37.614L50.7487 37.637C50.5837 37.6709 50.422 37.719 50.2654 37.7808C49.959 37.9099 49.6872 38.1091 49.4718 38.3624C49.2565 38.6157 49.1036 38.9161 49.0256 39.2393C48.9641 39.4711 48.9322 39.7099 48.9307 39.9498C48.9256 40.2717 48.9683 40.5925 49.0573 40.9019C49.1129 41.145 49.2102 41.3766 49.3449 41.5865C49.8282 42.2424 51.2118 42.7774 52.2761 42.1187C52.5262 41.9866 52.7307 41.7824 52.8631 41.5326C52.9955 41.2827 53.0498 40.9988 53.0187 40.7178C52.9877 40.4367 52.8729 40.1715 52.6892 39.9566C52.5054 39.7416 52.2613 39.5869 51.9885 39.5125H51.9655C51.6464 39.4602 51.319 39.5169 51.0362 39.6735C50.7533 39.83 50.5314 40.0774 50.4064 40.3755C50.3848 40.4224 50.3827 40.476 50.4005 40.5245C50.4182 40.573 50.4545 40.6125 50.5013 40.6344C50.5487 40.6519 50.6008 40.6519 50.6482 40.6345C50.6956 40.6171 50.7353 40.5834 50.7602 40.5395C50.8472 40.3215 51.0046 40.1388 51.2074 40.0205C51.4101 39.9022 51.6466 39.855 51.8792 39.8865C52.0797 39.9397 52.2592 40.053 52.3936 40.211C52.528 40.3691 52.6109 40.5644 52.6313 40.7709C52.6516 40.9774 52.6084 41.1851 52.5074 41.3664C52.4064 41.5476 52.2525 41.6937 52.0662 41.785C51.1341 42.3603 49.9835 41.8023 49.6527 41.3535C49.4787 41.0517 49.3659 40.7184 49.321 40.3728C49.2761 40.0273 49.2999 39.6763 49.3909 39.3399C49.4524 39.0728 49.5765 38.8242 49.7531 38.6146C49.9296 38.405 50.1536 38.2405 50.4064 38.1347C52.0546 37.4241 54.1459 38.5115 55.4605 39.6592C56.6543 40.7121 58.2853 41.0457 59.0764 41.1493C57.1807 42.6825 53.0154 44.2934 50.9673 44.4602C49.2644 44.5926 47.5931 43.0939 46.4856 42.0986C46.1807 41.8109 45.9103 41.5894 45.6946 41.4197C44.8719 40.7984 43.2437 40.3554 42.4757 40.1741C43.1603 39.642 44.6935 38.3792 45.381 37.2631C46.1893 35.9542 46.5719 35.7615 49.1205 35.399C50.789 35.1603 51.5397 34.4239 52.3366 33.6472C52.8031 33.1542 53.331 32.723 53.9072 32.3643C54.7446 31.9182 55.7143 31.7875 56.6399 31.9961C56.9421 32.0544 57.2393 32.1361 57.5288 32.2406C57.313 32.393 57.1174 32.5455 56.9333 32.6951C56.7003 32.8878 56.4903 33.069 56.3321 33.2157C56.2704 33.2732 56.2268 33.3473 56.2066 33.4292C56.1863 33.511 56.1903 33.5969 56.2181 33.6765C56.2458 33.7561 56.2961 33.8259 56.3629 33.8774C56.4296 33.9289 56.5099 33.9598 56.5939 33.9665C57.4481 34.0447 58.2364 34.4585 58.7858 35.1171C58.9022 35.2802 59.0395 35.4272 59.1943 35.5544C59.4587 35.7802 59.7659 35.9504 60.0975 36.0549C59.1531 36.4897 58.284 37.0723 57.523 37.7808C56.9522 38.3369 56.4305 38.9413 55.9639 39.5873C55.8862 39.5068 55.8057 39.4406 55.7223 39.3687H55.7309Z" fill="#8BE7F5"/>
<path d="M7.47906 54.2808C7.13387 53.9932 6.81457 53.7055 6.53267 53.4553L6.10693 53.0756L6.53267 53.4553C6.81457 53.7084 7.13387 53.9961 7.47906 54.2808Z" fill="#E7FAFD"/>
<path d="M40.3869 38.7732L40.2114 38.6495L40.3869 38.7732Z" fill="#E7FAFD"/>
<path d="M11.9318 44.7566C11.7286 44.9368 11.5112 45.1003 11.2817 45.2456C11.5112 45.1003 11.7286 44.9368 11.9318 44.7566Z" fill="#E7FAFD"/>
<path d="M24.1372 39.1644L24.6665 39.0206C25.3788 38.8741 26.0653 38.622 26.7031 38.2727C26.0653 38.622 25.3788 38.8741 24.6665 39.0206L24.1372 39.1644Z" fill="#E7FAFD"/>
<path d="M21.4966 41.017C21.6433 40.8674 21.7842 40.7294 21.9108 40.574C22.0374 40.4187 22.1985 40.2547 22.3509 40.108C22.2042 40.2547 22.0633 40.413 21.9108 40.574C21.7583 40.7351 21.6433 40.8674 21.4966 41.017Z" fill="#E7FAFD"/>
<path d="M20.2139 51.8242C20.2431 51.8256 20.2718 51.8334 20.2977 51.847C20.3237 51.8606 20.3464 51.8797 20.3642 51.903C20.382 51.9263 20.3945 51.9532 20.4008 51.9818C20.4072 52.0104 20.4072 52.0401 20.4008 52.0687C20.4072 52.0401 20.4072 52.0104 20.4008 51.9818C20.3945 51.9532 20.382 51.9263 20.3642 51.903C20.3464 51.8797 20.3237 51.8606 20.2977 51.847C20.2718 51.8334 20.2431 51.8256 20.2139 51.8242Z" fill="#E7FAFD"/>
<path d="M47.2705 42.6854C47.3119 42.7385 47.3369 42.8025 47.3424 42.8695C47.3453 42.9368 47.3293 43.0035 47.2964 43.0623C47.3293 43.0035 47.3453 42.9368 47.3424 42.8695C47.3369 42.8025 47.3119 42.7385 47.2705 42.6854Z" fill="#E7FAFD"/>
<path d="M45.6888 44.0719C45.5257 44.2043 45.3772 44.3538 45.2458 44.5178C45.2142 44.5609 45.1825 44.5983 45.1509 44.6386C45.1825 44.5983 45.2142 44.5609 45.2458 44.5178C45.3772 44.3538 45.5257 44.2043 45.6888 44.0719Z" fill="#E7FAFD"/>
<path d="M38.2583 48.0215C38.5518 48.5239 38.7029 49.0966 38.6955 49.6784C38.7029 49.0966 38.5518 48.5239 38.2583 48.0215Z" fill="#E7FAFD"/>
<path d="M39.4292 37.9276L39.5989 38.0916L39.4292 37.9276Z" fill="#E7FAFD"/>
<path d="M8.558 46.0251C7.93691 46.0982 7.32952 46.2599 6.75439 46.5055C7.32952 46.2599 7.93691 46.0982 8.558 46.0251Z" fill="#E7FAFD"/>
<path d="M29.5711 52.0659C29.387 51.9077 29.2288 51.7524 29.085 51.6028C29.2288 51.7495 29.387 51.9048 29.5711 52.0659Z" fill="#E7FAFD"/>
<path d="M8.55762 46.0251C8.82514 45.9791 9.13293 45.936 9.45223 45.8899C9.95838 45.8203 10.4505 45.6718 10.9107 45.4498C10.4497 45.6668 9.95758 45.8105 9.45223 45.8755C9.12142 45.9273 8.82514 45.9705 8.55762 46.0251Z" fill="#E7FAFD"/>
<path d="M40.0273 38.4943C39.9802 38.4573 39.9351 38.418 39.8921 38.3763C39.9351 38.418 39.9802 38.4573 40.0273 38.4943Z" fill="#E7FAFD"/>
<path d="M32.8765 43.6376C32.9035 43.6856 32.9211 43.7383 32.9282 43.7929C32.9045 43.7435 32.8871 43.6913 32.8765 43.6376Z" fill="#E7FAFD"/>
<path d="M11.8283 51.5826C12.2771 51.3583 12.6913 51.5826 12.4036 52.0112C12.0757 52.5262 11.043 52.1637 10.6604 51.8185C10.2779 51.4733 10.1225 50.2335 11.0804 49.756C12.0383 49.2785 13.6866 49.7359 14.7567 50.6909C15.8268 51.6459 17.7886 52.4312 17.7886 52.4312C16.661 53.5214 11.6931 54.8188 10.4878 54.4765C9.28256 54.1342 8.34192 53.1561 7.37539 52.296C6.76453 51.7803 6.0873 51.3488 5.36179 51.0131C5.32399 50.9951 5.2911 50.9683 5.26594 50.9349C5.24077 50.9015 5.22408 50.8625 5.2173 50.8212C5.21051 50.7799 5.21383 50.7376 5.22697 50.6979C5.24011 50.6581 5.26269 50.6222 5.29276 50.5931C5.86807 50.0322 6.31681 49.1174 6.92377 48.381C7.63428 47.5181 9.24228 47.5008 10.951 47.1383C12.6596 46.7759 14.1871 44.9205 15.2025 44.0662C15.9619 43.4276 17.0464 43.4506 17.5441 43.4909C17.3024 43.6865 17.0867 43.8734 16.9256 44.0259C16.8611 44.0838 16.8154 44.1597 16.7944 44.2437C16.7734 44.3278 16.778 44.4162 16.8077 44.4977C16.8373 44.5783 16.8898 44.6484 16.9588 44.6996C17.0278 44.7507 17.1103 44.7805 17.196 44.7853C18.0699 44.8619 18.8778 45.2819 19.4426 45.9532C19.5577 46.1258 19.694 46.2833 19.8482 46.4221C19.3187 46.6183 18.8169 46.8822 18.3553 47.2074C17.7799 47.6619 16.1374 49.103 15.6542 49.8538C14.4 48.9362 12.7316 48.2257 11.2473 48.5479L11.1667 48.5709C10.996 48.6067 10.8286 48.6567 10.6662 48.7205C10.352 48.8537 10.0733 49.0586 9.85256 49.3189C9.63178 49.5791 9.47499 49.8874 9.39474 50.2191C9.33343 50.457 9.3006 50.7013 9.29694 50.9469L9.2768 51.0188C9.21505 51.329 9.26822 51.6511 9.42639 51.925C9.48114 52.1737 9.57846 52.4112 9.71404 52.6268C10.2117 53.3 11.6327 53.8494 12.7229 53.1734C12.9835 53.0414 13.1978 52.8333 13.3372 52.5766C13.4766 52.3199 13.5346 52.0268 13.5033 51.7364C13.4721 51.446 13.3532 51.1719 13.1624 50.9507C12.9716 50.7295 12.718 50.5717 12.4353 50.4982H12.4094C12.0811 50.4463 11.7449 50.5062 11.4548 50.6685C11.1647 50.8308 10.9376 51.0859 10.81 51.3928C10.7933 51.4297 10.7883 51.4709 10.7957 51.5107C10.803 51.5506 10.8224 51.5872 10.8513 51.6158C10.8801 51.6443 10.9169 51.6633 10.9569 51.6702C10.9968 51.6771 11.0379 51.6717 11.0747 51.6546C11.3258 51.7277 11.5955 51.702 11.8283 51.5826Z" fill="#E7FAFD"/>
<path d="M33.3681 42.4553C33.4975 42.5042 33.6159 42.5786 33.7161 42.674C33.5624 42.5753 33.3996 42.4915 33.23 42.4237C33.276 42.4352 33.322 42.441 33.3681 42.4553Z" fill="#E7FAFD"/>
<path d="M33.9951 43.8274L34.0296 43.7642L33.9951 43.8274Z" fill="#E7FAFD"/>
<path d="M40.6748 34.1564C40.705 34.1338 40.7408 34.1198 40.7784 34.1161C40.7408 34.1222 40.7058 34.1392 40.6777 34.165C40.6777 34.165 40.6777 34.1592 40.6748 34.1564Z" fill="#E7FAFD"/>
<path d="M2.03076 51.2029C2.04502 51.1666 2.06888 51.1348 2.0998 51.1109C2.0998 51.1109 2.25801 50.9958 2.49389 50.8232C2.25801 51.0073 2.10555 51.1109 2.0998 51.1109C2.06888 51.1348 2.04502 51.1666 2.03076 51.2029Z" fill="#E7FAFD"/>
<path d="M6.7541 46.4968C6.46829 46.6398 6.21171 46.8349 5.99756 47.0721C6.21171 46.8349 6.46829 46.6398 6.7541 46.4968Z" fill="#E7FAFD"/>
<path d="M15.8557 42.3115C15.4327 42.3417 15.0171 42.4387 14.6245 42.5992C15.0171 42.4387 15.4327 42.3417 15.8557 42.3115Z" fill="#E7FAFD"/>
<path d="M16.2496 42.2855C16.1201 42.2855 15.9878 42.2855 15.8555 42.3057C15.9907 42.2999 16.1086 42.2855 16.2496 42.2855Z" fill="#E7FAFD"/>
<path d="M16.4482 54.4994C16.6381 54.416 16.8251 54.3326 17.0236 54.2434C16.8251 54.3326 16.6381 54.416 16.4482 54.4994Z" fill="#E7FAFD"/>
<path d="M42.1474 37.2458C42.1215 37.3063 42.0927 37.3667 42.064 37.4242C42.0927 37.3667 42.1215 37.3063 42.1474 37.2458Z" fill="#E7FAFD"/>
<path d="M24.0195 49.2267C24.3414 49.373 24.6793 49.4812 25.0263 49.5489C24.6793 49.4812 24.3414 49.373 24.0195 49.2267Z" fill="#E7FAFD"/>
<path d="M3.58691 51.8386C3.98406 51.9542 4.37486 52.0905 4.75768 52.2471C4.37486 52.0905 3.98406 51.9542 3.58691 51.8386Z" fill="#E7FAFD"/>
<path d="M11.1754 55.9896C9.80902 55.9896 8.51744 55.1266 7.479 54.2809C8.51744 55.1439 9.80902 55.9896 11.1754 55.9896Z" fill="#E7FAFD"/>
<path d="M40.1509 34.1104L40.125 34.1564L40.1509 34.1104Z" fill="#E7FAFD"/>
<path d="M42.1851 34.6626C42.3616 34.9749 42.4603 35.3252 42.4727 35.6838C42.4603 35.3252 42.3616 34.9749 42.1851 34.6626Z" fill="#E7FAFD"/>
<path d="M38.4625 34.5735C38.4403 34.3891 38.465 34.2021 38.5344 34.0298C38.465 34.2021 38.4403 34.3891 38.4625 34.5735Z" fill="#E7FAFD"/>
<path d="M29.8672 52.3075C30.1036 52.4863 30.3495 52.6525 30.6036 52.8051C30.349 52.6532 30.1032 52.487 29.8672 52.3075Z" fill="#E7FAFD"/>
<path d="M41.2416 38.6582L41.1553 38.7531L41.2416 38.6582Z" fill="#E7FAFD"/>
<path d="M42.349 36.6935C42.3318 36.7539 42.3116 36.8114 42.2915 36.8718C42.3088 36.82 42.3318 36.7539 42.349 36.6935Z" fill="#E7FAFD"/>
<path d="M40.8043 33.791C40.7085 33.784 40.6124 33.784 40.5166 33.791C40.6124 33.784 40.7085 33.784 40.8043 33.791Z" fill="#E7FAFD"/>
<path d="M41.8799 37.7635C41.854 37.8096 41.8281 37.8556 41.7993 37.9016C41.8281 37.8585 41.854 37.8096 41.8799 37.7635Z" fill="#E7FAFD"/>
<path d="M40.916 39.0063L40.9966 38.9258L40.916 39.0063Z" fill="#E7FAFD"/>
<path d="M41.7764 39.3371C41.9403 39.2315 42.0979 39.1163 42.2481 38.9919C42.0979 39.1163 41.9403 39.2315 41.7764 39.3371L41.8397 39.3515C42.8781 39.573 43.3815 39.76 43.7065 39.9729C43.3815 39.76 42.8781 39.573 41.8397 39.3515L41.7764 39.3371Z" fill="#E7FAFD"/>
<path d="M38.5459 34.9043C38.6063 35.0664 38.705 35.2114 38.8336 35.3272C38.705 35.2114 38.6063 35.0664 38.5459 34.9043Z" fill="#E7FAFD"/>
<path d="M40.8012 39.0091C40.7235 38.9717 40.6545 38.9343 40.5854 38.894C40.6545 38.9343 40.7235 38.9717 40.8012 39.0091Z" fill="#E7FAFD"/>
<path d="M38.6753 33.7767C38.7363 33.6923 38.8057 33.6142 38.8824 33.5437C39.0256 33.4131 39.1875 33.3045 39.3628 33.2216C39.1875 33.3045 39.0256 33.4131 38.8824 33.5437C38.8057 33.6142 38.7363 33.6923 38.6753 33.7767Z" fill="#E7FAFD"/>
<path d="M21.4075 47.0952L21.2349 47.17L21.4075 47.0952Z" fill="#E7FAFD"/>
<path d="M34.2829 49.0541C34.6109 49.9171 33.2531 49.4281 33.5667 48.6802C33.8802 47.9323 35.005 47.6418 35.8133 47.6907C36.6216 47.7396 37.893 48.5824 37.7463 49.7416C37.5996 50.9009 36.4433 52.0084 34.9676 52.4427C34.2718 52.6225 33.5431 52.6331 32.8424 52.4734C32.1418 52.3138 31.4896 51.9886 30.9404 51.5251C29.9462 50.6082 28.8889 49.7624 27.7761 48.9937C27.0743 48.5594 25.0923 48.4386 24.586 47.9812C24.0798 47.5238 23.1477 46.4365 22.7249 46.1488C22.302 45.8612 21.0335 45.7864 20.5761 45.2082C20.1187 44.63 18.9854 44.0259 18.9854 44.0259C19.4904 43.7723 20.0089 43.5466 20.5387 43.3499C21.6893 42.8925 22.6904 41.7103 23.608 40.9624C24.5256 40.2144 27.1606 40.3583 28.3687 39.4033C29.5769 38.4482 30.6872 37.778 32.9367 37.6112C35.1862 37.4443 37.3954 38.8337 38.2584 39.7571C39.1213 40.6805 41.6412 41.2759 42.3172 41.6125C42.8234 41.919 43.2859 42.2925 43.6922 42.7228C43.7198 42.7521 43.741 42.7869 43.7543 42.8249C43.7676 42.8629 43.7728 42.9032 43.7696 42.9434C43.7663 42.9835 43.7547 43.0225 43.7354 43.0578C43.7161 43.0932 43.6897 43.1241 43.6577 43.1486C43.4189 43.3312 43.2 43.5385 43.0047 43.767C42.4467 44.5638 41.0975 44.7738 40.272 45.0701C39.5758 45.3204 37.7665 46.6839 37.2228 47.101L37.148 47.0549C35.7586 46.2984 33.7508 46.8133 32.9971 47.5555C32.6232 47.6504 31.3431 47.9093 30.7304 47.1757C30.0112 46.3128 29.2576 45.0787 27.9948 44.9464C26.732 44.8141 25.8517 44.4631 25.3541 44.1122C25.1125 43.9262 24.8425 43.7805 24.5544 43.6807C25.3012 43.5734 26.0125 43.2926 26.6313 42.8609C27.4482 42.205 28.1674 42.1101 29.6085 41.9979C31.0497 41.8857 32.0392 41.135 32.8562 40.5769C33.6731 40.0188 34.4066 40.2576 35.0941 40.6718C35.7816 41.0861 36.4548 42.205 37.4788 42.4611C36.8519 42.7919 36.2618 43.1882 35.7184 43.6433C35.1603 44.187 34.4383 44.9867 33.6702 44.817C32.9022 44.6472 32.232 44.2416 32.4563 43.7613C32.4635 43.7445 32.4732 43.729 32.4851 43.7152C32.5318 43.9683 32.6739 44.1939 32.8821 44.3452C33.0207 44.4307 33.1772 44.483 33.3394 44.498C33.5016 44.513 33.665 44.4902 33.8169 44.4315C34.0152 44.3736 34.1886 44.2515 34.3099 44.0844C34.4312 43.9172 34.4936 43.7145 34.4872 43.5081C34.49 43.1962 34.3969 42.8909 34.2204 42.6336C34.0439 42.3763 33.7926 42.1795 33.5005 42.0698C33.2557 41.9834 32.9953 41.9497 32.7365 41.971C32.4777 41.9924 32.2264 42.0682 31.999 42.1935C31.7512 42.3336 31.5365 42.5253 31.3693 42.7556C31.202 42.9859 31.0862 43.2494 31.0295 43.5283C30.7937 44.5868 31.8321 45.7835 32.8475 46.0683C33.863 46.353 35.4365 46.1488 36.216 45.2858C36.9956 44.4229 38.2871 43.8476 39.2537 43.6174C39.812 43.4749 40.3033 43.1423 40.643 42.6768C40.6895 42.6136 40.7176 42.5387 40.7242 42.4606C40.7308 42.3824 40.7156 42.3039 40.6804 42.2338C40.6424 42.1626 40.5856 42.1031 40.5161 42.062C40.4466 42.0209 40.3671 41.9997 40.2864 42.0008C38.8481 42.0324 37.755 41.1033 36.3742 39.9383L36.2994 39.875C34.795 38.6036 33.7105 38.7934 32.9453 38.9315L32.7814 38.9603C32.3672 39.0293 32.0363 39.34 31.6825 39.6708C31.2712 40.0534 30.8196 40.4906 30.1378 40.6057C29.778 40.6631 29.4147 40.6958 29.0505 40.7035C28.2652 40.7409 27.523 40.7754 26.8183 41.3162L26.6054 41.483C25.946 42.0774 25.1251 42.4628 24.2466 42.5905C23.8191 42.6478 23.4121 42.8088 23.0611 43.0595C22.7101 43.3102 22.4258 43.643 22.233 44.0288C22.2232 44.0515 22.2181 44.076 22.2181 44.1007C22.2181 44.1254 22.2232 44.1499 22.233 44.1726L22.1467 44.3164C22.1467 44.3164 22.2129 44.3021 22.3193 44.2905C22.3498 44.3049 22.3835 44.3108 22.4171 44.3078C22.8796 44.2907 23.3412 44.361 23.7777 44.5149L23.8813 44.5581C24.0645 44.65 24.2405 44.7558 24.4077 44.8745C24.4508 44.9148 24.4997 44.9435 24.5429 44.9867C25.4059 45.8957 25.9121 46.028 27.6812 46.1977C28.7513 46.3013 29.0994 46.8449 29.4704 47.4203C29.6534 47.7443 29.8886 48.0359 30.1666 48.2832C30.5576 48.5718 31.036 48.717 31.5214 48.6946C31.8205 48.6932 32.1185 48.6594 32.4103 48.5939C32.329 48.8625 32.3152 49.1471 32.37 49.4223C32.4418 49.7395 32.6168 50.0238 32.8677 50.2307C32.8993 50.2594 32.9396 50.2824 32.9741 50.3083C33.0086 50.3342 33.0834 50.3918 33.1438 50.432C33.8083 50.8405 34.5821 50.9038 35.0798 50.5931C35.2617 50.4788 35.4079 50.3158 35.502 50.1226C35.5961 49.9294 35.6341 49.7137 35.6119 49.5C35.6036 49.3129 35.546 49.1313 35.4451 48.9736C35.361 48.8514 35.2513 48.749 35.1236 48.6735C34.996 48.598 34.8534 48.5512 34.7058 48.5364C34.6595 48.5354 34.6142 48.5507 34.578 48.5796C34.5417 48.6085 34.5167 48.6492 34.5073 48.6946C34.3921 48.7839 34.3126 48.9114 34.2829 49.0541Z" fill="#E7FAFD"/>
<path d="M40.6055 32.9511C40.8356 32.9508 41.0651 32.9749 41.2901 33.023C41.4891 33.063 41.6824 33.1278 41.8654 33.2157C41.6824 33.1278 41.4891 33.063 41.2901 33.023C41.0651 32.9749 40.8356 32.9508 40.6055 32.9511Z" fill="#E7FAFD"/>
<path d="M18.3557 47.2074C18.8173 46.8823 19.3191 46.6183 19.8486 46.4221C20.121 46.6538 20.4369 46.8289 20.7777 46.937C19.8033 47.3801 18.9068 47.9775 18.1227 48.7061C17.5368 49.2761 17.0017 49.8959 16.5233 50.5586C16.437 50.4925 16.3507 50.4234 16.2673 50.3515C16.0746 50.1818 15.8646 50.0149 15.6431 49.8539C16.1378 49.1031 17.7947 47.6619 18.3557 47.2074Z" fill="#B9F1F9"/>
<path d="M9.27704 51.0188L9.29717 50.9469C9.29447 51.2774 9.33805 51.6066 9.42662 51.9249C9.26845 51.6511 9.21528 51.329 9.27704 51.0188Z" fill="#B9F1F9"/>
<path d="M5.66687 48.1911C6.49532 46.8478 6.88941 46.6522 9.50997 46.2782C11.2215 46.0337 11.9924 45.2772 12.8094 44.4775C13.2894 43.9727 13.8317 43.5309 14.4231 43.1629C15.2829 42.7059 16.2779 42.5722 17.2278 42.7861C17.5377 42.846 17.8426 42.9296 18.1397 43.0363C17.9182 43.1917 17.7168 43.3499 17.5298 43.5023C17.0322 43.4506 15.9477 43.4275 15.1883 44.0776C14.1729 44.9406 12.6397 46.7874 10.9367 47.1498C9.23382 47.5123 7.62582 47.5324 6.90955 48.3925C6.30259 49.1289 5.85097 50.0437 5.27854 50.6046C5.24847 50.6337 5.22589 50.6696 5.21275 50.7093C5.19961 50.7491 5.19629 50.7914 5.20307 50.8327C5.20986 50.8739 5.22655 50.913 5.25172 50.9464C5.27688 50.9798 5.30977 51.0066 5.34757 51.0246C6.07308 51.3603 6.75031 51.7918 7.36117 52.3075C8.31907 53.1705 9.27697 54.1428 10.4822 54.488C11.6875 54.8331 16.6554 53.5329 17.783 52.4427C17.783 52.4427 15.824 51.6603 14.7511 50.7024C13.6781 49.7445 12.0327 49.29 11.0748 49.7675C10.1169 50.245 10.2723 51.4934 10.6548 51.83C11.0374 52.1666 12.0701 52.5376 12.398 52.0227C12.6684 51.5913 12.2628 51.3698 11.8227 51.5941C11.5929 51.7069 11.3291 51.7295 11.0835 51.6574C11.1272 51.6387 11.1628 51.605 11.1841 51.5625C11.2729 51.338 11.4348 51.1501 11.6436 51.029C11.8523 50.9079 12.0959 50.8607 12.3348 50.8951C12.5395 50.9508 12.7226 51.0673 12.8596 51.2294C12.9967 51.3914 13.0813 51.5912 13.1022 51.8024C13.1231 52.0136 13.0793 52.2262 12.9767 52.4119C12.874 52.5977 12.7174 52.7478 12.5275 52.8426C11.5725 53.4323 10.3902 52.8598 10.0508 52.3996C9.69186 51.7736 9.59566 51.0309 9.78324 50.3342C9.84694 50.0604 9.97485 49.8057 10.1564 49.5912C10.338 49.3766 10.568 49.2083 10.8274 49.1001C12.5189 48.3695 14.6792 49.4856 16.0053 50.6621C17.2278 51.7437 18.9048 52.086 19.716 52.1925C17.7715 53.7659 13.4969 55.42 11.3912 55.5897C9.64517 55.7278 7.93936 54.1888 6.78873 53.1676C6.47806 52.88 6.21342 52.6441 5.97754 52.4715C5.13471 51.8329 3.46054 51.3784 2.67236 51.1914C3.38575 50.6276 4.95924 49.336 5.66687 48.1911Z" fill="#B9F1F9"/>
<path d="M11.167 48.5709L11.2475 48.5479L11.167 48.5709Z" fill="#B9F1F9"/>
<path d="M40.5915 34.3289C40.5984 34.485 40.5597 34.6398 40.48 34.7742C40.4002 34.9086 40.283 35.0168 40.1427 35.0855C39.9958 35.1537 39.8358 35.189 39.6738 35.189C39.5119 35.189 39.3518 35.1537 39.2049 35.0855C39.1053 35.0247 39.0221 34.9405 38.9624 34.8403C38.9028 34.74 38.8685 34.6267 38.8626 34.5102C38.8519 34.3813 38.8724 34.2518 38.9225 34.1326C38.9726 34.0134 39.0507 33.9081 39.1503 33.8255C39.6077 33.4027 40.4131 33.2502 41.2042 33.4027C41.9308 33.5964 42.5509 34.0704 42.9284 34.7208C43.3059 35.3712 43.41 36.1448 43.2178 36.8718C42.8093 38.2813 41.5292 39.0206 41.2272 39.1731C41.1063 39.1315 40.9882 39.0825 40.8734 39.0264L40.9108 38.9919L40.9913 38.9113L41.1495 38.7387L41.2358 38.6438C41.325 38.5402 41.4199 38.4252 41.5235 38.2986C41.6155 38.1749 41.7047 38.0397 41.7939 37.8988C41.8226 37.8527 41.8485 37.8067 41.8744 37.7607C41.9406 37.6514 42.001 37.5392 42.0585 37.4213C42.0873 37.3637 42.116 37.3033 42.1419 37.2429C42.1937 37.1221 42.2426 36.9955 42.2858 36.869C42.3059 36.8085 42.326 36.751 42.3433 36.6906C42.3996 36.5027 42.439 36.3102 42.4612 36.1153C42.4725 35.9746 42.4725 35.8332 42.4612 35.6924C42.4488 35.3339 42.3501 34.9836 42.1736 34.6713C41.9913 34.3424 41.7049 34.0834 41.3595 33.9349C41.1754 33.8617 40.9816 33.8162 40.7842 33.7997C40.6884 33.7926 40.5923 33.7926 40.4965 33.7997C40.3102 33.8076 40.1264 33.8465 39.9529 33.9147C39.8712 33.9479 39.7931 33.9893 39.7199 34.0384C39.5749 34.1362 39.4579 34.27 39.3804 34.4268C39.3543 34.4785 39.3406 34.5356 39.3401 34.5936C39.3401 34.9186 40.0593 34.8065 40.0535 34.4498C40.048 34.3509 40.0668 34.2521 40.1082 34.1621L40.1341 34.1161C40.1649 34.0626 40.2156 34.0234 40.275 34.0068C40.3333 33.9981 40.3929 34.0051 40.4476 34.0269H40.4821C40.5446 34.0567 40.6003 34.0988 40.6461 34.1506C40.6224 34.1731 40.6049 34.2014 40.5954 34.2326C40.5858 34.2638 40.5844 34.297 40.5915 34.3289Z" fill="#B9F1F9"/>
<path d="M23.7949 44.5206C24.0178 44.6028 24.225 44.7225 24.4076 44.8744C24.2458 44.7584 24.0756 44.6546 23.8985 44.5638L23.7949 44.5206Z" fill="#B9F1F9"/>
<path d="M22.2503 44.1783C22.2503 44.1956 22.2503 44.2157 22.2503 44.2301C22.2708 44.2589 22.2986 44.2817 22.3308 44.2963C22.2244 44.2963 22.1582 44.3222 22.1582 44.3222L22.2503 44.1783Z" fill="#B9F1F9"/>
<path d="M33.67 44.8227C34.4381 44.9924 35.1601 44.1927 35.7182 43.649C36.2616 43.1939 36.8517 42.7976 37.4786 42.4668C36.4546 42.2108 35.7843 41.0947 35.0939 40.6776C34.4036 40.2604 33.6557 40.0246 32.856 40.5826C32.0563 41.1407 31.0466 41.8915 29.6083 42.0036C28.17 42.1158 27.448 42.2108 26.6311 42.8666C26.0109 43.2967 25.2987 43.5755 24.5513 43.6807C24.8394 43.7805 25.1094 43.9262 25.351 44.1122C25.8486 44.4631 26.7289 44.8141 27.9917 44.9464C29.2545 45.0787 30.0053 46.3156 30.7273 47.1757C31.34 47.9092 32.6201 47.6504 32.994 47.5554C32.9259 47.615 32.8642 47.6815 32.8099 47.7539C32.7284 47.8748 32.6544 48.0007 32.5885 48.1307H32.5712C32.5712 48.1307 31.1646 48.5737 30.4195 47.9668C30.1759 47.7459 29.9691 47.4876 29.8068 47.2016C29.4214 46.6004 28.9841 45.9158 27.7184 45.795C26.0443 45.6339 25.6128 45.5073 24.8419 44.7076C24.2234 44.0633 23.2943 43.9309 22.7822 43.9079C22.9633 43.6603 23.1923 43.4517 23.4558 43.2945C23.7192 43.1374 24.0115 43.0349 24.3154 42.9932C25.262 42.8547 26.1471 42.4416 26.8612 41.8052C26.9302 41.7476 27.0022 41.693 27.0712 41.6412C27.6753 41.1752 28.3254 41.1464 29.0848 41.109C29.4702 41.1018 29.8546 41.0681 30.2354 41.0084C31.0207 40.8703 31.5558 40.3698 31.9844 39.967C32.3065 39.6794 32.5827 39.409 32.8732 39.3601L33.043 39.3313C33.7851 39.2019 34.7085 39.0437 36.0691 40.1943L36.1439 40.2547C37.5333 41.4283 38.7328 42.4323 40.3235 42.4121C40.3295 42.4116 40.3355 42.413 40.3407 42.4161C40.3459 42.4192 40.3499 42.4239 40.3523 42.4294C40.3538 42.4325 40.3546 42.436 40.3546 42.4394C40.3546 42.4429 40.3538 42.4464 40.3523 42.4495C40.0716 42.8381 39.665 43.1176 39.2017 43.2406C38.1776 43.4995 36.7911 44.1035 35.9627 45.0298C35.3039 45.7691 33.9117 45.9503 33.0027 45.6943C32.157 45.4555 31.2767 44.4574 31.4666 43.6289C31.5112 43.4051 31.6034 43.1935 31.7369 43.0083C31.8704 42.8232 32.0421 42.669 32.2404 42.5559C32.5572 42.3847 32.9267 42.3385 33.276 42.4265C33.4456 42.4943 33.6084 42.5781 33.7621 42.6768C33.8766 42.7833 33.9684 42.9119 34.0322 43.0547C34.096 43.1975 34.1303 43.3517 34.1332 43.5081C34.1296 43.5971 34.1101 43.6848 34.0756 43.767L34.0411 43.8303C33.9775 43.9392 33.8746 44.0195 33.7535 44.0546C33.6588 44.095 33.5562 44.1131 33.4535 44.1076C33.3508 44.1022 33.2507 44.0732 33.1609 44.023C33.0809 43.9652 33.0182 43.8866 32.9797 43.7957C32.9725 43.7411 32.9549 43.6884 32.9279 43.6404C32.9257 43.6213 32.9257 43.602 32.9279 43.5829C32.9235 43.5305 32.8987 43.4819 32.859 43.4475C32.8192 43.4131 32.7675 43.3956 32.715 43.3988C32.6887 43.4002 32.6629 43.4069 32.6392 43.4185C32.6155 43.43 32.5943 43.4462 32.5769 43.466C32.5595 43.4858 32.5462 43.5089 32.5378 43.5339C32.5294 43.5589 32.5261 43.5853 32.528 43.6116C32.5327 43.6494 32.5394 43.6868 32.5482 43.7238C32.5363 43.7376 32.5266 43.7531 32.5194 43.7699C32.2318 44.2359 32.902 44.653 33.67 44.8227Z" fill="#B9F1F9"/>
<path d="M32.8677 50.2278C32.8993 50.2537 32.9396 50.2767 32.9741 50.3055C32.9396 50.2796 32.8993 50.2565 32.8677 50.2278Z" fill="#B9F1F9"/>
<path d="M29.0016 50.9153C28.6968 50.5036 28.3113 50.1584 27.8687 49.9007C27.426 49.6431 26.9355 49.4783 26.427 49.4166C24.0539 48.9851 24.0539 48.9851 22.9982 47.7252L22.7479 47.4375C22.4136 47.0381 21.9432 46.7768 21.4276 46.704C20.6365 46.5602 20.1187 46.2696 19.7563 45.7605C19.4423 45.3795 19.0554 45.0652 18.6182 44.836C18.181 44.6067 17.7024 44.4673 17.2105 44.4258C17.2015 44.4247 17.193 44.4212 17.1859 44.4156C17.1788 44.41 17.1734 44.4026 17.1702 44.3941C17.1662 44.3871 17.1641 44.3792 17.1641 44.3711C17.1641 44.363 17.1662 44.3551 17.1702 44.3481C17.7197 43.8389 18.8041 42.9271 19.8886 42.556C20.9731 42.1849 21.6347 41.4773 22.1898 40.8617C22.4401 40.5657 22.7207 40.2967 23.0269 40.0591C23.4268 39.7715 24.0711 39.6075 24.7529 39.4263C25.5059 39.2699 26.2313 39.0013 26.9045 38.6295C27.1634 38.4626 27.4425 38.244 27.7675 37.988C28.875 37.1106 30.3909 35.9082 32.5225 35.9571C35.2437 36.0147 37.5852 36.9294 38.6093 37.7521C38.8513 37.9539 39.0827 38.168 39.3026 38.3936C39.8041 38.9657 40.4543 39.3878 41.181 39.6133C41.3652 39.6721 41.5524 39.7211 41.7419 39.76C43.3528 40.108 43.5656 40.3497 43.8562 40.6833L43.9252 40.7639C44.909 41.8656 45.8985 42.6078 46.8018 42.9213C46.0832 43.2368 45.4407 43.7027 44.9176 44.2877L44.7249 44.5293C44.0892 45.3491 43.7699 45.7576 42.461 45.9331C41.3284 46.0691 40.2679 46.5605 39.432 47.3368C38.8567 47.8057 37.9937 47.5957 37.9736 47.5929C37.9432 47.5871 37.9119 47.5871 37.8815 47.5929C37.6742 47.4105 37.4475 47.2513 37.2055 47.1182C37.7492 46.7011 39.5586 45.3376 40.2547 45.0874C41.0803 44.7997 42.4294 44.5811 42.9874 43.7843C43.1828 43.5558 43.4016 43.3485 43.6404 43.1658C43.6724 43.1413 43.6989 43.1104 43.7181 43.0751C43.7374 43.0398 43.7491 43.0008 43.7523 42.9606C43.7556 42.9205 43.7504 42.8801 43.737 42.8421C43.7237 42.8042 43.7025 42.7694 43.6749 42.7401C43.2687 42.3098 42.8062 41.9363 42.2999 41.6297C41.6239 41.2932 39.1098 40.692 38.2411 39.7743C37.3724 38.8567 35.1718 37.4587 32.9252 37.6284C30.6786 37.7981 29.5654 38.4655 28.3572 39.4205C27.149 40.3755 24.5141 40.2317 23.5965 40.9796C22.6789 41.7275 21.6864 42.9098 20.5272 43.3672C19.9974 43.5639 19.4788 43.7896 18.9738 44.0432C18.9738 44.0432 20.0928 44.6444 20.5531 45.2254C21.0133 45.8065 22.279 45.8755 22.7019 46.1661C23.1247 46.4566 24.0567 47.5382 24.563 47.9985C25.0693 48.4587 27.0512 48.5738 27.7531 49.011C28.8659 49.7796 29.9232 50.6255 30.9174 51.5424C31.4665 52.0059 32.1188 52.331 32.8194 52.4907C33.5201 52.6503 34.2488 52.6398 34.9445 52.46C36.4202 52.0256 37.5795 50.9153 37.7233 49.7589C37.8671 48.6025 36.5727 47.7453 35.7903 47.7079C35.0078 47.6705 33.8572 47.9495 33.5437 48.6975C33.2301 49.4454 34.5879 49.9401 34.2599 49.0714C34.2889 48.9276 34.3685 48.799 34.4843 48.709C34.4843 48.709 34.4843 48.7291 34.4843 48.7406C34.4819 48.7934 34.5 48.845 34.5349 48.8847C34.5697 48.9244 34.6186 48.9491 34.6713 48.9535C34.7568 48.9621 34.8394 48.9891 34.9134 49.0329C34.9875 49.0766 35.0511 49.1359 35.0999 49.2066C35.1623 49.3072 35.198 49.4221 35.2034 49.5403C35.2229 49.6813 35.2009 49.8249 35.1401 49.9536C35.0793 50.0824 34.9824 50.1906 34.8611 50.2652C34.4785 50.4982 33.8831 50.4349 33.3452 50.1041C33.1998 50.0261 33.0721 49.9189 32.9701 49.7892C32.8681 49.6595 32.7941 49.5101 32.7526 49.3504C32.6404 48.8355 32.9425 48.2804 33.1352 47.9927C33.4228 47.5555 34.4814 47.1038 35.5486 47.1038C36.0333 47.093 36.5129 47.2038 36.9438 47.426C37.2071 47.5637 37.4508 47.7359 37.6687 47.938C38.3188 48.5623 38.5662 50.1242 37.9132 51.203C37.1365 52.4888 34.2916 54.3183 31.2338 52.7189C30.3716 52.2807 29.6111 51.6662 29.0016 50.9153Z" fill="#B9F1F9"/>
<path d="M2.01367 51.3266C2.02339 51.3642 2.04332 51.3983 2.07125 51.4252C2.09917 51.4521 2.13401 51.4708 2.17188 51.4791L2.28982 51.505C2.50844 51.551 3.00896 51.6689 3.57853 51.8387C3.97567 51.9542 4.36647 52.0905 4.74929 52.2471C5.02165 52.3583 5.28514 52.49 5.53747 52.6412C5.61226 52.6901 5.68417 52.7361 5.74746 52.785C5.85677 52.8685 5.97471 52.9663 6.10703 53.0727L6.53276 53.4524C6.82042 53.7056 7.13396 53.9932 7.47915 54.278C8.51759 55.141 9.80917 55.9867 11.1755 55.9867C11.2618 55.9867 11.3453 55.9867 11.4344 55.9867C11.9528 55.9372 12.4664 55.8468 12.9705 55.7163C13.1633 55.6674 13.3589 55.6156 13.5458 55.5581C14.5256 55.2683 15.4863 54.9176 16.4224 54.5081C16.6123 54.4247 16.7992 54.3413 16.9977 54.2521C18.0472 53.7855 19.0394 53.1996 19.9548 52.506C20.09 52.3967 20.2166 52.2874 20.3288 52.1781C20.3581 52.1515 20.3783 52.1162 20.3863 52.0774C20.3926 52.0488 20.3926 52.0191 20.3863 51.9905C20.3799 51.9619 20.3674 51.935 20.3496 51.9117C20.3318 51.8884 20.3092 51.8693 20.2832 51.8557C20.2572 51.8421 20.2286 51.8343 20.1993 51.8329C19.9728 51.8175 19.7472 51.7906 19.5233 51.7524C19.1972 51.6996 18.8744 51.6276 18.5568 51.5366C17.9563 51.3717 17.382 51.1228 16.851 50.7973C17.1519 50.3761 17.4806 49.9753 17.8348 49.5978C18.0074 49.4108 18.2001 49.2095 18.4101 48.9908C18.8155 48.5996 19.262 48.2533 19.742 47.9582C19.8944 47.8632 20.0296 47.7741 20.1878 47.6935C20.4755 47.5324 20.7401 47.4059 20.953 47.2965C21.0594 47.2448 21.1515 47.2045 21.2407 47.17L21.4133 47.0952C21.5709 47.1263 21.7243 47.1755 21.8706 47.2419C22.0934 47.3348 22.2907 47.4798 22.4459 47.6647L22.7048 47.9754C23.2801 48.6485 23.5678 48.9937 24.0338 49.2267C24.3511 49.372 24.6841 49.4801 25.0262 49.5489C25.3772 49.6266 25.7971 49.7042 26.3494 49.8049C27.5403 50.0207 28.0063 50.409 28.4867 50.9383L28.6967 51.1742C28.8147 51.3094 28.9384 51.4618 29.0793 51.5999C29.2203 51.738 29.367 51.9048 29.5654 52.063C29.6575 52.1436 29.7553 52.2241 29.8531 52.3075C30.0896 52.4864 30.3354 52.6525 30.5895 52.8052C30.7305 52.8886 30.8772 52.9749 31.044 53.0583C31.8668 53.5004 32.7852 53.7345 33.7192 53.7401C34.2392 53.7404 34.7566 53.6658 35.2553 53.5186C35.7139 53.3823 36.1536 53.189 36.5641 52.9433C36.7543 52.8335 36.9378 52.7125 37.1136 52.5808C37.5687 52.2564 37.959 51.8495 38.2642 51.3813C38.5642 50.8565 38.7154 50.2597 38.7014 49.6553C38.7088 49.0736 38.5576 48.5008 38.2642 47.9984C38.7763 48.0545 39.2905 47.9136 39.7025 47.6043C39.8607 47.4749 40.0247 47.3397 40.2059 47.2074C40.8838 46.6996 41.6854 46.3828 42.5273 46.2897C43.4478 46.1689 43.9483 45.9215 44.3539 45.5476C44.6094 45.2966 44.8442 45.0254 45.0558 44.7364C45.0874 44.699 45.1191 44.6559 45.1507 44.6156C45.1823 44.5753 45.214 44.5379 45.2456 44.4948C45.377 44.3308 45.5255 44.1813 45.6886 44.0489C45.8519 43.9132 46.0239 43.7883 46.2035 43.6749C46.5047 43.4833 46.8201 43.315 47.147 43.1715C47.2092 43.1437 47.2614 43.0976 47.2966 43.0392C47.3296 42.9805 47.3455 42.9138 47.3426 42.8465C47.3371 42.7794 47.3121 42.7154 47.2707 42.6624C47.2276 42.6098 47.1693 42.5717 47.1039 42.5531C46.3044 42.2718 45.5787 41.8135 44.981 41.2126C44.7218 40.9733 44.475 40.7207 44.2417 40.4561L44.1727 40.3784C44.0385 40.2141 43.8816 40.0697 43.7067 39.9498C43.3816 39.7369 42.8782 39.5499 41.8398 39.3284L41.7765 39.3141C41.9404 39.2085 42.098 39.0932 42.2482 38.9689C42.6476 38.647 42.9874 38.2576 43.2522 37.8182C43.4041 37.5555 43.5239 37.2754 43.6089 36.984C43.7895 36.3595 43.7673 35.6938 43.5456 35.0826C43.4693 34.8734 43.373 34.6721 43.2579 34.4814C42.9278 33.9274 42.4415 33.4831 41.8599 33.2042C41.6769 33.1163 41.4836 33.0515 41.2846 33.0115C41.0596 32.9634 40.8301 32.9393 40.6 32.9396C40.3795 32.939 40.1596 32.9622 39.9441 33.0086C39.7449 33.0522 39.5517 33.1198 39.3688 33.21C39.1935 33.2929 39.0316 33.4015 38.8884 33.5322C38.8117 33.6026 38.7423 33.6807 38.6813 33.7652C38.6255 33.8443 38.5783 33.9292 38.5403 34.0183C38.4709 34.1906 38.4462 34.3776 38.4684 34.562C38.4836 34.6751 38.5116 34.786 38.5518 34.8928C38.6123 35.0549 38.7109 35.1999 38.8395 35.3156C38.8921 35.3581 38.9479 35.3966 39.0063 35.4307C39.097 35.4804 39.1937 35.5181 39.294 35.5429C39.6319 35.6193 39.9855 35.5829 40.3008 35.4393C40.5094 35.3427 40.6855 35.1879 40.808 34.9934C40.9305 34.7989 40.9941 34.5732 40.9912 34.3434V34.2973C40.9868 34.2444 40.9622 34.1952 40.9226 34.1599C40.883 34.1246 40.8314 34.1058 40.7783 34.1075C40.7407 34.1136 40.7057 34.1306 40.6776 34.1564C40.6503 34.1735 40.6278 34.1972 40.6122 34.2254C40.5966 34.2536 40.5884 34.2853 40.5885 34.3175C40.5954 34.4736 40.5567 34.6283 40.477 34.7627C40.3973 34.8971 40.28 35.0053 40.1397 35.074C39.9928 35.1422 39.8328 35.1776 39.6708 35.1776C39.5089 35.1776 39.3489 35.1422 39.202 35.074C39.1024 35.0132 39.0191 34.9291 38.9594 34.8288C38.8998 34.7285 38.8655 34.6152 38.8596 34.4987C38.8489 34.3698 38.8694 34.2403 38.9195 34.1211C38.9696 34.0019 39.0477 33.8966 39.1473 33.8141C39.6047 33.3912 40.4101 33.2387 41.2012 33.3912C41.9278 33.5849 42.5479 34.0589 42.9254 34.7093C43.3029 35.3597 43.407 36.1333 43.2148 36.8604C42.8063 38.2699 41.5262 39.0091 41.2242 39.1616C41.1033 39.12 40.9852 39.071 40.8704 39.0149L40.7927 38.9833C40.715 38.9459 40.646 38.9085 40.577 38.8682C40.5088 38.8313 40.4425 38.791 40.3785 38.7474L40.203 38.6237C40.1397 38.5748 40.0793 38.523 40.0189 38.4684C39.9718 38.4314 39.9267 38.392 39.8837 38.3504C39.7888 38.2641 39.6967 38.1721 39.596 38.0771L39.4263 37.9132C39.2493 37.7357 39.063 37.5677 38.8683 37.4098C38.5432 37.1559 38.1922 36.9371 37.8212 36.7568C36.1689 35.9739 34.368 35.5541 32.5398 35.5256C30.2645 35.4796 28.6823 36.728 27.5288 37.6428C27.2153 37.8902 26.9535 38.103 26.7004 38.2584C26.0625 38.6077 25.3761 38.8598 24.6638 39.0063L24.1345 39.1501C23.6663 39.2624 23.2188 39.4478 22.8084 39.6995C22.6444 39.818 22.4904 39.9498 22.3481 40.0936C22.2014 40.2403 22.0605 40.3985 21.908 40.5596C21.7556 40.7207 21.6405 40.8473 21.4938 41.0026C21.0193 41.5192 20.4272 41.9139 19.7679 42.1532C19.3395 42.3072 18.9303 42.5099 18.5482 42.7573C18.147 42.5907 17.7296 42.4663 17.3026 42.3862C17.1991 42.3661 17.0926 42.3488 16.9776 42.3345C16.7363 42.3027 16.4932 42.2864 16.2498 42.2856C16.1204 42.2856 15.988 42.2856 15.8557 42.3057C15.4327 42.3358 15.0171 42.4329 14.6245 42.5934C14.4854 42.6543 14.35 42.7235 14.219 42.8005C13.7389 43.0884 13.2939 43.4311 12.8929 43.8217L12.5275 44.1755L12.2399 44.4631C12.1421 44.5581 12.0414 44.6501 11.9522 44.7508C11.749 44.931 11.5316 45.0945 11.3021 45.2398C11.1842 45.3146 11.0605 45.3836 10.931 45.4498C10.47 45.6668 9.97797 45.8105 9.47261 45.8755C9.14181 45.9215 8.84552 45.9647 8.578 46.0107C7.95691 46.0837 7.34952 46.2455 6.77439 46.4911C6.48859 46.6341 6.23201 46.8292 6.01786 47.0664C5.7636 47.3513 5.53813 47.6606 5.34474 47.9898C4.69751 49.0398 3.22183 50.2709 2.51419 50.829C2.27832 51.0131 2.12586 51.1166 2.1201 51.1166C2.08918 51.1405 2.06532 51.1723 2.05107 51.2087C2.02765 51.2437 2.01468 51.2846 2.01367 51.3266ZM2.67528 51.1799C3.37717 50.6334 4.95065 49.336 5.65828 48.1912C6.48674 46.8478 6.88083 46.6522 9.50138 46.2782C11.2129 46.0337 11.9839 45.2772 12.8008 44.4775C13.2808 43.9727 13.8231 43.531 14.4146 43.1629C15.2743 42.7059 16.2693 42.5722 17.2192 42.7861C17.5291 42.846 17.834 42.9296 18.1311 43.0363C17.9096 43.1917 17.7082 43.3499 17.5213 43.5024C17.2796 43.698 17.0639 43.8849 16.9028 44.0374C16.8383 44.0953 16.7926 44.1712 16.7716 44.2552C16.7506 44.3393 16.7552 44.4277 16.7849 44.5092C16.8145 44.5898 16.867 44.6599 16.936 44.7111C17.005 44.7622 17.0875 44.792 17.1732 44.7968C18.0471 44.8734 18.855 45.2934 19.4198 45.9647C19.5428 46.1346 19.6868 46.2883 19.8484 46.4221C20.1208 46.6538 20.4367 46.8288 20.7775 46.937C19.8031 47.3801 18.9066 47.9774 18.1225 48.7061C17.5366 49.276 17.0015 49.8959 16.5231 50.5586C16.4368 50.4924 16.3505 50.4234 16.2671 50.3515C16.0743 50.1817 15.8644 50.0149 15.6429 49.8538C14.3887 48.9362 12.7203 48.2257 11.236 48.5479L11.1554 48.5709C10.9847 48.6067 10.8173 48.6567 10.6549 48.7205C10.3407 48.8537 10.062 49.0586 9.84126 49.3189C9.62047 49.5791 9.46368 49.8874 9.38344 50.2191C9.32213 50.457 9.2893 50.7013 9.28564 50.9469C9.28294 51.2774 9.32651 51.6066 9.41508 51.925C9.46984 52.1737 9.56716 52.4112 9.70274 52.6268C10.2004 53.3 11.6214 53.8494 12.7116 53.1734C12.9722 53.0415 13.1865 52.8333 13.3259 52.5766C13.4653 52.3199 13.5233 52.0268 13.492 51.7364C13.4608 51.446 13.3419 51.1719 13.1511 50.9507C12.9603 50.7295 12.7067 50.5717 12.424 50.4982H12.3981C12.0698 50.4463 11.7336 50.5062 11.4435 50.6685C11.1534 50.8308 10.9263 51.0859 10.7987 51.3928C10.782 51.4297 10.777 51.4709 10.7844 51.5107C10.7917 51.5506 10.8111 51.5872 10.84 51.6158C10.8688 51.6443 10.9056 51.6633 10.9456 51.6702C10.9855 51.6771 11.0266 51.6717 11.0634 51.6546C11.1071 51.6358 11.1427 51.6022 11.164 51.5596C11.2528 51.3352 11.4147 51.1472 11.6235 51.0261C11.8322 50.905 12.0758 50.8579 12.3147 50.8923C12.5195 50.9479 12.7025 51.0645 12.8395 51.2265C12.9766 51.3885 13.0612 51.5884 13.0821 51.7996C13.103 52.0108 13.0592 52.2233 12.9566 52.4091C12.854 52.5948 12.6973 52.745 12.5074 52.8397C11.5524 53.4294 10.3701 52.857 10.0307 52.3967C9.67176 51.7708 9.57556 51.0281 9.76315 50.3313C9.82685 50.0576 9.95476 49.8029 10.1363 49.5883C10.3179 49.3737 10.5479 49.2054 10.8073 49.0973C12.4988 48.3666 14.6591 49.4827 15.9852 50.6593C17.2077 51.7409 18.8847 52.0832 19.6959 52.1896C17.7514 53.7631 13.4768 55.4171 11.3712 55.5868C9.62507 55.7249 7.91927 54.1859 6.76864 53.1648C6.45797 52.8771 6.19333 52.6412 5.95745 52.4686C5.14626 51.8214 3.47209 51.3669 2.68391 51.1799H2.67528ZM31.2339 52.7016C30.3696 52.2678 29.6062 51.6572 28.993 50.9095C28.6883 50.4979 28.3028 50.1526 27.8601 49.895C27.4175 49.6373 26.9269 49.4726 26.4185 49.4108C24.0453 48.9793 24.0453 48.9793 22.9896 47.7194L22.7394 47.4317C22.4051 47.0324 21.9347 46.771 21.419 46.6982C20.6279 46.5544 20.1102 46.2639 19.7477 45.7547C19.4338 45.3737 19.0469 45.0594 18.6097 44.8302C18.1725 44.601 17.6938 44.4615 17.202 44.42C17.193 44.4189 17.1845 44.4154 17.1773 44.4099C17.1702 44.4043 17.1648 44.3968 17.1617 44.3883C17.1576 44.3813 17.1555 44.3734 17.1555 44.3653C17.1555 44.3572 17.1576 44.3493 17.1617 44.3423C17.7111 43.8332 18.7956 42.9213 19.88 42.5502C20.9645 42.1791 21.6261 41.4715 22.1813 40.8559C22.4316 40.5599 22.7121 40.2909 23.0184 40.0533C23.4182 39.7657 24.0626 39.6017 24.7443 39.4205C25.4974 39.2641 26.2227 38.9955 26.896 38.6237C27.1549 38.4568 27.4339 38.2382 27.759 37.9822C28.8664 37.1049 30.3824 35.9025 32.5139 35.9514C35.2352 36.0089 37.5767 36.9236 38.6007 37.7463C38.8427 37.9481 39.0741 38.1622 39.294 38.3878C39.7956 38.9599 40.4457 39.3821 41.1724 39.6075C41.3566 39.6663 41.5439 39.7153 41.7333 39.7542C43.3442 40.1022 43.5571 40.3439 43.8476 40.6776L43.9166 40.7581C44.9004 41.8598 45.89 42.602 46.7932 42.9155C46.0747 43.231 45.4322 43.6969 44.9091 44.2819L44.7163 44.5235C44.0806 45.3434 43.7613 45.7518 42.4525 45.9273C41.3198 46.0633 40.2594 46.5547 39.4235 47.3311C38.8481 47.7999 37.9852 47.59 37.965 47.5871C37.9346 47.5813 37.9034 47.5813 37.873 47.5871C37.6656 47.4047 37.439 47.2455 37.197 47.1124L37.1222 47.0664C35.7328 46.3099 33.725 46.8248 32.9713 47.5669C32.9032 47.6265 32.8415 47.693 32.7872 47.7654C32.7056 47.8863 32.6317 48.0122 32.5657 48.1423H32.5484C32.5484 48.1423 31.1418 48.5853 30.3968 47.9783C30.1532 47.7574 29.9463 47.4991 29.7841 47.2131C29.3986 46.6119 28.9614 45.9273 27.6957 45.8065C26.0215 45.6454 25.59 45.5188 24.8191 44.7191C24.2006 44.0748 23.2715 43.9425 22.7595 43.9195C22.9405 43.6718 23.1696 43.4632 23.433 43.3061C23.6964 43.1489 23.9888 43.0464 24.2927 43.0047C25.2392 42.8662 26.1243 42.4532 26.8385 41.8167C26.9075 41.7591 26.9794 41.7045 27.0484 41.6527C27.6525 41.1867 28.3026 41.1579 29.062 41.1206C29.4474 41.1133 29.8319 41.0797 30.2127 41.0199C30.998 40.8818 31.533 40.3813 31.9616 39.9786C32.2838 39.6909 32.56 39.4205 32.8505 39.3716L33.0202 39.3428C33.7624 39.2134 34.6857 39.0552 36.0464 40.2058L36.1211 40.2662C37.5105 41.4398 38.7101 42.4438 40.3008 42.4236C40.3068 42.4231 40.3128 42.4245 40.318 42.4276C40.3231 42.4307 40.3272 42.4354 40.3296 42.4409C40.3311 42.444 40.3319 42.4475 40.3319 42.451C40.3319 42.4545 40.3311 42.4579 40.3296 42.461C40.0488 42.8496 39.6423 43.1291 39.1789 43.2521C38.1549 43.511 36.7684 44.1151 35.9399 45.0413C35.2812 45.7806 33.8889 45.9618 32.9799 45.7058C32.1342 45.4671 31.254 44.4689 31.4438 43.6404C31.4885 43.4166 31.5807 43.205 31.7142 43.0199C31.8477 42.8347 32.0194 42.6805 32.2176 42.5675C32.5345 42.3962 32.904 42.35 33.2532 42.438C33.2992 42.438 33.3453 42.4553 33.3913 42.4697C33.5207 42.5185 33.6391 42.5929 33.7393 42.6883C33.8538 42.7948 33.9457 42.9234 34.0095 43.0662C34.0732 43.209 34.1075 43.3632 34.1104 43.5196C34.1069 43.6087 34.0874 43.6963 34.0529 43.7785L34.0184 43.8418C33.9548 43.9507 33.8518 44.031 33.7307 44.0662C33.6361 44.1065 33.5335 44.1247 33.4308 44.1192C33.328 44.1137 33.2279 44.0847 33.1381 44.0345C33.0581 43.9767 32.9955 43.8981 32.9569 43.8073C32.9332 43.7579 32.9158 43.7057 32.9051 43.6519C32.903 43.6328 32.903 43.6135 32.9051 43.5944C32.9007 43.542 32.876 43.4934 32.8362 43.459C32.7964 43.4246 32.7448 43.4071 32.6923 43.4103C32.6659 43.4118 32.6402 43.4185 32.6164 43.43C32.5927 43.4415 32.5715 43.4577 32.5541 43.4775C32.5367 43.4973 32.5234 43.5204 32.515 43.5454C32.5067 43.5704 32.5033 43.5969 32.5053 43.6232C32.51 43.6609 32.5167 43.6984 32.5254 43.7354C32.5721 43.9885 32.7142 44.214 32.9224 44.3653C33.061 44.4509 33.2175 44.5031 33.3797 44.5181C33.5419 44.5331 33.7054 44.5103 33.8573 44.4516C34.0555 44.3937 34.2289 44.2716 34.3502 44.1045C34.4715 43.9373 34.5339 43.7347 34.5275 43.5282C34.5303 43.2163 34.4372 42.911 34.2607 42.6537C34.0842 42.3964 33.8329 42.1996 33.5409 42.09C33.296 42.0035 33.0356 41.9698 32.7768 41.9912C32.5181 42.0125 32.2667 42.0883 32.0393 42.2136C31.7916 42.3538 31.5768 42.5454 31.4096 42.7757C31.2424 43.006 31.1265 43.2695 31.0699 43.5484C30.834 44.607 31.8725 45.8036 32.8879 46.0884C33.9033 46.3732 35.4768 46.1689 36.2563 45.306C37.0359 44.443 38.3275 43.8677 39.294 43.6376C39.8524 43.495 40.3436 43.1624 40.6834 42.6969C40.7298 42.6337 40.7579 42.5589 40.7645 42.4807C40.7711 42.4025 40.756 42.324 40.7208 42.2539C40.6828 42.1827 40.6259 42.1232 40.5564 42.0821C40.4869 42.041 40.4074 42.0199 40.3267 42.0209C38.8884 42.0526 37.7953 41.1234 36.4146 39.9584L36.3398 39.8951C34.8353 38.6237 33.7509 38.8135 32.9857 38.9516L32.8217 38.9804C32.4075 39.0494 32.0767 39.3601 31.7229 39.6909C31.3115 40.0735 30.8599 40.5107 30.1782 40.6258C29.8184 40.6833 29.4551 40.7159 29.0908 40.7236C28.3055 40.761 27.5634 40.7955 26.8586 41.3363L26.6457 41.5031C25.9863 42.0975 25.1654 42.4829 24.2869 42.6106C23.8594 42.6679 23.4524 42.8289 23.1015 43.0796C22.7505 43.3303 22.4662 43.6631 22.2733 44.0489C22.2635 44.0716 22.2585 44.0961 22.2585 44.1208C22.2585 44.1456 22.2635 44.17 22.2733 44.1927C22.2733 44.21 22.2733 44.2301 22.2733 44.2445C22.2939 44.2732 22.3217 44.2961 22.3539 44.3107C22.3844 44.325 22.4181 44.331 22.4517 44.3279C22.9142 44.3108 23.3758 44.3811 23.8123 44.535C24.0282 44.6146 24.2294 44.7293 24.4078 44.8745C24.4509 44.9147 24.4998 44.9435 24.543 44.9867C25.4059 45.8957 25.9122 46.028 27.6813 46.1977C28.7514 46.3013 29.0994 46.8449 29.4705 47.4202C29.6534 47.7443 29.8886 48.0359 30.1667 48.2832C30.5577 48.5718 31.0361 48.717 31.5215 48.6946C31.8206 48.6932 32.1186 48.6594 32.4104 48.5939C32.3291 48.8625 32.3153 49.1471 32.3701 49.4223C32.4418 49.7395 32.6169 50.0238 32.8677 50.2306C32.8994 50.2565 32.9397 50.2796 32.9742 50.3083C33.0087 50.3371 33.0835 50.3917 33.1439 50.432C33.8084 50.8405 34.5822 50.9038 35.0798 50.5931C35.2617 50.4788 35.408 50.3158 35.5021 50.1226C35.5961 49.9294 35.6342 49.7137 35.612 49.5C35.6037 49.3129 35.5461 49.1313 35.4452 48.9736C35.3611 48.8514 35.2514 48.749 35.1237 48.6735C34.996 48.598 34.8535 48.5512 34.7059 48.5364C34.6595 48.5354 34.6143 48.5507 34.578 48.5796C34.5418 48.6085 34.5168 48.6492 34.5074 48.6946C34.5074 48.6946 34.5074 48.7147 34.5074 48.7262C34.505 48.779 34.5231 48.8306 34.558 48.8703C34.5928 48.91 34.6417 48.9347 34.6944 48.9391C34.7799 48.9477 34.8625 48.9747 34.9365 49.0185C35.0106 49.0622 35.0742 49.1215 35.123 49.1922C35.1854 49.2928 35.2211 49.4076 35.2265 49.5259C35.246 49.6669 35.2239 49.8105 35.1632 49.9392C35.1024 50.068 35.0055 50.1762 34.8842 50.2508C34.5016 50.4838 33.9062 50.4205 33.3683 50.0897C33.2229 50.0117 33.0952 49.9045 32.9932 49.7748C32.8912 49.6451 32.8172 49.4957 32.7757 49.336C32.6635 48.8211 32.9656 48.266 33.1583 47.9783C33.4459 47.5411 34.5045 47.0894 35.5717 47.0894C36.0564 47.0786 36.536 47.1894 36.9669 47.4116C37.2302 47.5493 37.4739 47.7215 37.6918 47.9236C38.3419 48.5479 38.5892 50.1098 37.9363 51.1885C37.1452 52.4715 34.3003 54.301 31.2425 52.7016H31.2339Z" fill="#8BE7F5"/>
<path d="M63.9057 37.8326H26.0615V59.3868H63.9057V37.8326Z" fill="white"/>
<path d="M67.5996 45.1621V19.5606C67.5831 19.1944 67.4261 18.8487 67.1611 18.5954C66.8961 18.3421 66.5437 18.2007 66.1771 18.2007C65.8106 18.2007 65.4581 18.3421 65.1932 18.5954C64.9282 18.8487 64.7712 19.1944 64.7547 19.5606V34.9934C59.1885 24.1631 46.2555 18.41 33.1067 25.6014C29.5999 27.5707 26.7476 30.525 24.9027 34.0988V19.5606C24.8862 19.1944 24.7292 18.8487 24.4642 18.5954C24.1992 18.3421 23.8468 18.2007 23.4802 18.2007C23.1137 18.2007 22.7612 18.3421 22.4963 18.5954C22.2313 18.8487 22.0742 19.1944 22.0578 19.5606V45.1621C21.3025 45.1621 20.5781 45.4621 20.0441 45.9962C19.51 46.5302 19.21 47.2546 19.21 48.0099V56.5533C19.21 56.9271 19.2836 57.2973 19.4268 57.6427C19.5699 57.988 19.7798 58.3018 20.0442 58.566C20.3087 58.8302 20.6227 59.0397 20.9682 59.1825C21.3137 59.3253 21.6839 59.3986 22.0578 59.3982H22.4202C23.1106 61.5758 24.848 63.2471 27.0544 63.6268C32.5515 64.5732 40.8763 65.0909 44.6014 65.0909C48.3266 65.0909 57.1346 64.5732 62.6318 63.6268C64.8381 63.2471 66.5755 61.5758 67.2659 59.3982H67.5996C67.9734 59.3986 68.3437 59.3253 68.6892 59.1825C69.0347 59.0397 69.3487 58.8302 69.6131 58.566C69.8776 58.3018 70.0874 57.988 70.2306 57.6427C70.3737 57.2973 70.4474 56.9271 70.4474 56.5533V48.0185C70.4485 47.6438 70.3757 47.2725 70.2331 46.926C70.0905 46.5795 69.8809 46.2646 69.6164 45.9992C69.3518 45.7339 69.0375 45.5233 68.6914 45.3797C68.3453 45.236 67.9743 45.1621 67.5996 45.1621ZM61.7544 53.461C61.7544 53.8348 61.6807 54.205 61.5376 54.5503C61.3944 54.8957 61.1846 55.2094 60.9201 55.4737C60.6557 55.7379 60.3417 55.9474 59.9962 56.0902C59.6507 56.233 59.2805 56.3063 58.9066 56.3059C58.9066 56.3059 48.1885 56.723 44.6273 56.723C41.0661 56.723 30.4631 56.3059 30.4631 56.3059C29.8408 56.3014 29.2377 56.0901 28.7487 55.7053C28.2597 55.3204 27.9126 54.7839 27.762 54.1801C27.6819 53.948 27.6336 53.7061 27.6182 53.461V47.751C27.6272 46.2445 28.2295 44.8022 29.2945 43.7366C30.3595 42.6711 31.8015 42.0681 33.308 42.0583C33.308 42.0583 41.8975 41.9087 44.7625 41.9087C47.6276 41.9087 56.0617 42.0583 56.0617 42.0583C57.569 42.0621 59.0133 42.6635 60.0778 43.7307C61.1422 44.7979 61.74 46.2437 61.74 47.751L61.7544 53.461Z" fill="#006FE6"/>
<path d="M53.2023 51.5942C54.7735 51.5942 56.0473 50.3204 56.0473 48.7492C56.0473 47.178 54.7735 45.9043 53.2023 45.9043C51.6311 45.9043 50.3574 47.178 50.3574 48.7492C50.3574 50.3204 51.6311 51.5942 53.2023 51.5942Z" fill="#006FE6"/>
<path d="M36.1354 51.5942C37.7067 51.5942 38.9804 50.3204 38.9804 48.7492C38.9804 47.178 37.7067 45.9043 36.1354 45.9043C34.5642 45.9043 33.2905 47.178 33.2905 48.7492C33.2905 50.3204 34.5642 51.5942 36.1354 51.5942Z" fill="#006FE6"/>
</svg>
