<svg width="88" height="88" viewBox="0 0 88 88" fill="none" xmlns="http://www.w3.org/2000/svg">
<path d="M44 88C68.3005 88 88 68.3005 88 44C88 19.6995 68.3005 0 44 0C19.6995 0 0 19.6995 0 44C0 68.3005 19.6995 88 44 88Z" fill="white"/>
<path d="M14.6966 55.7277C14.6966 55.7277 21.1028 66.6587 35.8797 69.1038C48.7264 71.2238 63.0518 69.1239 74.2963 59.8757C85.5408 50.6276 83.3632 40.8041 80.0782 36.2591C76.7931 31.7141 72.9644 31.2999 69.8405 31.159C66.7165 31.018 60.5463 31.694 51.0277 26.5306C41.5091 21.3671 34.0387 19.7936 23.4126 25.8718C12.7866 31.95 8.79104 44.3653 14.6966 55.7277Z" fill="#E7FAFD"/>
<path d="M61.2077 29.8444C61.3515 29.6862 61.4954 29.5337 61.6363 29.3899C61.4925 29.5337 61.3487 29.6775 61.2077 29.8444C60.9642 30.1184 60.7029 30.3759 60.4253 30.6153C60.7029 30.3759 60.9642 30.1184 61.2077 29.8444Z" fill="#E7FAFD"/>
<path d="M78.4501 27.4396L78.2861 27.2785L78.4472 27.4396H78.4501Z" fill="#E7FAFD"/>
<path d="M68.1374 25.9467C67.6323 26.2703 67.1464 26.6228 66.6819 27.0024C66.4546 27.1836 66.2475 27.3475 66.0605 27.4799C66.2475 27.3475 66.4546 27.1922 66.6819 27.0024C67.1464 26.6228 67.6323 26.2703 68.1374 25.9467Z" fill="#E7FAFD"/>
<path d="M79.589 23.5562C79.5524 23.5605 79.5177 23.5744 79.4883 23.5965C79.5171 23.5734 79.5522 23.5594 79.589 23.5562Z" fill="#E7FAFD"/>
<path d="M59.1106 41.6211C57.6292 42.7372 55.1266 43.8447 53.0698 44.4315C55.1266 43.8447 57.6292 42.7372 59.1106 41.6211Z" fill="#E7FAFD"/>
<path d="M77.4547 37.8528C77.3899 37.5868 77.2841 37.3325 77.1411 37.0991C77.2841 37.3325 77.3899 37.5868 77.4547 37.8528Z" fill="#E7FAFD"/>
<path d="M81.755 32.9539C81.9446 32.7311 82.1578 32.5296 82.3908 32.3527C82.4208 32.3281 82.4454 32.2976 82.4634 32.2632C82.4813 32.2288 82.492 32.1911 82.495 32.1524C82.4979 32.1137 82.493 32.0748 82.4806 32.038C82.4681 32.0012 82.4483 31.9674 82.4224 31.9385C82.0263 31.5193 81.5754 31.1554 81.0819 30.8569C80.4232 30.529 77.9752 29.9422 77.1295 29.0504C76.2838 28.1587 74.1379 26.7923 71.9517 26.9591C69.7655 27.126 68.681 27.7732 67.5045 28.7052C66.328 29.6372 63.765 29.4963 62.8675 30.2241C61.97 30.9518 61.0064 32.1025 59.8759 32.5483C59.3607 32.7423 58.8557 32.9622 58.3628 33.2071C58.3628 33.2071 59.453 33.7824 59.9018 34.3577C60.3505 34.933 61.573 34.9934 61.9959 35.2753C62.4188 35.5572 63.3134 36.6129 63.8081 37.0588C64.3029 37.5047 66.2331 37.6341 66.9148 38.0455C68.0004 38.7934 69.031 39.6182 69.9985 40.5135C70.535 40.9656 71.172 41.2825 71.8562 41.4376C72.5404 41.5928 73.2518 41.5817 73.9308 41.4053C75.3691 40.9824 76.4967 39.9037 76.6376 38.7761C76.7786 37.6485 75.5301 36.8258 74.7535 36.7625C73.9768 36.6992 72.8693 36.9984 72.5644 37.7262C72.2595 38.4539 73.5827 38.9372 73.2605 38.0915C73.2902 37.9511 73.3687 37.8257 73.482 37.7377C73.4909 37.6935 73.5151 37.654 73.5504 37.626C73.5857 37.5981 73.6298 37.5836 73.6748 37.5852C73.8184 37.5983 73.9574 37.643 74.0817 37.7161C74.206 37.7892 74.3126 37.8889 74.3939 38.0081C74.4925 38.1623 74.5481 38.34 74.555 38.523C74.5789 38.7313 74.5429 38.942 74.4512 39.1306C74.3595 39.3191 74.2158 39.4775 74.0372 39.5873C73.5396 39.8893 72.8003 39.8261 72.1531 39.4291C72.0927 39.3917 72.0437 39.3514 71.9891 39.3111C71.9344 39.2709 71.9143 39.2622 71.8827 39.2335C71.6398 39.0318 71.4699 38.7559 71.3994 38.4482C71.3447 38.1796 71.3586 37.9016 71.4397 37.6399C71.1563 37.7036 70.8671 37.7373 70.5767 37.7405C70.1026 37.7612 69.6357 37.6191 69.2535 37.3378C68.9847 37.0968 68.7565 36.8142 68.5775 36.5007C68.2179 35.9254 67.8756 35.4076 66.8343 35.3098C65.1083 35.143 64.6222 35.0222 63.7765 34.1304C63.735 34.0909 63.6908 34.0544 63.6442 34.0211C63.5023 33.9152 63.3533 33.819 63.1983 33.7335C63.1465 33.7105 63.1005 33.6817 63.0487 33.6616C62.6234 33.5112 62.1733 33.4438 61.7226 33.4631C61.7054 33.4631 61.6939 33.4429 61.6766 33.4401C61.6042 33.4458 61.5322 33.4554 61.4609 33.4688L61.5443 33.3308C61.5212 33.2875 61.516 33.2369 61.5299 33.1898C61.7176 32.8147 61.9943 32.4912 62.3357 32.2475C62.6772 32.0038 63.0731 31.8474 63.4888 31.7918C64.3459 31.6682 65.1468 31.2927 65.7901 30.7131L66.0001 30.552C66.6847 30.0227 67.4096 29.9767 68.1748 29.9537C68.5293 29.9454 68.883 29.9137 69.2333 29.8587C69.8834 29.7465 70.3379 29.3208 70.7378 28.9469C71.0801 28.6247 71.4052 28.3226 71.8079 28.2536L71.9661 28.2277C72.7284 28.0925 73.7697 27.9084 75.2367 29.1482L75.3087 29.2086C76.652 30.3593 77.7163 31.2481 79.1201 31.2222C79.1985 31.2218 79.2756 31.2427 79.343 31.2827C79.4104 31.3228 79.4656 31.3804 79.5027 31.4495C79.5379 31.5176 79.553 31.5943 79.5464 31.6706C79.5398 31.747 79.5117 31.8199 79.4653 31.881C79.1361 32.3358 78.6576 32.6606 78.1133 32.7986C77.1727 33.0373 75.9012 33.5896 75.1562 34.4238C74.4112 35.2581 72.8952 35.4709 71.874 35.1861C70.8529 34.9014 69.8604 33.7479 70.1021 32.7123C70.1571 32.4407 70.2698 32.184 70.4326 31.9597C70.5954 31.7354 70.8044 31.5486 71.0456 31.4121C71.2672 31.2895 71.5121 31.2151 71.7645 31.1938C72.0168 31.1725 72.2708 31.2047 72.5098 31.2884C72.794 31.3955 73.0385 31.5873 73.2104 31.8378C73.3822 32.0883 73.473 32.3855 73.4705 32.6893C73.4756 32.8899 73.4144 33.0865 73.2963 33.2488C73.1783 33.4111 73.01 33.5299 72.8175 33.5868C72.6696 33.6452 72.5101 33.6682 72.3517 33.6537C72.1933 33.6392 72.0405 33.5877 71.9057 33.5033C71.7016 33.356 71.5625 33.1354 71.5173 32.8878L71.4914 32.9338C71.2728 33.3912 71.9258 33.7968 72.6766 33.9636C73.4274 34.1304 74.1149 33.348 74.6701 32.813C75.2038 32.3704 75.7822 31.9848 76.396 31.6623C75.3978 31.415 74.7449 30.3247 74.0746 29.9364C73.4044 29.5481 72.6881 29.2978 71.8913 29.8415C71.0945 30.3851 70.1308 31.1187 68.7271 31.2251C67.3233 31.3315 66.6243 31.4293 65.8304 32.0651C65.2262 32.4854 64.5314 32.7574 63.8024 32.859C64.0832 32.9559 64.3465 33.0977 64.5819 33.279C65.0652 33.6213 65.9224 33.9636 67.1536 34.093C68.3848 34.2225 69.1183 35.4249 69.8202 36.2649C70.4156 36.9782 71.6612 36.728 72.0265 36.6359C72.7629 35.911 74.7161 35.4105 76.0709 36.1469L76.1429 36.1929C76.675 35.7845 78.4441 34.467 79.1144 34.2139C79.8939 33.9435 81.2085 33.7335 81.755 32.9539Z" fill="#E7FAFD"/>
<path d="M71.9371 32.9798C71.9322 32.9269 71.9155 32.8758 71.8882 32.8303C71.8991 32.8817 71.9155 32.9319 71.9371 32.9798Z" fill="#E7FAFD"/>
<path d="M57.7443 36.308C58.1937 35.9901 58.6831 35.7328 59.1998 35.5429C59.045 35.4157 58.9077 35.2687 58.7914 35.1056C58.2419 34.447 57.4536 34.0332 56.5994 33.955C56.5154 33.9484 56.4351 33.9174 56.3684 33.8659C56.3017 33.8144 56.2514 33.7446 56.2236 33.665C56.1959 33.5854 56.1919 33.4995 56.2121 33.4177C56.2324 33.3359 56.276 33.2617 56.3376 33.2042C56.4959 33.0575 56.7058 32.8763 56.9388 32.6836C56.4556 32.6318 55.3999 32.6088 54.6577 33.233C53.6711 34.0643 52.1781 35.8708 50.5183 36.2246C48.8586 36.5784 47.2908 36.5957 46.6005 37.4357C46.0108 38.1519 45.5706 39.0437 45.0097 39.5902C44.9808 39.6188 44.9592 39.6539 44.9468 39.6926C44.9343 39.7312 44.9313 39.7723 44.9381 39.8124C44.9449 39.8524 44.9612 39.8903 44.9857 39.9227C45.0102 39.9551 45.0421 39.9812 45.0787 39.9987C45.7882 40.3265 46.4508 40.7473 47.0492 41.25C47.9812 42.0871 48.9132 43.0392 50.0897 43.3729C51.2663 43.7066 56.1018 42.4409 57.2006 41.3823C57.2006 41.3823 55.2934 40.6172 54.2493 39.688C53.2051 38.7589 51.5999 38.3101 50.6679 38.7761C50.4948 38.8686 50.3442 38.9981 50.2269 39.1554C50.1096 39.3127 50.0284 39.494 49.9891 39.6863C49.9498 39.8786 49.9534 40.0771 49.9996 40.2679C50.0459 40.4586 50.1336 40.6368 50.2566 40.7897C50.6305 41.1263 51.6373 41.4801 51.9538 40.9767C52.2184 40.5596 51.8243 40.3439 51.3784 40.5596C51.1554 40.6716 50.8978 40.6932 50.6593 40.62C50.6341 40.632 50.6066 40.6383 50.5787 40.6383C50.5509 40.6383 50.5234 40.632 50.4982 40.62C50.4514 40.5982 50.4152 40.5587 50.3974 40.5102C50.3796 40.4616 50.3817 40.4081 50.4033 40.3611C50.5283 40.063 50.7502 39.8157 51.0331 39.6591C51.316 39.5025 51.6433 39.4458 51.9624 39.4982H51.9854C52.2582 39.5725 52.5023 39.7273 52.6861 39.9422C52.8698 40.1571 52.9846 40.4224 53.0156 40.7034C53.0467 40.9845 52.9924 41.2684 52.86 41.5182C52.7276 41.768 52.5231 41.9723 52.273 42.1043C51.2087 42.7631 49.8251 42.228 49.3418 41.5722C49.2071 41.3623 49.1098 41.1306 49.0542 40.8875C48.8998 40.6207 48.8477 40.3069 48.9075 40.0044L48.9276 39.9354C48.9291 39.6955 48.961 39.4568 49.0225 39.2249C49.1005 38.9017 49.2534 38.6013 49.4687 38.348C49.6841 38.0947 49.9559 37.8955 50.2623 37.7665C50.4189 37.7046 50.5806 37.6565 50.7456 37.6226L50.8261 37.5996C52.2644 37.2832 53.8983 37.9765 55.1209 38.8711C55.584 38.1548 57.1977 36.7482 57.7443 36.308Z" fill="#E7FAFD"/>
<path d="M59.6602 40.8473C59.6295 40.8261 59.5938 40.8132 59.5567 40.8099C59.5567 40.8099 59.433 40.8099 59.2402 40.7811C59.433 40.8041 59.5509 40.8099 59.5567 40.8099C59.5938 40.8132 59.6295 40.8261 59.6602 40.8473Z" fill="#E7FAFD"/>
<path d="M72.3686 31.6768C72.3254 31.6624 72.2794 31.6566 72.2334 31.6451C72.3977 31.7133 72.5556 31.7961 72.7052 31.8925C72.6087 31.7986 72.4942 31.7252 72.3686 31.6768Z" fill="#E7FAFD"/>
<path d="M80.6219 28.6535H80.5586C80.8134 28.4903 81.0523 28.3035 81.272 28.0955C81.0523 28.3035 80.8134 28.4903 80.5586 28.6535H80.6219Z" fill="#E7FAFD"/>
<path d="M85.8224 31.8293C85.8 31.8149 85.7758 31.8033 85.7505 31.7947C85.5224 31.727 85.3017 31.6364 85.0918 31.5244C85.3017 31.6364 85.5224 31.727 85.7505 31.7947C85.7758 31.8033 85.8 31.8149 85.8224 31.8293Z" fill="#E7FAFD"/>
<path d="M72.7252 42.671C72.5156 42.6712 72.3062 42.6587 72.0981 42.6336C72.3062 42.6587 72.5156 42.6712 72.7252 42.671Z" fill="#E7FAFD"/>
<path d="M57.7444 36.3081C57.1979 36.7482 55.5841 38.1548 55.1152 38.897C55.3281 39.0523 55.5352 39.2163 55.7222 39.3802C55.8027 39.4521 55.8862 39.5183 55.9696 39.5845C56.4352 38.9377 56.9569 38.3332 57.5287 37.778C58.2897 37.0695 59.1587 36.4868 60.1032 36.052C59.7716 35.9475 59.4644 35.7773 59.2 35.5515C58.6837 35.7388 58.1943 35.9931 57.7444 36.3081Z" fill="#B9F1F9"/>
<path d="M49.0483 40.9019C48.9593 40.5925 48.9166 40.2717 48.9217 39.9498L48.9016 40.0188C48.8418 40.3212 48.8939 40.6351 49.0483 40.9019Z" fill="#B9F1F9"/>
<path d="M51.3842 40.5596C51.8243 40.3439 52.2184 40.5596 51.9595 40.9767C51.643 41.4801 50.6362 41.1263 50.2623 40.7897C50.1393 40.6368 50.0516 40.4586 50.0054 40.2679C49.9591 40.0771 49.9555 39.8785 49.9948 39.6863C50.0341 39.494 50.1153 39.3127 50.2326 39.1554C50.35 38.9981 50.5005 38.8686 50.6736 38.7761C51.6056 38.3101 53.2079 38.756 54.255 39.688C55.302 40.62 57.2063 41.3823 57.2063 41.3823C56.1075 42.4409 51.2691 43.7066 50.0954 43.3729C48.9218 43.0392 47.9869 42.0871 47.0549 41.25C46.4566 40.7472 45.7939 40.3264 45.0845 39.9987C45.0478 39.9812 45.0159 39.9551 44.9914 39.9227C44.9669 39.8903 44.9506 39.8524 44.9438 39.8124C44.9371 39.7723 44.94 39.7312 44.9525 39.6925C44.965 39.6539 44.9865 39.6188 45.0154 39.5902C45.5764 39.0436 46.0165 38.1519 46.6062 37.4356C47.2965 36.5957 48.8643 36.5727 50.5241 36.2246C52.1838 35.8765 53.6883 34.0643 54.6634 33.233C55.4056 32.6088 56.4613 32.6318 56.9446 32.6836C57.1287 32.534 57.3243 32.3959 57.54 32.2291C57.2504 32.125 56.9532 32.0433 56.6511 31.9845C55.7255 31.776 54.7558 31.9067 53.9184 32.3527C53.343 32.7182 52.8171 33.1561 52.3536 33.6558C51.5567 34.4325 50.806 35.1689 49.1376 35.4077C46.586 35.7701 46.2035 35.9628 45.398 37.2717C44.7105 38.3878 43.1773 39.6506 42.4927 40.1828C43.2607 40.364 44.8889 40.807 45.7116 41.4283C45.9359 41.598 46.1977 41.8339 46.5026 42.1072C47.6101 43.1025 49.2814 44.6012 50.9843 44.4689C53.0324 44.302 57.1977 42.6911 59.0934 41.1579C58.3023 41.0544 56.6684 40.7207 55.4775 39.6679C54.1773 38.5172 52.0745 37.4328 50.4234 38.1433C50.1706 38.2491 49.9466 38.4137 49.7701 38.6232C49.5935 38.8328 49.4694 39.0815 49.4079 39.3486C49.3169 39.6849 49.2931 40.0359 49.338 40.3815C49.3829 40.727 49.4957 41.0603 49.6697 41.3622C50.0005 41.8109 51.1511 42.369 52.0832 41.7936C52.2695 41.7023 52.4234 41.5562 52.5244 41.375C52.6254 41.1938 52.6686 40.986 52.6483 40.7795C52.6279 40.573 52.545 40.3777 52.4106 40.2196C52.2762 40.0616 52.0967 39.9483 51.8962 39.8951C51.6636 39.8636 51.4271 39.9108 51.2244 40.0291C51.0216 40.1474 50.8642 40.3301 50.7772 40.5481C50.7568 40.5889 50.7219 40.6207 50.6794 40.6373C50.9157 40.7013 51.1675 40.6735 51.3842 40.5596Z" fill="#B9F1F9"/>
<path d="M81.9821 26.2487C82.1689 25.5404 82.0669 24.7868 81.6985 24.1536C81.3302 23.5204 80.7255 23.0593 80.0174 22.8716C79.2465 22.7106 78.4612 22.8716 78.0038 23.283C77.9064 23.3629 77.8295 23.4648 77.7795 23.5804C77.7294 23.696 77.7077 23.8218 77.7161 23.9475C77.7224 24.0609 77.7564 24.171 77.8151 24.2683C77.8737 24.3656 77.9553 24.447 78.0527 24.5055C78.1952 24.5731 78.3509 24.6081 78.5086 24.6081C78.6663 24.6081 78.8221 24.5731 78.9646 24.5055C79.1009 24.4375 79.2143 24.3309 79.2905 24.1989C79.3667 24.067 79.4024 23.9155 79.3932 23.7634C79.3928 23.7318 79.4005 23.7007 79.4156 23.673C79.4307 23.6453 79.4527 23.6219 79.4795 23.6052C79.4352 23.5536 79.3802 23.5124 79.3184 23.4843H79.2838C79.2309 23.4631 79.1731 23.4571 79.117 23.4671C79.0604 23.4848 79.0123 23.5227 78.9818 23.5735L78.9559 23.6195C78.9174 23.7044 78.8987 23.7968 78.9013 23.8899C78.9002 23.9371 78.8876 23.9833 78.8646 24.0244C78.8415 24.0655 78.8086 24.1004 78.7689 24.1258C78.6842 24.1841 78.5841 24.2161 78.4813 24.2179C78.2857 24.2179 78.1217 24.1229 78.2425 23.8698C78.3799 23.6298 78.5981 23.4463 78.8581 23.352C79.285 23.2124 79.7474 23.2277 80.1641 23.3952C80.3622 23.4804 80.5404 23.6058 80.6876 23.7634C80.7911 23.8677 80.881 23.9846 80.9551 24.1114C81.0685 24.305 81.1491 24.5159 81.1939 24.7357C81.2479 24.9928 81.2605 25.2569 81.2313 25.5181C81.2098 25.7128 81.1713 25.9053 81.1162 26.0934C81.099 26.1538 81.0788 26.2085 81.0587 26.266C81.0192 26.3911 80.9731 26.514 80.9206 26.6342C80.8947 26.6917 80.8688 26.7493 80.8401 26.8039C80.7825 26.919 80.725 27.0312 80.6617 27.1376L80.5841 27.2699C80.4978 27.408 80.4086 27.5374 80.3194 27.6554V27.6726C80.2274 27.7963 80.1353 27.9085 80.049 28.0063L79.9656 28.1012L79.8103 28.2681L79.7326 28.3486L79.6981 28.3803C79.8096 28.4342 79.9238 28.4822 80.0404 28.5241C80.3252 28.3429 81.5707 27.6151 81.9821 26.2487Z" fill="#B9F1F9"/>
<path d="M61.6704 33.466C61.6464 33.465 61.6227 33.4591 61.601 33.4488C61.5792 33.4384 61.5598 33.4237 61.5439 33.4056C61.5439 33.4056 61.5439 33.3739 61.5439 33.3567L61.4604 33.4948C61.5299 33.4816 61.6 33.472 61.6704 33.466Z" fill="#B9F1F9"/>
<path d="M69.797 36.2764C69.0951 35.4365 68.3587 34.2341 67.1304 34.1046C65.9021 33.9752 65.042 33.6329 64.5588 33.2906C64.3233 33.1093 64.0601 32.9675 63.7792 32.8706C64.5082 32.769 65.203 32.497 65.8072 32.0767C66.6011 31.4409 67.303 31.346 68.7039 31.2367C70.1048 31.1274 71.0742 30.3967 71.8681 29.8531C72.6621 29.3094 73.3812 29.5424 74.0515 29.948C74.7217 30.3536 75.3747 31.4409 76.3728 31.6739C75.7591 31.9964 75.1806 32.382 74.6469 32.8246C74.1004 33.3538 73.4014 34.1334 72.6534 33.9752C71.9055 33.817 71.2497 33.3999 71.4683 32.9454L71.4942 32.8993C71.4942 32.862 71.4798 32.8217 71.4769 32.7929C71.475 32.7674 71.4781 32.7417 71.4862 32.7174C71.4943 32.693 71.5072 32.6706 71.5241 32.6513C71.5409 32.632 71.5615 32.6163 71.5845 32.605C71.6075 32.5938 71.6326 32.5873 71.6581 32.5858C71.6839 32.5838 71.7097 32.587 71.7342 32.595C71.7587 32.6031 71.7813 32.6159 71.8008 32.6328C71.8203 32.6496 71.8363 32.6701 71.8479 32.6932C71.8594 32.7162 71.8663 32.7413 71.8681 32.767C71.8681 32.767 71.8681 32.8015 71.8681 32.8217C71.8955 32.8672 71.9122 32.9184 71.917 32.9713C71.9549 33.0601 72.0166 33.1368 72.0954 33.1928C72.1825 33.2417 72.2796 33.27 72.3794 33.2755C72.4791 33.281 72.5788 33.2635 72.6707 33.2244C72.7917 33.1923 72.895 33.1137 72.9584 33.0058L72.9929 32.9425C73.0268 32.8633 73.0454 32.7784 73.0475 32.6922C73.0457 32.5399 73.0125 32.3895 72.9502 32.2505C72.8878 32.1114 72.7976 31.9867 72.6851 31.8839C72.5356 31.7875 72.3777 31.7047 72.2133 31.6365C71.8725 31.5504 71.5117 31.5967 71.2037 31.766C71.0107 31.8757 70.8438 32.0258 70.7142 32.2061C70.5846 32.3863 70.4955 32.5923 70.4529 32.8102C70.2716 33.6156 71.1231 34.5908 71.9458 34.8238C72.8347 35.0712 74.1895 34.8957 74.8224 34.1765C75.6278 33.2762 76.9798 32.6865 77.9866 32.4506C78.4431 32.3327 78.8446 32.0603 79.1228 31.6797C79.1249 31.6762 79.1259 31.6722 79.1259 31.6682C79.1259 31.6641 79.1249 31.6602 79.1228 31.6567C79.1185 31.6541 79.1135 31.6528 79.1085 31.6528C79.1034 31.6528 79.0984 31.6541 79.0941 31.6567C77.5436 31.6768 76.3757 30.6959 75.0237 29.5539L74.9518 29.4935C73.6257 28.3745 72.7254 28.5327 72.0033 28.6622L71.8394 28.6881C71.5041 28.8053 71.2062 29.0099 70.9764 29.2806C70.5564 29.6718 70.0358 30.158 69.2735 30.2932C68.9058 30.3495 68.535 30.3832 68.1631 30.3939C67.4296 30.4284 66.7967 30.4571 66.2071 30.9088L66.0028 31.0699C65.3062 31.687 64.4443 32.0869 63.5232 32.2205C63.2273 32.2605 62.9426 32.3599 62.6861 32.5126C62.4295 32.6654 62.2065 32.8683 62.0303 33.1093C62.5308 33.1324 63.4369 33.2618 64.0439 33.8889C64.8033 34.6828 65.2261 34.7921 66.8572 34.9475C68.0883 35.0683 68.5141 35.7328 68.8909 36.3167C69.0473 36.5968 69.2484 36.8494 69.4863 37.0646C70.2112 37.6572 71.5719 37.2286 71.5834 37.2228H71.6006C71.6646 37.0966 71.7367 36.9745 71.8164 36.8575C71.8695 36.7877 71.9292 36.7232 71.9947 36.6648C71.6265 36.7396 70.3925 36.9898 69.797 36.2764Z" fill="#B9F1F9"/>
<path d="M63.1924 33.7594C63.3474 33.845 63.4964 33.9411 63.6383 34.0471C63.5037 33.9309 63.3537 33.8341 63.1924 33.7594Z" fill="#B9F1F9"/>
<path d="M82.6665 30.0113L82.5974 29.9336C82.3098 29.6085 82.1084 29.3583 80.5378 29.0361C80.3393 28.993 80.1581 28.9441 79.9913 28.8923C79.2838 28.6737 78.6513 28.2623 78.1646 27.7043C77.9495 27.4844 77.7229 27.276 77.4858 27.08C76.4905 26.2775 74.2093 25.3857 71.5571 25.3311C69.4803 25.2851 68.0046 26.4558 66.9288 27.3102C66.6123 27.5576 66.3534 27.7733 66.0888 27.9344C65.4328 28.2949 64.7271 28.5566 63.9946 28.7111C63.405 28.8271 62.8372 29.0348 62.3119 29.3266C62.0139 29.5583 61.7411 29.8206 61.4978 30.1091C60.9541 30.7074 60.3328 31.3863 59.2512 31.7573C58.1696 32.1284 57.1398 33.0087 56.6047 33.5063C56.5998 33.5124 56.5972 33.52 56.5972 33.5279C56.5972 33.5357 56.5998 33.5433 56.6047 33.5494C56.6072 33.5583 56.6124 33.5662 56.6197 33.5719C56.6269 33.5776 56.6358 33.5808 56.645 33.5811C57.1234 33.6218 57.5888 33.7575 58.0141 33.9803C58.4393 34.203 58.8159 34.5084 59.1217 34.8784C59.3153 35.1355 59.5598 35.3499 59.8399 35.5083C60.12 35.6667 60.4298 35.7656 60.7499 35.7989C61.2524 35.8708 61.7109 36.1246 62.0386 36.5123L62.2831 36.8C63.31 38.0311 63.31 38.0311 65.6199 38.4511C66.1154 38.5116 66.5935 38.672 67.0251 38.9227C67.4568 39.1734 67.8331 39.5091 68.1312 39.9095C68.7267 40.6395 69.4698 41.2355 70.3116 41.6585C73.2917 43.2118 76.0647 41.4312 76.8184 40.1799C77.4541 39.1271 77.2125 37.6054 76.5796 36.9984C76.3674 36.8017 76.1305 36.6335 75.8749 36.4979C75.4503 36.2824 74.9788 36.1757 74.5028 36.1873C73.4614 36.1873 72.4345 36.6274 72.1497 37.0502C71.9628 37.3379 71.6665 37.87 71.7758 38.3734C71.8166 38.5285 71.8887 38.6735 71.9877 38.7996C72.0866 38.9258 72.2103 39.0304 72.3511 39.107C72.8746 39.4263 73.4557 39.4896 73.8296 39.2623C73.9476 39.19 74.0419 39.0848 74.1007 38.9595C74.1595 38.8343 74.1803 38.6945 74.1604 38.5575C74.1555 38.4414 74.1208 38.3285 74.0598 38.2296C74.0121 38.161 73.9502 38.1037 73.8781 38.0614C73.8061 38.0192 73.7258 37.9932 73.6427 37.9851C73.5915 37.9807 73.5441 37.9567 73.5103 37.9181C73.4765 37.8794 73.459 37.8293 73.4614 37.778C73.4614 37.778 73.4614 37.7579 73.4758 37.7464C73.3625 37.8344 73.284 37.9598 73.2543 38.1002C73.5765 38.9459 72.2533 38.4626 72.5582 37.7348C72.8631 37.0071 73.9706 36.7252 74.7473 36.7712C75.5239 36.8172 76.7609 37.6342 76.6314 38.7848C76.502 39.9354 75.36 40.9911 73.9246 41.414C73.2456 41.5904 72.5342 41.6015 71.85 41.4463C71.1658 41.2912 70.5288 40.9743 69.9923 40.5222C69.0247 39.6269 67.9942 38.802 66.9086 38.0541C66.2269 37.6313 64.2967 37.5162 63.8019 37.0675C63.3071 36.6187 62.4125 35.5659 61.9897 35.284C61.5668 35.0021 60.3414 34.9302 59.8955 34.3664C59.4497 33.8026 58.3566 33.2158 58.3566 33.2158C58.8495 32.9709 59.3545 32.751 59.8696 32.557C61.0001 32.1112 61.9667 30.9605 62.8613 30.2328C63.7559 29.505 66.3132 29.6574 67.4983 28.7139C68.6835 27.7704 69.7564 27.1318 71.9455 26.9679C74.1346 26.8039 76.2776 28.1645 77.1233 29.0591C77.969 29.9537 80.417 30.5377 81.0757 30.8656C81.5692 31.1642 82.0201 31.528 82.4162 31.9472C82.4421 31.9761 82.4619 32.01 82.4744 32.0467C82.4868 32.0835 82.4917 32.1224 82.4888 32.1611C82.4858 32.1998 82.4751 32.2375 82.4572 32.2719C82.4392 32.3063 82.4146 32.3368 82.3846 32.3614C82.1516 32.5383 81.9384 32.7398 81.7488 32.9626C81.2023 33.7422 79.8877 33.9464 79.0851 34.2341C78.4063 34.4786 76.6458 35.8047 76.1136 36.2131C76.3491 36.3425 76.57 36.4968 76.7724 36.6734C76.8017 36.6662 76.8323 36.6662 76.8616 36.6734C76.8616 36.6734 77.7245 36.8805 78.2826 36.4203C79.0983 35.6659 80.131 35.1877 81.2339 35.0539C82.5083 34.8842 82.8189 34.4786 83.4403 33.6875C83.4978 33.6127 83.5611 33.5322 83.6272 33.4516C84.1363 32.8818 84.7623 32.4285 85.4625 32.1227C84.588 31.8091 83.6244 31.0871 82.6665 30.0113Z" fill="#B9F1F9"/>
<path d="M85.9086 31.9012C85.8846 31.872 85.8553 31.8476 85.8223 31.8293C85.7998 31.8149 85.7756 31.8033 85.7504 31.7947C85.5223 31.727 85.3016 31.6364 85.0916 31.5243C84.5789 31.2414 84.1043 30.8944 83.6792 30.4917C83.4405 30.2673 83.1988 30.0199 82.9601 29.7524L82.8939 29.6776C82.7136 29.4516 82.4858 29.2679 82.2266 29.1397C81.8874 28.9828 81.5325 28.8623 81.168 28.7801C81.004 28.7398 80.8228 28.6967 80.6214 28.6535H80.5582C80.813 28.4904 81.0518 28.3035 81.2715 28.0955C81.355 28.0149 81.4413 27.9258 81.5247 27.8337C81.7015 27.6329 81.8594 27.4162 81.9964 27.1865C82.145 26.9302 82.2619 26.6569 82.3445 26.3724C82.4034 26.1709 82.4401 25.9635 82.4538 25.754C82.4538 25.754 82.4538 25.754 82.4538 25.7338C82.4797 25.3226 82.4209 24.9104 82.2812 24.5228C82.2037 24.3223 82.1074 24.1297 81.9936 23.9475C81.7877 23.5904 81.5115 23.2788 81.1817 23.0316C80.8519 22.7844 80.4754 22.6066 80.0749 22.5092C79.1832 22.3222 78.2627 22.5092 77.7276 23.0183C77.5814 23.1483 77.4664 23.3096 77.3911 23.4901C77.3217 23.6573 77.297 23.8397 77.3191 24.0194C77.3339 24.1297 77.3619 24.2379 77.4026 24.3416C77.4617 24.501 77.5608 24.6426 77.6902 24.7529C77.7402 24.7954 77.7942 24.8329 77.8513 24.8651C77.9417 24.9152 78.0385 24.953 78.139 24.9773C78.3519 25.0264 78.5733 25.0264 78.7862 24.9773C78.8996 24.9537 79.0104 24.919 79.117 24.8737C79.326 24.7738 79.5011 24.6149 79.6208 24.4165C79.7404 24.2181 79.7993 23.9891 79.7901 23.7576C79.7885 23.7322 79.7818 23.7075 79.7705 23.6847C79.7591 23.662 79.7433 23.6418 79.724 23.6253C79.6852 23.5908 79.6349 23.5722 79.583 23.5735C79.5463 23.5797 79.5122 23.5967 79.4852 23.6224C79.4585 23.6392 79.4365 23.6625 79.4214 23.6902C79.4063 23.7179 79.3985 23.7491 79.3989 23.7806C79.4057 23.9322 79.3678 24.0825 79.2901 24.2129C79.2124 24.3432 79.0982 24.448 78.9617 24.5141C78.8192 24.5817 78.6634 24.6168 78.5057 24.6168C78.348 24.6168 78.1923 24.5817 78.0498 24.5141C77.9524 24.4557 77.8708 24.3742 77.8122 24.2769C77.7535 24.1797 77.7195 24.0695 77.7132 23.9561C77.7048 23.8304 77.7265 23.7046 77.7766 23.589C77.8266 23.4734 77.9035 23.3715 78.0009 23.2916C78.4468 22.8803 79.2321 22.7163 80.0145 22.8803C80.7212 23.0674 81.325 23.5269 81.6938 24.1582C82.0625 24.7895 82.1662 25.5412 81.9821 26.2487C81.5822 27.6237 80.3367 28.3429 80.0404 28.4953C79.9238 28.4535 79.8095 28.4054 79.6981 28.3515L79.6204 28.3199C79.5456 28.2853 79.4766 28.2479 79.4104 28.2105C79.3442 28.1731 79.2781 28.1329 79.2177 28.0926C79.1573 28.0523 79.0997 28.0121 79.048 27.9718C78.9962 27.9315 78.9243 27.8711 78.8667 27.8222L78.7344 27.7071C78.6424 27.6208 78.5532 27.5317 78.4611 27.4396H78.4468L78.2857 27.2785C78.1217 27.1203 77.952 26.9592 77.7391 26.7866C76.9996 26.2456 76.1725 25.836 75.294 25.5756C74.091 25.1887 72.8381 24.9784 71.5746 24.9514C71.0559 24.9408 70.5382 25.0008 70.0357 25.1297C69.5816 25.2499 69.1418 25.4187 68.724 25.6331C68.5255 25.7367 68.3327 25.846 68.1486 25.9582C67.6436 26.2818 67.1576 26.6343 66.6931 27.0139C66.4658 27.1951 66.2587 27.3591 66.0718 27.4914C66.0085 27.5374 65.9481 27.5777 65.8877 27.6151C65.4375 27.8732 64.9534 28.0669 64.4494 28.1904L63.9172 28.3342L63.4023 28.4723C63.0885 28.5555 62.7816 28.6632 62.4847 28.7945C62.3543 28.8549 62.2292 28.9261 62.1107 29.0074C61.9512 29.1228 61.8012 29.2507 61.662 29.3899C61.5181 29.5338 61.3743 29.6776 61.2334 29.8444C60.9899 30.1184 60.7285 30.376 60.4509 30.6154C60.3531 30.6988 60.2496 30.7793 60.1431 30.857C59.8391 31.0835 59.5026 31.263 59.145 31.3892C58.9379 31.4615 58.7361 31.548 58.5409 31.648C58.3427 31.7467 58.1506 31.8572 57.9656 31.9788L57.7786 31.9041C57.4451 31.779 57.1016 31.6828 56.7517 31.6164C56.4142 31.5515 56.0713 31.5187 55.7276 31.5186C55.4662 31.5205 55.2054 31.5445 54.9481 31.5905C54.5253 31.6649 54.1191 31.8139 53.7485 32.0306C53.4273 32.2231 53.1223 32.4415 52.8367 32.6836C52.572 32.9109 52.3361 33.141 52.1031 33.3711C51.8701 33.6012 51.7177 33.7451 51.5278 33.9177C51.2273 34.1889 50.8916 34.4182 50.5297 34.5994C50.2485 34.7355 49.9533 34.8406 49.6494 34.913C49.472 34.9558 49.2924 34.9894 49.1115 35.0136C48.7893 35.0597 48.5017 35.1028 48.2485 35.146C47.9954 35.1891 47.7509 35.2322 47.538 35.2783C47.1774 35.347 46.8267 35.4601 46.4938 35.6148C45.9185 35.9025 45.5618 36.3138 45.1016 37.0531C44.3652 38.2469 42.5299 39.6823 42.0668 40.0332L41.9575 40.1138C41.9285 40.1365 41.9057 40.1662 41.8913 40.2001C41.8813 40.2368 41.8813 40.2755 41.8913 40.3123C41.8998 40.3491 41.9187 40.3828 41.9457 40.4093C41.9727 40.4358 42.0067 40.454 42.0438 40.4619L42.2883 40.5165C43.1587 40.7072 44.0092 40.9798 44.8283 41.3306C45.0719 41.439 45.3034 41.5731 45.5187 41.7304C45.7315 41.8886 45.9875 42.1188 46.2838 42.3863C46.6981 42.7574 47.19 43.1975 47.7221 43.6031C47.9033 43.7383 48.0903 43.8706 48.2831 43.9943C48.5826 44.1828 48.8961 44.3482 49.2208 44.489C49.7148 44.7171 50.2503 44.8414 50.7943 44.8544C50.8777 44.8544 50.964 44.8544 51.0474 44.8544C51.1884 44.8544 51.3351 44.8256 51.5019 44.7997C52.0482 44.7133 52.5882 44.5912 53.1186 44.4344C55.1724 43.8591 57.675 42.7401 59.1594 41.624C59.3605 41.4754 59.5526 41.315 59.7347 41.1436C59.7634 41.1176 59.7834 41.0835 59.7922 41.0458C59.8021 41.0091 59.8021 40.9704 59.7922 40.9336C59.7778 40.8981 59.7539 40.8673 59.7232 40.8444C59.6925 40.8232 59.6568 40.8103 59.6196 40.807C59.6196 40.807 59.4959 40.807 59.3032 40.7783C58.8072 40.7138 58.3174 40.608 57.839 40.4619C57.3176 40.3055 56.8186 40.0821 56.3547 39.7974C56.6447 39.3936 56.9609 39.0092 57.3011 38.6467C57.4679 38.4655 57.6549 38.267 57.8764 38.057C58.6077 37.3782 59.4428 36.8208 60.3503 36.4059C60.5574 36.3052 60.7127 36.239 60.7904 36.2074C60.9429 36.2402 61.0914 36.2894 61.2334 36.3541C61.4474 36.4444 61.6367 36.5844 61.7857 36.7626L62.0388 37.0675C62.5882 37.7234 62.8788 38.0599 63.3333 38.2872C63.7878 38.5144 64.4062 38.6295 65.6086 38.8481C66.0071 38.9135 66.3944 39.0346 66.7593 39.2077C66.9408 39.3009 67.1115 39.4138 67.2684 39.5442C67.4902 39.7414 67.6969 39.9548 67.8869 40.1828C67.9991 40.3123 68.1227 40.4532 68.2608 40.5971C68.4098 40.756 68.5673 40.9068 68.7326 41.0487C69.1721 41.4274 69.6549 41.7528 70.1709 42.0181C70.7868 42.3462 71.4575 42.5587 72.1499 42.6452C72.358 42.6703 72.5674 42.6828 72.777 42.6826C73.5219 42.6809 74.2584 42.5252 74.9402 42.2252C75.5301 41.9717 76.0713 41.6174 76.5396 41.1781C76.7908 40.9472 77.0103 40.6841 77.1926 40.3957C77.373 40.0826 77.4957 39.7396 77.555 39.3831C77.5949 39.1658 77.616 38.9454 77.6183 38.7244C77.6165 38.4332 77.5789 38.1434 77.5061 37.8614C77.4414 37.5954 77.3356 37.3412 77.1926 37.1078C77.296 37.1137 77.3998 37.1137 77.5032 37.1078C77.7549 37.0993 78.0027 37.0437 78.2339 36.9438C78.3625 36.8868 78.4825 36.8123 78.5906 36.7223C78.9201 36.4329 79.2787 36.1784 79.6607 35.9629C79.7671 35.9054 79.8822 35.8507 80.003 35.7961C80.4319 35.6184 80.8828 35.4993 81.3435 35.4422C82.7817 35.2495 83.1643 34.7519 83.8058 33.9292C83.8346 33.8918 83.8662 33.8486 83.8979 33.8112L83.9899 33.6933C84.2556 33.3784 84.5703 33.1084 84.9219 32.8936C85.0916 32.7843 85.2614 32.6894 85.4196 32.6059C85.5778 32.5225 85.7216 32.4564 85.8424 32.4046C85.9022 32.3767 85.9523 32.3317 85.9863 32.2751C86.0201 32.2189 86.0362 32.1537 86.0323 32.0882C86.0143 32.0132 85.9705 31.947 85.9086 31.9012ZM57.5312 37.7665C56.9595 38.3217 56.4377 38.9262 55.9721 39.573C55.8887 39.5068 55.8053 39.4407 55.7247 39.3688C55.5378 39.2048 55.3306 39.0408 55.1178 38.8855C53.8952 37.9909 52.27 37.2976 50.8231 37.614L50.7425 37.6371C50.5776 37.6709 50.4159 37.719 50.2593 37.7809C49.9528 37.9099 49.681 38.1091 49.4656 38.3624C49.2503 38.6157 49.0975 38.9161 49.0195 39.2393C48.9579 39.4712 48.926 39.7099 48.9245 39.9498C48.9195 40.2717 48.9621 40.5926 49.0511 40.902C49.1067 41.1451 49.2041 41.3767 49.3388 41.5866C49.822 42.2425 51.2056 42.7775 52.27 42.1188C52.52 41.9867 52.7245 41.7824 52.8569 41.5326C52.9894 41.2828 53.0436 40.9989 53.0126 40.7178C52.9815 40.4368 52.8667 40.1715 52.683 39.9566C52.4993 39.7417 52.2551 39.587 51.9823 39.5126H51.9593C51.6403 39.4603 51.3129 39.517 51.03 39.6735C50.7471 39.8301 50.5253 40.0774 50.4002 40.3756C50.3786 40.4225 50.3765 40.4761 50.3943 40.5246C50.4121 40.5731 50.4483 40.6126 50.4951 40.6344C50.5425 40.6519 50.5946 40.652 50.642 40.6346C50.6895 40.6172 50.7292 40.5835 50.754 40.5395C50.8411 40.3215 50.9984 40.1388 51.2012 40.0205C51.4039 39.9022 51.6404 39.8551 51.873 39.8865C52.0735 39.9398 52.253 40.053 52.3874 40.2111C52.5218 40.3691 52.6048 40.5645 52.6251 40.7709C52.6454 40.9774 52.6022 41.1852 52.5012 41.3664C52.4002 41.5477 52.2463 41.6937 52.06 41.7851C51.128 42.3604 49.9773 41.8023 49.6465 41.3536C49.4725 41.0517 49.3598 40.7184 49.3149 40.3729C49.2699 40.0273 49.2937 39.6763 49.3848 39.34C49.4462 39.0729 49.5703 38.8243 49.7469 38.6147C49.9235 38.4051 50.1474 38.2406 50.4002 38.1347C52.0514 37.4242 54.1397 38.5115 55.4543 39.6593C56.6452 40.7121 58.2791 41.0458 59.0702 41.1494C57.1745 42.6826 53.0093 44.2934 50.9611 44.4603C49.2582 44.5926 47.5869 43.0939 46.4794 42.0986C46.1745 41.811 45.9041 41.5895 45.6884 41.4198C44.8657 40.7984 43.2375 40.3554 42.4695 40.1742C43.1541 39.642 44.6873 38.3792 45.3748 37.2631C46.1832 35.9543 46.5657 35.7615 49.1144 35.3991C50.7828 35.1603 51.5336 34.4239 52.3304 33.6473C52.7969 33.1543 53.3248 32.7231 53.901 32.3643C54.7384 31.9182 55.7081 31.7876 56.6337 31.9961C56.9358 32.0549 57.233 32.1366 57.5226 32.2406C57.3068 32.3931 57.1112 32.5455 56.9271 32.6951C56.6941 32.8878 56.4841 33.0691 56.3259 33.2158C56.2643 33.2732 56.2207 33.3474 56.2004 33.4292C56.1802 33.511 56.1842 33.597 56.2119 33.6766C56.2397 33.7561 56.29 33.8259 56.3567 33.8774C56.4234 33.9289 56.5037 33.9599 56.5877 33.9666C57.4419 34.0447 58.2302 34.4585 58.7796 35.1172C58.896 35.2803 59.0333 35.4273 59.1881 35.5544C59.4525 35.7802 59.7597 35.9505 60.0914 36.0549C59.153 36.4867 58.2889 37.0644 57.5312 37.7665ZM83.6361 33.4517C83.5699 33.5322 83.5066 33.6127 83.4491 33.6875C82.8278 34.4843 82.5171 34.8842 81.2428 35.0539C80.1398 35.1878 79.1071 35.6659 78.2914 36.4203C77.7362 36.8805 76.879 36.6734 76.8704 36.6734C76.8411 36.6662 76.8105 36.6662 76.7812 36.6734C76.5788 36.4968 76.358 36.3425 76.1225 36.2132L76.0506 36.1671C74.6957 35.4307 72.7425 35.9313 72.0061 36.6562C71.9407 36.7146 71.8809 36.7791 71.8278 36.8489C71.7481 36.9659 71.6761 37.0879 71.612 37.2142H71.5948C71.5948 37.2142 70.2226 37.6486 69.4978 37.056C69.2598 36.8408 69.0587 36.5882 68.9023 36.3081C68.5255 35.7328 68.0997 35.0597 66.8686 34.9388C65.2376 34.7835 64.8147 34.6742 64.0553 33.8803C63.457 33.2532 62.5508 33.1237 62.0417 33.1007C62.2179 32.8597 62.4409 32.6567 62.6975 32.504C62.954 32.3513 63.2388 32.2519 63.5346 32.2119C64.4557 32.0783 65.3176 31.6783 66.0142 31.0612L66.2185 30.9001C66.8082 30.4485 67.441 30.4197 68.1745 30.3852C68.5464 30.3745 68.9172 30.3409 69.2849 30.2845C70.0472 30.1493 70.5678 29.6632 70.9878 29.272C71.2176 29.0012 71.5155 28.7967 71.8508 28.6794L72.0147 28.6535C72.7368 28.5241 73.6371 28.3659 74.9632 29.4849L75.0351 29.5453C76.3871 30.6959 77.555 31.6682 79.1055 31.648C79.1099 31.6455 79.1148 31.6442 79.1199 31.6442C79.1249 31.6442 79.1299 31.6455 79.1343 31.648C79.1363 31.6515 79.1373 31.6555 79.1373 31.6595C79.1373 31.6636 79.1363 31.6676 79.1343 31.6711C78.856 32.0516 78.4545 32.3241 77.998 32.442C77.0027 32.6922 75.6507 33.2819 74.8338 34.1679C74.1923 34.8871 72.8374 35.0625 71.9572 34.8151C71.1345 34.585 70.2831 33.6099 70.4643 32.8015C70.5069 32.5837 70.596 32.3776 70.7256 32.1974C70.8552 32.0172 71.0221 31.8671 71.2151 31.7574C71.5231 31.588 71.8839 31.5418 72.2247 31.6279C72.2708 31.6279 72.3168 31.6452 72.3599 31.6595C72.4856 31.708 72.6001 31.7814 72.6965 31.8753C72.809 31.978 72.8992 32.1028 72.9616 32.2418C73.0239 32.3809 73.0571 32.5312 73.0589 32.6836C73.0568 32.7697 73.0382 32.8547 73.0043 32.9339L72.9698 32.9972C72.9065 33.1051 72.8031 33.1837 72.6821 33.2158C72.5902 33.2549 72.4905 33.2723 72.3908 33.2668C72.291 33.2614 72.1939 33.2331 72.1068 33.1841C72.0281 33.1282 71.9663 33.0515 71.9285 32.9626C71.9069 32.9146 71.8905 32.8645 71.8796 32.8131C71.8796 32.7929 71.8796 32.7699 71.8796 32.7584C71.8777 32.7327 71.8708 32.7076 71.8593 32.6845C71.8477 32.6615 71.8317 32.641 71.8122 32.6241C71.7927 32.6073 71.7701 32.5945 71.7456 32.5864C71.7211 32.5784 71.6953 32.5752 71.6696 32.5772C71.644 32.5786 71.6189 32.5852 71.5959 32.5964C71.5729 32.6077 71.5523 32.6234 71.5355 32.6427C71.5186 32.662 71.5057 32.6844 71.4976 32.7087C71.4895 32.7331 71.4864 32.7587 71.4883 32.7843C71.4883 32.8131 71.4883 32.8533 71.5056 32.8907C71.5507 33.1383 71.6899 33.3589 71.8939 33.5063C72.0288 33.5907 72.1815 33.6421 72.3399 33.6566C72.4983 33.6711 72.6579 33.6482 72.8058 33.5897C72.9982 33.5328 73.1665 33.414 73.2846 33.2518C73.4026 33.0895 73.4639 32.8928 73.4588 32.6922C73.4612 32.3885 73.3704 32.0913 73.1986 31.8408C73.0268 31.5903 72.7823 31.3985 72.498 31.2913C72.259 31.2077 72.005 31.1755 71.7527 31.1968C71.5004 31.2181 71.2554 31.2925 71.0338 31.415C70.7927 31.5516 70.5836 31.7383 70.4208 31.9627C70.2581 32.187 70.1454 32.4436 70.0903 32.7153C69.8602 33.7451 70.8699 34.9101 71.8623 35.1891C72.8547 35.4681 74.3908 35.2668 75.1445 34.4268C75.8981 33.5869 77.1581 33.0403 78.1016 32.8015C78.6458 32.6635 79.1243 32.3387 79.4536 31.8839C79.4999 31.8229 79.528 31.75 79.5347 31.6736C79.5413 31.5972 79.5261 31.5205 79.491 31.4524C79.4538 31.3834 79.3986 31.3257 79.3312 31.2857C79.2638 31.2456 79.1868 31.2247 79.1084 31.2252C77.7046 31.2568 76.6403 30.3622 75.2969 29.2116L75.225 29.1512C73.758 27.9114 72.7166 28.0955 71.9543 28.2307L71.7961 28.2566C71.3934 28.3256 71.0684 28.6276 70.726 28.9498C70.3262 29.3238 69.8631 29.7495 69.2216 29.8617C68.8712 29.9167 68.5176 29.9484 68.163 29.9566C67.3979 29.994 66.673 30.0257 65.9883 30.5549L65.7783 30.716C65.1351 31.2957 64.3341 31.6711 63.4771 31.7947C63.0613 31.8503 62.6654 32.0068 62.324 32.2505C61.9825 32.4941 61.7059 32.8176 61.5181 33.1928C61.5043 33.2398 61.5094 33.2904 61.5325 33.3337C61.5325 33.351 61.5325 33.3682 61.5325 33.3826C61.5484 33.4007 61.5679 33.4154 61.5896 33.4258C61.6114 33.4362 61.635 33.442 61.6591 33.443C61.6764 33.443 61.6879 33.466 61.7051 33.466C62.1558 33.4468 62.6059 33.5142 63.0312 33.6645C63.083 33.6847 63.129 33.7134 63.1808 33.7364C63.3421 33.8111 63.4922 33.9079 63.6267 34.0241C63.6733 34.0574 63.7175 34.0939 63.759 34.1334C64.6047 35.0165 65.0937 35.146 66.8168 35.3128C67.8581 35.4106 68.2004 35.9428 68.56 36.5037C68.739 36.8172 68.9672 37.0998 69.236 37.3408C69.6182 37.622 70.0851 37.7642 70.5592 37.7435C70.8496 37.7403 71.1388 37.7066 71.4222 37.6428C71.3411 37.9046 71.3272 38.1826 71.3819 38.4511C71.4524 38.7588 71.6223 39.0348 71.8652 39.2364C71.8968 39.2652 71.9371 39.2882 71.9716 39.3141C72.0061 39.34 72.0752 39.3946 72.1356 39.432C72.7828 39.829 73.5221 39.8923 74.0197 39.5903C74.1983 39.4805 74.342 39.3221 74.4337 39.1335C74.5254 38.945 74.5614 38.7342 74.5375 38.5259C74.5307 38.343 74.475 38.1652 74.3764 38.011C74.2951 37.8919 74.1885 37.7922 74.0642 37.7191C73.9399 37.646 73.8009 37.6013 73.6573 37.5882C73.6123 37.5866 73.5682 37.6011 73.5329 37.629C73.4976 37.6569 73.4734 37.6965 73.4645 37.7406C73.4645 37.7406 73.4502 37.7608 73.4502 37.7723C73.4477 37.8235 73.4653 37.8737 73.499 37.9123C73.5328 37.9509 73.5803 37.975 73.6314 37.9794C73.7145 37.9874 73.7948 38.0135 73.8669 38.0557C73.9389 38.0979 74.0009 38.1553 74.0485 38.2239C74.1096 38.3228 74.1442 38.4357 74.1492 38.5518C74.169 38.6888 74.1482 38.8285 74.0894 38.9538C74.0306 39.079 73.9364 39.1843 73.8184 39.2566C73.4444 39.4838 72.8633 39.4205 72.3398 39.1012C72.199 39.0246 72.0753 38.92 71.9764 38.7939C71.8775 38.6677 71.8053 38.5227 71.7645 38.3677C71.6552 37.8643 71.9515 37.3235 72.1384 37.0445C72.4261 36.6159 73.4502 36.1815 74.4915 36.1815C74.9629 36.1732 75.4292 36.2809 75.8492 36.4951C76.1049 36.6306 76.3418 36.7989 76.554 36.9956C77.1868 37.6025 77.4169 39.1242 76.7927 40.1771C76.0362 41.4284 73.2661 43.209 70.2859 41.6556C69.4441 41.2327 68.7011 40.6367 68.1055 39.9067C67.8074 39.5063 67.4311 39.1706 66.9995 38.9199C66.5678 38.6692 66.0897 38.5087 65.5942 38.4483C63.293 38.0283 63.293 38.0283 62.2574 36.7971L62.0129 36.5094C61.6853 36.1218 61.2267 35.8679 60.7242 35.7961C60.4041 35.7627 60.0944 35.6638 59.8142 35.5054C59.5341 35.347 59.2896 35.1326 59.0961 34.8756C58.7902 34.5055 58.4137 34.2001 57.9884 33.9774C57.5631 33.7546 57.0977 33.6189 56.6193 33.5782C56.6101 33.5779 56.6013 33.5747 56.594 33.569C56.5868 33.5633 56.5815 33.5555 56.5791 33.5466C56.5742 33.5405 56.5715 33.5328 56.5715 33.525C56.5715 33.5172 56.5742 33.5096 56.5791 33.5034C57.1141 33.0058 58.1698 32.1198 59.2255 31.7545C60.2812 31.3892 60.9284 30.7045 61.4721 30.1062C61.7154 29.8177 61.9883 29.5555 62.2862 29.3238C62.8115 29.0319 63.3793 28.8242 63.969 28.7082C64.7014 28.5537 65.4071 28.292 66.0631 27.9315C66.3163 27.7704 66.5867 27.5547 66.9031 27.3073C67.9789 26.4443 69.4546 25.2937 71.5315 25.3282C74.1837 25.3829 76.4648 26.2746 77.4601 27.0772C77.6972 27.2731 77.9238 27.4815 78.139 27.7014C78.6256 28.2594 79.2581 28.6708 79.9656 28.8894C80.1324 28.9412 80.3137 28.9901 80.5121 29.0332C82.0827 29.3698 82.287 29.6086 82.5718 29.9307L82.6408 30.0084C83.5987 31.0842 84.5623 31.8063 85.4426 32.114C84.7514 32.4239 84.1344 32.878 83.6332 33.4459L83.6361 33.4517Z" fill="#8BE7F5"/>
<path d="M35.7671 63.1695C35.0896 63.1681 34.418 63.0434 33.7852 62.8013C34.418 63.0434 35.0896 63.1681 35.7671 63.1695Z" fill="#E7FAFD"/>
<path d="M31.9014 61.7369C32.1364 61.9177 32.3824 62.0839 32.6378 62.2346C32.3824 62.0839 32.1364 61.9177 31.9014 61.7369Z" fill="#E7FAFD"/>
<path d="M20.7603 62.7754C20.9875 62.6402 21.2032 62.5021 21.4075 62.364C21.2032 62.5021 20.999 62.6402 20.7603 62.7754Z" fill="#E7FAFD"/>
<path d="M15.0039 65.137C15.2398 65.0766 15.4872 65.0076 15.7374 64.9357C15.4872 65.0105 15.2455 65.0766 15.0039 65.137Z" fill="#E7FAFD"/>
<path d="M40.6313 60.0081C40.7003 59.7256 40.736 59.436 40.7378 59.1451C40.736 59.436 40.7003 59.7256 40.6313 60.0081Z" fill="#E7FAFD"/>
<path d="M18.4819 63.9289L19.0572 63.6757L18.4819 63.9289Z" fill="#E7FAFD"/>
<path d="M9.5127 63.7103C10.2147 64.3218 11.0126 64.8136 11.8744 65.1658C11.0126 64.8136 10.2147 64.3218 9.5127 63.7103Z" fill="#E7FAFD"/>
<path d="M42.4235 48.2027C42.3631 48.1624 42.3027 48.1221 42.248 48.079C42.3027 48.1221 42.3631 48.1624 42.4235 48.2027Z" fill="#E7FAFD"/>
<path d="M41.4629 47.3598L41.6326 47.5238L41.4629 47.3598Z" fill="#E7FAFD"/>
<path d="M24.6147 49.3418C24.689 49.2717 24.7668 49.2055 24.8477 49.1433C24.9687 49.0596 25.0968 48.9864 25.2303 48.9247C25.0968 48.9864 24.9687 49.0596 24.8477 49.1433C24.7668 49.2055 24.689 49.2717 24.6147 49.3418Z" fill="#E7FAFD"/>
<path d="M9.271 55.7364C9.99714 55.5372 10.7377 55.3949 11.486 55.3107C11.9915 55.2468 12.4838 55.1031 12.9444 54.8849C12.4838 55.1031 11.9915 55.2468 11.486 55.3107C10.7377 55.3949 9.99714 55.5372 9.271 55.7364Z" fill="#E7FAFD"/>
<path d="M40.7377 59.1077C40.7369 58.9577 40.7273 58.8079 40.709 58.659C40.7273 58.8079 40.7369 58.9577 40.7377 59.1077Z" fill="#E7FAFD"/>
<path d="M7.70068 56.8957C7.89043 56.6204 8.12133 56.3759 8.38531 56.1708C8.12133 56.3759 7.89043 56.6204 7.70068 56.8957Z" fill="#E7FAFD"/>
<path d="M42.7085 43.5858C42.7387 43.5632 42.7745 43.5493 42.812 43.5455C42.7744 43.5517 42.7395 43.5687 42.7114 43.5944C42.7114 43.5944 42.7114 43.5916 42.7085 43.5858Z" fill="#E7FAFD"/>
<path d="M41.5376 44.187C41.5843 44.1945 41.6319 44.1945 41.6786 44.187C41.6319 44.1945 41.5843 44.1945 41.5376 44.187Z" fill="#E7FAFD"/>
<path d="M28.2855 47.9438C27.9476 48.089 27.5996 48.2092 27.2441 48.3034C27.5996 48.2092 27.9476 48.089 28.2855 47.9438Z" fill="#E7FAFD"/>
<path d="M40.709 43.206C40.77 43.1216 40.8394 43.0435 40.9161 42.973C40.9922 42.9144 41.072 42.8606 41.1549 42.812C41.072 42.8606 40.9922 42.9144 40.9161 42.973C40.8394 43.0435 40.77 43.1216 40.709 43.206Z" fill="#E7FAFD"/>
<path d="M13.9661 54.1859C13.7633 54.3654 13.5469 54.5289 13.3188 54.6749C13.5469 54.5289 13.7633 54.3654 13.9661 54.1859Z" fill="#E7FAFD"/>
<path d="M42.061 47.9237C42.015 47.8863 41.9689 47.8489 41.9258 47.8086C41.9689 47.8489 42.015 47.8863 42.061 47.9237Z" fill="#E7FAFD"/>
<path d="M9.27124 55.7364C8.95369 55.8306 8.6542 55.9774 8.38525 56.1708C8.6542 55.9774 8.95369 55.8306 9.27124 55.7364Z" fill="#E7FAFD"/>
<path d="M4.93896 59.9189C5.67735 59.3255 6.35914 58.6649 6.97558 57.9456C6.35914 58.6649 5.67735 59.3255 4.93896 59.9189Z" fill="#E7FAFD"/>
<path d="M42.8349 48.4385L42.6191 48.3264C42.6882 48.3637 42.7572 48.4011 42.8349 48.4385Z" fill="#E7FAFD"/>
<path d="M6.97559 57.9456C7.11401 57.7753 7.24178 57.5967 7.35817 57.4106C7.47899 57.2179 7.58829 57.0481 7.70048 56.8957C7.58829 57.0481 7.47899 57.2179 7.35817 57.4106C7.24178 57.5967 7.11401 57.7753 6.97559 57.9456Z" fill="#E7FAFD"/>
<path d="M4.05888 60.756C4.05012 60.7184 4.05253 60.679 4.06581 60.6428C4.0791 60.6065 4.10268 60.5749 4.13368 60.5518C4.13368 60.5518 4.29189 60.4339 4.52777 60.2498C4.29189 60.4339 4.13943 60.5374 4.13368 60.5518C4.10268 60.5749 4.0791 60.6065 4.06581 60.6428C4.05253 60.679 4.05012 60.7184 4.05888 60.756Z" fill="#E7FAFD"/>
<path d="M13.8618 61.012C14.3106 60.7905 14.7248 61.012 14.4371 61.4406C14.1121 61.9555 13.0765 61.5931 12.6939 61.2507C12.3114 60.9084 12.1589 59.6629 13.1168 59.1854C14.0747 58.7079 15.7057 59.1652 16.7931 60.1231C17.8804 61.081 19.8221 61.8491 19.8221 61.8491C18.6945 62.9393 13.7266 64.2395 12.5213 63.8943C11.3161 63.5491 10.3582 62.5768 9.40027 61.7168C8.79014 61.1993 8.1128 60.7667 7.38667 60.4309C7.3494 60.4129 7.31701 60.3861 7.29222 60.3529C7.26743 60.3197 7.25096 60.2811 7.2442 60.2402C7.23743 60.1994 7.24057 60.1575 7.25335 60.1181C7.26613 60.0787 7.28818 60.0429 7.31764 60.0138C7.89295 59.4529 8.3417 58.5353 8.94865 57.7989C9.65916 56.9359 11.2672 56.9186 12.9758 56.5562C14.6845 56.1937 16.2062 54.3499 17.2217 53.5041C17.9811 52.8627 19.0684 52.8857 19.5632 52.9288C19.3216 53.1273 19.1058 53.3143 18.9447 53.4639C18.8803 53.5218 18.8346 53.5976 18.8136 53.6817C18.7925 53.7658 18.7971 53.8542 18.8268 53.9356C18.8564 54.0162 18.9089 54.0864 18.9779 54.1375C19.0469 54.1886 19.1294 54.2185 19.2151 54.2233C20.0898 54.3 20.8986 54.7199 21.4646 55.3912C21.5846 55.5574 21.7247 55.7081 21.8817 55.8399C21.3518 56.0338 20.8498 56.2969 20.3888 56.6223C19.8278 57.0768 18.1709 58.518 17.6877 59.2688C16.4335 58.3512 14.7651 57.6407 13.2808 57.9628C13.2534 57.9697 13.2265 57.9784 13.2002 57.9887C13.0304 58.0231 12.8639 58.0722 12.7026 58.1354C12.3877 58.2681 12.1084 58.4728 11.8871 58.7331C11.6657 58.9934 11.5086 59.302 11.4283 59.6341C11.3669 59.872 11.3341 60.1163 11.3305 60.3619L11.3103 60.4338C11.2494 60.7443 11.3036 61.0664 11.4628 61.3399C11.5175 61.5887 11.6148 61.8261 11.7504 62.0418C12.2481 62.7178 13.6691 63.2643 14.7622 62.5883C15.0228 62.4564 15.2371 62.2483 15.3765 61.9916C15.5159 61.7349 15.5738 61.4418 15.5426 61.1514C15.5114 60.8609 15.3925 60.5869 15.2017 60.3657C15.0109 60.1445 14.7572 59.9867 14.4745 59.9131H14.4487C14.1206 59.86 13.7842 59.9191 13.4939 60.0809C13.2036 60.2428 12.9765 60.4979 12.8493 60.8049C12.8275 60.8534 12.8256 60.9085 12.8438 60.9585C12.8621 61.0085 12.8992 61.0493 12.9471 61.0724C12.9732 61.0845 13.0017 61.0908 13.0305 61.0908C13.0593 61.0908 13.0878 61.0845 13.1139 61.0724C13.3617 61.1491 13.6295 61.1275 13.8618 61.012Z" fill="#E7FAFD"/>
<path d="M9.51275 63.7103C9.16756 63.4226 8.84826 63.135 8.56636 62.8847L8.14062 62.505L8.56636 62.8847C8.84826 63.1379 9.16756 63.4255 9.51275 63.7103Z" fill="#E7FAFD"/>
<path d="M34.9102 53.067C34.9372 53.115 34.9547 53.1677 34.9619 53.2223C34.9382 53.1729 34.9208 53.1207 34.9102 53.067Z" fill="#E7FAFD"/>
<path d="M22.4371 61.5011C22.4278 61.5394 22.4079 61.5743 22.3796 61.6018C22.1593 61.8096 21.9247 62.0018 21.6777 62.1771C21.9247 62.0018 22.1593 61.8096 22.3796 61.6018C22.4079 61.5743 22.4278 61.5394 22.4371 61.5011Z" fill="#E7FAFD"/>
<path d="M36.3168 58.4864C36.6476 59.3494 35.287 58.8575 35.6006 58.1096C35.9141 57.3617 37.0389 57.074 37.8472 57.12C38.6555 57.1661 39.9269 58.0147 39.7802 59.171C39.6335 60.3274 38.4771 61.4378 37.0015 61.8721C36.3057 62.0524 35.5769 62.0632 34.8762 61.9035C34.1754 61.7438 33.5232 61.4184 32.9743 60.9545C31.9801 60.0376 30.9228 59.1918 29.81 58.4231C29.1082 57.9888 27.1291 57.868 26.6199 57.4106C26.1108 56.9532 25.1816 55.8659 24.7588 55.5782C24.3359 55.2905 23.0674 55.2158 22.61 54.6376C22.1526 54.0594 21.0308 53.4553 21.0308 53.4553C21.5366 53.2034 22.055 52.9777 22.5841 52.7793C23.7347 52.3219 24.7358 51.1397 25.6534 50.3918C26.571 49.6438 29.206 49.7905 30.4141 48.8327C31.6223 47.8748 32.7326 47.2103 34.9821 47.0406C37.2316 46.8708 39.4092 48.2688 40.2894 49.1893C41.1696 50.1098 43.6722 50.7082 44.3482 51.0476C44.8599 51.3502 45.3274 51.7219 45.7376 52.1522C45.7652 52.1815 45.7864 52.2163 45.7997 52.2543C45.813 52.2923 45.8182 52.3326 45.815 52.3728C45.8117 52.4129 45.8001 52.4519 45.7808 52.4872C45.7615 52.5226 45.7351 52.5535 45.7031 52.5779C45.4649 52.7603 45.2469 52.9676 45.053 53.1964C44.4921 53.9961 43.1429 54.2061 42.3174 54.4995C41.6212 54.7498 39.8119 56.1132 39.2682 56.5303L39.1934 56.4843C37.804 55.7278 35.7991 56.2427 35.0425 56.9877C34.6686 57.0798 33.3885 57.3387 32.7758 56.608C32.0566 55.745 31.303 54.511 30.0402 54.3758C28.7774 54.2406 27.8971 53.8925 27.3995 53.5416C27.1579 53.3556 26.8879 53.2099 26.5998 53.1101C26.5998 53.1101 27.8655 52.9519 28.6796 52.296C29.4936 51.6402 30.2156 51.5453 31.6568 51.4331C33.098 51.3209 34.0875 50.5701 34.9044 50.012C35.7214 49.454 36.4549 49.6927 37.1453 50.107C37.8357 50.5212 38.503 51.6402 39.5271 51.8962C38.9002 52.2271 38.3101 52.6234 37.7666 53.0785C37.2086 53.6221 36.4894 54.4218 35.7214 54.2521C34.9534 54.0824 34.2831 53.6768 34.5046 53.1964C34.5046 53.1763 34.5247 53.1676 34.5334 53.1504C34.58 53.4035 34.7222 53.629 34.9303 53.7804C35.0695 53.8659 35.2265 53.9182 35.3891 53.9332C35.5518 53.9482 35.7157 53.9254 35.8681 53.8666C36.0658 53.8082 36.2385 53.6859 36.3593 53.5188C36.4801 53.3517 36.542 53.1493 36.5355 52.9433C36.5383 52.6313 36.4451 52.326 36.2686 52.0687C36.0922 51.8115 35.8409 51.6147 35.5488 51.505C35.3039 51.4182 35.0433 51.3847 34.7844 51.4065C34.5255 51.4283 34.2742 51.505 34.0472 51.6316C33.7994 51.7715 33.5846 51.9631 33.4173 52.1934C33.25 52.4237 33.1343 52.6873 33.0778 52.9663C32.8419 54.022 33.8804 55.2186 34.8958 55.5034C35.9112 55.7882 37.4847 55.5868 38.2643 54.721C39.0438 53.8551 40.3354 53.2827 41.3019 53.0555C41.8606 52.9119 42.3519 52.5783 42.6913 52.1119C42.7378 52.0487 42.7658 51.9739 42.7724 51.8957C42.779 51.8175 42.7639 51.7391 42.7287 51.6689C42.691 51.5975 42.6342 51.5379 42.5646 51.4967C42.495 51.4556 42.4154 51.4346 42.3346 51.4359C40.8963 51.4676 39.8032 50.5385 38.4225 49.3734L38.3477 49.3102C36.8433 48.0387 35.7732 48.2286 34.9936 48.3666L34.8297 48.3954C34.4183 48.4645 34.0846 48.7751 33.7308 49.1059C33.3195 49.4885 32.8678 49.9258 32.1861 50.0408C31.8263 50.0983 31.463 50.131 31.0988 50.1386C30.3134 50.176 29.5713 50.2105 28.8665 50.7513L28.6537 50.9182C27.9943 51.5125 27.1734 51.8979 26.2949 52.0256C25.8674 52.0829 25.4604 52.2439 25.1094 52.4946C24.7584 52.7453 24.4741 53.0781 24.2813 53.4639C24.2627 53.5101 24.2627 53.5616 24.2813 53.6078L24.195 53.7516C24.195 53.7516 24.2611 53.7372 24.3676 53.7257C24.3981 53.74 24.4318 53.746 24.4654 53.743C24.9279 53.7258 25.3895 53.7961 25.826 53.9501C25.8605 53.9501 25.895 53.976 25.9296 53.9932C26.1074 54.0839 26.2777 54.1887 26.4387 54.3068C26.4863 54.341 26.5315 54.3785 26.5739 54.4189C27.4369 55.3251 27.9432 55.4574 29.7122 55.6271C30.7823 55.7307 31.1304 56.2743 31.5015 56.8496C31.6844 57.1737 31.9196 57.4653 32.1976 57.7126C32.5892 58.0024 33.0686 58.1487 33.5553 58.1268C33.8545 58.1243 34.1525 58.0896 34.4442 58.0233C34.3607 58.2915 34.3458 58.5763 34.401 58.8517C34.4728 59.1689 34.6478 59.4532 34.8987 59.6601C34.9332 59.6888 34.9706 59.7118 35.008 59.7377C35.0624 59.7819 35.119 59.8232 35.1777 59.8614C35.8393 60.2699 36.5987 60.3332 37.1108 60.0225C37.2927 59.9082 37.439 59.7452 37.533 59.552C37.6271 59.3588 37.6651 59.1431 37.6429 58.9294C37.6341 58.7424 37.5766 58.561 37.4761 58.403C37.3929 58.2802 37.2834 58.1775 37.1555 58.1024C37.0276 58.0273 36.8846 57.9816 36.7368 57.9686C36.6908 57.9659 36.6454 57.9802 36.6093 58.0088C36.5732 58.0375 36.5489 58.0785 36.5412 58.124C36.4255 58.214 36.3458 58.3426 36.3168 58.4864Z" fill="#E7FAFD"/>
<path d="M35.4018 51.8847C35.5307 51.9347 35.6488 52.0089 35.7499 52.1033C35.5961 52.0064 35.4345 51.9227 35.2666 51.853C35.3098 51.8645 35.3558 51.8703 35.4018 51.8847Z" fill="#E7FAFD"/>
<path d="M36.0288 53.2568L36.0633 53.1935L36.0288 53.2568Z" fill="#E7FAFD"/>
<path d="M31.6048 61.4952C31.4207 61.3342 31.2625 61.1788 31.1216 61.0292C31.2625 61.1788 31.4207 61.3342 31.6048 61.4952Z" fill="#E7FAFD"/>
<path d="M48.4644 51.7264C48.6784 51.8449 48.9039 51.9413 49.1375 52.0141C49.2029 52.0327 49.2611 52.0708 49.3043 52.1234C49.2611 52.0708 49.2029 52.0327 49.1375 52.0141C48.9039 51.9413 48.6784 51.8449 48.4644 51.7264Z" fill="#E7FAFD"/>
<path d="M44.8025 47.9236C44.5107 48.2476 44.177 48.531 43.8101 48.7665L43.8733 48.7809L43.8101 48.7665C44.177 48.531 44.5107 48.2476 44.8025 47.9236Z" fill="#E7FAFD"/>
<path d="M43.8965 42.6451C44.478 42.924 44.9644 43.3683 45.2945 43.9223C44.9644 43.3683 44.478 42.924 43.8965 42.6451Z" fill="#E7FAFD"/>
<path d="M40.3008 57.4509C40.5209 57.8201 40.6601 58.2319 40.7093 58.659C40.6601 58.2319 40.5209 57.8201 40.3008 57.4509Z" fill="#E7FAFD"/>
<path d="M42.6392 42.3805C42.8693 42.3802 43.0988 42.4043 43.3238 42.4524C43.5224 42.4939 43.7155 42.5586 43.8991 42.6451C43.7155 42.5586 43.5224 42.4939 43.3238 42.4524C43.0988 42.4043 42.8693 42.3802 42.6392 42.3805Z" fill="#E7FAFD"/>
<path d="M47.7223 53.5042C47.5606 53.6381 47.4122 53.7874 47.2793 53.95L47.1758 54.0795L47.2707 53.9587C47.4059 53.7926 47.5572 53.6404 47.7223 53.5042Z" fill="#E7FAFD"/>
<path d="M30.9205 60.8107C30.8544 60.7416 30.794 60.6697 30.7364 60.6035C30.5926 60.4396 30.4488 60.29 30.3193 60.149C30.4603 60.29 30.5926 60.4367 30.7364 60.6035C30.794 60.6697 30.8544 60.7416 30.9205 60.8107Z" fill="#E7FAFD"/>
<path d="M42.9473 48.4386L43.0307 48.3523L42.9473 48.4386Z" fill="#E7FAFD"/>
<path d="M43.9165 47.193C43.8877 47.239 43.8618 47.2879 43.8359 47.3311C43.8618 47.2879 43.8877 47.239 43.9165 47.193Z" fill="#E7FAFD"/>
<path d="M44.1811 46.6781C44.1552 46.7385 44.1293 46.796 44.1006 46.8536L44.1811 46.6781Z" fill="#E7FAFD"/>
<path d="M42.1851 43.5397L42.1592 43.5858L42.1851 43.5397Z" fill="#E7FAFD"/>
<path d="M41.7705 43.4563C41.9205 43.3565 42.0886 43.2871 42.2653 43.2521C42.0886 43.2871 41.9205 43.3565 41.7705 43.4563Z" fill="#E7FAFD"/>
<path d="M42.5448 43.4621L42.5103 43.4477L42.5448 43.4621Z" fill="#E7FAFD"/>
<path d="M44.2183 44.092C44.3948 44.4044 44.4935 44.7547 44.5059 45.1132C44.4935 44.7547 44.3948 44.4044 44.2183 44.092Z" fill="#E7FAFD"/>
<path d="M43.2748 48.0876L43.1885 48.1854L43.2748 48.0876Z" fill="#E7FAFD"/>
<path d="M40.4992 44.0115C40.4742 43.8271 40.499 43.6394 40.5711 43.4678C40.499 43.6394 40.4742 43.8271 40.4992 44.0115Z" fill="#E7FAFD"/>
<path d="M44.3827 46.1229C44.3655 46.1833 44.3453 46.2409 44.3252 46.3013C44.3453 46.2409 44.3655 46.1833 44.3827 46.1229Z" fill="#E7FAFD"/>
<path d="M20.3891 56.6368C20.8501 56.3113 21.3521 56.0483 21.882 55.8544C22.1541 56.0892 22.4698 56.2681 22.8112 56.3808C21.8416 56.8275 20.9493 57.4257 20.1676 58.1527C19.5822 58.7221 19.0471 59.3409 18.5682 60.0024C18.4819 59.9362 18.3956 59.8672 18.3122 59.7953C18.1223 59.6255 17.9095 59.4587 17.688 59.2976C18.1713 58.5325 19.8282 57.0913 20.3891 56.6368Z" fill="#B9F1F9"/>
<path d="M11.3105 60.4482L11.3306 60.3763C11.3272 60.707 11.3718 61.0364 11.4629 61.3543C11.3038 61.0808 11.2496 60.7587 11.3105 60.4482Z" fill="#B9F1F9"/>
<path d="M8.02295 61.8893C7.18012 61.2507 5.50595 60.7962 4.71777 60.6093C5.41966 60.0627 6.99602 58.7654 7.70078 57.6205C8.52923 56.2772 8.92332 56.0816 11.5439 55.7076C13.2554 55.4631 14.0264 54.7094 14.8433 53.9097C15.3231 53.4038 15.8654 52.9611 16.4571 52.5923C17.32 52.1325 18.3197 51.9987 19.2732 52.2154C19.5832 52.2749 19.8881 52.3586 20.1851 52.4657C19.9636 52.621 19.7622 52.7793 19.5753 52.9317C19.0805 52.8799 17.9931 52.8569 17.2337 53.507C16.2183 54.37 14.688 56.2139 12.9822 56.5763C11.2764 56.9388 9.65972 56.956 8.94921 57.819C8.34225 58.5554 7.89063 59.473 7.31819 60.034C7.28873 60.0631 7.26669 60.0988 7.25391 60.1382C7.24113 60.1776 7.23799 60.2195 7.24475 60.2604C7.25152 60.3012 7.26799 60.3399 7.29278 60.3731C7.31757 60.4062 7.34996 60.433 7.38723 60.4511C8.11335 60.7869 8.7907 61.2194 9.40083 61.7369C10.3587 62.5998 11.3166 63.5693 12.5219 63.9144C13.7272 64.2596 18.695 62.9594 19.8226 61.8692C19.8226 61.8692 17.8637 61.0868 16.7936 60.1433C15.7235 59.1998 14.0724 58.728 13.1174 59.2055C12.1623 59.683 12.3119 60.9314 12.6945 61.2709C13.0771 61.6103 14.1126 61.9756 14.4377 61.4607C14.7081 61.0321 14.3025 60.8106 13.8624 61.0321C13.6329 61.1463 13.3686 61.1689 13.1231 61.0954C13.1726 61.0735 13.2118 61.0333 13.2324 60.9832C13.322 60.7592 13.4839 60.5715 13.6924 60.45C13.9009 60.3286 14.144 60.2803 14.383 60.313C14.5885 60.3684 14.7723 60.4851 14.9097 60.6476C15.0472 60.8101 15.1319 61.0106 15.1525 61.2225C15.1731 61.4343 15.1287 61.6474 15.0252 61.8333C14.9216 62.0193 14.7638 62.1693 14.5729 62.2633C13.6179 62.853 12.4356 62.2777 12.0962 61.8203C11.7374 61.1933 11.6412 60.4497 11.8287 59.7521C11.8923 59.4783 12.0203 59.2236 12.2018 59.009C12.3834 58.7944 12.6134 58.6261 12.8728 58.518C14.5643 57.7874 16.7246 58.9035 18.0507 60.0829C19.2761 61.1616 20.9531 61.5039 21.7614 61.6103C19.814 63.1838 15.5337 64.8407 13.4338 65.0104C11.6877 65.1456 9.98189 63.6067 8.83127 62.5855C8.52347 62.3064 8.25308 62.0648 8.02295 61.8893Z" fill="#B9F1F9"/>
<path d="M13.2007 58.0031C13.227 57.9928 13.2539 57.9841 13.2812 57.9772C13.2539 57.9841 13.227 57.9928 13.2007 58.0031Z" fill="#B9F1F9"/>
<path d="M42.6279 43.7612C42.633 43.917 42.5931 44.0708 42.513 44.2045C42.4329 44.3381 42.316 44.4459 42.1763 44.5149C42.0299 44.5832 41.8704 44.6187 41.7089 44.6187C41.5473 44.6187 41.3878 44.5832 41.2414 44.5149C41.1411 44.4546 41.0572 44.3707 40.997 44.2703C40.9368 44.17 40.9022 44.0564 40.8962 43.9396C40.8857 43.8112 40.9064 43.6821 40.9565 43.5634C41.0065 43.4447 41.0846 43.3399 41.1839 43.2578C41.6413 42.8321 42.4467 42.6825 43.2377 42.8321C43.964 43.0265 44.5836 43.5006 44.961 44.1508C45.3384 44.801 45.4428 45.5742 45.2513 46.3012C44.8429 47.7108 43.5599 48.45 43.2579 48.6025C43.138 48.5609 43.0208 48.5119 42.9069 48.4558L42.9386 48.4241L43.022 48.3378L43.1802 48.171L43.2665 48.0732C43.3557 47.9696 43.4506 47.8575 43.5542 47.728V47.7107C43.6433 47.5899 43.7354 47.4576 43.8246 47.3167C43.8505 47.2735 43.8763 47.2246 43.9051 47.1786C43.9684 47.0693 44.0288 46.9571 44.0892 46.8391C44.118 46.7816 44.1439 46.7241 44.1698 46.6637C44.2244 46.54 44.2704 46.4134 44.3136 46.2868C44.3337 46.2264 44.3539 46.1689 44.3711 46.1085C44.4274 45.9206 44.4668 45.7281 44.4891 45.5332C44.5018 45.3925 44.5018 45.251 44.4891 45.1103C44.4766 44.7518 44.378 44.4015 44.2014 44.0892C44.1009 43.916 43.9737 43.7597 43.8246 43.626C43.6956 43.5105 43.5477 43.4181 43.3873 43.3528C43.2033 43.2796 43.0094 43.2341 42.812 43.2176C42.6198 43.1987 42.4257 43.2094 42.2367 43.2492C42.06 43.2842 41.8919 43.3536 41.7419 43.4534C41.5972 43.5495 41.481 43.6826 41.4054 43.8389C41.3104 44.0345 41.3824 44.1438 41.5089 44.1841C41.5556 44.1916 41.6032 44.1916 41.6499 44.1841C41.7256 44.1835 41.8001 44.1653 41.8676 44.1308C41.935 44.0964 41.9934 44.0466 42.0382 43.9856C42.064 43.9443 42.077 43.8962 42.0756 43.8475C42.0701 43.7486 42.0889 43.6499 42.1303 43.5599L42.1562 43.5138C42.1879 43.4611 42.2382 43.4222 42.2971 43.4045C42.3552 43.3948 42.4147 43.4008 42.4697 43.4218L42.5042 43.4362C42.5666 43.466 42.6224 43.508 42.6682 43.5599C42.6426 43.5858 42.6251 43.6187 42.6179 43.6545C42.6108 43.6903 42.6143 43.7274 42.6279 43.7612Z" fill="#B9F1F9"/>
<path d="M25.8286 53.9501C26.0522 54.0322 26.2595 54.1529 26.4413 54.3068C26.2803 54.1887 26.11 54.0839 25.9322 53.9932C25.889 53.976 25.8631 53.9645 25.8286 53.9501Z" fill="#B9F1F9"/>
<path d="M35.7066 54.2521C36.4747 54.4219 37.1938 53.6222 37.7519 53.0785C38.2953 52.6234 38.8854 52.2271 39.5123 51.8962C38.4883 51.6402 37.818 50.5241 37.1305 50.107C36.443 49.6899 35.6922 49.454 34.8897 50.0121C34.0871 50.5701 33.0803 51.3209 31.642 51.4331C30.2037 51.5453 29.4817 51.6402 28.6648 52.2961C27.8478 52.9519 26.585 53.1101 26.585 53.1101C26.8731 53.2099 27.1431 53.3556 27.3847 53.5416C27.8823 53.8926 28.7626 54.2435 30.0254 54.3758C31.2882 54.5081 32.039 55.7451 32.761 56.608C33.3737 57.3387 34.6538 57.0798 35.0277 56.9878C34.9604 57.0471 34.8988 57.1126 34.8436 57.1834C34.7631 57.3043 34.69 57.4302 34.625 57.5602H34.6078C34.6078 57.5602 33.1982 58.0061 32.4532 57.3962C32.2096 57.1754 32.0028 56.9171 31.8405 56.6311C31.455 56.0299 31.0178 55.3481 29.7521 55.2244C28.0779 55.0633 27.6465 54.954 26.8755 54.1371C26.26 53.4927 25.3279 53.3604 24.8159 53.3374C24.997 53.0898 25.226 52.8812 25.4894 52.724C25.7529 52.5668 26.0452 52.4643 26.3491 52.4226C27.2957 52.2841 28.1808 51.8711 28.8949 51.2346L29.1049 51.0706C29.709 50.6046 30.3591 50.5759 31.1185 50.5414C31.5039 50.5317 31.8882 50.4972 32.2691 50.4378C33.0544 50.2997 33.5895 49.7992 34.0181 49.3994C34.3402 49.0973 34.6164 48.824 34.9098 48.7895L35.0766 48.7608C35.8188 48.6313 36.7422 48.4731 38.1057 49.6237L38.1776 49.6841C39.567 50.8578 40.7665 51.8617 42.3572 51.8444C42.363 51.8426 42.3692 51.8431 42.3746 51.8458C42.3799 51.8485 42.384 51.8531 42.386 51.8588C42.3881 51.8618 42.3892 51.8653 42.3892 51.8689C42.3892 51.8725 42.3881 51.876 42.386 51.879C42.1016 52.2703 41.6896 52.5501 41.221 52.67C40.1969 52.9289 38.8104 53.533 37.9849 54.4592C37.3232 55.1985 35.931 55.3797 35.022 55.1237C34.1763 54.885 33.296 53.8868 33.4859 53.0584C33.5302 52.8348 33.6223 52.6234 33.7558 52.4387C33.8894 52.254 34.0613 52.1004 34.2597 51.9883C34.5764 51.8136 34.9478 51.7663 35.2981 51.856C35.466 51.9256 35.6277 52.0093 35.7814 52.1062C35.8966 52.2123 35.9889 52.3407 36.0527 52.4836C36.1165 52.6266 36.1504 52.781 36.1525 52.9375C36.1493 53.0266 36.1298 53.1144 36.0949 53.1964L36.0604 53.2597C35.997 53.3693 35.8941 53.4506 35.7728 53.487C35.6778 53.5263 35.5751 53.5436 35.4725 53.5376C35.3699 53.5316 35.27 53.5025 35.1802 53.4524C35.0996 53.3953 35.0367 53.3165 34.999 53.2252C34.9918 53.1706 34.9742 53.1179 34.9472 53.0699C34.9472 53.0497 34.9472 53.0267 34.9472 53.0152C34.939 52.966 34.9128 52.9216 34.8737 52.8906C34.8346 52.8596 34.7854 52.8442 34.7356 52.8474C34.6858 52.8506 34.639 52.8722 34.6042 52.908C34.5694 52.9438 34.5492 52.9912 34.5474 53.0411C34.552 53.0788 34.5587 53.1163 34.5675 53.1533C34.5675 53.1705 34.5474 53.1792 34.5387 53.1993C34.2655 53.6653 34.9386 54.0795 35.7066 54.2521Z" fill="#B9F1F9"/>
<path d="M24.2839 53.6077C24.2839 53.625 24.2839 53.6451 24.2839 53.6595C24.3045 53.6882 24.3323 53.7111 24.3645 53.7257C24.2581 53.7257 24.1919 53.7516 24.1919 53.7516L24.2839 53.6077Z" fill="#B9F1F9"/>
<path d="M34.9014 59.6572C34.933 59.6831 34.9733 59.7089 35.0107 59.7348C34.9733 59.7089 34.9359 59.6859 34.9014 59.6572Z" fill="#B9F1F9"/>
<path d="M31.038 60.3389C30.7305 59.9267 30.3425 59.5813 29.8975 59.3236C29.4524 59.066 28.9596 58.9015 28.4491 58.8402C26.0759 58.4087 26.0759 58.4087 25.0231 57.1488L24.7699 56.8611C24.4355 56.4619 23.9652 56.2006 23.4496 56.1276C22.6585 55.9837 22.1436 55.6932 21.7783 55.1841C21.4647 54.8034 21.0782 54.4893 20.6416 54.2601C20.2049 54.0309 19.7268 53.8912 19.2354 53.8493C19.2258 53.8492 19.2165 53.8461 19.2088 53.8404C19.201 53.8348 19.1953 53.8268 19.1923 53.8177C19.1876 53.8109 19.1851 53.8029 19.1851 53.7947C19.1851 53.7864 19.1876 53.7784 19.1923 53.7717C19.7388 53.2625 20.8233 52.3506 21.9078 51.9796C22.9922 51.6085 23.6538 50.9009 24.209 50.2853C24.4689 49.9856 24.7601 49.7146 25.0777 49.4769C25.4776 49.1893 26.1219 49.0253 26.8037 48.8441C27.5568 48.6877 28.2821 48.4191 28.9554 48.0473C29.2171 47.8805 29.4933 47.6618 29.8183 47.4058C30.9258 46.5429 32.4418 45.3261 34.5733 45.375C37.2945 45.4325 39.6361 46.3472 40.6601 47.1728C40.9027 47.3728 41.1341 47.586 41.3534 47.8114C41.8554 48.383 42.5054 48.805 43.2318 49.0311C43.416 49.0899 43.6032 49.1389 43.7927 49.1778C45.4036 49.5259 45.6164 49.7675 45.907 50.1012L45.9789 50.1817C46.9598 51.2834 47.9493 52.0256 48.8554 52.3391C48.1369 52.6546 47.4944 53.1205 46.9713 53.7055L46.7786 53.95C46.1428 54.767 45.8235 55.1754 44.5147 55.3509C43.3826 55.4888 42.3227 55.98 41.4857 56.7547C40.9104 57.2264 40.0474 57.0136 40.0273 57.0136C39.997 57.0065 39.9655 57.0065 39.9352 57.0136C39.7264 56.833 39.4999 56.674 39.2592 56.5389C39.8029 56.1218 41.6123 54.7583 42.3084 54.5081C43.134 54.2204 44.4831 54.0047 45.044 53.205C45.238 52.9762 45.4559 52.7688 45.6941 52.5865C45.7261 52.5621 45.7526 52.5311 45.7718 52.4958C45.7911 52.4605 45.8027 52.4215 45.806 52.3813C45.8093 52.3412 45.804 52.3008 45.7907 52.2628C45.7774 52.2249 45.7562 52.1901 45.7286 52.1608C45.3231 51.7305 44.8604 51.3579 44.3536 51.0533C43.6776 50.7139 41.1635 50.1127 40.2948 49.195C39.4261 48.2774 37.2255 46.8794 34.9789 47.0491C32.7323 47.2188 31.6191 47.8862 30.4109 48.8412C29.2027 49.7962 26.5678 49.6524 25.6502 50.4003C24.7326 51.1482 23.743 52.3305 22.5809 52.7879C22.0518 52.9863 21.5333 53.212 21.0275 53.4639C21.0275 53.4639 22.1465 54.068 22.6068 54.6461C23.067 55.2243 24.3327 55.2962 24.7556 55.5868C25.1784 55.8773 26.1104 56.9618 26.6167 57.4192C27.123 57.8765 29.1049 57.9945 29.8068 58.4317C30.9195 59.2003 31.9769 60.0462 32.971 60.9631C33.52 61.427 34.1722 61.7524 34.8729 61.9121C35.5737 62.0717 36.3025 62.061 36.9982 61.8807C38.4739 61.4464 39.6332 60.336 39.777 59.1796C39.9208 58.0232 38.6436 57.166 37.8439 57.1286C37.0443 57.0912 35.9109 57.3703 35.5973 58.1182C35.2838 58.8661 36.6444 59.3608 36.3136 58.495C36.3427 58.3498 36.4234 58.22 36.5409 58.1297C36.5409 58.1297 36.5265 58.1498 36.5236 58.1613C36.5212 58.2141 36.5393 58.2657 36.5742 58.3054C36.609 58.3451 36.6579 58.3698 36.7106 58.3742C36.7961 58.3828 36.8787 58.4098 36.9528 58.4536C37.0268 58.4973 37.0904 58.5566 37.1392 58.6273C37.2033 58.7281 37.2391 58.8444 37.2427 58.9639C37.2631 59.1046 37.2415 59.2481 37.1806 59.3766C37.1197 59.505 37.0222 59.6126 36.9004 59.6859C36.5179 59.9189 35.9224 59.8556 35.3874 59.5248C35.2416 59.4476 35.1135 59.341 35.011 59.2118C34.9085 59.0826 34.8339 58.9335 34.7919 58.774C34.6797 58.2562 34.9818 57.7011 35.1745 57.4163C35.4622 56.9762 36.5207 56.5245 37.5908 56.5245C38.0745 56.5141 38.5531 56.6249 38.9831 56.8467C39.2464 56.9844 39.4901 57.1566 39.708 57.3587C40.3581 57.983 40.6055 59.5449 39.9553 60.6237C39.1787 61.9095 36.3337 63.739 33.276 62.1425C32.4107 61.7064 31.648 61.0917 31.038 60.3389Z" fill="#B9F1F9"/>
<path d="M4.05854 60.756C4.06494 60.7939 4.08425 60.8285 4.1132 60.8538C4.14009 60.8823 4.17536 60.9014 4.21388 60.9085C4.21388 60.9085 4.71153 61.012 5.34149 61.1961C5.93178 61.3555 6.50882 61.5603 7.06744 61.8088C7.31744 61.9207 7.55549 62.0575 7.77795 62.2173C7.88726 62.3007 8.0052 62.4014 8.13752 62.505L8.56325 62.8847C8.85091 63.1378 9.16445 63.4255 9.50964 63.7102C10.2116 64.3218 11.0095 64.8135 11.8713 65.1658C12.2979 65.328 12.7497 65.4137 13.206 65.4189C13.2923 65.4189 13.3786 65.4189 13.4649 65.4189C13.9833 65.3695 14.4969 65.279 15.001 65.1485C15.2369 65.0881 15.4843 65.0191 15.7345 64.9472C16.6689 64.6675 17.5853 64.3313 18.4788 63.9404L19.0541 63.6872C19.6639 63.3996 20.2421 63.1119 20.78 62.7869C21.0073 62.6517 21.223 62.5136 21.4273 62.3755L21.6948 62.1857C21.9418 62.0104 22.1763 61.8181 22.3967 61.6103C22.4249 61.5829 22.4449 61.548 22.4542 61.5097C22.4656 61.4722 22.4656 61.4321 22.4542 61.3946C22.4404 61.3577 22.4162 61.3256 22.3846 61.3021C22.3529 61.2786 22.3152 61.2648 22.2759 61.2623H22.1867C22.0774 61.2623 21.8703 61.2335 21.6114 61.1875C21.4762 61.1674 21.3237 61.1386 21.1626 61.1012C20.3776 60.9427 19.6255 60.6508 18.939 60.2382C19.4035 59.5949 19.9233 58.9933 20.4924 58.4404C21.1429 57.8299 21.8795 57.3182 22.6786 56.9215C23.064 56.7231 23.3661 56.5936 23.4811 56.5447C23.8793 56.6109 24.2416 56.8144 24.5052 57.12L24.767 57.4307C25.06 57.8191 25.3969 58.1723 25.7709 58.4835C26.1315 58.7324 26.5417 58.9002 26.9733 58.9754C27.3444 59.0617 27.8104 59.148 28.4288 59.2631C28.8417 59.3284 29.2428 59.4534 29.6197 59.6341C29.8937 59.7746 30.1433 59.9582 30.359 60.1778C30.5 60.3188 30.6323 60.4655 30.7761 60.6323C30.8336 60.6985 30.8941 60.7704 30.9602 60.8394C31.0264 60.9085 31.0897 60.9833 31.1616 61.058C31.3025 61.2076 31.4492 61.363 31.6448 61.5241C31.7369 61.6017 31.8347 61.6823 31.9325 61.7657C32.1676 61.9465 32.4135 62.1127 32.6689 62.2633C32.8099 62.3467 32.9566 62.433 33.1234 62.5165C33.3486 62.6335 33.58 62.7382 33.8167 62.83C34.4495 63.0721 35.1211 63.1969 35.7986 63.1982C37.2346 63.1848 38.6136 62.6348 39.6647 61.6564C39.9211 61.4179 40.1454 61.1471 40.3321 60.8509C40.4826 60.5977 40.5941 60.3233 40.6629 60.0369C40.7318 59.7543 40.7675 59.4647 40.7693 59.1739V59.148C40.7684 58.998 40.7588 58.8482 40.7406 58.6993C40.6914 58.2722 40.5522 57.8604 40.3321 57.4911C40.5612 57.5094 40.7917 57.4948 41.0167 57.448C41.2915 57.3945 41.5492 57.2751 41.7675 57.0999C42.5451 56.3699 43.536 55.9082 44.5952 55.7824C46.0651 55.5868 46.462 55.0748 47.1208 54.2291C47.1524 54.1917 47.1841 54.1485 47.2157 54.1083L47.3106 53.9874C47.4316 53.8133 47.5694 53.6514 47.722 53.5042C48.1674 53.1488 48.6578 52.8538 49.1804 52.6268C49.2424 52.5992 49.2944 52.5533 49.3294 52.4951C49.3644 52.437 49.3807 52.3695 49.376 52.3018C49.3705 52.2347 49.3455 52.1707 49.3041 52.1177C49.2609 52.0651 49.2027 52.0269 49.1373 52.0084C48.9037 51.9356 48.6782 51.8392 48.4641 51.7207C47.6343 51.2466 46.8935 50.6313 46.2751 49.9027L46.206 49.825C46.0726 49.6609 45.9156 49.5174 45.74 49.3993C45.4179 49.1836 44.9116 48.9995 43.8731 48.7751L43.8099 48.7607C44.1767 48.5253 44.5105 48.2418 44.8023 47.9179C45.191 47.4875 45.478 46.9753 45.6422 46.4192C45.8245 45.7949 45.8023 45.1286 45.5789 44.5178C45.2859 43.6953 44.6816 43.0208 43.8962 42.6394C43.7126 42.5528 43.5195 42.4881 43.3208 42.4466C43.0958 42.3985 42.8663 42.3744 42.6362 42.3747C42.1097 42.369 41.5933 42.5192 41.1519 42.8062C41.069 42.8549 40.9893 42.9087 40.9131 42.9673C40.8364 43.0378 40.767 43.1159 40.706 43.2003C40.6507 43.2793 40.6044 43.3642 40.568 43.4534C40.4958 43.625 40.471 43.8127 40.496 43.9971C40.5102 44.1742 40.567 44.3452 40.6617 44.4955C40.7564 44.6458 40.8861 44.7709 41.0397 44.8601C41.2273 44.9632 41.4384 45.0157 41.6524 45.0125C41.7675 45.0152 41.8825 45.0036 41.9947 44.978C42.1109 44.9531 42.2246 44.9175 42.3342 44.8716C42.5499 44.7692 42.7305 44.6054 42.8533 44.4006C42.9761 44.1959 43.0357 43.9595 43.0246 43.721C43.0209 43.6678 42.9965 43.6182 42.9567 43.5827C42.917 43.5473 42.8649 43.5287 42.8117 43.5311C42.7741 43.5373 42.7391 43.5543 42.711 43.58C42.6836 43.5975 42.6612 43.6218 42.6461 43.6506C42.631 43.6793 42.6236 43.7115 42.6247 43.744C42.6298 43.8997 42.5899 44.0536 42.5098 44.1872C42.4297 44.3209 42.3128 44.4287 42.1731 44.4976C42.0267 44.566 41.8672 44.6014 41.7056 44.6014C41.5441 44.6014 41.3846 44.566 41.2382 44.4976C41.1379 44.4374 41.0539 44.3534 40.9938 44.2531C40.9336 44.1528 40.899 44.0392 40.893 43.9223C40.8825 43.7939 40.9032 43.6649 40.9532 43.5462C41.0033 43.4275 41.0814 43.3226 41.1807 43.2406C41.638 42.8148 42.4435 42.6653 43.2345 42.8148C43.9608 43.0092 44.5804 43.4834 44.9578 44.1336C45.3352 44.7838 45.4396 45.557 45.2481 46.284C44.8397 47.6935 43.5567 48.4328 43.2547 48.5852C43.1348 48.5436 43.0176 48.4947 42.9037 48.4385L42.8232 48.4069L42.6074 48.2947C42.5384 48.2544 42.4722 48.2142 42.4118 48.171C42.3514 48.1279 42.291 48.0905 42.2364 48.0473C42.1817 48.0042 42.1098 47.9466 42.0494 47.892C41.989 47.8373 41.9573 47.8172 41.9142 47.7769C41.8193 47.6878 41.7272 47.5986 41.6265 47.4893L41.4568 47.3253C41.29 47.1613 41.1145 46.9945 40.8988 46.819C40.5737 46.5652 40.2227 46.3463 39.8517 46.166C38.1995 45.3828 36.3985 44.963 34.5703 44.9349C32.2949 44.8889 30.7157 46.1373 29.5593 47.052C29.4011 47.1757 29.2717 47.2908 29.1192 47.3943C28.9668 47.4979 28.8546 47.5899 28.7338 47.682C28.5882 47.7733 28.4364 47.8541 28.2793 47.9236C27.9414 48.0688 27.5934 48.189 27.2379 48.2832L26.6943 48.4328C26.3347 48.5277 25.9866 48.6198 25.6702 48.7204C25.5184 48.7705 25.3695 48.8291 25.2243 48.8959C25.0908 48.9576 24.9628 49.0308 24.8418 49.1145C24.7608 49.1767 24.683 49.243 24.6088 49.313C24.3726 49.5203 24.1488 49.7412 23.9385 49.9746C23.4121 50.5499 22.8138 51.2116 21.7955 51.5596C21.3676 51.7148 20.9585 51.9174 20.5758 52.1637C20.478 52.1234 20.314 52.0573 20.1012 51.9911C19.8484 51.9095 19.591 51.8432 19.3302 51.7926C19.1067 51.7514 18.881 51.7226 18.6543 51.7063C17.8183 51.6278 16.9782 51.8064 16.2466 52.2184C15.6265 52.6015 15.0589 53.0637 14.558 53.5934C14.3567 53.789 14.1639 53.9788 13.9597 54.1687C13.7569 54.3482 13.5406 54.5117 13.3125 54.6577C13.1915 54.734 13.0666 54.8041 12.9385 54.8677C12.4779 55.0858 11.9857 55.2295 11.4801 55.2934C10.7318 55.3776 9.99128 55.5199 9.26513 55.7191C8.94758 55.8133 8.6481 55.9602 8.37915 56.1535C8.11517 56.3587 7.88427 56.6031 7.69453 56.8784C7.58234 57.0308 7.47303 57.2006 7.35222 57.3933C7.23583 57.5794 7.10806 57.758 6.96963 57.9283C6.35319 58.6476 5.67141 59.3082 4.93302 59.9017L4.52167 60.2325C4.28579 60.4166 4.13334 60.5201 4.12758 60.5345C4.0943 60.5595 4.06972 60.5944 4.05733 60.6341C4.04494 60.6739 4.04537 60.7165 4.05854 60.756ZM13.4333 65.0105C11.6872 65.1457 9.9814 63.6067 8.83077 62.5855C8.5201 62.2978 8.25546 62.0648 8.01958 61.8894C7.17674 61.2508 5.50258 60.7963 4.7144 60.6093C5.41628 60.0628 6.99264 58.7654 7.6974 57.6205C8.52586 56.2772 8.91995 56.0816 11.5405 55.7076C13.2521 55.4631 14.023 54.7095 14.8399 53.9098C15.3197 53.4039 15.862 52.9611 16.4537 52.5923C17.3175 52.1318 18.3183 51.998 19.2727 52.2155C19.5827 52.2749 19.8876 52.3586 20.1846 52.4657C19.9631 52.6211 19.7617 52.7793 19.5748 52.9317C19.3331 53.1302 19.1174 53.3172 18.9563 53.4668C18.8918 53.5247 18.8461 53.6005 18.8251 53.6846C18.8041 53.7687 18.8087 53.8571 18.8384 53.9385C18.868 54.0191 18.9205 54.0893 18.9895 54.1404C19.0585 54.1915 19.141 54.2214 19.2267 54.2262C20.1014 54.3029 20.9101 54.7228 21.4762 55.3941C21.5961 55.5603 21.7362 55.711 21.8933 55.8428C22.161 56.0805 22.4727 56.2633 22.8109 56.3807C21.8413 56.8275 20.949 57.4256 20.1673 58.1527C19.5819 58.722 19.0468 59.3409 18.568 60.0023C18.4817 59.9362 18.3954 59.8671 18.3119 59.7952C18.1221 59.6255 17.9092 59.4587 17.6877 59.2976C16.4335 58.38 14.7651 57.6695 13.2808 57.9916C13.2534 57.9985 13.2265 58.0072 13.2003 58.0175C13.0305 58.0519 12.864 58.101 12.7026 58.1642C12.3878 58.2969 12.1084 58.5016 11.8871 58.7619C11.6658 59.0222 11.5086 59.3308 11.4283 59.6629C11.367 59.9008 11.3342 60.1451 11.3305 60.3907C11.3271 60.7214 11.3717 61.0508 11.4628 61.3687C11.5176 61.6175 11.6149 61.8549 11.7505 62.0706C12.2481 62.7466 13.6692 63.2931 14.7623 62.6171C15.0229 62.4852 15.2371 62.277 15.3765 62.0204C15.516 61.7637 15.5739 61.4706 15.5427 61.1802C15.5114 60.8897 15.3925 60.6157 15.2017 60.3945C15.0109 60.1733 14.7573 60.0155 14.4746 59.9419H14.4487C14.1207 59.8888 13.7843 59.9479 13.494 60.1097C13.2037 60.2716 12.9766 60.5267 12.8493 60.8337C12.8276 60.8822 12.8256 60.9373 12.8439 60.9873C12.8622 61.0373 12.8992 61.0781 12.9471 61.1012C12.9733 61.1133 13.0018 61.1196 13.0306 61.1196C13.0594 61.1196 13.0878 61.1133 13.114 61.1012C13.1407 61.0906 13.1649 61.0747 13.1852 61.0544C13.2054 61.0342 13.2214 61.0099 13.2319 60.9833C13.3215 60.7592 13.4834 60.5715 13.6919 60.4501C13.9004 60.3286 14.1435 60.2804 14.3826 60.313C14.588 60.3684 14.7718 60.4852 14.9092 60.6477C15.0467 60.8102 15.1314 61.0107 15.152 61.2225C15.1726 61.4343 15.1282 61.6474 15.0247 61.8334C14.9211 62.0193 14.7634 62.1693 14.5724 62.2633C13.6174 62.853 12.4351 62.2777 12.0957 61.8203C11.7369 61.1933 11.6407 60.4498 11.8282 59.7521C11.8919 59.4783 12.0198 59.2236 12.2013 59.009C12.3829 58.7945 12.6129 58.6262 12.8724 58.518C14.5638 57.7874 16.7241 58.9035 18.0502 60.0829C19.2756 61.1616 20.9526 61.5039 21.761 61.6103C19.8135 63.1838 15.5332 64.8407 13.4333 65.0105ZM33.2816 62.1339C32.4162 61.7007 31.6524 61.0889 31.0408 60.3389C30.7333 59.9267 30.3453 59.5813 29.9002 59.3237C29.4552 59.066 28.9624 58.9015 28.4519 58.8402C26.0787 58.4087 26.0787 58.4087 25.0259 57.1488L24.7727 56.8611C24.4383 56.462 23.968 56.2007 23.4524 56.1276C22.6613 55.9838 22.1464 55.6932 21.7811 55.1841C21.4675 54.8035 21.081 54.4893 20.6443 54.2601C20.2077 54.0309 19.7296 53.8913 19.2382 53.8494C19.2286 53.8492 19.2193 53.8461 19.2116 53.8405C19.2038 53.8348 19.198 53.8268 19.1951 53.8177C19.1903 53.811 19.1878 53.8029 19.1878 53.7947C19.1878 53.7865 19.1903 53.7784 19.1951 53.7717C19.7416 53.2625 20.8261 52.3507 21.9105 51.9796C22.995 51.6085 23.6566 50.9009 24.2118 50.2853C24.4708 49.9858 24.761 49.7148 25.0776 49.477C25.4775 49.1893 26.1218 49.0254 26.8036 48.8441C27.5567 48.6878 28.282 48.4192 28.9553 48.0473C29.217 47.8805 29.4932 47.6619 29.8182 47.4059C30.9257 46.5429 32.4417 45.3261 34.5732 45.375C37.2944 45.4325 39.636 46.3473 40.66 47.1728C40.9026 47.3729 41.134 47.5861 41.3533 47.8114C41.8553 48.383 42.5053 48.805 43.2317 49.0311C43.4159 49.09 43.6031 49.1389 43.7926 49.1778C45.4035 49.5259 45.6163 49.7675 45.9069 50.1012L45.9788 50.1817C46.9597 51.2835 47.9492 52.0256 48.8554 52.3392C48.1368 52.6546 47.4943 53.1206 46.9712 53.7055L46.7785 53.95C46.1427 54.767 45.8235 55.1755 44.5146 55.3509C43.3825 55.4888 42.3226 55.98 41.4856 56.7547C40.9103 57.2265 40.0473 57.0136 40.0272 57.0136C39.9969 57.0065 39.9654 57.0065 39.9351 57.0136C39.7263 56.8331 39.4998 56.674 39.2591 56.539L39.1843 56.4929C37.7949 55.7364 35.79 56.2513 35.0334 56.9963C34.9661 57.0556 34.9045 57.1211 34.8493 57.1919C34.7688 57.3129 34.6957 57.4388 34.6307 57.5688H34.6135C34.6135 57.5688 33.2039 58.0146 32.4589 57.4048C32.2153 57.1839 32.0085 56.9256 31.8462 56.6396C31.4607 56.0384 31.0235 55.3567 29.7578 55.233C28.0836 55.0719 27.6522 54.9626 26.8812 54.1457C26.2657 53.5013 25.3336 53.369 24.8216 53.346C25.0027 53.0983 25.2317 52.8897 25.4951 52.7326C25.7586 52.5754 26.0509 52.4729 26.3548 52.4312C27.3014 52.2927 28.1865 51.8797 28.9006 51.2432L29.1106 51.0792C29.7147 50.6132 30.3648 50.5845 31.1242 50.5499C31.5096 50.5403 31.8939 50.5057 32.2748 50.4464C33.0601 50.3083 33.5952 49.8078 34.0238 49.4079C34.3459 49.1059 34.6221 48.8326 34.9155 48.7981L35.0823 48.7693C35.8245 48.6399 36.7479 48.4817 38.1114 49.6323L38.1833 49.6927C39.5727 50.8664 40.7722 51.8703 42.3629 51.853C42.3687 51.8512 42.3749 51.8517 42.3802 51.8544C42.3856 51.857 42.3897 51.8617 42.3917 51.8674C42.3938 51.8703 42.3949 51.8739 42.3949 51.8775C42.3949 51.8811 42.3938 51.8846 42.3917 51.8875C42.1073 52.2789 41.6953 52.5586 41.2267 52.6786C40.2026 52.9375 38.8161 53.5416 37.9906 54.4678C37.3289 55.2071 35.9367 55.3883 35.0277 55.1323C34.182 54.8936 33.3017 53.8954 33.4916 53.0669C33.5359 52.8434 33.628 52.632 33.7615 52.4473C33.8951 52.2626 34.067 52.109 34.2654 51.9969C34.5821 51.8222 34.9535 51.7749 35.3038 51.8645C35.347 51.8645 35.393 51.8818 35.439 51.8962C35.5679 51.9462 35.6861 52.0204 35.7871 52.1148C35.9023 52.2208 35.9946 52.3493 36.0584 52.4922C36.1222 52.6351 36.1561 52.7896 36.1582 52.9461C36.155 53.0352 36.1355 53.123 36.1006 53.205L36.0661 53.2683C36.0027 53.3779 35.8998 53.4592 35.7785 53.4955C35.6835 53.5348 35.5808 53.5521 35.4782 53.5462C35.3756 53.5402 35.2757 53.5111 35.1859 53.461C35.1053 53.4039 35.0424 53.3251 35.0047 53.2338C34.9809 53.1844 34.9635 53.1322 34.9529 53.0784C34.9529 53.0583 34.9529 53.0353 34.9529 53.0238C34.9447 52.9746 34.9185 52.9302 34.8794 52.8992C34.8403 52.8681 34.7911 52.8528 34.7413 52.856C34.6915 52.8592 34.6447 52.8808 34.6099 52.9166C34.5751 52.9524 34.5549 52.9998 34.5531 53.0497C34.5577 53.0874 34.5644 53.1249 34.5732 53.1619C34.6199 53.415 34.762 53.6405 34.9702 53.7918C35.1093 53.8774 35.2663 53.9297 35.4289 53.9447C35.5916 53.9596 35.7555 53.9369 35.9079 53.8781C36.1056 53.8197 36.2784 53.6974 36.3991 53.5303C36.5199 53.3632 36.5818 53.1608 36.5753 52.9548C36.5781 52.6428 36.485 52.3375 36.3085 52.0802C36.132 51.823 35.8807 51.6261 35.5886 51.5165C35.3437 51.4297 35.0831 51.3962 34.8242 51.418C34.5653 51.4398 34.314 51.5165 34.087 51.643C33.8392 51.783 33.6244 51.9746 33.4571 52.2049C33.2899 52.4352 33.1741 52.6988 33.1176 52.9778C32.8818 54.0335 33.9202 55.2301 34.9356 55.5149C35.9511 55.7997 37.5246 55.5983 38.3041 54.7325C39.0836 53.8666 40.3752 53.2942 41.3418 53.0669C41.9004 52.9234 42.3917 52.5898 42.7311 52.1234C42.7776 52.0602 42.8057 51.9854 42.8123 51.9072C42.8189 51.829 42.8037 51.7505 42.7685 51.6804C42.7308 51.609 42.674 51.5494 42.6044 51.5082C42.5349 51.4671 42.4552 51.4461 42.3744 51.4474C40.9362 51.4791 39.8431 50.5499 38.4623 49.3849L38.3875 49.3216C36.8831 48.0502 35.813 48.2401 35.0334 48.3781L34.8695 48.4069C34.4581 48.4759 34.1244 48.7866 33.7706 49.1174C33.3593 49.5 32.9077 49.9372 32.2259 50.0523C31.8661 50.1098 31.5028 50.1424 31.1386 50.1501C30.3533 50.1875 29.6111 50.222 28.9063 50.7628L28.6935 50.9296C28.0341 51.524 27.2132 51.9094 26.3347 52.0371C25.9072 52.0944 25.5002 52.2554 25.1492 52.5061C24.7982 52.7568 24.5139 53.0896 24.3211 53.4754C24.3025 53.5216 24.3025 53.5731 24.3211 53.6192C24.3211 53.6365 24.3211 53.6566 24.3211 53.671C24.3417 53.6998 24.3695 53.7226 24.4016 53.7372C24.4321 53.7515 24.4659 53.7575 24.4994 53.7544C24.962 53.7373 25.4236 53.8075 25.8601 53.9616C26.0836 54.0437 26.291 54.1644 26.4728 54.3182C26.5204 54.3525 26.5655 54.39 26.608 54.4304C27.4709 55.3366 27.9772 55.4689 29.7463 55.6386C30.8164 55.7421 31.1645 56.2858 31.5355 56.8611C31.7184 57.1852 31.9537 57.4768 32.2317 57.7241C32.6233 58.0139 33.1027 58.1601 33.5894 58.1383C33.8885 58.1358 34.1866 58.1011 34.4783 58.0348C34.3947 58.303 34.3799 58.5878 34.4351 58.8632C34.5068 59.1804 34.6819 59.4647 34.9328 59.6715C34.9644 59.6974 35.0047 59.7233 35.0421 59.7492C35.0964 59.7934 35.1531 59.8347 35.2118 59.8729C35.8734 60.2814 36.6328 60.3447 37.1448 60.034C37.3268 59.9196 37.473 59.7567 37.5671 59.5635C37.6611 59.3703 37.6992 59.1546 37.677 58.9409C37.6681 58.7539 37.6106 58.5724 37.5102 58.4145C37.427 58.2917 37.3174 58.189 37.1895 58.1139C37.0617 58.0387 36.9186 57.993 36.7709 57.9801C36.7249 57.9773 36.6794 57.9917 36.6433 58.0203C36.6072 58.049 36.583 58.09 36.5753 58.1355C36.5753 58.1355 36.5609 58.1556 36.558 58.1671C36.5556 58.2199 36.5737 58.2715 36.6086 58.3112C36.6435 58.3509 36.6924 58.3756 36.745 58.38C36.8305 58.3885 36.9132 58.4156 36.9872 58.4593C37.0612 58.5031 37.1248 58.5623 37.1736 58.6331C37.2378 58.7339 37.2735 58.8502 37.2772 58.9697C37.2975 59.1103 37.2759 59.2539 37.215 59.3823C37.1541 59.5108 37.0566 59.6184 36.9348 59.6917C36.5523 59.9247 35.9568 59.8614 35.4218 59.5306C35.276 59.4534 35.1479 59.3468 35.0454 59.2176C34.9429 59.0883 34.8683 58.9393 34.8263 58.7798C34.7141 58.262 35.0162 57.7068 35.2089 57.4221C35.4966 56.9819 36.5551 56.5303 37.6252 56.5303C38.1089 56.5199 38.5875 56.6306 39.0175 56.8525C39.2808 56.9902 39.5246 57.1624 39.7424 57.3645C40.3925 57.9887 40.6399 59.5507 39.9898 60.6294C39.1815 61.9009 36.3365 63.7304 33.2787 62.1339H33.2816Z" fill="#8BE7F5"/>
<path d="M44.4258 44.8543C44.6185 44.8543 44.7365 44.8227 44.6904 44.7767C44.6444 44.7306 44.5265 44.7652 44.4258 44.8543Z" fill="#006FE6"/>
<path d="M54.4163 34.9733H38.9317C38.5925 34.971 38.2563 35.0359 37.9423 35.1641C37.6283 35.2923 37.3427 35.4814 37.1021 35.7204C36.8615 35.9594 36.6705 36.2437 36.5402 36.5568C36.4099 36.87 36.3428 37.2058 36.3428 37.545V48.6946C36.3444 49.0065 36.4267 49.3127 36.5815 49.5834C37.1942 50.6506 38.5577 50.734 39.438 49.8711L40.7497 48.5795L54.3875 48.6514C54.7265 48.6541 55.0627 48.5896 55.3767 48.4617C55.6907 48.3338 55.9762 48.145 56.2169 47.9062C56.4576 47.6674 56.6486 47.3833 56.779 47.0703C56.9093 46.7574 56.9764 46.4217 56.9764 46.0826V37.5392C56.9749 36.8602 56.7049 36.2093 56.2252 35.7286C55.7456 35.2479 55.0953 34.9764 54.4163 34.9733Z" fill="#A36C29"/>
<path d="M67.312 47.8546H64.7231V37.5335H67.312C67.9634 37.4848 68.5724 37.1917 69.0167 36.7129C69.4611 36.2341 69.7081 35.605 69.7081 34.9517C69.7081 34.2985 69.4611 33.6694 69.0167 33.1906C68.5724 32.7118 67.9634 32.4187 67.312 32.37H64.7231V29.7811C64.7185 28.4133 64.173 27.1029 63.2055 26.1361C62.2381 25.1692 60.9274 24.6243 59.5596 24.6205H56.9707V22.0316C56.9177 21.3837 56.6228 20.7795 56.1448 20.339C55.6668 19.8985 55.0405 19.6539 54.3904 19.6539C53.7404 19.6539 53.1141 19.8985 52.6361 20.339C52.158 20.7795 51.8632 21.3837 51.8101 22.0316V24.6205H41.5149V22.0316C41.4619 21.3837 41.167 20.7795 40.689 20.339C40.2109 19.8985 39.5847 19.6539 38.9346 19.6539C38.2846 19.6539 37.6583 19.8985 37.1802 20.339C36.7022 20.7795 36.4074 21.3837 36.3543 22.0316V24.6205H33.7654C32.3968 24.6205 31.0841 25.1642 30.1163 26.132C29.1486 27.0998 28.6049 28.4124 28.6049 29.7811V32.37H26.0159C25.3645 32.4187 24.7556 32.7118 24.3112 33.1906C23.8668 33.6694 23.6199 34.2985 23.6199 34.9517C23.6199 35.605 23.8668 36.2341 24.3112 36.7129C24.7556 37.1917 25.3645 37.4848 26.0159 37.5335H28.6049V47.8546H26.0159C25.6594 47.8254 25.3006 47.8704 24.9623 47.9869C24.624 48.1033 24.3135 48.2886 24.0504 48.531C23.7873 48.7735 23.5773 49.0678 23.4336 49.3955C23.29 49.7232 23.2158 50.0771 23.2158 50.4349C23.2158 50.7927 23.29 51.1466 23.4336 51.4742C23.5773 51.8019 23.7873 52.0963 24.0504 52.3387C24.3135 52.5812 24.624 52.7665 24.9623 52.8829C25.3006 52.9993 25.6594 53.0444 26.0159 53.0152H28.6049V55.6041C28.6049 56.9727 29.1486 58.2854 30.1163 59.2531C31.0841 60.2209 32.3968 60.7646 33.7654 60.7646H36.3543V63.3536C36.3251 63.7101 36.3702 64.0689 36.4866 64.4072C36.603 64.7455 36.7883 65.056 37.0308 65.3191C37.2732 65.5822 37.5676 65.7922 37.8953 65.9359C38.2229 66.0795 38.5768 66.1537 38.9346 66.1537C39.2924 66.1537 39.6463 66.0795 39.974 65.9359C40.3017 65.7922 40.596 65.5822 40.8385 65.3191C41.0809 65.056 41.2662 64.7455 41.3826 64.4072C41.499 64.0689 41.5441 63.7101 41.5149 63.3536V60.7646H51.8389V63.3536C51.8919 64.0014 52.1868 64.6057 52.6648 65.0462C53.1429 65.4867 53.7691 65.7313 54.4192 65.7313C55.0693 65.7313 55.6955 65.4867 56.1736 65.0462C56.6516 64.6057 56.9464 64.0014 56.9995 63.3536V60.7646H59.5884C60.9562 60.7609 62.2669 60.216 63.2343 59.2491C64.2017 58.2822 64.7473 56.9718 64.7518 55.6041V53.0152H67.3407C67.9886 52.9621 68.5929 52.6673 69.0334 52.1893C69.4739 51.7112 69.7185 51.0849 69.7185 50.4349C69.7185 49.7848 69.4739 49.1586 69.0334 48.6805C68.5929 48.2025 67.9886 47.9076 67.3407 47.8546H67.312ZM54.3991 48.6457L40.7612 48.5737L39.4495 49.8653C38.5693 50.7283 37.2058 50.6506 36.5931 49.5777C36.4382 49.3069 36.356 49.0007 36.3543 48.6888V37.5392C36.3543 37.2 36.4214 36.8642 36.5517 36.5511C36.682 36.238 36.873 35.9537 37.1136 35.7147C37.3543 35.4756 37.6398 35.2866 37.9538 35.1583C38.2678 35.0301 38.6041 34.9653 38.9432 34.9676H54.4278C54.7665 34.9653 55.1023 35.0299 55.4159 35.1578C55.7295 35.2857 56.0148 35.4742 56.2554 35.7126C56.4959 35.951 56.687 36.2346 56.8177 36.5471C56.9483 36.8596 57.016 37.1948 57.0167 37.5335V46.0711C57.0175 46.4124 56.9504 46.7503 56.8191 47.0653C56.6878 47.3803 56.4951 47.666 56.2522 47.9057C56.0093 48.1453 55.7211 48.3342 55.4044 48.4613C55.0877 48.5883 54.7489 48.651 54.4077 48.6457H54.3991Z" fill="#FFA940"/>
</svg>
