<svg width="88" height="88" viewBox="0 0 88 88" fill="none" xmlns="http://www.w3.org/2000/svg">
<path d="M44.0002 73.11C43.019 73.1245 42.0377 73.0878 41.0602 73C40.9945 72.9938 40.9306 72.9746 40.8722 72.9435C40.8139 72.9124 40.7624 72.87 40.7205 72.8189C40.6787 72.7677 40.6474 72.7088 40.6285 72.6455C40.6095 72.5822 40.6033 72.5157 40.6102 72.45C40.6277 72.3192 40.6943 72.2 40.7964 72.1164C40.8985 72.0329 41.0286 71.9912 41.1602 72C42.1002 72.1 43.0902 72.12 44.0002 72.14H44.1002C44.2328 72.14 44.36 72.1927 44.4538 72.2865C44.5476 72.3802 44.6002 72.5074 44.6002 72.64C44.6002 72.7726 44.5476 72.8998 44.4538 72.9936C44.36 73.0873 44.2328 73.14 44.1002 73.14H44.0002V73.11ZM47.1002 73C46.9676 73.0133 46.8352 72.9733 46.732 72.8889C46.6289 72.8045 46.5635 72.6826 46.5502 72.55C46.537 72.4174 46.5769 72.285 46.6613 72.1818C46.7457 72.0787 46.8676 72.0133 47.0002 72C48.0094 71.8847 49.0111 71.7111 50.0002 71.48C50.0646 71.4669 50.1309 71.4665 50.1954 71.479C50.2599 71.4915 50.3212 71.5166 50.376 71.5528C50.4308 71.589 50.4779 71.6357 50.5147 71.6901C50.5514 71.7445 50.5771 71.8057 50.5902 71.87C50.6049 71.9338 50.6066 71.9998 50.5954 72.0642C50.5841 72.1286 50.5601 72.1902 50.5247 72.2452C50.4892 72.3001 50.4432 72.3475 50.3892 72.3844C50.3352 72.4213 50.2743 72.447 50.2102 72.46C49.2198 72.6772 48.2183 72.8408 47.2102 72.95L47.1002 73ZM38.1002 72.56H38.0002C37.0039 72.3562 36.0191 72.0992 35.0502 71.79C34.9259 71.7467 34.8231 71.6569 34.7635 71.5394C34.7038 71.422 34.6919 71.286 34.7302 71.16C34.7714 71.0341 34.8609 70.9297 34.979 70.8697C35.0972 70.8097 35.2343 70.799 35.3602 70.84C36.2963 71.1403 37.2476 71.3907 38.2102 71.59C38.3428 71.6033 38.4648 71.6687 38.5491 71.7718C38.6335 71.875 38.6735 72.0074 38.6602 72.14C38.647 72.2726 38.5816 72.3945 38.4784 72.4789C38.3753 72.5633 38.2428 72.6033 38.1102 72.59L38.1002 72.56ZM53.0002 71.69C52.8933 71.6907 52.789 71.657 52.7026 71.594C52.6162 71.531 52.5523 71.442 52.5202 71.34C52.4819 71.214 52.4938 71.0781 52.5535 70.9606C52.6131 70.8432 52.7159 70.7534 52.8402 70.71C53.775 70.4055 54.6929 70.0517 55.5902 69.65C55.6498 69.6218 55.7144 69.606 55.7803 69.6033C55.8461 69.6007 55.9118 69.6114 55.9734 69.6347C56.035 69.6581 56.0913 69.6936 56.1388 69.7392C56.1864 69.7848 56.2243 69.8395 56.2502 69.9C56.3017 70.021 56.3044 70.1573 56.2578 70.2803C56.2113 70.4032 56.119 70.5035 56.0002 70.56C55.073 70.975 54.1251 71.3421 53.1602 71.66L53.0002 71.69ZM32.5002 70.69C32.4309 70.7038 32.3596 70.7038 32.2902 70.69C31.3702 70.28 30.4502 69.82 29.5702 69.32C29.456 69.2513 29.3732 69.1407 29.3396 69.0117C29.306 68.8828 29.3241 68.7457 29.3902 68.63C29.446 68.5235 29.539 68.4413 29.6514 68.3989C29.7639 68.3564 29.8881 68.3569 30.0002 68.4C30.8531 68.889 31.731 69.3329 32.6302 69.73C32.6908 69.756 32.7455 69.7939 32.7911 69.8414C32.8367 69.889 32.8722 69.9453 32.8955 70.0069C32.9189 70.0685 32.9296 70.1342 32.9269 70.2C32.9243 70.2658 32.9084 70.3305 32.8802 70.39C32.8434 70.4749 32.7836 70.5479 32.7077 70.6009C32.6318 70.6539 32.5427 70.6847 32.4502 70.69H32.5002ZM58.5002 69.23C58.3911 69.2289 58.2854 69.1921 58.1991 69.1253C58.1128 69.0585 58.0508 68.9652 58.0225 68.8598C57.9942 68.7545 58.0011 68.6427 58.0422 68.5416C58.0833 68.4405 58.1564 68.3557 58.2502 68.3C59.0902 67.8 59.9202 67.3 60.7102 66.68C60.7619 66.6324 60.823 66.5962 60.8896 66.5738C60.9562 66.5514 61.0268 66.5432 61.0967 66.5499C61.1667 66.5566 61.2344 66.578 61.2955 66.6126C61.3567 66.6472 61.4098 66.6943 61.4515 66.7509C61.4932 66.8074 61.5226 66.8721 61.5376 66.9408C61.5526 67.0094 61.553 67.0804 61.5387 67.1492C61.5244 67.218 61.4958 67.283 61.4547 67.34C61.4136 67.397 61.361 67.4447 61.3002 67.48C60.4822 68.087 59.6308 68.6479 58.7502 69.16C58.65 69.2259 58.5284 69.2509 58.4102 69.23H58.5002ZM27.2502 67.71C27.1458 67.706 27.0449 67.6712 26.9602 67.61C26.1375 67.0151 25.3464 66.3776 24.5902 65.7C24.5434 65.6535 24.5062 65.5982 24.4808 65.5373C24.4554 65.4764 24.4423 65.411 24.4423 65.345C24.4423 65.279 24.4554 65.2137 24.4808 65.1527C24.5062 65.0918 24.5434 65.0365 24.5902 64.99C24.6837 64.8984 24.8094 64.8471 24.9402 64.8471C25.0711 64.8471 25.1968 64.8984 25.2902 64.99C26.0231 65.6476 26.7908 66.2652 27.5902 66.84C27.6957 66.9197 27.7661 67.0372 27.7867 67.1678C27.8072 67.2984 27.7762 67.4318 27.7002 67.54C27.6445 67.6025 27.5744 67.6506 27.4961 67.6802C27.4177 67.7098 27.3334 67.72 27.2502 67.71ZM63.2502 65.71C63.1807 65.7111 63.1118 65.6974 63.048 65.6698C62.9842 65.6422 62.927 65.6014 62.8802 65.55C62.8334 65.5035 62.7962 65.4482 62.7708 65.3873C62.7454 65.3264 62.7323 65.261 62.7323 65.195C62.7323 65.129 62.7454 65.0637 62.7708 65.0027C62.7962 64.9418 62.8334 64.8865 62.8802 64.84C63.6253 64.1729 64.3331 63.4651 65.0002 62.72C65.0954 62.6278 65.2227 62.5762 65.3552 62.5762C65.4878 62.5762 65.6151 62.6278 65.7102 62.72C65.7571 62.7665 65.7943 62.8218 65.8197 62.8827C65.8451 62.9437 65.8581 63.009 65.8581 63.075C65.8581 63.141 65.8451 63.2064 65.8197 63.2673C65.7943 63.3282 65.7571 63.3835 65.7102 63.43C65.0316 64.1869 64.314 64.9079 63.5602 65.59C63.4685 65.6589 63.3544 65.691 63.2402 65.68L63.2502 65.71ZM22.8002 63.71C22.7308 63.7105 22.6621 63.6965 22.5984 63.669C22.5347 63.6414 22.4774 63.6009 22.4302 63.55C21.7462 62.7941 21.1019 62.003 20.5002 61.18C20.4615 61.1268 20.4336 61.0665 20.4182 61.0026C20.4027 60.9386 20.4 60.8722 20.4103 60.8072C20.4205 60.7422 20.4434 60.6799 20.4777 60.6237C20.512 60.5676 20.5571 60.5188 20.6102 60.48C20.6634 60.4413 20.7237 60.4134 20.7877 60.398C20.8516 60.3825 20.918 60.3798 20.983 60.39C21.048 60.4003 21.1104 60.4232 21.1665 60.4575C21.2227 60.4918 21.2715 60.5368 21.3102 60.59C21.8902 61.38 22.5202 62.15 23.1702 62.88C23.2168 62.9256 23.2538 62.9801 23.279 63.0402C23.3043 63.1003 23.3173 63.1648 23.3173 63.23C23.3173 63.2952 23.3043 63.3597 23.279 63.4198C23.2538 63.4799 23.2168 63.5344 23.1702 63.58C23.1193 63.6268 23.0593 63.6625 22.9939 63.6849C22.9285 63.7072 22.8591 63.7158 22.7902 63.71H22.8002ZM67.2402 61.22C67.1317 61.2223 67.0257 61.187 66.9402 61.12C66.8354 61.0421 66.7653 60.9264 66.7447 60.7974C66.7242 60.6685 66.7549 60.5366 66.8302 60.43C67.4002 59.63 67.9402 58.8 68.4302 57.95C68.4591 57.8863 68.5009 57.8293 68.5532 57.7827C68.6054 57.7362 68.6668 57.7011 68.7334 57.6798C68.8 57.6584 68.8704 57.6513 68.94 57.6589C69.0095 57.6664 69.0767 57.6885 69.1372 57.7237C69.1977 57.7589 69.2501 57.8063 69.2911 57.863C69.3321 57.9197 69.3607 57.9844 69.3751 58.0528C69.3896 58.1213 69.3895 58.192 69.3748 58.2604C69.3602 58.3289 69.3314 58.3934 69.2902 58.45C68.7825 59.3289 68.2284 60.1801 67.6302 61C67.5864 61.0664 67.5271 61.1211 67.4574 61.1595C67.3877 61.1978 67.3098 61.2186 67.2302 61.22H67.2402ZM19.2402 58.88C19.1515 58.8802 19.0642 58.8573 18.987 58.8134C18.9099 58.7696 18.8455 58.7064 18.8002 58.63C18.2895 57.7518 17.8255 56.8472 17.4102 55.92C17.3561 55.7993 17.3521 55.6621 17.3989 55.5384C17.4458 55.4147 17.5397 55.3146 17.6602 55.26C17.7198 55.2318 17.7844 55.216 17.8503 55.2133C17.9161 55.2107 17.9818 55.2214 18.0434 55.2447C18.105 55.2681 18.1613 55.3036 18.2088 55.3492C18.2564 55.3947 18.2943 55.4495 18.3202 55.51C18.7222 56.4073 19.1729 57.2819 19.6702 58.13C19.7041 58.1862 19.7263 58.2487 19.7355 58.3136C19.7448 58.3785 19.7409 58.4447 19.7241 58.5081C19.7073 58.5715 19.678 58.6309 19.6378 58.6828C19.5976 58.7346 19.5474 58.7779 19.4902 58.81C19.4209 58.8529 19.3417 58.877 19.2602 58.88H19.2402ZM70.2002 56C70.1344 56.015 70.0661 56.015 70.0002 56C69.8797 55.9453 69.7852 55.8458 69.7367 55.7226C69.6882 55.5995 69.6894 55.4623 69.7402 55.34C70.1261 54.4433 70.46 53.5251 70.7402 52.59C70.7816 52.4638 70.8706 52.3587 70.9882 52.2971C71.1059 52.2355 71.2429 52.2222 71.3702 52.26C71.4965 52.3014 71.6015 52.3904 71.6632 52.508C71.7248 52.6257 71.7381 52.7627 71.7002 52.89C71.3892 53.8578 71.0287 54.8091 70.6202 55.74C70.578 55.8154 70.5173 55.8788 70.4438 55.9243C70.3704 55.9697 70.2865 55.9958 70.2002 56ZM16.8002 53.4C16.695 53.3986 16.593 53.3639 16.5086 53.3011C16.4242 53.2383 16.3618 53.1504 16.3302 53.05C16.0088 52.0858 15.7417 51.1042 15.5302 50.11C15.5164 50.0444 15.5157 49.9766 15.5281 49.9107C15.5405 49.8447 15.5658 49.7819 15.6024 49.7257C15.6391 49.6695 15.6865 49.6211 15.7419 49.5833C15.7973 49.5454 15.8596 49.5188 15.9252 49.505C15.9909 49.4912 16.0586 49.4905 16.1246 49.5029C16.1905 49.5153 16.2534 49.5405 16.3095 49.5772C16.3657 49.6139 16.4141 49.6613 16.452 49.7167C16.4899 49.7721 16.5165 49.8344 16.5302 49.9C16.7329 50.8605 16.99 51.8087 17.3002 52.74C17.3412 52.866 17.3306 53.0031 17.2706 53.1212C17.2106 53.2394 17.1062 53.3288 16.9802 53.37C16.9244 53.3991 16.8631 53.4161 16.8002 53.42V53.4ZM72.0002 50.32H71.9002C71.7716 50.2912 71.6591 50.2136 71.5864 50.1036C71.5136 49.9936 71.4864 49.8597 71.5102 49.73C71.7235 48.7657 71.887 47.7911 72.0002 46.81C72.0038 46.7442 72.021 46.6798 72.0506 46.6208C72.0802 46.5619 72.1216 46.5096 72.1722 46.4674C72.2229 46.4252 72.2817 46.3939 72.3451 46.3754C72.4084 46.3569 72.4748 46.3517 72.5402 46.36C72.606 46.3663 72.6699 46.3855 72.7282 46.4166C72.7865 46.4477 72.8381 46.49 72.88 46.5412C72.9218 46.5923 72.9531 46.6512 72.972 46.7146C72.9909 46.7779 72.9971 46.8443 72.9902 46.91C72.8912 47.9176 72.7376 48.9191 72.5302 49.91C72.5083 50.0318 72.442 50.1412 72.3441 50.2169C72.2462 50.2927 72.1237 50.3294 72.0002 50.32ZM15.5502 47.56C15.4259 47.5606 15.3057 47.5149 15.2133 47.4317C15.1208 47.3485 15.0627 47.2338 15.0502 47.11C14.943 46.1136 14.8896 45.1122 14.8902 44.11C14.8889 44.0448 14.9006 43.98 14.9246 43.9194C14.9487 43.8588 14.9845 43.8036 15.0302 43.7571C15.0758 43.7105 15.1303 43.6735 15.1904 43.6483C15.2505 43.623 15.315 43.61 15.3802 43.61C15.512 43.6126 15.6377 43.6661 15.731 43.7593C15.8242 43.8525 15.8777 43.9782 15.8802 44.11C15.8718 45.0748 15.9119 46.0393 16.0002 47C16.0143 47.1312 15.9759 47.2626 15.8935 47.3656C15.8111 47.4687 15.6913 47.5349 15.5602 47.55L15.5502 47.56ZM72.6102 44.5C72.4776 44.5 72.3505 44.4473 72.2567 44.3536C72.1629 44.2598 72.1102 44.1326 72.1102 44C72.1237 43.0188 72.087 42.0375 72.0002 41.06C71.9937 40.9944 72.0001 40.928 72.0192 40.8649C72.0382 40.8017 72.0695 40.7429 72.1113 40.6918C72.1531 40.6408 72.2046 40.5984 72.2627 40.5672C72.3209 40.536 72.3846 40.5166 72.4502 40.51C72.5159 40.5035 72.5822 40.5099 72.6454 40.5289C72.7086 40.548 72.7674 40.5793 72.8184 40.6211C72.9216 40.7055 72.987 40.8274 73.0002 40.96C73.1002 41.96 73.1502 42.96 73.1502 43.96C73.1563 44.0325 73.1465 44.1054 73.1215 44.1736C73.0965 44.2419 73.0569 44.3039 73.0055 44.3553C72.9541 44.4067 72.8921 44.4463 72.8239 44.4713C72.7556 44.4963 72.6827 44.5061 72.6102 44.5ZM15.5302 41.57C15.4558 41.5753 15.3811 41.5638 15.3117 41.5364C15.2422 41.509 15.1798 41.4664 15.129 41.4117C15.0781 41.3571 15.0402 41.2917 15.0179 41.2205C14.9956 41.1492 14.9896 41.0739 15.0002 41C15.1035 39.993 15.257 38.9917 15.4602 38C15.4734 37.9357 15.499 37.8745 15.5358 37.8201C15.5725 37.7657 15.6197 37.719 15.6744 37.6828C15.7292 37.6466 15.7906 37.6215 15.8551 37.609C15.9196 37.5965 15.9859 37.5969 16.0502 37.61C16.1156 37.6231 16.1777 37.6491 16.2329 37.6865C16.2881 37.7239 16.3353 37.772 16.3716 37.8279C16.408 37.8838 16.4328 37.9464 16.4445 38.012C16.4563 38.0776 16.4549 38.145 16.4402 38.21C16.2423 39.1749 16.0954 40.1496 16.0002 41.13C15.9882 41.2478 15.934 41.3572 15.8476 41.438C15.7612 41.5189 15.6485 41.5658 15.5302 41.57ZM71.9902 38.57C71.8767 38.5678 71.7673 38.5269 71.6801 38.4542C71.5928 38.3815 71.5329 38.2813 71.5102 38.17C71.3002 37.17 71.0402 36.25 70.7402 35.32C70.7024 35.1927 70.7157 35.0557 70.7773 34.938C70.8389 34.8204 70.944 34.7314 71.0702 34.69C71.1319 34.6699 71.197 34.6622 71.2617 34.6674C71.3265 34.6726 71.3895 34.6906 71.4472 34.7204C71.5048 34.7501 71.556 34.7911 71.5978 34.8408C71.6395 34.8905 71.6709 34.948 71.6902 35.01C72.0097 35.9775 72.2735 36.9624 72.4802 37.96C72.4949 38.0238 72.4966 38.0898 72.4854 38.1542C72.4741 38.2186 72.4501 38.2802 72.4147 38.3351C72.3792 38.3901 72.3332 38.4375 72.2792 38.4744C72.2252 38.5113 72.1643 38.537 72.1002 38.55L71.9902 38.57ZM16.7602 35.71C16.7107 35.7197 16.6598 35.7197 16.6102 35.71C16.547 35.6907 16.4882 35.6589 16.4373 35.6167C16.3864 35.5744 16.3444 35.5225 16.3137 35.4639C16.283 35.4053 16.2642 35.3412 16.2585 35.2753C16.2528 35.2094 16.2601 35.143 16.2802 35.08C16.5947 34.112 16.9585 33.1608 17.3702 32.23C17.4281 32.1204 17.5246 32.0362 17.641 31.9937C17.7574 31.9512 17.8854 31.9535 18.0002 32C18.0608 32.026 18.1155 32.0638 18.1611 32.1114C18.2067 32.159 18.2422 32.2153 18.2655 32.2769C18.2889 32.3385 18.2996 32.4042 18.2969 32.47C18.2943 32.5358 18.2784 32.6005 18.2502 32.66C17.8545 33.5586 17.5041 34.4764 17.2002 35.41C17.1647 35.4979 17.104 35.5732 17.0257 35.6266C16.9474 35.68 16.855 35.709 16.7602 35.71ZM70.1402 32.85C70.0441 32.8497 69.9501 32.8211 69.8701 32.7677C69.7901 32.7144 69.7275 32.6387 69.6902 32.55C69.2876 31.6548 68.8404 30.7804 68.3502 29.93C68.2993 29.8172 68.2919 29.6895 68.3297 29.5716C68.3674 29.4538 68.4476 29.3541 68.5546 29.2919C68.6616 29.2296 68.7878 29.2093 68.909 29.2348C69.0301 29.2604 69.1374 29.3299 69.2102 29.43C69.723 30.3106 70.187 31.2186 70.6002 32.15C70.6517 32.271 70.6544 32.4073 70.6078 32.5302C70.5613 32.6532 70.469 32.7535 70.3502 32.81C70.2838 32.8378 70.2123 32.8514 70.1402 32.85ZM19.1902 30.24C19.1033 30.2404 19.0175 30.2199 18.9402 30.18C18.8243 30.113 18.7394 30.003 18.7039 29.8739C18.6683 29.7448 18.685 29.6069 18.7502 29.49C19.2602 28.61 19.8202 27.75 20.4102 26.93C20.4885 26.8226 20.6062 26.7507 20.7375 26.73C20.8687 26.7094 21.0028 26.7418 21.1102 26.82C21.2177 26.8983 21.2896 27.016 21.3102 27.1472C21.3308 27.2785 21.2985 27.4126 21.2202 27.52C20.6452 28.319 20.1111 29.1467 19.6202 30C19.5754 30.0737 19.5122 30.1346 19.4368 30.1766C19.3615 30.2187 19.2765 30.2405 19.1902 30.24ZM67.1902 27.67C67.1116 27.6697 67.0342 27.6504 66.9646 27.6139C66.895 27.5773 66.8352 27.5246 66.7902 27.46C66.2094 26.6657 65.5886 25.9014 64.9302 25.17C64.8504 25.0706 64.8116 24.9445 64.8217 24.8174C64.8317 24.6903 64.89 24.5719 64.9845 24.4863C65.079 24.4007 65.2026 24.3545 65.3301 24.357C65.4576 24.3596 65.5792 24.4107 65.6702 24.5C66.3502 25.26 67.0002 26.05 67.6002 26.87C67.6762 26.9782 67.7072 27.1117 67.6867 27.2422C67.6661 27.3728 67.5957 27.4903 67.4902 27.57C67.3907 27.6471 67.2654 27.6829 67.1402 27.67H67.1902ZM22.7002 25.39C22.5746 25.3909 22.4532 25.3445 22.3602 25.26C22.3137 25.2144 22.2767 25.1599 22.2514 25.0998C22.2262 25.0397 22.2132 24.9752 22.2132 24.91C22.2132 24.8448 22.2262 24.7803 22.2514 24.7202C22.2767 24.6601 22.3137 24.6056 22.3602 24.56C23.0388 23.8031 23.7565 23.0821 24.5102 22.4C24.6054 22.3078 24.7327 22.2562 24.8652 22.2562C24.9978 22.2562 25.1251 22.3078 25.2202 22.4C25.2671 22.4465 25.3043 22.5018 25.3297 22.5627C25.3551 22.6237 25.3681 22.689 25.3681 22.755C25.3681 22.821 25.3551 22.8864 25.3297 22.9473C25.3043 23.0082 25.2671 23.0635 25.2202 23.11C24.5002 23.77 23.8002 24.47 23.1402 25.2C23.0893 25.2667 23.0221 25.3192 22.9451 25.3525C22.868 25.3858 22.7837 25.3987 22.7002 25.39ZM63.1302 23.22C63.0694 23.2213 63.0089 23.2104 62.9522 23.1881C62.8956 23.1658 62.8439 23.1325 62.8002 23.09C62.0688 22.4349 61.3045 21.8174 60.5102 21.24C60.4569 21.2014 60.4118 21.1526 60.3774 21.0964C60.343 21.0403 60.3201 20.9779 60.3098 20.9129C60.2996 20.8478 60.3023 20.7814 60.3179 20.7174C60.3334 20.6534 60.3614 20.5932 60.4002 20.54C60.4799 20.4345 60.5974 20.3641 60.728 20.3436C60.8586 20.3231 60.9921 20.3541 61.1002 20.43C61.9102 21.02 62.7102 21.67 63.4702 22.35C63.5171 22.3965 63.5543 22.4518 63.5797 22.5127C63.6051 22.5737 63.6181 22.639 63.6181 22.705C63.6181 22.771 63.6051 22.8364 63.5797 22.8973C63.5543 22.9582 63.5171 23.0135 63.4702 23.06C63.4269 23.1077 63.3745 23.1465 63.3162 23.1739C63.2578 23.2014 63.1947 23.217 63.1302 23.22ZM27.1302 21.38C27.0514 21.3805 26.9737 21.3616 26.904 21.325C26.8342 21.2884 26.7746 21.2352 26.7302 21.17C26.69 21.1174 26.6609 21.0572 26.6446 20.993C26.6284 20.9288 26.6253 20.8619 26.6356 20.7965C26.6458 20.7311 26.6693 20.6684 26.7045 20.6123C26.7396 20.5562 26.7858 20.5078 26.8402 20.47C27.6562 19.8661 28.5077 19.3117 29.3902 18.81C29.503 18.759 29.6307 18.7517 29.7486 18.7895C29.8665 18.8272 29.9662 18.9073 30.0284 19.0143C30.0906 19.1213 30.1109 19.2476 30.0854 19.3688C30.0599 19.4899 29.9903 19.5972 29.8902 19.67C29.0427 20.1634 28.2216 20.7008 27.4302 21.28C27.3468 21.3435 27.2451 21.3786 27.1402 21.38H27.1302ZM58.2902 19.7C58.2033 19.7004 58.1175 19.6799 58.0402 19.64C57.1909 19.1479 56.3164 18.7006 55.4202 18.3C55.3532 18.2789 55.2914 18.244 55.2388 18.1974C55.1862 18.1508 55.144 18.0936 55.115 18.0296C55.0859 17.9657 55.0707 17.8963 55.0703 17.826C55.0699 17.7558 55.0843 17.6862 55.1126 17.6219C55.1409 17.5575 55.1824 17.4999 55.2344 17.4527C55.2865 17.4055 55.3479 17.3698 55.4146 17.3479C55.4814 17.326 55.552 17.3185 55.6219 17.3257C55.6918 17.333 55.7594 17.3549 55.8202 17.39C56.7525 17.7978 57.6606 18.2585 58.5402 18.77C58.6341 18.8257 58.7072 18.9105 58.7483 19.0116C58.7894 19.1127 58.7963 19.2245 58.768 19.3298C58.7397 19.4352 58.6776 19.5285 58.5914 19.5953C58.5051 19.6621 58.3994 19.6989 58.2902 19.7ZM32.2902 18.37C32.1576 18.3979 32.0194 18.3719 31.9059 18.2978C31.7925 18.2237 31.7131 18.1076 31.6852 17.975C31.6574 17.8424 31.6834 17.7042 31.7574 17.5907C31.8315 17.4773 31.9476 17.3979 32.0802 17.37C33.0347 16.9696 34.0093 16.6191 35.0002 16.32C35.0626 16.2983 35.1286 16.2894 35.1944 16.2938C35.2603 16.2983 35.3246 16.316 35.3834 16.3459C35.4422 16.3757 35.4944 16.4172 35.5368 16.4677C35.5792 16.5183 35.611 16.5769 35.6302 16.64C35.6713 16.766 35.6606 16.9031 35.6006 17.0212C35.5406 17.1394 35.4362 17.2288 35.3102 17.27C34.3749 17.5729 33.4569 17.9267 32.5602 18.33C32.4854 18.3651 32.4024 18.379 32.3202 18.37H32.2902ZM52.7902 17.27H52.6302C51.6981 16.9653 50.75 16.7116 49.7902 16.51C49.7246 16.4962 49.6623 16.4696 49.6069 16.4318C49.5515 16.3939 49.5041 16.3455 49.4674 16.2893C49.3934 16.1759 49.3674 16.0376 49.3952 15.905C49.4231 15.7724 49.5025 15.6563 49.6159 15.5822C49.7294 15.5081 49.8676 15.4822 50.0002 15.51C50.993 15.7194 51.9743 15.9798 52.9402 16.29C53.0034 16.3092 53.062 16.341 53.1125 16.3834C53.1631 16.4258 53.2045 16.478 53.2344 16.5369C53.2643 16.5957 53.282 16.66 53.2864 16.7258C53.2909 16.7917 53.282 16.8577 53.2602 16.92C53.233 17.0172 53.1758 17.1033 53.0968 17.1662C53.0179 17.229 52.9211 17.2654 52.8202 17.27H52.7902ZM38.0002 16.51C37.8864 16.5105 37.7757 16.4722 37.6866 16.4012C37.5975 16.3303 37.5353 16.2311 37.5102 16.12C37.4835 15.9888 37.5094 15.8524 37.5823 15.7401C37.6553 15.6279 37.7695 15.5488 37.9002 15.52C38.8909 15.3086 39.8924 15.1517 40.9002 15.05C40.9654 15.0417 41.0316 15.0465 41.0949 15.0643C41.1581 15.0821 41.2172 15.1124 41.2685 15.1534C41.3198 15.1945 41.3624 15.2454 41.3936 15.3033C41.4248 15.3611 41.4441 15.4246 41.4502 15.49C41.4534 15.6161 41.4088 15.7387 41.3253 15.8333C41.2419 15.9279 41.1257 15.9874 41.0002 16C40.0196 16.1029 39.045 16.2565 38.0802 16.46L38.0002 16.51ZM47.0002 16H46.9502C45.9695 15.9119 44.9848 15.8752 44.0002 15.89C43.8657 15.8901 43.7364 15.8381 43.6394 15.7449C43.5425 15.6516 43.4854 15.5244 43.4802 15.39C43.4789 15.3248 43.4906 15.26 43.5146 15.1994C43.5387 15.1388 43.5745 15.0836 43.6202 15.0371C43.6658 14.9905 43.7203 14.9535 43.7804 14.9283C43.8405 14.903 43.905 14.89 43.9702 14.89C44.9814 14.8759 45.9927 14.9126 47.0002 15C47.066 15.0063 47.1299 15.0255 47.1882 15.0566C47.2465 15.0877 47.2981 15.13 47.34 15.1812C47.3818 15.2323 47.4131 15.2912 47.432 15.3546C47.451 15.4179 47.4571 15.4843 47.4502 15.55C47.4357 15.6643 47.3836 15.7705 47.3021 15.8519C47.2207 15.9333 47.1145 15.9854 47.0002 16Z" fill="#B9D7F8"/>
<path d="M39.16 30.21H13.23V45.08H39.16V30.21Z" fill="white"/>
<path d="M15.1999 18.13C15.1979 18.183 15.2121 18.2354 15.2407 18.2801C15.2693 18.3247 15.3109 18.3596 15.3599 18.38C15.9218 18.604 16.4297 18.9449 16.8499 19.38L16.9999 19.57C17.2055 19.9236 17.4961 20.2203 17.8453 20.4333C18.1946 20.6464 18.5914 20.7689 18.9999 20.79C19.8258 20.8845 20.6018 21.2341 21.2199 21.79C21.5389 22.0347 21.9405 22.1458 22.3399 22.1C22.1158 22.5056 21.9982 22.9615 21.9982 23.425C21.9982 23.8884 22.1158 24.3443 22.3399 24.75C22.7406 25.3221 23.2735 25.789 23.8933 26.111C24.5131 26.4331 25.2014 26.6008 25.8999 26.6C26.6333 26.593 27.3541 26.4077 27.9999 26.06C28.7133 25.7014 29.3435 25.1972 29.8499 24.58C30.0663 24.2836 30.3413 24.0348 30.6578 23.849C30.9743 23.6632 31.3256 23.5444 31.6899 23.5C33.6299 23.15 33.6899 23.13 34.5699 22.07L34.7799 21.82C34.9884 21.5843 35.2702 21.4258 35.5799 21.37C36.4438 21.7309 37.2388 22.2384 37.9299 22.87C38.3792 23.3013 38.7876 23.7733 39.1499 24.28C38.3453 24.7442 37.4463 25.0211 36.5199 25.09C36.4898 25.0927 36.4609 25.1034 36.4363 25.121C36.4117 25.1385 36.3922 25.1624 36.3799 25.19C36.3627 25.215 36.3535 25.2446 36.3535 25.275C36.3535 25.3053 36.3627 25.335 36.3799 25.36C38.4222 26.9355 40.8305 27.9677 43.3799 28.36H43.5799C45.0099 28.36 46.3399 27.17 47.2299 26.36C47.4699 26.15 47.6799 25.96 47.8499 25.83C48.7234 25.3483 49.6689 25.0107 50.6499 24.83C50.6787 24.8226 50.7049 24.8073 50.7255 24.7858C50.7461 24.7644 50.7603 24.7376 50.7665 24.7085C50.7728 24.6795 50.7708 24.6492 50.7607 24.6212C50.7507 24.5932 50.7331 24.5685 50.7099 24.55C49.7541 23.8504 48.9022 23.0188 48.1799 22.08C47.4299 20.88 47.0099 20.73 44.9399 20.43C43.9956 20.3039 43.1325 19.8296 42.5199 19.1C42.1187 18.6909 41.6726 18.3286 41.1899 18.02C40.4482 17.6255 39.5901 17.5085 38.7699 17.69C38.4279 17.7537 38.0929 17.8509 37.7699 17.98C37.456 17.7849 37.1204 17.6271 36.7699 17.51C36.1072 17.2529 35.5265 16.8209 35.0899 16.26C34.8736 16.016 34.636 15.7918 34.3799 15.59C33.9484 15.3554 33.4827 15.1901 32.9999 15.1C32.4392 14.9874 31.8994 14.7883 31.3999 14.51C31.2099 14.39 30.9999 14.22 30.7499 14.03C29.6849 13.0116 28.2825 12.4207 26.8099 12.37C25.0327 12.3518 23.2909 12.8674 21.8099 13.85C21.6089 14.0109 21.4185 14.1846 21.2399 14.37C20.9591 14.6833 20.6193 14.9382 20.2399 15.12C19.5861 14.5055 19.1507 13.6945 18.9999 12.81C18.9422 12.4693 18.9957 12.1192 19.1524 11.8112C19.309 11.5033 19.5606 11.2539 19.8699 11.1C20.1312 10.9687 20.4308 10.9348 20.7149 11.0045C20.999 11.0741 21.2489 11.2427 21.4199 11.48C21.6099 11.89 20.8799 11.82 20.8899 11.48C20.8999 11.14 20.5699 11.07 20.4099 11.26C20.3842 11.2499 20.3556 11.2499 20.3299 11.26C20.3089 11.2586 20.2878 11.2614 20.2679 11.2682C20.2479 11.2751 20.2295 11.2857 20.2137 11.2997C20.1979 11.3136 20.1851 11.3305 20.1758 11.3495C20.1666 11.3684 20.1612 11.389 20.1599 11.41C20.1586 11.5963 20.2094 11.7794 20.3066 11.9384C20.4038 12.0974 20.5435 12.2261 20.7099 12.31C20.8658 12.3853 21.0367 12.4244 21.2099 12.4244C21.383 12.4244 21.554 12.3853 21.7099 12.31C21.831 12.2396 21.9334 12.1411 22.0082 12.0227C22.0831 11.9043 22.1283 11.7696 22.1399 11.63C22.1555 11.4783 22.1336 11.325 22.0761 11.1838C22.0185 11.0425 21.9271 10.9176 21.8099 10.82C21.5583 10.6198 21.2656 10.4776 20.9528 10.4032C20.64 10.3289 20.3147 10.3244 19.9999 10.39C19.678 10.4689 19.3751 10.6112 19.1089 10.8087C18.8428 11.0062 18.6187 11.2548 18.4499 11.54C18.2654 11.8351 18.146 12.166 18.0994 12.5109C18.0528 12.8557 18.0803 13.2066 18.1799 13.54C18.4227 14.3067 18.934 14.96 19.6199 15.38C18.3099 15.66 18.0799 15.87 17.7799 16.21L17.7299 16.27C17.1395 17.0074 16.3627 17.5736 15.4799 17.91C15.4158 17.9119 15.3541 17.9344 15.3037 17.9739C15.2533 18.0135 15.217 18.0682 15.1999 18.13Z" fill="#E7FAFD"/>
<path d="M36.61 20.84C37.0949 21.0091 37.5555 21.2411 37.98 21.53C38.7859 22.162 39.5143 22.8871 40.15 23.69L39.42 24.23C39.42 24.23 38.5 23.23 38.24 22.93C37.7554 22.5444 37.2327 22.2094 36.68 21.93C36.28 21.71 35.8 21.47 35.75 21.28L36.61 20.84Z" fill="#B9F1F9"/>
<path d="M38.4199 18.65C39.1158 18.5268 39.8323 18.6773 40.4199 19.07C41.2199 19.74 42.4199 21.19 43.7599 21.48C45.0999 21.77 46.3599 21.78 46.9199 22.48C47.4799 23.18 47.7499 23.77 48.1999 24.21C48.2249 24.2297 48.245 24.2547 48.2589 24.2833C48.2728 24.3119 48.28 24.3432 48.28 24.375C48.28 24.4068 48.2728 24.4381 48.2589 24.4667C48.245 24.4953 48.2249 24.5203 48.1999 24.54C47.6285 24.8024 47.0939 25.1386 46.6099 25.54C45.9272 26.2858 45.0868 26.87 44.1499 27.25C43.2099 27.53 39.2999 26.5 38.4199 25.65C39.2725 25.305 40.0733 24.8439 40.7999 24.28C41.1728 23.9118 41.6374 23.6499 42.1455 23.5216C42.6536 23.3932 43.1868 23.4031 43.6899 23.55C43.8252 23.6272 43.9421 23.7328 44.0327 23.8594C44.1234 23.9861 44.1856 24.1308 44.215 24.2837C44.2445 24.4367 44.2405 24.5942 44.2033 24.7454C44.1662 24.8967 44.0968 25.0381 43.9999 25.16C43.6999 25.43 42.8899 25.71 42.6299 25.31C42.3699 24.91 42.7299 24.8 43.0899 24.97C43.4499 25.14 43.9999 25.16 43.6699 24.64C43.6699 24.64 43.6699 24.64 43.6699 24.57C43.4957 24.3879 43.2677 24.2663 43.0194 24.2231C42.771 24.1799 42.5154 24.2174 42.2899 24.33C42.0759 24.4883 41.93 24.722 41.8818 24.9837C41.8335 25.2455 41.8865 25.5158 42.0299 25.74C42.1368 25.9095 42.2773 26.0553 42.4426 26.1685C42.608 26.2817 42.7947 26.3599 42.9914 26.3983C43.1881 26.4367 43.3905 26.4345 43.5863 26.3918C43.7821 26.3491 43.9671 26.2668 44.1299 26.15C44.7199 25.73 45.2299 25.15 45.1299 24.53C45.0299 23.91 44.4999 22.46 43.1299 22.53C42.3047 22.5534 41.4991 22.7875 40.7899 23.21C39.7299 23.9 39.1499 24.53 38.6399 24.73C38.1299 24.93 36.3999 25.3 36.3999 25.3C37.5917 26.2143 38.9172 26.9395 40.3299 27.45C42.2299 28.03 43.5999 28.64 45.1499 27.84C46.1452 27.3023 47.0442 26.6027 47.8099 25.77C48.6459 25.259 49.5674 24.9032 50.5299 24.72C49.6609 23.939 48.8488 23.0968 48.0999 22.2C47.8321 21.7359 47.4354 21.3595 46.9579 21.1164C46.4805 20.8732 45.9427 20.7737 45.4099 20.83C44.3251 20.7579 43.3074 20.2794 42.5599 19.49C42.1486 18.966 41.6208 18.545 41.0185 18.2603C40.4162 17.9757 39.7559 17.8352 39.0899 17.85L37.6899 18.2L38.4199 18.65Z" fill="#B9F1F9"/>
<path d="M20.41 15.24C19.6812 14.6107 19.1846 13.755 19 12.81C18.9423 12.4693 18.9958 12.1192 19.1524 11.8113C19.3091 11.5033 19.5607 11.254 19.87 11.1C20.1313 10.9687 20.4309 10.9349 20.715 11.0045C20.999 11.0741 21.249 11.2427 21.42 11.48C21.61 11.89 20.88 11.82 20.89 11.48C20.89 10.91 20.34 11.12 20.32 11.48C20.3 11.84 21.05 12.61 21.57 12.24C22.09 11.87 22.2 11.35 21.94 11.07C21.68 10.79 20.94 10.14 20.23 10.38C19.52 10.62 18.83 10.8 18.52 11.6C18.2586 12.2355 18.2233 12.9416 18.42 13.6C18.62 14.43 20.04 15.51 20.04 15.51L20.41 15.24Z" fill="#B9F1F9"/>
<path d="M26.3902 21.79C26.3902 21.79 27.6902 22.19 28.2602 21.51C28.8302 20.83 29.4202 19.86 30.4102 19.76C31.1438 19.7128 31.8546 19.4861 32.4802 19.1C32.6726 18.9568 32.8848 18.8423 33.1102 18.76C32.5233 18.6809 31.9641 18.4614 31.4802 18.12C30.7995 17.6362 29.9738 17.3998 29.1402 17.45C28.2021 17.3225 27.3187 16.9345 26.5902 16.33C26.3269 16.1546 26.0149 16.0669 25.6988 16.0795C25.3827 16.092 25.0787 16.2042 24.8302 16.4C24.2902 16.73 23.7602 17.61 22.9502 17.81C23.4459 18.0685 23.912 18.3804 24.3402 18.74C24.7802 19.16 25.3402 19.79 25.9502 19.66C26.5602 19.53 27.0802 19.2 26.9002 18.83C26.7202 18.46 26.4902 18.7 26.5302 18.96C26.5302 18.96 26.1102 19.28 25.8902 19.12C25.6702 18.96 25.3502 18.35 25.8002 18.04C26.2502 17.73 26.7302 17.53 27.1702 17.85C27.6102 18.17 27.9602 18.91 27.7002 19.36C27.5049 19.6967 27.2271 19.978 26.8929 20.1775C26.5587 20.3769 26.1792 20.4879 25.7902 20.5C25.0854 20.4689 24.4195 20.1682 23.9302 19.66C23.4332 19.2359 22.8687 18.8979 22.2602 18.66C21.9502 18.56 20.8502 18.3 20.6802 17.73C21.3986 17.6777 22.0896 17.4324 22.6802 17.02C23.2834 16.4176 23.9545 15.8874 24.6802 15.44C24.9407 15.2669 25.236 15.153 25.5452 15.1064C25.8545 15.0597 26.1702 15.0815 26.4702 15.17C27.0185 15.4083 27.5172 15.7475 27.9402 16.17C28.3202 16.54 29.2502 16.53 29.8302 16.54C30.1176 16.5233 30.4054 16.5643 30.6767 16.6605C30.948 16.7566 31.1974 16.9061 31.4102 17.1C31.8638 17.4597 32.3887 17.7188 32.9502 17.86C33.5721 17.9049 34.1574 18.1709 34.6002 18.61L34.9902 19.25C34.5249 19.1699 34.0462 19.2363 33.6202 19.44C32.9602 19.78 32.7502 20.16 32.2502 20.38C31.6652 20.571 31.0554 20.6755 30.4402 20.69C30.1751 20.7506 29.9246 20.8631 29.7032 21.021C29.4818 21.1789 29.2938 21.3791 29.1502 21.61C29.0141 21.8687 28.8139 22.0882 28.5688 22.2475C28.3237 22.4068 28.0419 22.5006 27.7502 22.52C27.4548 22.5092 27.1621 22.4587 26.8802 22.37L26.3902 21.79Z" fill="#B9F1F9"/>
<path d="M23.2899 21.55C22.4949 20.9146 21.6487 20.346 20.7599 19.85C20.1099 19.62 19.0499 19.46 18.6099 18.85C18.4572 18.6696 18.2863 18.5054 18.0999 18.36C18.075 18.3403 18.0548 18.3153 18.0409 18.2867C18.0271 18.2581 18.0198 18.2268 18.0198 18.195C18.0198 18.1632 18.0271 18.1319 18.0409 18.1033C18.0548 18.0747 18.075 18.0497 18.0999 18.03C18.4177 17.6951 18.7773 17.4027 19.1699 17.16C19.7099 16.89 21.6799 16.42 22.3599 15.7C23.3731 14.6676 24.7436 14.0631 26.1891 14.011C27.6347 13.9589 29.0451 14.4632 30.1299 15.42C31.0799 16.17 33.1299 16.06 33.8699 16.65C34.5802 17.3848 35.3917 18.0145 36.2799 18.52C36.6956 18.6752 37.1028 18.8521 37.4999 19.05C37.0424 19.2962 36.6244 19.6097 36.2599 19.98C35.8999 20.44 34.9099 20.49 34.5699 20.72C34.2299 20.95 33.5099 21.8 33.1099 22.16C32.7099 22.52 31.1099 22.62 30.5999 22.96C29.7246 23.564 28.8957 24.2325 28.1199 24.96C27.6867 25.3231 27.1732 25.5777 26.6219 25.7029C26.0707 25.8282 25.4975 25.8203 24.9499 25.68C24.4248 25.5597 23.9428 25.2974 23.5566 24.9218C23.1703 24.5462 22.8948 24.0716 22.7599 23.55C22.6499 22.64 23.6599 21.98 24.2799 21.94C24.8999 21.9 25.7999 22.13 26.0499 22.72C26.2999 23.31 25.2299 23.72 25.4899 23.02C25.4899 23.02 25.3699 22.45 24.9199 22.84C24.4699 23.23 24.5099 24.07 25.1199 24.22C25.7299 24.37 26.6899 24.22 26.8299 23.55C26.9412 23.2603 26.9545 22.9421 26.8679 22.6442C26.7812 22.3462 26.5993 22.0848 26.3499 21.9C26.1419 21.6544 25.8711 21.4699 25.5665 21.366C25.2618 21.2621 24.9347 21.2427 24.6199 21.31C23.8399 21.49 23.2799 21.31 22.8499 21.89C22.7899 21.96 22.5599 22.18 22.4999 22.27C22.254 22.6405 22.1228 23.0753 22.1228 23.52C22.1228 23.9647 22.254 24.3995 22.4999 24.77C22.8213 25.2833 23.2619 25.7113 23.7842 26.0177C24.3065 26.3242 24.8951 26.4999 25.4999 26.53C26.6642 26.5902 27.8122 26.2359 28.7399 25.53C29.4163 24.8306 30.1752 24.2161 30.9999 23.7C31.6699 23.42 33.4899 23.28 34.0699 22.54C34.4688 21.8872 35.1019 21.4114 35.8399 21.21C36.4863 20.9631 37.0533 20.5448 37.4799 20C37.9664 19.6781 38.5041 19.4414 39.0699 19.3C38.4421 18.6129 37.6751 18.0674 36.8199 17.7C35.6499 17.29 34.6999 15.89 34.2399 15.76C33.1879 15.4868 32.166 15.1082 31.1899 14.63C30.8999 14.31 28.2599 12.51 27.1899 12.52C26.1199 12.53 23.5999 12.69 22.5699 13.52C21.834 14.2969 20.9632 14.9339 19.9999 15.4C18.9199 15.81 18.4099 15.63 17.6199 16.52C16.9839 17.1482 16.247 17.6654 15.4399 18.05C15.4399 18.05 16.9599 19.45 17.2499 19.66C17.6293 20.0847 18.1064 20.4108 18.6399 20.61L20.8999 21.33L21.6299 21.86L22.4499 21.98L23.2899 21.55Z" fill="#B9F1F9"/>
<path d="M50.7502 24.61C49.7944 23.9104 48.9426 23.0788 48.2202 22.14C47.4702 20.94 47.0502 20.79 44.9702 20.49C44.0295 20.3616 43.1704 19.8874 42.5602 19.16C42.1591 18.751 41.7129 18.3886 41.2302 18.08C40.4885 17.6855 39.6305 17.5685 38.8102 17.75C38.4682 17.8137 38.1333 17.9109 37.8102 18.04C37.4964 17.8449 37.1607 17.6871 36.8102 17.57C36.1475 17.3129 35.5669 16.8809 35.1302 16.32C34.9139 16.0761 34.6763 15.8518 34.4202 15.65C33.98 15.3905 33.5004 15.2048 33.0002 15.1C32.4396 14.9874 31.8998 14.7884 31.4002 14.51C31.2102 14.39 31.0002 14.22 30.7502 14.03C29.6853 13.0116 28.2828 12.4208 26.8102 12.37C25.033 12.3518 23.2912 12.8674 21.8102 13.85C21.6093 14.0109 21.4189 14.1846 21.2402 14.37C20.8962 14.7684 20.4503 15.0657 19.9502 15.23C19.216 14.8507 18.657 14.2021 18.3902 13.42C18.3153 13.1356 18.2976 12.8392 18.3381 12.548C18.3787 12.2567 18.4767 11.9764 18.6265 11.7234C18.7763 11.4703 18.9748 11.2495 19.2107 11.0738C19.4465 10.8982 19.7149 10.7711 20.0002 10.7C20.2777 10.6294 20.5675 10.6224 20.848 10.6796C21.1285 10.7367 21.3925 10.8565 21.6202 11.03C21.6989 11.0951 21.7608 11.1781 21.8008 11.2721C21.8408 11.366 21.8577 11.4682 21.8502 11.57C21.843 11.6608 21.8149 11.7486 21.768 11.8267C21.7212 11.9047 21.6569 11.9709 21.5802 12.02C21.4638 12.0718 21.3377 12.0986 21.2102 12.0986C21.0827 12.0986 20.9567 12.0718 20.8402 12.02C20.7311 11.966 20.64 11.8815 20.5779 11.7768C20.5158 11.6721 20.4853 11.5516 20.4902 11.43C20.4916 11.409 20.4888 11.3879 20.482 11.368C20.4752 11.348 20.4645 11.3296 20.4505 11.3138C20.4366 11.2981 20.4197 11.2852 20.4008 11.2759C20.3818 11.2667 20.3613 11.2613 20.3402 11.26C20.3192 11.2586 20.2981 11.2615 20.2782 11.2683C20.2583 11.2751 20.2399 11.2858 20.2241 11.2997C20.2083 11.3136 20.1954 11.3305 20.1862 11.3495C20.1769 11.3684 20.1715 11.389 20.1702 11.41C20.1689 11.5964 20.2197 11.7794 20.3169 11.9384C20.4141 12.0974 20.5538 12.2261 20.7202 12.31C20.8762 12.3853 21.0471 12.4244 21.2202 12.4244C21.3934 12.4244 21.5643 12.3853 21.7202 12.31C21.8413 12.2396 21.9437 12.1411 22.0186 12.0227C22.0934 11.9043 22.1386 11.7696 22.1502 11.63C22.1659 11.4783 22.1439 11.325 22.0864 11.1838C22.0288 11.0425 21.9374 10.9176 21.8202 10.82C21.5674 10.6184 21.2731 10.4753 20.9584 10.401C20.6438 10.3266 20.3165 10.3229 20.0002 10.39C19.6783 10.4689 19.3754 10.6112 19.1093 10.8087C18.8431 11.0062 18.6191 11.2548 18.4502 11.54C18.2658 11.8351 18.1463 12.1661 18.0997 12.5109C18.0532 12.8558 18.0806 13.2066 18.1802 13.54C18.423 14.3067 18.9344 14.96 19.6202 15.38C18.3102 15.66 18.0802 15.87 17.7802 16.21L17.7302 16.27C17.1398 17.0074 16.363 17.5736 15.4802 17.91C15.4299 17.9293 15.3857 17.9617 15.3523 18.0039C15.3189 18.0462 15.2974 18.0966 15.2902 18.15C15.2882 18.203 15.3024 18.2554 15.331 18.3001C15.3596 18.3448 15.4012 18.3796 15.4502 18.4C16.0121 18.624 16.52 18.9649 16.9402 19.4L17.0902 19.59C17.2959 19.9436 17.5865 20.2403 17.9357 20.4534C18.2849 20.6664 18.6817 20.789 19.0902 20.81C19.9162 20.9045 20.6921 21.2541 21.3102 21.81C21.6292 22.0547 22.0308 22.1658 22.4302 22.12C22.2061 22.5257 22.0886 22.9815 22.0886 23.445C22.0886 23.9085 22.2061 24.3643 22.4302 24.77C22.831 25.3421 23.3638 25.809 23.9836 26.1311C24.6034 26.4531 25.2918 26.6209 25.9902 26.62C26.7237 26.6131 27.4444 26.4277 28.0902 26.08C28.8036 25.7214 29.4338 25.2172 29.9402 24.6C30.1566 24.3036 30.4316 24.0548 30.7481 23.869C31.0646 23.6832 31.4159 23.5644 31.7802 23.52C33.7202 23.17 33.7802 23.15 34.6602 22.09L34.8702 21.84C35.0787 21.6044 35.3606 21.4458 35.6702 21.39C36.5341 21.751 37.3291 22.2584 38.0202 22.89C38.4695 23.3213 38.878 23.7934 39.2402 24.3C38.4356 24.7642 37.5366 25.0411 36.6102 25.11C36.5801 25.1127 36.5513 25.1234 36.5266 25.141C36.502 25.1586 36.4826 25.1824 36.4702 25.21C36.453 25.235 36.4438 25.2646 36.4438 25.295C36.4438 25.3254 36.453 25.355 36.4702 25.38C38.5125 26.9555 40.9209 27.9877 43.4702 28.38H43.6702C45.1002 28.38 46.4302 27.19 47.3202 26.38C47.5602 26.17 47.7702 25.98 47.9402 25.85C48.8138 25.3683 49.7592 25.0307 50.7402 24.85C50.769 24.8426 50.7952 24.8273 50.8158 24.8059C50.8364 24.7844 50.8506 24.7576 50.8568 24.7286C50.8631 24.6995 50.8611 24.6692 50.8511 24.6412C50.8411 24.6132 50.8235 24.5886 50.8002 24.57L50.7502 24.61ZM34.5302 21.7L34.3302 21.94C33.5002 22.94 33.5002 22.94 31.6402 23.26C30.844 23.3742 30.1252 23.7983 29.6402 24.44C29.1638 25.0331 28.563 25.5144 27.8802 25.85C27.0083 26.3163 25.9976 26.4527 25.0333 26.2341C24.069 26.0156 23.2158 25.4567 22.6302 24.66C22.4031 24.2606 22.3007 23.8024 22.3364 23.3443C22.372 22.8863 22.544 22.4494 22.8302 22.09C23.0041 21.935 23.1953 21.8008 23.4002 21.69C23.737 21.5171 24.1117 21.4311 24.4902 21.44C24.8378 21.4219 25.1855 21.4747 25.5121 21.595C25.8387 21.7153 26.1374 21.9007 26.3902 22.14C26.622 22.442 26.7293 22.8213 26.6902 23.2C26.6581 23.3273 26.5997 23.4464 26.5188 23.5498C26.4378 23.6531 26.3361 23.7383 26.2202 23.8C26.051 23.9252 25.8512 24.0024 25.6417 24.0235C25.4323 24.0447 25.221 24.0089 25.0302 23.92C24.935 23.8617 24.8594 23.7763 24.8131 23.6748C24.7667 23.5732 24.7518 23.4601 24.7702 23.35C24.7694 23.2572 24.7974 23.1663 24.8502 23.09C24.887 23.0343 24.9356 22.9874 24.9927 22.9528C25.0498 22.9182 25.1138 22.8968 25.1802 22.89C25.2013 22.8887 25.2218 22.8833 25.2408 22.8741C25.2597 22.8648 25.2766 22.8519 25.2905 22.8361C25.3045 22.8204 25.3152 22.802 25.322 22.782C25.3288 22.7621 25.3316 22.741 25.3302 22.72C25.3252 22.6793 25.3048 22.6421 25.2731 22.6161C25.2415 22.59 25.2011 22.5771 25.1602 22.58C25.0443 22.5898 24.9321 22.6255 24.8317 22.6843C24.7314 22.7431 24.6454 22.8237 24.5802 22.92C24.5029 23.0434 24.4581 23.1845 24.4502 23.33C24.4323 23.4983 24.4621 23.6683 24.5364 23.8205C24.6107 23.9726 24.7264 24.1007 24.8702 24.19C25.1109 24.3106 25.3803 24.3623 25.6486 24.3393C25.9168 24.3164 26.1735 24.2197 26.3902 24.06C26.5411 23.9778 26.6732 23.8651 26.7782 23.7291C26.8832 23.5931 26.9588 23.4368 27.0002 23.27C27.0501 23.0562 27.0501 22.8338 27.0002 22.62C27.2265 22.6723 27.458 22.6991 27.6902 22.7C28.0729 22.7177 28.4501 22.6048 28.7602 22.38C28.9793 22.1847 29.1651 21.955 29.3102 21.7C29.43 21.4213 29.6238 21.1808 29.8706 21.0045C30.1174 20.8282 30.4078 20.7229 30.7102 20.7C32.1002 20.57 32.5002 20.46 33.1802 19.75C33.6406 19.3659 34.2323 19.1758 34.8302 19.22C34.859 19.2212 34.8877 19.2154 34.9138 19.2033C34.9399 19.1911 34.9627 19.1728 34.9802 19.15C34.9925 19.1269 34.9989 19.1011 34.9989 19.075C34.9989 19.0488 34.9925 19.0231 34.9802 19C34.8273 18.6983 34.6038 18.4381 34.3287 18.2413C34.0536 18.0446 33.7351 17.9172 33.4002 17.87C32.6934 17.779 32.0309 17.4756 31.5002 17L31.3302 16.87C30.8142 16.5249 30.2001 16.3565 29.5802 16.39C29.2921 16.3827 29.0048 16.356 28.7202 16.31C28.2528 16.1936 27.8312 15.9393 27.5102 15.58C27.2836 15.3143 26.9849 15.1198 26.6502 15.02H26.5202C26.0538 14.9047 25.5653 14.9122 25.1027 15.0419C24.64 15.1716 24.2188 15.419 23.8802 15.76L23.8202 15.81C22.7402 16.72 21.8802 17.45 20.7502 17.43C20.6871 17.4293 20.625 17.4456 20.5704 17.4773C20.5159 17.509 20.4709 17.5548 20.4402 17.61C20.4062 17.662 20.3881 17.7228 20.3881 17.785C20.3881 17.8472 20.4062 17.908 20.4402 17.96C20.7061 18.3263 21.0917 18.588 21.5302 18.7C22.4583 18.8957 23.3135 19.3458 24.0002 20C24.3512 20.3193 24.7779 20.5438 25.2398 20.6523C25.7018 20.7608 26.1838 20.7497 26.6402 20.62C27.0672 20.4934 27.4398 20.228 27.6988 19.8657C27.9579 19.5034 28.0886 19.065 28.0702 18.62C28.0198 18.4097 27.9262 18.2123 27.7953 18.0401C27.6645 17.868 27.4993 17.7249 27.3102 17.62C27.1312 17.5224 26.9339 17.4631 26.7307 17.4459C26.5276 17.4287 26.3231 17.4539 26.1302 17.52C25.901 17.6071 25.7037 17.7619 25.5644 17.9636C25.4251 18.1654 25.3504 18.4048 25.3502 18.65C25.3474 18.8127 25.3976 18.9719 25.4932 19.1036C25.5888 19.2353 25.7247 19.3323 25.8802 19.38C26.0008 19.4251 26.1301 19.4423 26.2583 19.4302C26.3865 19.418 26.5102 19.377 26.6202 19.31C26.711 19.2409 26.7863 19.1536 26.8414 19.0537C26.8965 18.9539 26.9302 18.8436 26.9402 18.73C26.943 18.7095 26.9415 18.6887 26.9359 18.6688C26.9302 18.6489 26.9205 18.6304 26.9074 18.6144C26.8942 18.5984 26.8779 18.5854 26.8595 18.576C26.8411 18.5666 26.8209 18.5612 26.8002 18.56C26.7594 18.5571 26.7189 18.57 26.6873 18.5961C26.6557 18.6221 26.6352 18.6593 26.6302 18.7C26.6119 18.836 26.5443 18.9606 26.4402 19.05C26.3672 19.0861 26.2867 19.1049 26.2052 19.1049C26.1237 19.1049 26.0433 19.0861 25.9702 19.05C25.879 19.0195 25.8003 18.96 25.7461 18.8805C25.6919 18.8011 25.6653 18.706 25.6702 18.61C25.6702 18.4328 25.7236 18.2598 25.8235 18.1135C25.9234 17.9672 26.0652 17.8544 26.2302 17.79C26.3819 17.7357 26.5435 17.7147 26.704 17.7285C26.8645 17.7423 27.0201 17.7906 27.1602 17.87C27.3139 17.9597 27.4468 18.081 27.5502 18.2257C27.6536 18.3705 27.7252 18.5356 27.7602 18.71C27.9102 19.36 27.2202 20.15 26.5602 20.33C26.1592 20.4436 25.7362 20.4555 25.3294 20.3647C24.9227 20.274 24.5449 20.0833 24.2302 19.81C23.5296 19.1171 22.6502 18.6324 21.6902 18.41C21.3204 18.3116 20.9957 18.0892 20.7702 17.78C22.0202 17.78 22.9602 17.01 24.0602 16.09V16.04C24.3637 15.7299 24.7431 15.5048 25.1608 15.3873C25.5784 15.2697 26.0196 15.2637 26.4402 15.37H26.5702C26.8432 15.4627 27.0854 15.6288 27.2702 15.85C27.6374 16.2537 28.1187 16.5362 28.6502 16.66C28.9447 16.7088 29.242 16.7388 29.5402 16.75C30.0975 16.7106 30.6524 16.8546 31.1202 17.16L31.2802 17.29C31.8433 17.7882 32.5374 18.1144 33.2802 18.23C33.5195 18.2602 33.7501 18.3387 33.9581 18.4608C34.1661 18.5828 34.3472 18.7459 34.4902 18.94C33.8916 18.9459 33.3156 19.1699 32.8702 19.57C32.2602 20.21 31.9202 20.3 30.6002 20.43C30.2621 20.4624 29.9377 20.5804 29.6578 20.7728C29.3779 20.9653 29.1516 21.2259 29.0002 21.53C28.8768 21.7567 28.7143 21.9598 28.5202 22.13C27.9402 22.61 26.8402 22.26 26.8302 22.26L26.6502 21.96C26.2049 21.5364 25.642 21.2573 25.0353 21.1591C24.4286 21.061 23.8064 21.1484 23.2502 21.41C23.0403 21.5265 22.8426 21.6638 22.6602 21.82H22.5802C22.3869 21.8692 22.1853 21.8768 21.9888 21.8424C21.7922 21.8079 21.6053 21.7321 21.4402 21.62C20.7662 21.0007 19.9106 20.615 19.0002 20.52C18.6355 20.4988 18.2818 20.3872 17.9711 20.1952C17.6603 20.0031 17.4023 19.7367 17.2202 19.42L17.0702 19.23C16.6575 18.7708 16.1534 18.4029 15.5902 18.15C16.4716 17.782 17.2481 17.2014 17.8502 16.46L17.9002 16.39C18.1302 16.13 18.3002 15.94 19.5602 15.67C19.7091 15.6384 19.856 15.5983 20.0002 15.55C20.5746 15.3617 21.0842 15.0151 21.4702 14.55C21.6394 14.3653 21.8233 14.1947 22.0202 14.04C23.44 13.1096 25.1028 12.6191 26.8002 12.63C28.1973 12.6895 29.5243 13.2587 30.5302 14.23C30.7902 14.43 31.0102 14.6 31.2102 14.73C31.7392 15.0227 32.3088 15.235 32.9002 15.36C33.3764 15.4513 33.8353 15.6166 34.2602 15.85C34.4964 16.0389 34.7141 16.2498 34.9102 16.48C35.3845 17.0831 36.0135 17.5462 36.7302 17.82C37.5229 18.1467 38.2459 18.6219 38.8602 19.22C38.4738 19.2534 38.098 19.3635 37.7546 19.5438C37.4112 19.724 37.1072 19.9709 36.8602 20.27C36.7042 20.4765 36.5074 20.6487 36.282 20.776C36.0567 20.9033 35.8076 20.9829 35.5502 21.01C35.1351 21.1026 34.7706 21.3492 34.5302 21.7ZM47.7002 25.7C47.5202 25.84 47.3002 26.03 47.0602 26.25C46.1702 27.05 44.8202 28.25 43.4402 28.15C41.0856 27.7687 38.8489 26.8556 36.9002 25.48C37.9681 25.3667 38.9813 24.9503 39.8202 24.28C40.8202 23.36 42.5702 22.48 43.9002 23.05C44.1054 23.1412 44.2864 23.2791 44.4288 23.4528C44.5712 23.6264 44.671 23.8309 44.7202 24.05C44.8636 24.6011 44.7846 25.1866 44.5002 25.68C44.2631 25.948 43.9421 26.1275 43.5897 26.1893C43.2373 26.251 42.8743 26.1914 42.5602 26.02C42.4284 25.9794 42.3093 25.9054 42.2145 25.8052C42.1197 25.705 42.0525 25.582 42.0192 25.4482C41.986 25.3143 41.9879 25.1741 42.0249 25.0412C42.0618 24.9084 42.1324 24.7873 42.23 24.6897C42.3275 24.5922 42.4486 24.5216 42.5815 24.4846C42.7144 24.4477 42.8546 24.4458 42.9884 24.479C43.1223 24.5122 43.2453 24.5795 43.3455 24.6743C43.4457 24.7691 43.5196 24.8882 43.5602 25.02C43.5803 25.0536 43.6121 25.0787 43.6495 25.0905C43.6869 25.1023 43.7273 25.1 43.763 25.0839C43.7988 25.0679 43.8274 25.0393 43.8435 25.0035C43.8596 24.9678 43.862 24.9274 43.8502 24.89C43.7487 24.6486 43.5699 24.4479 43.3418 24.3193C43.1136 24.1908 42.8493 24.1418 42.5902 24.18C42.4425 24.2227 42.3046 24.2942 42.1845 24.3903C42.0644 24.4864 41.9644 24.6052 41.8902 24.74C41.7614 25.0089 41.7382 25.3164 41.8252 25.6016C41.9123 25.8867 42.1032 26.1289 42.3602 26.28C42.745 26.4895 43.1899 26.5611 43.621 26.4829C44.0522 26.4046 44.4435 26.1813 44.7302 25.85C44.9076 25.5613 45.0232 25.239 45.0697 24.9033C45.1162 24.5677 45.0925 24.226 45.0002 23.9C44.9351 23.6398 44.8111 23.3981 44.6377 23.1935C44.4643 22.9889 44.2462 22.8269 44.0002 22.72C42.5302 22.09 40.7102 23.02 39.5902 24L39.3902 24.17C39.0186 23.6436 38.5967 23.1546 38.1302 22.71C37.5186 22.1395 36.8198 21.6702 36.0602 21.32C36.4871 21.1948 36.8601 20.9309 37.1202 20.57C37.3386 20.3084 37.6065 20.0925 37.9085 19.9346C38.2106 19.7767 38.5408 19.68 38.8802 19.65C38.95 19.6455 39.0167 19.6202 39.072 19.5775C39.1272 19.5347 39.1684 19.4764 39.1902 19.41C39.2113 19.3461 39.2141 19.2775 39.1982 19.2121C39.1822 19.1467 39.1483 19.0871 39.1002 19.04C38.784 18.7587 38.45 18.4982 38.1002 18.26C38.3337 18.1717 38.5747 18.1048 38.8202 18.06C39.5658 17.8924 40.3468 17.9989 41.0202 18.36C41.4838 18.6388 41.9104 18.9748 42.2902 19.36C42.95 20.1335 43.8725 20.6356 44.8802 20.77C46.9402 21.07 47.2502 21.22 47.8802 22.28C48.5376 23.1766 49.3265 23.9688 50.2202 24.63C49.3276 24.8268 48.4752 25.1752 47.7002 25.66V25.7Z" fill="#8BE7F5"/>
<path d="M43.1198 64.79C43.1159 64.8356 43.1263 64.8814 43.1496 64.9208C43.1729 64.9602 43.208 64.9914 43.2498 65.01C43.7344 65.2032 44.1687 65.5041 44.5198 65.89L44.6398 66.05C44.819 66.3393 45.0653 66.5812 45.3577 66.7552C45.6501 66.9293 45.9801 67.0304 46.3198 67.05C47.0264 67.1382 47.6875 67.446 48.2098 67.93C48.4806 68.1369 48.8214 68.2302 49.1598 68.19C48.968 68.5339 48.8674 68.9212 48.8674 69.315C48.8674 69.7088 48.968 70.0961 49.1598 70.44C49.6841 71.1822 50.4638 71.7048 51.3495 71.9078C52.2352 72.1108 53.1647 71.9798 53.9598 71.54C54.5632 71.2351 55.0975 70.8097 55.5298 70.29C55.712 70.0379 55.9449 69.8267 56.2136 69.67C56.4822 69.5133 56.7807 69.4145 57.0898 69.38C58.7298 69.08 58.7798 69.06 59.5298 68.16L59.6998 68C59.8764 67.7994 60.1164 67.6653 60.3798 67.62C61.1155 67.9234 61.7924 68.3532 62.3798 68.89C62.7481 69.256 63.0828 69.6542 63.3798 70.08C62.6993 70.478 61.9362 70.7141 61.1498 70.77C61.1234 70.7721 61.098 70.7816 61.0768 70.7976C61.0555 70.8135 61.0392 70.8352 61.0298 70.86C61.0152 70.8804 61.0073 70.9049 61.0073 70.93C61.0073 70.9551 61.0152 70.9796 61.0298 71C62.7752 72.3305 64.829 73.1974 66.9998 73.52H67.1798C68.3898 73.52 69.5098 72.52 70.2698 71.83C70.4698 71.65 70.6398 71.49 70.7898 71.38C71.5297 70.9683 72.3294 70.6748 73.1598 70.51C73.1862 70.5066 73.2109 70.4951 73.2305 70.4773C73.2502 70.4594 73.2639 70.4359 73.2698 70.41C73.2734 70.3844 73.2708 70.3582 73.2621 70.3338C73.2534 70.3094 73.2389 70.2875 73.2198 70.27C72.4013 69.6864 71.6763 68.9817 71.0698 68.18C70.4398 67.18 70.0698 67.04 68.3198 66.79C67.539 66.6659 66.8291 66.2647 66.3198 65.66C65.9895 65.3073 65.6127 65.0011 65.1998 64.75C64.5726 64.4131 63.8459 64.3103 63.1498 64.46C62.8662 64.5183 62.5884 64.6019 62.3198 64.71C62.0655 64.5469 61.7939 64.4128 61.5098 64.31C60.9448 64.0948 60.45 63.728 60.0798 63.25C59.9001 63.0398 59.699 62.8487 59.4798 62.68C59.0952 62.4659 58.6806 62.3108 58.2498 62.22C57.7741 62.1222 57.3156 61.9537 56.8898 61.72C56.6988 61.594 56.5151 61.4571 56.3398 61.31C55.4353 60.4504 54.2469 59.9523 52.9998 59.91C51.5025 59.9027 50.0369 60.3413 48.7898 61.17C48.621 61.3068 48.4607 61.4537 48.3098 61.61C48.0664 61.876 47.7745 62.0932 47.4498 62.25C46.8878 61.7182 46.5184 61.0146 46.3998 60.25C46.3461 59.9617 46.3884 59.6638 46.5203 59.4019C46.6521 59.1399 46.8663 58.9285 47.1298 58.8C47.3487 58.6803 47.6045 58.6467 47.8469 58.706C48.0893 58.7652 48.3008 58.9128 48.4398 59.12C48.5998 59.47 47.9898 59.41 47.9898 59.12C47.9898 58.83 47.7198 58.77 47.5898 58.93H47.5198C47.5025 58.9271 47.4847 58.928 47.4677 58.9327C47.4508 58.9374 47.4351 58.9458 47.4217 58.9572C47.4084 58.9687 47.3977 58.9829 47.3904 58.9989C47.3832 59.015 47.3796 59.0324 47.3798 59.05C47.3715 59.2082 47.4109 59.3652 47.4929 59.5008C47.5749 59.6363 47.6958 59.744 47.8398 59.81C47.9742 59.874 48.1211 59.9072 48.2698 59.9072C48.4186 59.9072 48.5655 59.874 48.6998 59.81C48.802 59.7493 48.888 59.6649 48.9507 59.564C49.0134 59.463 49.0508 59.3485 49.0598 59.23C49.0718 59.101 49.0525 58.971 49.0038 58.8509C48.9551 58.7308 48.8783 58.6242 48.7798 58.54C48.5567 58.3651 48.2965 58.2436 48.0192 58.1847C47.7419 58.1257 47.4548 58.131 47.1798 58.2C46.625 58.3458 46.1504 58.7053 45.8599 59.2001C45.5695 59.6948 45.4867 60.2844 45.6298 60.84C45.8426 61.489 46.2784 62.0417 46.8598 62.4C45.7598 62.64 45.5598 62.81 45.3098 63.1V63.15C44.8034 63.7724 44.1458 64.2544 43.3998 64.55C43.3646 64.5366 43.3263 64.5329 43.2891 64.5394C43.252 64.5459 43.2172 64.5623 43.1886 64.5869C43.1599 64.6114 43.1384 64.6432 43.1263 64.679C43.1142 64.7147 43.112 64.7531 43.1198 64.79Z" fill="#E7FAFD"/>
<path d="M61.25 67.09C61.6616 67.2332 62.0519 67.4317 62.41 67.68C63.1014 68.2095 63.723 68.8244 64.26 69.51L63.64 69.97C63.64 69.97 62.86 69.09 62.64 68.86C62.231 68.5283 61.7887 68.2401 61.32 68C60.97 67.82 60.57 67.62 60.52 67.45L61.25 67.09Z" fill="#B9F1F9"/>
<path d="M62.79 65.24C63.0872 65.1804 63.3932 65.1807 63.6903 65.2408C63.9873 65.3009 64.2694 65.4196 64.52 65.59C65.2 66.16 66.22 67.39 67.35 67.59C68.48 67.79 69.56 67.85 70.03 68.42C70.5 68.99 70.74 69.52 71.12 69.89C71.1384 69.9104 71.1519 69.9347 71.1595 69.9611C71.167 69.9874 71.1684 70.0152 71.1636 70.0422C71.1588 70.0692 71.1478 70.0948 71.1316 70.1169C71.1154 70.1391 71.0943 70.1572 71.07 70.17C70.5852 70.398 70.1316 70.687 69.72 71.03C69.1466 71.6613 68.4394 72.1567 67.65 72.48C65.9356 72.4838 64.2535 72.0131 62.79 71.12C63.508 70.8293 64.1813 70.4388 64.79 69.96C65.1059 69.6474 65.4997 69.4251 65.9305 69.316C66.3614 69.207 66.8135 69.2153 67.24 69.34C67.3576 69.4031 67.4598 69.4913 67.5394 69.5984C67.6191 69.7054 67.6742 69.8287 67.7009 69.9594C67.7276 70.0901 67.7253 70.2251 67.694 70.3548C67.6628 70.4845 67.6034 70.6058 67.52 70.71C67.27 70.94 66.58 71.18 66.36 70.84C66.14 70.5 66.45 70.4 66.75 70.55C67.05 70.7 67.52 70.71 67.25 70.27C67.25 70.27 67.25 70.27 67.25 70.21C67.1031 70.0544 66.9102 69.9501 66.6996 69.9123C66.489 69.8745 66.2719 69.9052 66.08 70C65.9013 70.1372 65.7798 70.336 65.7392 70.5576C65.6985 70.7793 65.7416 71.0082 65.86 71.2C65.9499 71.3445 66.0685 71.469 66.2085 71.5657C66.3485 71.6624 66.507 71.7292 66.6739 71.7621C66.8409 71.7949 67.0128 71.793 67.179 71.7565C67.3453 71.72 67.5022 71.6497 67.64 71.55C68.14 71.19 68.58 70.67 68.46 70.18C68.34 69.69 67.92 68.43 66.76 68.5C66.0544 68.5166 65.3651 68.7165 64.76 69.08C63.87 69.66 63.37 70.19 62.94 70.36C62.3158 70.5566 61.6816 70.7202 61.04 70.85C62.052 71.621 63.1747 72.2346 64.37 72.67C65.98 73.16 67.14 73.67 68.46 73C69.3047 72.5456 70.0656 71.9504 70.71 71.24C71.4172 70.808 72.1963 70.5065 73.01 70.35C72.2921 69.69 71.6236 68.978 71.01 68.22C70.7801 67.8271 70.4418 67.5088 70.0357 67.3031C69.6296 67.0974 69.1728 67.013 68.72 67.06C67.8028 67.0242 66.9322 66.646 66.28 66C65.9308 65.5561 65.4837 65.1989 64.9738 64.9561C64.4639 64.7132 63.9048 64.5914 63.34 64.6L62.15 64.9L62.79 65.24Z" fill="#B9F1F9"/>
<path d="M47.5298 62.35C46.9228 61.813 46.5142 61.0874 46.3698 60.29C46.316 60.0017 46.3583 59.7038 46.4902 59.4419C46.6221 59.18 46.8362 58.9685 47.0998 58.84C47.3187 58.7203 47.5744 58.6868 47.8168 58.746C48.0592 58.8052 48.2707 58.9529 48.4098 59.16C48.5698 59.51 47.9598 59.45 47.9598 59.16C47.9598 58.68 47.4998 58.85 47.4798 59.16C47.4598 59.47 48.0998 60.16 48.5398 59.8C48.9798 59.44 49.0698 59.05 48.8598 58.8C48.6498 58.55 47.9998 58 47.3998 58.25C46.7998 58.5 46.2198 58.6 45.9498 59.25C45.7164 59.8054 45.6881 60.4256 45.8698 61C46.0398 61.71 47.2398 62.62 47.2398 62.62L47.5298 62.35Z" fill="#B9F1F9"/>
<path d="M52.6002 67.89C52.6002 67.89 53.7002 68.23 54.1802 67.66C54.6602 67.09 55.1802 66.26 56.0002 66.17C56.6234 66.1352 57.2281 65.9462 57.7602 65.62C57.9189 65.4935 58.0982 65.3954 58.2902 65.33C57.7933 65.2642 57.3198 65.0789 56.9102 64.79C56.3294 64.3746 55.6227 64.1732 54.9102 64.22C54.1137 64.1077 53.3631 63.7791 52.7402 63.27C52.5173 63.1216 52.2531 63.0475 51.9855 63.0583C51.7179 63.0691 51.4605 63.1642 51.2502 63.33C50.7902 63.61 50.3502 64.33 49.6702 64.52C50.0852 64.7443 50.4771 65.0089 50.8402 65.31C51.2102 65.67 51.6902 66.2 52.2002 66.09C52.7102 65.98 53.2002 65.7 53.0102 65.39C52.8202 65.08 52.6602 65.28 52.7002 65.5C52.7002 65.5 52.3402 65.77 52.1502 65.63C51.9602 65.49 51.6902 64.98 52.0802 64.72C52.4702 64.46 52.8602 64.29 53.2402 64.56C53.4393 64.6975 53.5899 64.8942 53.6707 65.1222C53.7515 65.3502 53.7583 65.5979 53.6902 65.83C53.5297 66.1225 53.296 66.3684 53.0121 66.5437C52.7282 66.7189 52.4037 66.8176 52.0702 66.83C51.7745 66.8217 51.4834 66.7547 51.2139 66.6328C50.9443 66.5109 50.7018 66.3366 50.5002 66.12C50.0785 65.7632 49.5981 65.4824 49.0802 65.29C48.8202 65.21 47.8902 64.98 47.7402 64.5C48.3441 64.455 48.9245 64.2477 49.4202 63.9C49.9321 63.3866 50.5066 62.9398 51.1302 62.57C51.3489 62.4216 51.5975 62.3232 51.8585 62.2817C52.1195 62.2402 52.3864 62.2567 52.6402 62.33C53.1079 62.53 53.5323 62.8186 53.8902 63.18C54.2102 63.49 55.0002 63.49 55.4902 63.5C55.7338 63.4828 55.9784 63.5156 56.2088 63.5964C56.4393 63.6773 56.6508 63.8044 56.8302 63.97C57.2091 64.2796 57.6538 64.4985 58.1302 64.61C58.6583 64.6495 59.1548 64.8765 59.5302 65.25L59.8602 65.79C59.4696 65.7207 59.0671 65.7767 58.7102 65.95C58.1402 66.24 57.9702 66.57 57.5402 66.75C57.0429 66.9123 56.5234 66.9966 56.0002 67C55.7758 67.051 55.5638 67.1462 55.3766 67.2802C55.1895 67.4141 55.0309 67.584 54.9102 67.78C54.7936 67.9988 54.6231 68.1844 54.4149 68.3191C54.2067 68.4538 53.9677 68.5333 53.7202 68.55C53.4695 68.5411 53.2209 68.5008 52.9802 68.43L52.6002 67.89Z" fill="#B9F1F9"/>
<path d="M49.9998 67.7C49.3308 67.1573 48.6146 66.6754 47.8598 66.26C47.3098 66.06 46.4098 65.92 46.0398 65.39C45.909 65.2373 45.7614 65.0998 45.5998 64.98C45.5802 64.9613 45.5645 64.9389 45.5538 64.9139C45.5431 64.889 45.5376 64.8622 45.5376 64.835C45.5376 64.8079 45.5431 64.7811 45.5538 64.7561C45.5645 64.7312 45.5802 64.7087 45.5998 64.69C45.8747 64.4091 46.1838 64.1638 46.5198 63.96C46.9698 63.73 48.6398 63.33 49.2198 62.72C50.0781 61.8465 51.2383 61.3348 52.4621 61.2902C53.6859 61.2456 54.8802 61.6713 55.7998 62.48C56.5998 63.12 58.3598 63.02 58.9698 63.48C59.5552 64.1049 60.2291 64.6406 60.9698 65.07C61.7398 65.38 61.9698 65.52 61.9698 65.52C61.5812 65.7276 61.227 65.9941 60.9198 66.31C60.6198 66.69 59.7798 66.74 59.4898 66.93C59.1998 67.12 58.5898 67.85 58.2498 68.15C57.9098 68.45 56.5998 68.54 56.1298 68.83C55.38 69.3521 54.6682 69.9269 53.9998 70.55C53.6341 70.8579 53.2 71.0739 52.7338 71.18C52.2676 71.2861 51.7828 71.2793 51.3198 71.16C50.8762 71.0616 50.4686 70.8423 50.142 70.5263C49.8155 70.2104 49.5828 69.8101 49.4698 69.37C49.3698 68.6 50.2198 68.03 50.7498 68C51.2798 67.97 52.0398 68.16 52.2498 68.66C52.4598 69.16 51.5498 69.49 51.7698 68.91C51.7698 68.91 51.6798 68.43 51.2898 68.76C50.8998 69.09 50.9498 69.76 51.4598 69.93C51.9698 70.1 52.7898 69.93 52.9098 69.36C53.0027 69.1237 53.0169 68.8637 52.9502 68.6187C52.8835 68.3737 52.7396 68.1567 52.5398 68C52.3667 67.7895 52.1385 67.6313 51.8807 67.543C51.6229 67.4547 51.3456 67.4398 51.0798 67.5C50.4198 67.65 49.9398 67.5 49.5798 67.98C49.5798 68.04 49.3298 68.23 49.2798 68.31C49.0729 68.6248 48.9627 68.9933 48.9627 69.37C48.9627 69.7467 49.0729 70.1152 49.2798 70.43C49.5533 70.8655 49.928 71.2285 50.372 71.4879C50.816 71.7473 51.3162 71.8956 51.8298 71.92C52.8136 71.9717 53.784 71.6742 54.5698 71.08C55.1488 70.4909 55.7969 69.9738 56.4998 69.54C57.0698 69.31 58.6098 69.19 59.0998 68.54C59.439 67.9893 59.9755 67.5888 60.5998 67.42C61.3998 67.16 61.5998 66.76 61.9898 66.42C62.4018 66.1435 62.8585 65.9405 63.3398 65.82C62.8047 65.2413 62.154 64.7814 61.4298 64.47C60.4298 64.12 59.6398 62.94 59.2498 62.82C58.3529 62.5814 57.4845 62.2461 56.6598 61.82C56.4198 61.56 54.1798 60.03 53.2998 60.04C52.4198 60.05 50.2998 60.19 49.3898 60.9C48.7532 61.549 48.0045 62.0775 47.1798 62.46C46.2598 62.81 45.8298 62.66 45.1798 63.46C44.6448 63.992 44.0224 64.4284 43.3398 64.75C43.3398 64.75 44.6198 65.94 44.8598 66.12C45.1763 66.4625 45.566 66.7291 45.9998 66.9C46.7098 67.14 47.8998 67.5 47.8998 67.5L48.5198 67.95L49.2198 68.05L49.9998 67.7Z" fill="#B9F1F9"/>
<path d="M73.2398 70.28C72.4213 69.6964 71.6963 68.9917 71.0898 68.19C70.4598 67.19 70.0898 67.05 68.3398 66.8C67.559 66.6759 66.849 66.2747 66.3398 65.67C66.0094 65.3173 65.6327 65.0112 65.2198 64.76C64.5925 64.4231 63.8659 64.3203 63.1698 64.47C62.8862 64.5283 62.6084 64.612 62.3398 64.72C62.0855 64.5569 61.8138 64.4228 61.5298 64.32C60.9648 64.1048 60.47 63.738 60.0998 63.26C59.92 63.0498 59.719 62.8587 59.4998 62.69C59.1152 62.4759 58.7005 62.3208 58.2698 62.23C57.794 62.1322 57.3356 61.9637 56.9098 61.73C56.7187 61.604 56.5351 61.4671 56.3598 61.32C55.4516 60.4523 54.2552 59.9502 52.9998 59.91C51.5025 59.9027 50.0369 60.3413 48.7898 61.17C48.621 61.3068 48.4607 61.4537 48.3098 61.61C48.0145 61.9422 47.6394 62.1934 47.2198 62.34C46.5932 62.0238 46.1157 61.4745 45.8898 60.81C45.7605 60.3301 45.8255 59.8185 46.0707 59.3862C46.3159 58.9538 46.7216 58.6354 47.1998 58.5C47.4344 58.4392 47.6798 58.4328 47.9172 58.4813C48.1547 58.5298 48.3779 58.632 48.5698 58.78C48.6352 58.8348 48.6873 58.9038 48.7219 58.9818C48.7566 59.0598 48.773 59.1447 48.7698 59.23C48.7613 59.3076 48.7364 59.3825 48.6968 59.4498C48.6571 59.517 48.6036 59.575 48.5398 59.62C48.4407 59.6644 48.3334 59.6874 48.2248 59.6874C48.1162 59.6874 48.0089 59.6644 47.9098 59.62C47.818 59.5732 47.7411 59.5014 47.6881 59.413C47.635 59.3246 47.6079 59.2231 47.6098 59.12C47.6098 59.0855 47.5961 59.0525 47.5717 59.0281C47.5473 59.0037 47.5143 58.99 47.4798 58.99C47.4453 58.99 47.4123 59.0037 47.3879 59.0281C47.3635 59.0525 47.3498 59.0855 47.3498 59.12C47.3414 59.2782 47.3808 59.4353 47.4628 59.5708C47.5449 59.7063 47.6658 59.814 47.8098 59.88C47.9441 59.944 48.091 59.9772 48.2398 59.9772C48.3886 59.9772 48.5355 59.944 48.6698 59.88C48.772 59.8193 48.858 59.7349 48.9207 59.634C48.9833 59.533 49.0208 59.4185 49.0298 59.3C49.0417 59.171 49.0225 59.041 48.9738 58.9209C48.9251 58.8009 48.8483 58.6942 48.7498 58.61C48.5266 58.4351 48.2665 58.3136 47.9892 58.2547C47.7119 58.1957 47.4248 58.201 47.1498 58.27C46.5949 58.4158 46.1204 58.7754 45.8299 59.2701C45.5394 59.7648 45.4567 60.3544 45.5998 60.91C45.8126 61.559 46.2483 62.1117 46.8298 62.47C45.7298 62.71 45.5298 62.88 45.2798 63.17V63.22C44.7734 63.8424 44.1157 64.3244 43.3698 64.62C43.3264 64.6305 43.2875 64.6546 43.2587 64.6888C43.2299 64.723 43.2128 64.7654 43.2098 64.81C43.2059 64.8556 43.2163 64.9014 43.2396 64.9408C43.2629 64.9802 43.2979 65.0114 43.3398 65.03C43.8244 65.2232 44.2587 65.5242 44.6098 65.91L44.7298 66.07C44.909 66.3593 45.1552 66.6012 45.4476 66.7752C45.7401 66.9493 46.0701 67.0504 46.4098 67.07C47.1164 67.1582 47.7775 67.466 48.2998 67.95C48.5706 68.1569 48.9114 68.2502 49.2498 68.21C49.058 68.5539 48.9573 68.9412 48.9573 69.335C48.9573 69.7288 49.058 70.1161 49.2498 70.46C49.7741 71.2022 50.5537 71.7248 51.4395 71.9278C52.3252 72.1308 53.2547 71.9998 54.0498 71.56C54.6531 71.2551 55.1875 70.8297 55.6198 70.31C55.802 70.0579 56.0349 69.8467 56.3036 69.69C56.5722 69.5333 56.8707 69.4345 57.1798 69.4C58.8198 69.1 58.8698 69.08 59.6198 68.18L59.6998 68C59.8764 67.7994 60.1164 67.6653 60.3798 67.62C61.1155 67.9234 61.7923 68.3532 62.3798 68.89C62.748 69.256 63.0827 69.6542 63.3798 70.08C62.6992 70.478 61.9362 70.7141 61.1498 70.77C61.1233 70.7721 61.098 70.7816 61.0767 70.7976C61.0555 70.8135 61.0392 70.8352 61.0298 70.86C61.0151 70.8804 61.0073 70.9049 61.0073 70.93C61.0073 70.9551 61.0151 70.9796 61.0298 71C62.7752 72.3305 64.829 73.1974 66.9998 73.52H67.1798C68.3898 73.52 69.5098 72.52 70.2698 71.83C70.4698 71.65 70.6398 71.49 70.7898 71.38C71.5297 70.9684 72.3293 70.6748 73.1598 70.51C73.1862 70.5066 73.2108 70.4952 73.2305 70.4773C73.2502 70.4594 73.2639 70.4359 73.2698 70.41C73.2744 70.3875 73.2742 70.3642 73.269 70.3417C73.2638 70.3193 73.2539 70.2982 73.2398 70.28ZM59.4898 67.82L59.3198 68.02C58.6198 68.86 58.6198 68.86 57.0398 69.15C56.7018 69.192 56.376 69.3022 56.082 69.4742C55.788 69.6461 55.5321 69.876 55.3298 70.15C54.9223 70.6496 54.4148 71.0583 53.8398 71.35C53.101 71.7427 52.2459 71.8578 51.4295 71.6744C50.6132 71.4909 49.8896 71.0211 49.3898 70.35C49.2021 70.0103 49.1172 69.6233 49.1456 69.2362C49.174 68.8491 49.3145 68.4787 49.5498 68.17C49.6987 68.0372 49.8633 67.923 50.0398 67.83C50.3346 67.6718 50.6653 67.5926 50.9998 67.6C51.2941 67.5844 51.5885 67.6286 51.8652 67.7301C52.142 67.8315 52.3953 67.9879 52.6098 68.19C52.8077 68.4499 52.9005 68.7748 52.8698 69.1C52.8058 69.3119 52.6625 69.491 52.4698 69.6C52.3268 69.7034 52.1589 69.7672 51.9833 69.7847C51.8076 69.8023 51.6305 69.7731 51.4698 69.7C51.3893 69.6512 51.3252 69.5794 51.286 69.4938C51.2468 69.4082 51.2342 69.3128 51.2498 69.22C51.2468 69.1423 51.2677 69.0655 51.3098 69C51.3438 68.9532 51.3871 68.914 51.437 68.8847C51.487 68.8555 51.5424 68.8368 51.5998 68.83C51.6169 68.8287 51.6336 68.8241 51.6489 68.8164C51.6641 68.8086 51.6778 68.798 51.6889 68.785C51.7001 68.7719 51.7085 68.7569 51.7138 68.7406C51.7191 68.7243 51.7212 68.7071 51.7198 68.69C51.7199 68.6721 51.7162 68.6543 51.709 68.6378C51.7019 68.6214 51.6914 68.6066 51.6783 68.5944C51.6651 68.5821 51.6496 68.5728 51.6326 68.5669C51.6157 68.561 51.5977 68.5586 51.5798 68.56C51.4824 68.5713 51.3884 68.603 51.304 68.6529C51.2196 68.7029 51.1466 68.77 51.0898 68.85C51.0265 68.9566 50.9889 69.0764 50.9798 69.2C50.9646 69.3422 50.9893 69.4858 51.0511 69.6147C51.1129 69.7436 51.2094 69.8528 51.3298 69.93C51.5344 70.0312 51.7627 70.0744 51.9902 70.055C52.2176 70.0356 52.4353 69.9544 52.6198 69.82C52.7479 69.7501 52.8602 69.6546 52.9497 69.5393C53.0392 69.424 53.1039 69.2915 53.1398 69.15C53.1847 68.9694 53.1847 68.7806 53.1398 68.6C53.3335 68.6435 53.5312 68.667 53.7298 68.67C54.0536 68.6869 54.3728 68.5876 54.6298 68.39C54.8189 68.2293 54.978 68.0363 55.0998 67.82C55.199 67.5997 55.3532 67.4085 55.5476 67.2649C55.742 67.1213 55.97 67.0301 56.2098 67C57.3898 66.88 57.7198 66.8 58.2998 66.19C58.6924 65.8677 59.1929 65.7068 59.6998 65.74C59.7177 65.7516 59.7385 65.7578 59.7598 65.7578C59.7811 65.7578 59.8019 65.7516 59.8198 65.74C59.8323 65.7206 59.8389 65.6981 59.8389 65.675C59.8389 65.6519 59.8323 65.6294 59.8198 65.61C59.6984 65.3442 59.512 65.1133 59.2778 64.9385C59.0436 64.7637 58.7692 64.6508 58.4798 64.61C57.895 64.5234 57.3488 64.266 56.9098 63.87L56.7698 63.76C56.3347 63.4657 55.8139 63.3249 55.2898 63.36C55.0453 63.3511 54.8015 63.3277 54.5598 63.29C54.1753 63.1803 53.829 62.9656 53.5598 62.67C53.3706 62.442 53.1157 62.2778 52.8298 62.2H52.7198C52.3262 62.1011 51.9137 62.1063 51.5228 62.215C51.1318 62.3237 50.7758 62.5322 50.4898 62.82V62.87C49.5698 63.64 48.8498 64.26 47.8898 64.24C47.8371 64.24 47.7853 64.2538 47.7397 64.2801C47.694 64.3065 47.6561 64.3444 47.6298 64.39C47.6024 64.4353 47.588 64.4871 47.588 64.54C47.588 64.5929 47.6024 64.6447 47.6298 64.69C47.8572 65.0017 48.186 65.2245 48.5598 65.32C49.315 65.5012 50.0065 65.885 50.5598 66.43C50.8598 66.6972 51.2221 66.8849 51.6135 66.9757C52.0048 67.0666 52.4127 67.0577 52.7998 66.95C53.1664 66.8472 53.4862 66.6208 53.7049 66.3091C53.9236 65.9974 54.0278 65.6197 53.9998 65.24C53.9614 65.0538 53.8834 64.878 53.7713 64.7245C53.6592 64.571 53.5155 64.4433 53.3498 64.35C53.1984 64.2667 53.0314 64.2157 52.8592 64.2002C52.6871 64.1847 52.5136 64.2051 52.3498 64.26C52.1484 64.3348 51.9765 64.4724 51.8594 64.6525C51.7423 64.8326 51.6864 65.0456 51.6998 65.26C51.6956 65.3972 51.7363 65.5319 51.8157 65.6438C51.8952 65.7558 52.0089 65.8387 52.1398 65.88C52.2428 65.9165 52.3526 65.9301 52.4614 65.9197C52.5703 65.9093 52.6755 65.8753 52.7698 65.82C52.8473 65.7602 52.9113 65.6848 52.9578 65.5986C53.0043 65.5125 53.0323 65.4176 53.0398 65.32C53.0412 65.3029 53.0391 65.2857 53.0338 65.2694C53.0285 65.2531 53.0201 65.2381 53.0089 65.225C52.9978 65.212 52.9841 65.2014 52.9689 65.1936C52.9536 65.1859 52.9369 65.1813 52.9198 65.18C52.9019 65.1786 52.8839 65.181 52.867 65.1869C52.85 65.1928 52.8345 65.2021 52.8213 65.2143C52.8082 65.2266 52.7977 65.2414 52.7906 65.2578C52.7834 65.2743 52.7797 65.292 52.7798 65.31C52.761 65.422 52.7045 65.5243 52.6198 65.6C52.5569 65.6281 52.4887 65.6427 52.4198 65.6427C52.3509 65.6427 52.2827 65.6281 52.2198 65.6C52.1425 65.5743 52.0756 65.5245 52.0288 65.4579C51.982 65.3913 51.9578 65.3114 51.9598 65.23C51.9617 65.0802 52.0085 64.9344 52.0941 64.8114C52.1796 64.6885 52.3 64.5939 52.4398 64.54C52.5672 64.4971 52.7019 64.4803 52.8359 64.4906C52.9699 64.5009 53.1005 64.5381 53.2198 64.6C53.3538 64.6747 53.4698 64.7779 53.5597 64.9023C53.6495 65.0267 53.711 65.1693 53.7398 65.32C53.8598 65.87 53.2798 66.53 52.7398 66.69C52.3962 66.7897 52.0331 66.8016 51.6838 66.7248C51.3344 66.6479 51.0098 66.4847 50.7398 66.25C50.1497 65.636 49.397 65.2024 48.5698 65C48.2563 64.9188 47.9807 64.7316 47.7898 64.47C48.8617 64.3471 49.851 63.8346 50.5698 63.03C50.8244 62.7687 51.143 62.5786 51.4939 62.4786C51.8447 62.3786 52.2157 62.3722 52.5698 62.46H52.6798C52.9097 62.5362 53.1139 62.6747 53.2698 62.86C53.5798 63.2045 53.9883 63.4454 54.4398 63.55C54.6877 63.5922 54.9384 63.6156 55.1898 63.62C55.6635 63.5937 56.1331 63.7199 56.5298 63.98L56.6698 64.08C57.1402 64.51 57.729 64.7887 58.3598 64.88C58.5592 64.9083 58.7508 64.977 58.9227 65.0819C59.0947 65.1867 59.2434 65.3256 59.3598 65.49C58.8931 65.5077 58.4474 65.6881 58.0998 66C57.5898 66.54 57.2998 66.61 56.1798 66.72C55.886 66.7411 55.603 66.839 55.359 67.004C55.1151 67.169 54.9188 67.3952 54.7898 67.66C54.6817 67.8483 54.5469 68.0201 54.3898 68.17C53.8898 68.57 52.9598 68.28 52.9498 68.28L52.7898 68C52.4129 67.6405 51.9357 67.404 51.4214 67.3219C50.9071 67.2397 50.3799 67.3158 49.9098 67.54C49.7281 67.6296 49.5599 67.744 49.4098 67.88H49.3498C49.1799 67.923 49.0028 67.9291 48.8303 67.8981C48.6579 67.867 48.494 67.7995 48.3498 67.7C47.7961 67.1895 47.097 66.8644 46.3498 66.77C46.0412 66.7503 45.7422 66.6552 45.4789 66.4931C45.2157 66.331 44.9962 66.1067 44.8398 65.84L44.7098 65.67C44.3625 65.2838 43.9362 64.9768 43.4598 64.77C44.2036 64.4516 44.859 63.9575 45.3698 63.33V63.28C45.5698 63.05 45.7098 62.89 46.7798 62.66C46.9053 62.6352 47.0289 62.6017 47.1498 62.56C47.6356 62.4156 48.0695 62.1344 48.3998 61.75C48.5398 61.61 48.6898 61.47 48.8698 61.32C50.0611 60.5473 51.4498 60.1341 52.8698 60.13C54.052 60.182 55.175 60.6618 56.0298 61.48C56.2498 61.65 56.4298 61.8 56.5998 61.91C57.0497 62.1597 57.5354 62.3385 58.0398 62.44C58.4428 62.5187 58.8309 62.6605 59.1898 62.86C59.3878 63.0208 59.5718 63.1981 59.7398 63.39C60.1399 63.9007 60.6726 64.2916 61.2798 64.52C61.9503 64.8036 62.5637 65.2068 63.0898 65.71C62.7619 65.7351 62.4424 65.8259 62.1503 65.9771C61.8582 66.1283 61.5996 66.3367 61.3898 66.59C61.2592 66.7669 61.0929 66.9144 60.9017 67.0229C60.7105 67.1314 60.4986 67.1986 60.2798 67.22C59.9525 67.3177 59.6718 67.5309 59.4898 67.82ZM70.6498 71.18C70.4606 71.3222 70.2803 71.4759 70.1098 71.64C69.3498 72.32 68.2098 73.34 67.0398 73.25C65.0463 72.9302 63.1517 72.1608 61.4998 71C62.4116 70.9126 63.2792 70.5655 63.9998 70C64.8898 69.22 66.3298 68.48 67.4598 69C67.6318 69.0718 67.7842 69.1837 67.9042 69.3264C68.0242 69.469 68.1084 69.6382 68.1498 69.82C68.2135 70.0504 68.2303 70.2912 68.1994 70.5282C68.1685 70.7652 68.0904 70.9936 67.9698 71.2C67.7687 71.4286 67.4956 71.5819 67.1957 71.6346C66.8958 71.6874 66.5868 71.6363 66.3198 71.49C66.2336 71.4449 66.1574 71.383 66.0955 71.3079C66.0336 71.2329 65.9873 71.1463 65.9594 71.0531C65.9314 70.96 65.9224 70.8622 65.9327 70.7655C65.9431 70.6688 65.9727 70.5751 66.0198 70.49C66.0783 70.3747 66.1698 70.2795 66.2827 70.2165C66.3955 70.1535 66.5246 70.1256 66.6534 70.1363C66.7822 70.1471 66.9049 70.196 67.0058 70.2768C67.1067 70.3576 67.1812 70.4666 67.2198 70.59C67.2331 70.6218 67.2584 70.6471 67.2903 70.6602C67.3222 70.6733 67.358 70.6733 67.3898 70.66C67.4223 70.6447 67.4478 70.6175 67.4608 70.584C67.4738 70.5505 67.4735 70.5133 67.4598 70.48C67.3717 70.2772 67.219 70.1093 67.0254 70.0026C66.8318 69.8958 66.6083 69.8562 66.3898 69.89C66.1356 69.9613 65.9199 70.1303 65.7898 70.36C65.6773 70.5883 65.656 70.8508 65.7303 71.0942C65.8046 71.3376 65.969 71.5435 66.1898 71.67C66.5142 71.8472 66.8895 71.9081 67.2533 71.8426C67.6171 71.7771 67.9475 71.5892 68.1898 71.31C68.473 70.8235 68.5521 70.2446 68.4098 69.7C68.356 69.4785 68.2511 69.2728 68.1035 69.0991C67.9559 68.9255 67.7697 68.7888 67.5598 68.7C66.3198 68.16 64.7798 68.95 63.8298 69.78L63.6598 69.92C63.3411 69.4785 62.9829 69.0668 62.5898 68.69C62.0615 68.199 61.457 67.7971 60.7998 67.5C61.1637 67.3949 61.4811 67.1692 61.6998 66.86C62.0767 66.4115 62.6162 66.1309 63.1998 66.08C63.2583 66.0768 63.3144 66.056 63.3608 66.0203C63.4072 65.9846 63.4417 65.9357 63.4598 65.88C63.4797 65.8263 63.4828 65.7679 63.4685 65.7124C63.4542 65.657 63.4232 65.6073 63.3798 65.57C63.1202 65.3304 62.8463 65.1067 62.5598 64.9C62.7583 64.8296 62.9623 64.7761 63.1698 64.74C63.7912 64.6033 64.4411 64.6956 64.9998 65C65.3957 65.2424 65.7587 65.5348 66.0798 65.87C66.6331 66.531 67.4149 66.9594 68.2698 67.07C70.0198 67.32 70.2698 67.45 70.8298 68.34C71.3883 69.1067 72.0631 69.7815 72.8298 70.34C72.0612 70.4959 71.3243 70.7799 70.6498 71.18Z" fill="#8BE7F5"/>
<path d="M42.0699 35V17C42.0699 16.7348 41.9645 16.4804 41.777 16.2929C41.5895 16.1054 41.3351 16 41.0699 16C40.8047 16 40.5503 16.1054 40.3628 16.2929C40.1752 16.4804 40.0699 16.7348 40.0699 17V27.89C36.1799 20.28 27.0699 16.25 17.8799 21.3C15.4141 22.69 13.4138 24.7773 12.1299 27.3V17.06C12.1299 16.7948 12.0245 16.5404 11.837 16.3529C11.6495 16.1654 11.3951 16.06 11.1299 16.06C10.8647 16.06 10.6103 16.1654 10.4228 16.3529C10.2352 16.5404 10.1299 16.7948 10.1299 17.06V35C9.59945 35 9.09074 35.2107 8.71567 35.5858C8.3406 35.9609 8.12988 36.4696 8.12988 37V43C8.12988 43.5304 8.3406 44.0391 8.71567 44.4142C9.09074 44.7893 9.59945 45 10.1299 45H10.3899C10.6 45.7523 11.0152 46.4314 11.5892 46.9612C12.1631 47.491 12.8732 47.8507 13.6399 48C17.712 48.6157 21.8218 48.9499 25.9399 49C30.1742 48.9509 34.4004 48.6168 38.5899 48C39.3561 47.8496 40.0656 47.4895 40.6394 46.9599C41.2132 46.4302 41.6288 45.7518 41.8399 45H42.0699C42.6003 45 43.109 44.7893 43.4841 44.4142C43.8592 44.0391 44.0699 43.5304 44.0699 43V37C44.0699 36.4696 43.8592 35.9609 43.4841 35.5858C43.109 35.2107 42.6003 35 42.0699 35ZM37.9999 40.85C37.9999 41.3804 37.7892 41.8891 37.4141 42.2642C37.039 42.6393 36.5303 42.85 35.9999 42.85C35.9999 42.85 28.4799 43.15 25.9999 43.15C23.5199 43.15 16.0699 42.85 16.0699 42.85C15.6341 42.8426 15.2126 42.693 14.8697 42.4241C14.5267 42.1551 14.281 41.7815 14.1699 41.36C14.1154 41.1983 14.0817 41.0303 14.0699 40.86V36.86C14.0724 36.5673 14.1059 36.2757 14.1699 35.99C14.3609 35.1107 14.8429 34.3215 15.5378 33.7499C16.2328 33.1783 17.1002 32.8577 17.9999 32.84C17.9999 32.84 23.9999 32.73 25.9999 32.73C27.9999 32.73 33.9299 32.84 33.9299 32.84C34.9907 32.84 36.0082 33.2614 36.7583 34.0116C37.5085 34.7617 37.9299 35.7791 37.9299 36.84L37.9999 40.85Z" fill="#006FE6"/>
<path d="M31.98 39.54C33.0845 39.54 33.98 38.6445 33.98 37.54C33.98 36.4354 33.0845 35.54 31.98 35.54C30.8754 35.54 29.98 36.4354 29.98 37.54C29.98 38.6445 30.8754 39.54 31.98 39.54Z" fill="#006FE6"/>
<path d="M20.0098 39.54C21.1143 39.54 22.0098 38.6445 22.0098 37.54C22.0098 36.4354 21.1143 35.54 20.0098 35.54C18.9052 35.54 18.0098 36.4354 18.0098 37.54C18.0098 38.6445 18.9052 39.54 20.0098 39.54Z" fill="#006FE6"/>
<path d="M66.4199 60.37C66.5199 60.37 66.5799 60.37 66.5599 60.37C66.5399 60.37 66.4699 60.33 66.4199 60.37Z" fill="#006FE6"/>
<path d="M71.6 55.25H63.6C63.2464 55.2526 62.9081 55.395 62.659 55.646C62.4098 55.897 62.27 56.2363 62.27 56.59V62.36C62.2701 62.5224 62.3151 62.6816 62.4 62.82C62.4716 62.947 62.5726 63.055 62.6946 63.1348C62.8166 63.2147 62.9561 63.264 63.1011 63.2787C63.2462 63.2934 63.3927 63.2731 63.5282 63.2193C63.6638 63.1656 63.7844 63.0801 63.88 62.97L64.56 62.3H71.62C71.9659 62.2975 72.2972 62.1603 72.5436 61.9176C72.79 61.6749 72.9322 61.3458 72.94 61V56.58C72.94 56.4045 72.9053 56.2307 72.8378 56.0687C72.7704 55.9067 72.6715 55.7596 72.5469 55.636C72.4224 55.5123 72.2746 55.4146 72.1121 55.3483C71.9495 55.2821 71.7755 55.2487 71.6 55.25Z" fill="#A36C29"/>
<path d="M78.2902 61.93H77.0002V56.58H78.3402C78.6956 56.58 79.0364 56.4388 79.2877 56.1875C79.539 55.9362 79.6802 55.5954 79.6802 55.24C79.6802 54.8846 79.539 54.5438 79.2877 54.2925C79.0364 54.0412 78.6956 53.9 78.3402 53.9H77.0002V52.57C77.0002 51.861 76.7192 51.1808 76.2188 50.6785C75.7184 50.1762 75.0393 49.8927 74.3302 49.89H72.9402V48.56C72.9402 48.2046 72.799 47.8638 72.5477 47.6125C72.2964 47.3612 71.9556 47.22 71.6002 47.22C71.2448 47.22 70.904 47.3612 70.6527 47.6125C70.4014 47.8638 70.2602 48.2046 70.2602 48.56V49.89H64.9102V48.56C64.9263 48.375 64.9036 48.1887 64.8438 48.0128C64.784 47.837 64.6883 47.6755 64.5628 47.5387C64.4373 47.4018 64.2846 47.2925 64.1146 47.2177C63.9446 47.143 63.7609 47.1044 63.5752 47.1044C63.3895 47.1044 63.2058 47.143 63.0358 47.2177C62.8658 47.2925 62.7132 47.4018 62.5877 47.5387C62.4621 47.6755 62.3664 47.837 62.3066 48.0128C62.2468 48.1887 62.2242 48.375 62.2402 48.56V49.89H60.9002C60.1912 49.8927 59.5121 50.1762 59.0116 50.6785C58.5112 51.1808 58.2302 51.861 58.2302 52.57V53.9H56.8902C56.5348 53.9 56.194 54.0412 55.9427 54.2925C55.6914 54.5438 55.5502 54.8846 55.5502 55.24C55.5502 55.5954 55.6914 55.9362 55.9427 56.1875C56.194 56.4388 56.5348 56.58 56.8902 56.58H58.2302V61.93H56.8902C56.7052 61.914 56.5189 61.9366 56.343 61.9964C56.1672 62.0562 56.0057 62.1519 55.8689 62.2775C55.732 62.403 55.6227 62.5556 55.5479 62.7256C55.4732 62.8956 55.4346 63.0793 55.4346 63.265C55.4346 63.4507 55.4732 63.6344 55.5479 63.8044C55.6227 63.9744 55.732 64.1271 55.8689 64.2526C56.0057 64.3781 56.1672 64.4738 56.343 64.5336C56.5189 64.5934 56.7052 64.616 56.8902 64.6H58.2302V65.94C58.2302 66.2907 58.2993 66.6378 58.4335 66.9618C58.5676 67.2857 58.7643 67.5801 59.0122 67.828C59.2602 68.0759 59.5545 68.2726 59.8785 68.4068C60.2024 68.541 60.5496 68.61 60.9002 68.61H62.2402V70C62.2242 70.185 62.2468 70.3714 62.3066 70.5472C62.3664 70.723 62.4621 70.8845 62.5877 71.0214C62.7132 71.1583 62.8658 71.2675 63.0358 71.3423C63.2058 71.4171 63.3895 71.4557 63.5752 71.4557C63.7609 71.4557 63.9446 71.4171 64.1146 71.3423C64.2846 71.2675 64.4373 71.1583 64.5628 71.0214C64.6883 70.8845 64.784 70.723 64.8438 70.5472C64.9036 70.3714 64.9263 70.185 64.9102 70V68.61H70.2602V70C70.2602 70.3554 70.4014 70.6962 70.6527 70.9475C70.904 71.1988 71.2448 71.34 71.6002 71.34C71.9556 71.34 72.2964 71.1988 72.5477 70.9475C72.799 70.6962 72.9402 70.3554 72.9402 70V68.61H74.2802C74.635 68.6167 74.9876 68.5525 75.3173 68.4213C75.6471 68.2901 75.9473 68.0945 76.2006 67.8459C76.4539 67.5973 76.655 67.3007 76.7923 66.9735C76.9296 66.6462 77.0003 66.2949 77.0002 65.94V64.6H78.3402C78.6743 64.5711 78.9855 64.4179 79.2121 64.1707C79.4388 63.9236 79.5646 63.6004 79.5646 63.265C79.5646 62.9296 79.4388 62.6065 79.2121 62.3593C78.9855 62.1121 78.6743 61.959 78.3402 61.93H78.2902ZM71.5902 62.34H64.5302L63.8502 63.01C63.7546 63.1201 63.634 63.2056 63.4984 63.2594C63.3629 63.3131 63.2164 63.3335 63.0713 63.3188C62.9263 63.3041 62.7868 63.2547 62.6648 63.1749C62.5428 63.095 62.4418 62.9871 62.3702 62.86C62.2853 62.7216 62.2403 62.5624 62.2402 62.4V56.59C62.2402 56.2364 62.38 55.897 62.6292 55.646C62.8783 55.395 63.2166 55.2527 63.5702 55.25H71.5702C71.923 55.25 72.2612 55.3901 72.5107 55.6396C72.7601 55.889 72.9002 56.2273 72.9002 56.58V61C72.9029 61.351 72.7667 61.6889 72.5213 61.9399C72.2759 62.1909 71.9412 62.3348 71.5902 62.34Z" fill="#FFA940"/>
</svg>
