<svg width="88" height="88" viewBox="0 0 88 88" fill="none" xmlns="http://www.w3.org/2000/svg">
<circle cx="44" cy="44" r="32" stroke="#AFD6FF" stroke-linecap="round" stroke-dasharray="2 2"/>
<g filter="url(#filter0_d)">
<rect x="8" y="8" width="36" height="36" rx="18" fill="white"/>
<path fill-rule="evenodd" clip-rule="evenodd" d="M19.4545 16.1818C18.0989 16.1818 17 17.2808 17 18.6364V30.9091C17 32.2647 18.0989 33.3636 19.4545 33.3636H30.0909L33.0415 35.5767C33.2458 35.7284 33.4988 35.8182 33.7727 35.8182C34.4505 35.8182 35 35.2687 35 34.5909V18.6364C35 17.2808 33.9011 16.1818 32.5455 16.1818H19.4545ZM29.6818 19.4546C30.8115 19.4546 31.7273 20.3703 31.7273 21.5C31.7273 22.6297 30.8115 23.5455 29.6818 23.5455H24.3636V28.8636C24.3636 29.9933 23.4479 30.9091 22.3182 30.9091C21.1885 30.9091 20.2727 29.9933 20.2727 28.8636V21.5C20.2727 20.3703 21.1885 19.4546 22.3182 19.4546L29.6818 19.4546ZM27.2273 28.4545C28.3569 28.4545 29.2727 27.5388 29.2727 26.4091C29.2727 25.2794 28.3569 24.3636 27.2273 24.3636C26.0976 24.3636 25.1818 25.2794 25.1818 26.4091C25.1818 27.5388 26.0976 28.4545 27.2273 28.4545Z" fill="#3797FF"/>
</g>
<circle cx="64" cy="64" r="17" fill="url(#paint0_radial)"/>
<circle cx="64" cy="64" r="17" fill="url(#paint1_radial)"/>
<path d="M64.0002 54.8461C61.5142 54.8461 61.2022 54.857 60.2257 54.9014C59.2512 54.9461 58.586 55.1003 58.004 55.3267C57.4019 55.5605 56.8912 55.8733 56.3824 56.3823C55.8732 56.8911 55.5605 57.4018 55.3259 58.0036C55.099 58.5859 54.9445 59.2512 54.9006 60.2254C54.8571 61.2018 54.8457 61.5139 54.8457 64C54.8457 66.486 54.8568 66.797 54.901 67.7735C54.9458 68.748 55.1001 69.4131 55.3263 69.9952C55.5603 70.5972 55.873 71.1079 56.382 71.6167C56.8907 72.1259 57.4014 72.4394 58.0031 72.6732C58.5855 72.8996 59.2508 73.0539 60.2252 73.0985C61.2016 73.143 61.5134 73.1538 63.9993 73.1538C66.4855 73.1538 66.7966 73.143 67.773 73.0985C68.7475 73.0539 69.4134 72.8996 69.9959 72.6732C70.5977 72.4394 71.1077 72.1259 71.6163 71.6167C72.1255 71.1079 72.4382 70.5972 72.6728 69.9954C72.8978 69.4131 73.0523 68.7478 73.0981 67.7737C73.142 66.7972 73.1534 66.486 73.1534 64C73.1534 61.5139 73.142 61.202 73.0981 60.2255C73.0523 59.251 72.8978 58.5859 72.6728 58.0038C72.4382 57.4018 72.1255 56.8911 71.6163 56.3823C71.1071 55.8731 70.5979 55.5603 69.9953 55.3267C69.4117 55.1003 68.7462 54.9461 67.7716 54.9014C66.7952 54.857 66.4844 54.8461 63.9975 54.8461H64.0002ZM63.179 56.4957C63.4228 56.4953 63.6947 56.4957 64.0002 56.4957C66.4443 56.4957 66.734 56.5045 67.6992 56.5484C68.5917 56.5892 69.0761 56.7383 69.3988 56.8636C69.8259 57.0295 70.1305 57.2278 70.4507 57.5482C70.7711 57.8686 70.9694 58.1737 71.1357 58.6009C71.261 58.9232 71.4103 59.4076 71.451 60.3001C71.4948 61.2651 71.5044 61.5549 71.5044 63.9979C71.5044 66.4408 71.4948 66.7307 71.451 67.6957C71.4101 68.5882 71.261 69.0725 71.1357 69.3948C70.9698 69.822 70.7711 70.1262 70.4507 70.4464C70.1303 70.7668 69.8261 70.9651 69.3988 71.131C69.0765 71.2569 68.5917 71.4056 67.6992 71.4464C66.7342 71.4903 66.4443 71.4998 64.0002 71.4998C61.5559 71.4998 61.2662 71.4903 60.3013 71.4464C59.4088 71.4052 58.9244 71.2561 58.6015 71.1308C58.1743 70.9649 57.8692 70.7666 57.5488 70.4462C57.2284 70.1258 57.0301 69.8214 56.8638 69.3941C56.7385 69.0718 56.5891 68.5874 56.5485 67.6949C56.5047 66.7299 56.4959 66.44 56.4959 63.9956C56.4959 61.5511 56.5047 61.2628 56.5485 60.2978C56.5893 59.4053 56.7385 58.9209 56.8638 58.5983C57.0297 58.1711 57.2284 57.8659 57.5488 57.5456C57.8692 57.2252 58.1743 57.0268 58.6015 56.8605C58.9242 56.7347 59.4088 56.5859 60.3013 56.5449C61.1457 56.5068 61.473 56.4953 63.179 56.4934V56.4957ZM68.8865 58.0156C68.6692 58.0156 68.4568 58.0801 68.2762 58.2008C68.0955 58.3215 67.9548 58.4931 67.8716 58.6938C67.7885 58.8946 67.7668 59.1155 67.8092 59.3286C67.8516 59.5416 67.9563 59.7374 68.1099 59.891C68.2636 60.0446 68.4593 60.1492 68.6724 60.1915C68.8856 60.2339 69.1064 60.212 69.3071 60.1288C69.5079 60.0457 69.6794 59.9048 69.8 59.7241C69.9207 59.5434 69.9851 59.331 69.985 59.1137C69.985 58.5073 69.493 58.0153 68.8865 58.0153V58.0156ZM64.0002 59.2991C61.4041 59.2991 59.2993 61.4039 59.2993 64C59.2993 66.596 61.4041 68.6999 64.0002 68.6999C66.5963 68.6999 68.7006 66.596 68.7006 64C68.7006 61.4039 66.5961 59.2991 64 59.2991H64.0002ZM64.0002 60.9487C65.6853 60.9487 67.0515 62.3147 67.0515 64C67.0515 65.685 65.6853 67.0513 64.0002 67.0513C62.3149 67.0513 60.9489 65.685 60.9489 64C60.9489 62.3147 62.3149 60.9487 64.0002 60.9487Z" fill="white"/>
<defs>
<filter id="filter0_d" x="4" y="6" width="44" height="44" filterUnits="userSpaceOnUse" color-interpolation-filters="sRGB">
<feFlood flood-opacity="0" result="BackgroundImageFix"/>
<feColorMatrix in="SourceAlpha" type="matrix" values="0 0 0 0 0 0 0 0 0 0 0 0 0 0 0 0 0 0 127 0" result="hardAlpha"/>
<feOffset dy="2"/>
<feGaussianBlur stdDeviation="2"/>
<feColorMatrix type="matrix" values="0 0 0 0 0.537255 0 0 0 0 0.580392 0 0 0 0 0.623529 0 0 0 0.32 0"/>
<feBlend mode="normal" in2="BackgroundImageFix" result="effect1_dropShadow"/>
<feBlend mode="normal" in="SourceGraphic" in2="effect1_dropShadow" result="shape"/>
</filter>
<radialGradient id="paint0_radial" cx="0" cy="0" r="1" gradientUnits="userSpaceOnUse" gradientTransform="translate(56.0313 83.6187) rotate(-90) scale(33.6965 31.3404)">
<stop stop-color="#FFDD55"/>
<stop offset="0.1" stop-color="#FFDD55"/>
<stop offset="0.5" stop-color="#FF543E"/>
<stop offset="1" stop-color="#C837AB"/>
</radialGradient>
<radialGradient id="paint1_radial" cx="0" cy="0" r="1" gradientUnits="userSpaceOnUse" gradientTransform="translate(41.3048 49.4493) rotate(78.6806) scale(15.0625 62.0882)">
<stop stop-color="#3771C8"/>
<stop offset="0.128" stop-color="#3771C8"/>
<stop offset="1" stop-color="#6600FF" stop-opacity="0"/>
</radialGradient>
</defs>
</svg>
