<?xml version="1.0" encoding="UTF-8"?>
<svg width="738px" height="310px" viewBox="0 0 738 310" version="1.1" xmlns="http://www.w3.org/2000/svg" xmlns:xlink="http://www.w3.org/1999/xlink">
    <!-- Generator: sketchtool 51 (57462) - http://www.bohemiancoding.com/sketch -->
    <title>82977D20-016D-4436-8E90-3962DC7C12FD</title>
    <desc>Created with sketchtool.</desc>
    <defs>
        <linearGradient x1="50%" y1="0%" x2="50%" y2="118.975371%" id="linearGradient-1">
            <stop stop-color="#00CCE9" offset="0%"></stop>
            <stop stop-color="#1D6DCC" offset="39.0166614%"></stop>
            <stop stop-color="#0044AA" offset="100%"></stop>
        </linearGradient>
        <linearGradient x1="20.2950743%" y1="100%" x2="66.2276371%" y2="20.7248264%" id="linearGradient-2">
            <stop stop-color="#FFFFFF" offset="0%"></stop>
            <stop stop-color="#D4EDFF" offset="100%"></stop>
        </linearGradient>
        <linearGradient x1="63.5354366%" y1="-75.6712148%" x2="40.7782784%" y2="154.609608%" id="linearGradient-3">
            <stop stop-color="#FFFFFF" offset="0%"></stop>
            <stop stop-color="#5098E0" offset="100%"></stop>
        </linearGradient>
        <linearGradient x1="93.8979539%" y1="-63.8811997%" x2="20.0305362%" y2="110.385532%" id="linearGradient-4">
            <stop stop-color="#FFFFFF" offset="0%"></stop>
            <stop stop-color="#5098E0" offset="100%"></stop>
        </linearGradient>
        <linearGradient x1="110.484096%" y1="99.9994993%" x2="-15.7826451%" y2="99.9994993%" id="linearGradient-5">
            <stop stop-color="#FFFFFF" offset="0%"></stop>
            <stop stop-color="#5098E0" offset="100%"></stop>
        </linearGradient>
        <linearGradient x1="100%" y1="0%" x2="0%" y2="108.648682%" id="linearGradient-6">
            <stop stop-color="#FFFFFF" offset="0%"></stop>
            <stop stop-color="#5098E0" offset="100%"></stop>
        </linearGradient>
        <linearGradient x1="77.5137166%" y1="60.3902244%" x2="-5.85639313%" y2="100%" id="linearGradient-7">
            <stop stop-color="#FFFFFF" offset="0%"></stop>
            <stop stop-color="#5098E0" offset="100%"></stop>
        </linearGradient>
        <linearGradient x1="78.3464653%" y1="102.182804%" x2="37.2035218%" y2="0%" id="linearGradient-8">
            <stop stop-color="#092F97" offset="0%"></stop>
            <stop stop-color="#3F9CFF" offset="100%"></stop>
        </linearGradient>
        <linearGradient x1="84.4537971%" y1="140.98436%" x2="34.2670638%" y2="-15.6509417%" id="linearGradient-9">
            <stop stop-color="#092F97" offset="0%"></stop>
            <stop stop-color="#007CFF" offset="100%"></stop>
        </linearGradient>
        <linearGradient x1="-197.370681%" y1="-240.404056%" x2="179.677688%" y2="250.094464%" id="linearGradient-10">
            <stop stop-color="#80F0FF" offset="0%"></stop>
            <stop stop-color="#007CFF" offset="100%"></stop>
        </linearGradient>
        <linearGradient x1="50%" y1="0%" x2="50%" y2="100%" id="linearGradient-11">
            <stop stop-color="#FFFFFF" offset="0%"></stop>
            <stop stop-color="#D4EDFF" offset="100%"></stop>
        </linearGradient>
        <linearGradient x1="50%" y1="12.1702662%" x2="50%" y2="87.2187234%" id="linearGradient-12">
            <stop stop-color="#D4EDFF" offset="0%"></stop>
            <stop stop-color="#5098E0" offset="100%"></stop>
        </linearGradient>
        <linearGradient x1="46.4682821%" y1="13.4202217%" x2="50%" y2="79.3944108%" id="linearGradient-13">
            <stop stop-color="#FFFFFF" offset="0%"></stop>
            <stop stop-color="#D4EDFF" offset="100%"></stop>
        </linearGradient>
        <linearGradient x1="101.250279%" y1="100%" x2="0%" y2="0%" id="linearGradient-14">
            <stop stop-color="#001B8A" offset="0%"></stop>
            <stop stop-color="#003CC1" offset="47.5247532%"></stop>
            <stop stop-color="#2A90FF" offset="100%"></stop>
        </linearGradient>
        <linearGradient x1="0%" y1="2.98507463%" x2="100%" y2="100%" id="linearGradient-15">
            <stop stop-color="#007CFF" offset="0%"></stop>
            <stop stop-color="#001B8A" offset="100%"></stop>
        </linearGradient>
        <linearGradient x1="50%" y1="-17.0572917%" x2="51.8996711%" y2="73.6751302%" id="linearGradient-16">
            <stop stop-color="#FFFFFF" offset="0%"></stop>
            <stop stop-color="#B9E2FF" offset="100%"></stop>
        </linearGradient>
        <linearGradient x1="95.161394%" y1="0.150855258%" x2="0%" y2="0.150855258%" id="linearGradient-17">
            <stop stop-color="#001B8A" offset="0%"></stop>
            <stop stop-color="#003CC1" offset="47.5247532%"></stop>
            <stop stop-color="#2662CF" offset="100%"></stop>
        </linearGradient>
        <linearGradient x1="18.2597094%" y1="25%" x2="82.6043274%" y2="25%" id="linearGradient-18">
            <stop stop-color="#80F0FF" offset="0%"></stop>
            <stop stop-color="#007CFF" offset="100%"></stop>
        </linearGradient>
        <linearGradient x1="49.9938203%" y1="2.38810338%" x2="49.9938203%" y2="85.025492%" id="linearGradient-19">
            <stop stop-color="#2A90FF" offset="0%"></stop>
            <stop stop-color="#1D6DCC" offset="16%"></stop>
            <stop stop-color="#0044AA" offset="67%"></stop>
        </linearGradient>
        <linearGradient x1="47.9835421%" y1="100%" x2="47.9835421%" y2="34.2410324%" id="linearGradient-20">
            <stop stop-color="#001B8A" offset="0%"></stop>
            <stop stop-color="#003CC1" offset="47.5247532%"></stop>
            <stop stop-color="#2A90FF" offset="100%"></stop>
        </linearGradient>
    </defs>
    <g id="Symbols" stroke="none" stroke-width="1" fill="none" fill-rule="evenodd">
        <g id="Illustrations/release-2">
            <g id="Group">
                <path d="M39.386652,265.574831 C39.1988598,257.187049 39.6367786,229.378516 64.4592777,202.289054 C87.6026936,177.03177 123.53965,173.692451 136.987308,181.140869 C126.728172,166.009608 130.259139,129.065125 148.639103,104.073856 C178.246358,63.8166566 218.908893,70.6216504 229.162504,72.0215539 C229.579119,67.6040438 231.366301,55.9991435 238.982143,43.2179585 C247.712902,28.5588745 266.107069,9.6119628 304.144458,2.58002499 C346.587862,-5.26492087 374.497096,6.26350016 390.43734,17.3122631 C404.511497,27.0666972 411.878791,37.9467069 414.315355,42.0150724 C422.346233,36.0696392 462.469851,9.46316071 506.225433,34.9374132 C525.932568,46.4109687 536.710893,61.9462393 542.552177,76.4149563 C558.606832,71.5219446 571.172339,77.1997003 576.361085,80.2730038 C576.361085,80.2730038 617.771632,63.1383186 642.310865,99.8691581 C666.852465,136.599166 646.790261,166.98555 646.790261,166.98555 C646.790261,166.98555 680.898217,167.941542 709.981547,203.594189 C752.54094,255.768857 733.964504,308.854626 733.964504,308.854626 L1.58045283,308.854626 C0.707771438,308.854626 0,308.108121 0,307.188707 C0,275.171319 32.1408715,267.006324 39.386652,265.574831" id="bg-" fill="url(#linearGradient-1)"></path>
                <path d="M107,309 L107,309 C107,301.348086 113.203102,295.144983 120.855017,295.144983 L124.720627,295.144983 C135.701829,295.144983 145.864916,289.339953 151.443422,279.881249 L173.522842,242.444227 C179.230916,232.765835 189.63005,226.825977 200.866302,226.825977 L243.633171,226.825977 C247.666373,226.825977 251.363075,224.577279 253.217644,220.995759 L270.282333,188.040636 C275.736946,177.506752 286.609599,170.892936 298.471957,170.892936 L331.844099,170.892936 C336.96436,170.892936 341.556338,167.740976 343.396959,162.962986 L358.563636,123.59245 C363.807571,109.979943 376.890127,101 391.477765,101 L411.512546,101 C423.418699,101 434.323811,107.662252 439.757962,118.255952 L444.493546,127.487817 C449.927697,138.081517 460.832809,144.743769 472.738961,144.743769 L545.200674,144.743769 C556.668289,144.743769 567.244433,150.928631 572.867363,160.923073 L628.516588,259.836458 C630.078513,262.612692 633.01633,264.330709 636.201779,264.330709 L659.030798,264.330709 C669.301497,264.330709 678.937554,269.299773 684.893318,277.667339 L690.128446,285.022446 C696.08421,293.390011 705.720266,298.359075 715.990966,298.359075 L723.359075,298.359075 C729.235896,298.359075 734,303.12318 734,309 L107,309 Z" id="mount-1" fill="url(#linearGradient-2)" opacity="0.361186594" transform="translate(420.500000, 205.000000) scale(-1, 1) translate(-420.500000, -205.000000) "></path>
                <path d="M2,309 L2,309 C2,301.348086 8.20310228,295.144983 15.8550167,295.144983 L19.7206269,295.144983 C30.7018292,295.144983 40.8649157,289.339953 46.4434224,279.881249 L68.5228424,242.444227 C74.2309156,232.765835 84.6300502,226.825977 95.8663021,226.825977 L138.633171,226.825977 C142.666373,226.825977 146.363075,224.577279 148.217644,220.995759 L165.282333,188.040636 C170.736946,177.506752 181.609599,170.892936 193.471957,170.892936 L226.844099,170.892936 C231.96436,170.892936 236.556338,167.740976 238.396959,162.962986 L253.563636,123.59245 C258.807571,109.979943 271.890127,101 286.477765,101 L306.512546,101 C318.418699,101 329.323811,107.662252 334.757962,118.255952 L339.493546,127.487817 C344.927697,138.081517 355.832809,144.743769 367.738961,144.743769 L440.200674,144.743769 C451.668289,144.743769 462.244433,150.928631 467.867363,160.923073 L523.516588,259.836458 C525.078513,262.612692 528.01633,264.330709 531.201779,264.330709 L554.030798,264.330709 C564.301497,264.330709 573.937554,269.299773 579.893318,277.667339 L585.128446,285.022446 C591.08421,293.390011 600.720266,298.359075 610.990966,298.359075 L618.359075,298.359075 C624.235896,298.359075 629,303.12318 629,309 L2,309 Z" id="mount-2" fill="url(#linearGradient-2)" opacity="0.361186594"></path>
                <path d="M506,309 L506,309 C506,306.388048 508.117405,304.270643 510.729357,304.270643 L511.906876,304.270643 C515.56146,304.270643 518.937818,302.318903 520.761737,299.151995 L525.63303,290.693869 C529.10497,284.665468 535.532071,280.950213 542.488793,280.950213 L547.095967,280.950213 C551.166572,280.950213 554.890939,278.660039 556.7278,275.027442 L558.785948,270.957227 C561.608039,265.376229 567.330029,261.857685 573.583966,261.857685 L575.210569,261.857685 C580.366583,261.857685 584.982804,258.662192 586.798219,253.836351 L589.021097,247.927366 C591.267892,241.954807 596.98102,238 603.362207,238 L605.618596,238 C610.736768,238 615.416303,240.889735 617.708585,245.465884 L617.708585,245.465884 C620.000866,250.042032 624.680401,252.931767 629.798573,252.931767 L639.851661,252.931767 C651.201814,252.931767 661.651108,259.113389 667.116369,269.061098 L678.169842,289.180311 C679.719017,292.000075 682.68096,293.752309 685.89826,293.752309 L688.394093,293.752309 C692.824849,293.752309 696.974833,295.921794 699.503627,299.560035 L700.270121,300.662809 C702.318747,303.610219 705.680729,305.367761 709.270172,305.367761 L711.367761,305.367761 C713.373791,305.367761 715,306.99397 715,309 L506,309 Z" id="Mask" fill="url(#linearGradient-3)"></path>
                <path d="M617.754957,293 C619.401306,292.260436 620.80956,291.020792 621.751769,289.411745 L634.343011,267.909182 C640.038698,258.182432 650.46508,252.205377 661.736749,252.205377 L674.868874,252.205377 C678.195541,252.205377 681.35254,251.056136 683.860659,249.045041 L670.060745,277.945069 C665.668458,287.143473 656.381986,293 646.188713,293 L617.754957,293 Z" id="Combined-Shape" fill="url(#linearGradient-4)" transform="translate(650.807808, 271.022520) scale(-1, 1) translate(-650.807808, -271.022520) "></path>
                <path d="M534.691272,293.060921 L619.010469,293.060921 C623.721083,293.060921 628.013597,290.357341 630.048363,286.108858 C632.08313,281.860374 636.375643,279.156795 641.086258,279.156795 L680.731851,279.156795 L680.9452,279 L683.511207,279 C690.437329,279 696.804893,282.800534 700.092484,288.896674 L705.38246,298.705814 C707.109534,301.908307 710.454615,303.904847 714.093124,303.904847 L714.949325,303.904847 C717.738736,303.904847 720,306.166111 720,308.955522 L511,308.955522 C511,306.8132 512.736695,305.076504 514.879017,305.076504 L516.729828,305.076504 C520.303853,305.076504 523.635613,303.269679 525.585184,300.274212 L526.500541,298.86779 C528.414357,295.927262 531.360536,293.874536 534.691272,293.060921 Z" id="Combined-Shape" fill="url(#linearGradient-5)" transform="translate(615.500000, 293.977761) scale(-1, 1) translate(-615.500000, -293.977761) "></path>
                <path d="M22,309 L22,309 C22,305.355789 24.9542168,302.401572 28.5984279,302.401572 L32.7963257,302.401572 C37.9068019,302.401572 42.0496614,298.258713 42.0496614,293.148236 L42.0496614,293.148236 C42.0496614,288.03776 46.1925209,283.894901 51.3029971,283.894901 L59.8366861,283.894901 C70.6654402,283.894901 80.4911932,277.554942 84.95369,267.688431 L92.3669623,251.297802 C96.303902,242.593289 104.972457,237 114.525887,237 L212.473467,237 C230.064851,237 246.199761,246.77278 254.348179,262.363164 L263.041768,278.996622 C265.846358,284.36265 271.399806,287.726327 277.454556,287.726327 L277.454556,287.726327 C283.644472,287.726327 289.461977,290.683265 293.110197,295.683821 L295.064946,298.363164 C299.941546,305.04744 307.717846,309 315.991949,309 L320,309 L22,309 Z" id="Mask" fill="url(#linearGradient-6)" transform="translate(171.000000, 273.000000) scale(-1, 1) translate(-171.000000, -273.000000) "></path>
                <path d="M85.5782654,276.940487 L116.961,276.940487 C125.307879,276.940487 132.806416,269.841983 135.86985,259.040386 L137.165986,254.470244 C141.011557,240.910851 150.424573,232 160.902526,232 L207.209037,232 C220.407228,232 231.934654,241.951594 238.125694,256.755274 L240.415927,261.99427 C245.771811,274.246063 255.333084,281.724803 265.640633,281.724803 L289.43883,281.724803 C289.680107,281.738321 289.922762,281.745156 290.166575,281.745156 C295.691009,281.745156 300.755956,284.820805 303.303795,289.722631 L306.240487,295.372578 C310.592802,303.746061 319.244933,309 328.68198,309 L329,309 L57,309 C57,304.331206 60.7848057,300.5464 65.4536001,300.5464 L66.150181,300.5464 C71.2036865,300.5464 75.3003621,296.449724 75.3003621,291.396219 L75.3003621,288.691455 C75.3003621,282.678836 79.7765011,277.711676 85.5782654,276.940487 Z" id="Combined-Shape" fill="url(#linearGradient-7)" transform="translate(193.000000, 270.500000) scale(-1, 1) translate(-193.000000, -270.500000) "></path>
                <g id="hand" transform="translate(493.000000, 8.000000)">
                    <g id="Group-13-Copy-4" transform="translate(47.614795, 0.000000)">
                        <path d="M106.539784,41.2442111 L106.539784,41.2442111 C107.277299,41.2441773 107.8752,41.8420235 107.875234,42.579538 C107.875234,42.5795584 107.875234,42.5795787 107.875234,42.5795991 L107.875234,54.0304211 C107.875234,54.7679694 107.277333,55.3658703 106.539784,55.3658703 L106.539784,41.2442111 Z" id="Rectangle-6" fill="#0B339B"></path>
                        <path d="M0.955432871,41.2442111 L0.955432871,41.2442111 C1.57002631,41.2441773 2.06828012,41.7423764 2.0683139,42.3569698 C2.0683139,42.3569902 2.0683139,42.3570106 2.0683139,42.357031 L2.0683139,54.2530868 C2.0683139,54.8676602 1.57010372,55.3658703 0.955530329,55.3658703 C0.955497843,55.3658703 0.955465357,55.3658703 0.955432871,55.3658703 L0.955432871,41.2442111 Z" id="Rectangle-6-Copy" fill="#0B339B" transform="translate(1.776378, 48.305041) scale(-1, 1) translate(-1.776378, -48.305041) "></path>
                        <path d="M0.955432871,25.5534786 L0.955432871,25.5534786 C1.57005639,25.5534786 2.0683072,26.0517294 2.0683072,26.6663529 L2.0683072,31.8376639 C2.0683072,32.4522874 1.57005639,32.9505382 0.955432871,32.9505382 L0.955432871,25.5534786 Z" id="Rectangle-6-Copy-3" fill="#0B339B" transform="translate(1.776378, 29.252008) scale(-1, 1) translate(-1.776378, -29.252008) "></path>
                        <path d="M0.955432871,58.5040168 L0.955432871,58.5040168 C1.57002631,58.5039831 2.06828012,59.0021821 2.0683139,59.6167755 C2.0683139,59.6167959 2.0683139,59.6168163 2.0683139,59.6168367 L2.0683139,71.5128925 C2.0683139,72.1274659 1.57010372,72.6256761 0.955530329,72.6256761 C0.955497843,72.6256761 0.955465357,72.6256761 0.955432871,72.6256761 L0.955432871,58.5040168 Z" id="Rectangle-6-Copy-2" fill="#0B339B" transform="translate(1.776378, 65.564846) scale(-1, 1) translate(-1.776378, -65.564846) "></path>
                        <path d="M12.3747475,0.171710702 L96.7886203,0.171710702 C102.311468,0.171710702 106.78862,4.6488632 106.78862,10.1717107 L106.78862,204.066422 C106.78862,209.589269 102.311468,214.066422 96.7886203,214.066422 L12.3747475,214.066422 C6.85189998,214.066422 2.37474748,209.589269 2.37474748,204.066422 L2.37474748,10.1717107 C2.37474748,4.6488632 6.85189998,0.171710702 12.3747475,0.171710702 Z" id="Rectangle-4" fill="url(#linearGradient-8)"></path>
                        <path d="M12.6004961,2.46489143 L96.5628717,2.46489143 C100.98115,2.46489143 104.562872,6.04661344 104.562872,10.4648914 L104.562872,203.877331 C104.562872,208.295609 100.98115,211.877331 96.5628717,211.877331 L12.6004961,211.877331 C8.18221813,211.877331 4.60049613,208.295609 4.60049613,203.877331 L4.60049613,10.4648914 C4.60049613,6.04661344 8.18221813,2.46489143 12.6004961,2.46489143 Z" id="Rectangle-4-Copy-2" fill="url(#linearGradient-9)"></path>
                        <ellipse id="Oval-3" fill="#0B339B" cx="36.4287019" cy="13.4491993" rx="1.55802406" ry="1.56907325"></ellipse>
                        <ellipse id="Oval-4" fill="#022057" cx="54.5685534" cy="200.953452" rx="7.01110826" ry="7.06082962"></ellipse>
                        <polygon id="Mask" fill="url(#linearGradient-10)" points="8.44888957 25.3466687 101.956594 25.3466687 101.956594 189.927649 8.44888957 189.927649"></polygon>
                        <rect id="Rectangle-5" fill="#0B339B" x="45.1091216" y="12.552586" width="18.9188636" height="1.56907325" rx="0.784536624"></rect>
                    </g>
                    <path d="M153.498343,157.209088 C150.457255,163.926753 148.755459,169.080293 148.392953,172.669709 C147.849195,178.053832 150.357857,177.008034 156.664665,170.68903 C162.971474,164.370027 165.601264,159.766418 162.971474,155.386435 C161.218281,152.466446 158.154976,150.8267 153.78156,150.467196 L153.498343,157.209088 Z" id="Mask" fill="url(#linearGradient-11)"></path>
                    <path d="M161.074751,153.569571 C160.143679,153.319912 158.999476,153.548714 157.651828,154.550156 C154.720537,156.728409 151.932769,161.444576 149.288525,168.698659 C149.050107,168.698659 148.818485,168.697911 148.593659,168.696414 C149.421698,165.569548 150.873002,161.714786 152.947572,157.132126 L153.23079,150.390234 C156.64292,150.670718 159.257573,151.730497 161.074751,153.569571 Z" id="Combined-Shape" fill="url(#linearGradient-12)"></path>
                    <path d="M151.432332,129.668997 C148.851816,136.173773 146.847957,142.005873 145.420755,147.165297 C143.279952,154.904434 147.146912,163.731426 151.839034,157.672991 C156.531157,151.614555 163.026536,143.071486 164.771694,137.650868 C166.516852,132.23025 166.23129,126.865038 160.789364,123.936601 C157.161413,121.98431 154.042403,123.895108 151.432332,129.668997 Z" id="Mask" fill="url(#linearGradient-11)"></path>
                    <path d="M165.308544,130.196584 C163.981928,127.275753 160.893707,127.488088 156.04388,130.83359 C150.471722,134.677369 146.61977,141.348069 144.488022,150.84569 C144.507933,149.449568 144.698462,147.991129 145.09174,146.569403 C146.518942,141.409979 148.522801,135.577879 151.103316,129.073103 C153.713387,123.299215 156.832398,121.388416 160.460349,123.340707 C163.530631,124.992903 164.959587,127.42075 165.308544,130.196584 Z" id="Combined-Shape" fill="url(#linearGradient-12)"></path>
                    <g id="Path-11" transform="translate(3.283779, 93.176558)"></g>
                    <path d="M97.2718503,274.207158 C97.4446392,263.289925 97.9302642,255.583368 98.7287253,251.087487 C99.4843547,249.207008 100.579694,247.864477 102.014742,247.059895 C105.383755,245.171006 123.888198,238.611019 134.481314,214.032068 L72.1239441,214.032068 C70.7971997,210.03897 69.310607,204.439358 67.6641659,199.353729 C63.6651334,187.00127 58.0333711,175.929255 50.768879,166.137683 C49.4502206,161.046194 49.7676236,152.618799 51.7210879,140.855499 C54.6512843,123.210548 56.1891915,116.885942 50.768879,103.303964 C45.3485664,89.7219852 38.3790203,90.4788839 36.493607,101.558246 C34.6081937,112.637607 30.1071655,124.993535 24.6306343,144.848722 C19.1541031,164.703909 20.5571519,172.141861 20.6621944,190.761554 C20.7322226,203.174682 21.6392269,224.451932 16.226253,254.593303 L4.52292669,300.729784 L98.1133181,300.729784 C97.9182527,258.077321 97.068093,287.081045 97.2718503,274.207158 Z" id="Mask" fill="url(#linearGradient-13)"></path>
                    <path d="M154.770372,70.1940297 C162.818266,64.4035841 168.279815,61.2033363 171.155019,60.5932863 C175.467823,59.6782114 177.802529,64.4420542 171.636477,75.5219526 C167.525776,82.9085515 162.29519,89.9020679 155.94472,96.5025018 C162.599269,101.970717 166.797957,107.52946 168.540781,113.178731 C171.155019,121.652638 148.9018,135.600583 144.809928,136.736155 C140.718055,137.871726 139.152522,127.549405 145.284788,118.716827 C149.372965,112.828442 152.534826,108.72909 154.770372,106.41877 L154.770372,70.1940297 Z" id="Mask" fill="url(#linearGradient-11)"></path>
                    <path d="M171.448629,60.483029 C166.431563,62.7220837 157.741591,73.3529615 156.196404,79.556887 C154.920352,84.6802404 154.903917,90.239735 156.147101,96.2353707 C156.079768,96.3057075 156.012307,96.3759998 155.94472,96.4462475 C160.8355,100.465128 164.399733,104.532908 166.637417,108.649587 C162.86967,104.645974 154.877545,109.220835 148.355504,116.202549 C143.691263,121.195526 141.378712,126.704066 141.417851,132.72817 C141.391152,132.745576 141.364587,132.762877 141.338154,132.780072 C140.802109,129.174566 141.801801,123.677276 145.284788,118.660573 C149.372965,112.772188 152.534826,108.672835 154.770372,106.362516 L154.770372,70.1377754 C162.818266,64.3473298 168.279815,61.147082 171.155019,60.537032 C171.253956,60.5160399 171.351852,60.4980363 171.448629,60.483029 Z" id="Combined-Shape" fill="url(#linearGradient-12)"></path>
                    <polygon id="Path-2" fill="url(#linearGradient-14)" points="10.7519399 258.278881 98.5133683 268.521712 98.5133683 300.780469 0 300.780469"></polygon>
                </g>
                <g id="macbook-" transform="translate(186.740891, 98.956658)">
                    <g id="screen" transform="translate(31.372470, 0.000000)">
                        <path d="M6.77221171,0 L292.013213,-1.77635684e-15 C295.753403,-2.46341846e-15 298.785425,3.03202246 298.785425,6.77221171 L298.785425,208.230978 L0,208.230978 L0,6.77221171 C-4.58041079e-16,3.03202246 3.03202246,2.46341846e-15 6.77221171,1.77635684e-15 Z" id="backscreen" fill="url(#linearGradient-15)"></path>
                        <path d="M9.72703953,7.43682065 L289.058386,7.43682065 C290.305115,7.43682065 291.315789,8.44749481 291.315789,9.69422456 L291.315789,185.920516 L7.46963563,185.920516 L7.46963563,9.69422456 C7.46963563,8.44749481 8.48030978,7.43682065 9.72703953,7.43682065 Z" fill="url(#linearGradient-16)"></path>
                    </g>
                    <g id="base" transform="translate(0.000000, 194.844701)">
                        <path d="M109.010733,8.92418478 L252.519631,8.92418478 L361.530364,8.92418478 C355.613748,13.8747697 334.552256,14.8232779 309.183532,14.8716288 L309.183532,14.8736413 L50.7126428,14.8736413 L50.7126428,14.867217 C26.0772757,14.7805328 5.78909637,13.7680708 2.89901436e-12,8.92418478 L109.010733,8.92418478 Z" id="down" fill="url(#linearGradient-17)"></path>
                        <polygon id="slight" fill="url(#linearGradient-18)" points="0 0 361.530364 0 361.530364 8.92418478 0 8.92418478"></polygon>
                        <path d="M144.910931,8.52651283e-14 L216.619433,8.52651283e-14 L216.619433,8.52651283e-14 C216.619433,2.46434558 214.621686,4.46209239 212.157341,4.46209239 L149.373024,4.46209239 C146.908678,4.46209239 144.910931,2.46434558 144.910931,8.5811577e-14 Z" id="patch" fill="#2662CF"></path>
                    </g>
                </g>
                <g id="flow" transform="translate(315.187500, 124.175000)">
                    <g id="start-state">
                        <ellipse id="node" stroke="#D6F8BB" stroke-width="2" fill="#00C853" cx="52.2874494" cy="14.1299592" rx="6.9757085" ry="6.6519837"></ellipse>
                        <rect id="Rectangle-5" stroke="#00C853" fill="#FFFFFF" x="0.5" y="0.5" width="51.2874494" height="27.2599185" rx="13.6299592"></rect>
                    </g>
                    <g id="standard-state-1" transform="translate(104.574899, 58.007201)">
                        <ellipse id="node" stroke="#D8EBFF" stroke-width="2" fill="#2A90FF" cx="67.1425557" cy="14.5761685" rx="6.89154359" ry="6.6519837"></ellipse>
                        <g id="Dynamic-group" transform="translate(17.674631, 7.064980)"></g>
                        <rect id="BG" stroke="#2A90FF" fill="#FFFFFF" x="0.5" y="0.5" width="66.2267206" height="27.2599185" rx="13.6299592"></rect>
                    </g>
                    <g id="standard-state-1-copy" transform="translate(104.574899, 14.873641)">
                        <ellipse id="node" stroke="#D8EBFF" stroke-width="2" fill="#2A90FF" cx="67.1425557" cy="14.5761685" rx="6.89154359" ry="6.6519837"></ellipse>
                        <g id="Dynamic-group" transform="translate(17.674631, 7.064980)"></g>
                        <rect id="BG" stroke="#2A90FF" fill="#FFFFFF" x="0.5" y="0.5" width="66.2267206" height="27.2599185" rx="13.6299592"></rect>
                    </g>
                    <g id="transition-path-2" transform="translate(61.251012, 14.873641)">
                        <polyline id="Path-2" stroke="#2A90FF" points="0.322899725 0.221395791 18.0372325 0.221395791 18.0372325 58.1121915 38.9710271 58.1121915"></polyline>
                        <path d="M36.2141099,55.2424536 C35.2356313,55.2424536 37.3882842,57.1556122 37.3882842,58.1121915 C37.3882842,59.0687708 35.2356313,60.9819293 36.2141099,60.9819293 C37.1925884,60.9819293 41.8295985,59.0687708 41.8295985,58.1121915 C41.8295985,57.1556122 37.1925884,55.2424536 36.2141099,55.2424536" id="arrow" fill="#2A90FF"></path>
                    </g>
                    <g id="transition-path-2" transform="translate(61.251012, 14.873641)">
                        <polyline id="Path-2" stroke="#2A90FF" points="0.322899725 0.221395791 18.0372325 0.221395791 18.0372325 13.3862772 38.9710271 13.3862772"></polyline>
                        <path d="M36.2141099,10.6215297 C35.2356313,10.6215297 37.3882842,12.5346883 37.3882842,13.4912676 C37.3882842,14.4478469 35.2356313,16.3610054 36.2141099,16.3610054 C37.1925884,16.3610054 41.8295985,14.4478469 41.8295985,13.4912676 C41.8295985,12.5346883 37.1925884,10.6215297 36.2141099,10.6215297" id="arrow" fill="#2A90FF"></path>
                    </g>
                    <g id="priority-1" transform="translate(68.720648, 37.184103)">
                        <rect id="BG" stroke="#2A90FF" fill="#FFFFFF" x="0.5" y="0.5" width="21.4089069" height="21.310462" rx="10.655231"></rect>
                        <path d="M8.93661824,14.2224314 L8.93661824,13.8452113 C8.93661824,13.5057133 9.11658839,13.3265337 9.45758447,13.3265337 L10.3763794,13.3265337 L10.3763794,10.5162444 C10.3763794,10.2616209 10.3858516,9.99756685 10.3858516,9.99756685 L10.3669073,9.99756685 C10.3669073,9.99756685 10.2721862,10.2050379 10.1585208,10.2993429 L10.0732718,10.3747869 C9.82699688,10.6011189 9.57124983,10.5916884 9.34391911,10.3464954 L9.09764417,10.0824414 C8.86084133,9.83724833 8.87031345,9.5826248 9.11658839,9.34686227 L10.2911304,8.25292414 C10.4900448,8.07374462 10.670015,7.99830061 10.9352341,7.99830061 L11.4751446,7.99830061 C11.8161407,7.99830061 11.9961108,8.17748013 11.9961108,8.51697817 L11.9961108,13.3265337 L12.9243779,13.3265337 C13.265374,13.3265337 13.4453441,13.5057133 13.4453441,13.8452113 L13.4453441,14.2224314 C13.4453441,14.5619294 13.265374,14.7411089 12.9243779,14.7411089 L9.45758447,14.7411089 C9.11658839,14.7411089 8.93661824,14.5619294 8.93661824,14.2224314 Z" id="12:6" fill="#484C4F"></path>
                    </g>
                </g>
                <g id="train-bot" transform="translate(555.014991, 87.314093)" fill-rule="nonzero">
                    <ellipse id="Oval" fill="#FFFFFF" cx="33.3590242" cy="33.7481592" rx="33.3590242" ry="33.7481592"></ellipse>
                    <path d="M20.7056012,56.7582677 C20.7775878,55.4700951 21.9774017,54.4581339 23.433752,54.4572585 L43.2842964,54.4572585 C44.7417031,54.4557943 45.9430477,55.4690467 46.0124471,56.7582677 L20.7056012,56.7582677 Z" id="Shape" fill="#0044AA"></path>
                    <path d="M12.2699859,58.5106935 C12.2713304,59.0443947 12.3044035,59.57755 12.3690322,60.1073689 C24.6088869,69.9593015 42.1091614,69.9593015 54.3490162,60.1073689 C54.4136449,59.57755 54.446718,59.0443947 54.4480625,58.5106935 L54.4480625,55.9912641 L12.2699859,55.9912641 L12.2699859,58.5106935 Z" id="Shape" fill="url(#linearGradient-19)"></path>
                    <rect id="Rectangle-path" fill="#003CC1" x="27.6074683" y="51.3892424" width="12.2699859" height="5.36902533"></rect>
                    <rect id="Rectangle-path" fill="url(#linearGradient-20)" x="52.1474401" y="28.3791339" width="8.43561531" height="9.97104703" rx="4.21780766"></rect>
                    <rect id="Rectangle-path" fill="url(#linearGradient-20)" x="6.90186707" y="28.3791339" width="8.43561531" height="9.97104703" rx="4.21780766"></rect>
                    <path d="M55.9818107,33.1777715 C55.9818107,45.568125 45.8508047,52.9232496 33.3590242,52.9232496 C20.8672437,52.9232496 10.7362377,45.5417625 10.7362377,33.1777715 C10.7362377,20.8137806 20.8620322,10.7380507 33.3590242,10.7380507 C45.8560161,10.7380507 55.9818107,20.7821456 55.9818107,33.1777715 Z" id="Shape" fill="url(#linearGradient-20)"></path>
                    <path d="M54.4480625,32.3629511 C54.4480625,44.3016427 45.1787548,51.3892424 33.7424612,51.3892424 C22.3061677,51.3892424 13.03686,44.2856676 13.03686,32.3629511 C13.03686,20.4402345 22.3061677,10.7380507 33.7424612,10.7380507 C45.1787548,10.7380507 54.4480625,20.4189344 54.4480625,32.3629511 Z" id="Shape" fill="url(#linearGradient-12)"></path>
                    <path d="M49.8468177,30.7973258 C49.8468177,38.9094544 42.4643008,43.7192062 33.3590242,43.7192062 C24.2537475,43.7192062 16.8712306,38.9254336 16.8712306,30.7973258 C16.8712306,22.669218 24.2537475,16.107076 33.3590242,16.107076 C42.4643008,16.107076 49.8468177,22.6958501 49.8468177,30.7973258 Z" id="Shape" fill="#1D6DCC"></path>
                    <path d="M49.8468177,29.9779713 C49.8468177,37.6402896 42.4643008,42.185199 33.3590242,42.185199 C24.2537475,42.185199 16.8712306,37.6402896 16.8712306,29.9779713 C16.8712306,22.3156531 24.2537475,16.107076 33.3590242,16.107076 C42.4643008,16.107076 49.8468177,22.3156531 49.8468177,29.9779713 Z" id="Shape" fill="#F4FAFF"></path>
                    <path d="M45.9005084,27.3555591 C45.1345834,31.283498 40.7783851,32.8756226 35.9700783,31.9643407 C31.1617715,31.0530589 27.7151091,27.9840293 28.4810341,24.0560905 C29.246959,20.1281516 33.7999575,17.6875922 38.5869886,18.5988741 C43.3740197,19.5101559 46.6717523,23.4538065 45.9005084,27.3555591 Z" id="Shape" fill="#FFFFFF"></path>
                    <path d="M26.8405942,31.8306501 C26.8405942,33.3132655 25.6388998,34.5151628 24.1565348,34.5151628 C22.6741697,34.5151628 21.4724753,33.3132655 21.4724753,31.8306501 C21.4724753,30.3480347 22.6741697,29.1461375 24.1565348,29.1461375 C25.6388998,29.1461375 26.8405942,30.3480347 26.8405942,31.8306501 Z" id="Shape" fill="#24282D"></path>
                    <ellipse id="Oval" fill="#24282D" cx="43.3283877" cy="31.8306501" rx="2.68405942" ry="2.68451266"></ellipse>
                    <path d="M33.7397629,39.8841881 C31.5810743,39.8841881 29.9080906,38.7712809 29.9080906,37.3776404 C29.9080906,37.0675509 30.1787044,36.8161737 30.5125234,36.8161737 C30.8463425,36.8161737 31.1169563,37.0675509 31.1169563,37.3776404 C31.1169563,38.1296047 32.342012,38.7863202 33.7397629,38.7863202 C35.1375137,38.7863202 36.3679662,38.1296047 36.3679662,37.3776404 C36.3679662,37.0675509 36.63858,36.8161737 36.972399,36.8161737 C37.3062181,36.8161737 37.5768318,37.0675509 37.5768318,37.3776404 C37.5768318,38.7712809 35.8930547,39.8841881 33.7397629,39.8841881 Z" id="Shape" fill="#24282D"></path>
                    <path d="M19.9387271,57.1334685 C19.9393844,60.4319393 21.1979712,63.6098274 23.465113,66.0374706 C29.9150326,67.982601 36.8082865,67.982601 43.2582061,66.0374706 C45.5234306,63.60904 46.780101,60.4312408 46.7793209,57.1334685 L46.7793213,55.9912641 L19.9387271,55.9912641 L19.9387271,57.1334685 Z" id="Shape" fill="url(#linearGradient-12)"></path>
                    <rect id="Rectangle-path" fill="#2053AF" transform="translate(27.990905, 62.127293) rotate(47.419509) translate(-27.990905, -62.127293) " x="26.8405942" y="58.292275" width="2.30062236" height="7.67003618" rx="1.15031118"></rect>
                    <rect id="Rectangle-path" fill="#2053AF" transform="translate(33.359024, 62.127293) rotate(47.320000) translate(-33.359024, -62.127293) " x="32.208713" y="58.292275" width="2.30062236" height="7.67003618" rx="1.15031118"></rect>
                    <rect id="Rectangle-path" fill="#2053AF" transform="translate(38.727143, 62.127293) rotate(47.320000) translate(-38.727143, -62.127293) " x="37.5768318" y="58.292275" width="2.30062236" height="7.67003618" rx="1.15031118"></rect>
                </g>
                <g id="bubble" transform="translate(475.000000, 4.000000)" fill-rule="nonzero">
                    <path d="M23.8650722,29.596875 L64.2916816,29.596875 C77.424654,29.596875 88.0710316,40.2786493 88.0710316,53.4552858 C88.0710316,61.8839961 85.3279198,68.764576 78.7444516,73.0133341 C77.6530748,76.0419508 78.1906092,79.4208328 80.1674409,81.958088 C80.1674409,81.958088 73.1896504,80.5131662 71.5952167,76.1611994 C69.2259389,76.9364028 66.7494684,77.3311689 64.2573927,77.330898 L23.8307833,77.330898 C10.685039,77.2931056 0.037667121,66.6103338 0,53.4208829 C0.0754007731,40.2477249 10.7353535,29.6061146 23.8650722,29.596875 Z" id="Shape" fill="url(#linearGradient-12)"></path>
                    <rect id="Rectangle-path" fill="#FFFFFF" x="22.4089069" y="50.4199728" width="41.5982859" height="5.25396967" rx="1.78"></rect>
                    <path d="M219.007131,8.38914602e-14 L171.495652,8.38914602e-14 C156.060437,8.38914602e-14 143.547723,12.5543159 143.547723,28.0408493 C143.547723,37.958455 146.783799,46.0312679 154.520962,51.0343458 C155.809581,54.5972018 155.175697,58.5749425 152.844086,61.5570435 C152.844086,61.5570435 161.051952,59.8598342 162.890631,54.7534479 C165.672205,55.6444859 168.575767,56.0926731 171.495652,56.0816987 L219.03655,56.1554904 C234.467041,56.1151739 246.97729,43.5962759 247.058026,28.1146411 C247.017546,12.5926895 234.477681,0.0243269767 219.007131,0 Z" id="Shape" fill="url(#linearGradient-14)"></path>
                    <rect id="Rectangle-path" fill="#FFFFFF" x="162.968775" y="25.2851902" width="41.5982859" height="5.25396967" rx="1.78"></rect>
                    <rect id="Rectangle-path" fill="#FFFFFF" transform="translate(216.818183, 27.912175) rotate(180.000000) translate(-216.818183, -27.912175) " x="207.786589" y="25.2851902" width="18.0631878" height="5.25396967" rx="1.78"></rect>
                </g>
                <g id="log-1" transform="translate(106.087500, 156.462500)">
                    <rect id="Rectangle-2" fill="url(#linearGradient-14)" x="0" y="3.075" width="209.1" height="61.5" rx="6"></rect>
                    <rect id="Rectangle-2" fill="#FFFFFF" x="0" y="0" width="209.1" height="61.5" rx="6"></rect>
                    <rect id="Rectangle-path" fill="#2173CC" fill-rule="nonzero" x="70.725" y="29.2125" width="61.5" height="6.15" rx="3.075"></rect>
                    <rect id="Rectangle-path-Copy" fill="#2173CC" fill-rule="nonzero" x="138.375" y="29.2125" width="36.9" height="6.15" rx="3.075"></rect>
                    <g id="bot-face" transform="translate(12.300000, 12.300000)" fill-rule="nonzero">
                        <rect id="Rectangle-path" fill="url(#linearGradient-20)" x="38.8557557" y="15.8848338" width="6.99931222" height="8.56585702" rx="3.49965611"></rect>
                        <rect id="Rectangle-path" fill="url(#linearGradient-20)" x="0.439683258" y="15.8848338" width="6.99931222" height="8.56585702" rx="3.49965611"></rect>
                        <path d="M42.5424163,19.6275935 C42.5424163,30.2501602 33.8867783,36.5558966 23.2141629,36.5558966 C12.5415475,36.5558966 3.8859095,30.227559 3.8859095,19.6275935 C3.8859095,9.02762791 12.537095,0.389447028 23.2141629,0.389447028 C33.8912308,0.389447028 42.5424163,9.00050646 42.5424163,19.6275935 Z" id="Shape" fill="url(#linearGradient-20)"></path>
                        <path d="M41.3046244,18.7461464 C41.3046244,28.8805271 33.3435747,34.8969681 23.5213846,34.8969681 C13.6991946,34.8969681 5.7381448,28.8669664 5.7381448,18.7461464 C5.7381448,8.62532644 13.6991946,0.389447028 23.5213846,0.389447028 C33.3435747,0.389447028 41.3046244,8.60724548 41.3046244,18.7461464 Z" id="Shape" fill="url(#linearGradient-12)"></path>
                        <path d="M37.4042443,17.6612885 C37.4042443,24.5456158 31.050543,28.6273936 23.2141629,28.6273936 C15.3777828,28.6273936 9.02408145,24.5591766 9.02408145,17.6612885 C9.02408145,10.7634005 15.3777828,5.19446339 23.2141629,5.19446339 C31.050543,5.19446339 37.4042443,10.7860017 37.4042443,17.6612885 Z" id="Shape" fill="#1D6DCC"></path>
                        <path d="M37.4042443,17.1414608 C37.4042443,23.7410129 31.050543,27.6555418 23.2141629,27.6555418 C15.3777828,27.6555418 9.02408145,23.7410129 9.02408145,17.1414608 C9.02408145,10.5419087 15.3777828,5.19446339 23.2141629,5.19446339 C31.050543,5.19446339 37.4042443,10.5419087 37.4042443,17.1414608 Z" id="Shape" fill="#F4FAFF"></path>
                        <path d="M33.5884615,14.8542188 C32.9473032,18.2443997 29.3007149,19.618553 25.2756652,18.832031 C21.2506154,18.045509 18.3654027,15.3966477 19.0065611,12.0064668 C19.6477195,8.61628596 23.4590498,6.50985357 27.4662896,7.29637554 C31.4735294,8.0828975 34.2340724,11.4866391 33.5884615,14.8542188 Z" id="Shape" fill="#FFFFFF"></path>
                        <path d="M17.0385611,18.7054643 C17.0385611,19.9162475 16.0717392,20.8977812 14.8791041,20.8977812 C13.6864689,20.8977812 12.7196471,19.9162475 12.7196471,18.7054643 C12.7196471,17.494681 13.6864689,16.5131473 14.8791041,16.5131473 C16.0717392,16.5131473 17.0385611,17.494681 17.0385611,18.7054643 Z" id="Shape" fill="#24282D"></path>
                        <ellipse id="Oval" fill="#24282D" cx="31.5492217" cy="18.7054643" rx="2.15945701" ry="2.19231697"></ellipse>
                        <path d="M23.1429231,25.3140568 C21.3619276,25.3140568 19.9816561,24.3105633 19.9816561,23.0539363 C19.9816561,22.7743327 20.2049222,22.5476693 20.4803348,22.5476693 C20.7557475,22.5476693 20.9790136,22.7743327 20.9790136,23.0539363 C20.9790136,23.7319724 21.9897285,24.324124 23.1429231,24.324124 C24.2961176,24.324124 25.3112851,23.7319724 25.3112851,23.0539363 C25.3112851,22.7743327 25.5345511,22.5476693 25.8099638,22.5476693 C26.0853765,22.5476693 26.3086425,22.7743327 26.3086425,23.0539363 C26.3086425,24.3105633 24.9194661,25.3140568 23.1429231,25.3140568 Z" id="Shape" fill="#24282D"></path>
                    </g>
                </g>
                <g id="log-2" transform="translate(92.250000, 225.650000)">
                    <rect id="Rectangle-2" fill="url(#linearGradient-14)" x="0" y="3.075" width="147.6" height="61.5" rx="6"></rect>
                    <rect id="Rectangle-2" fill="#2A90FF" x="0" y="0" width="147.6" height="61.5" rx="6"></rect>
                    <rect id="Rectangle-path" fill="#D8EBFF" fill-rule="nonzero" x="70.725" y="29.2125" width="49.2" height="6.15" rx="3.075"></rect>
                    <g id="bot-face" transform="translate(12.300000, 12.300000)" fill-rule="nonzero">
                        <rect id="Rectangle-path" fill="url(#linearGradient-20)" x="38.8557557" y="15.8848338" width="6.99931222" height="8.56585702" rx="3.49965611"></rect>
                        <rect id="Rectangle-path" fill="url(#linearGradient-20)" x="0.439683258" y="15.8848338" width="6.99931222" height="8.56585702" rx="3.49965611"></rect>
                        <path d="M42.5424163,19.6275935 C42.5424163,30.2501602 33.8867783,36.5558966 23.2141629,36.5558966 C12.5415475,36.5558966 3.8859095,30.227559 3.8859095,19.6275935 C3.8859095,9.02762791 12.537095,0.389447028 23.2141629,0.389447028 C33.8912308,0.389447028 42.5424163,9.00050646 42.5424163,19.6275935 Z" id="Shape" fill="url(#linearGradient-20)"></path>
                        <path d="M41.3046244,18.7461464 C41.3046244,28.8805271 33.3435747,34.8969681 23.5213846,34.8969681 C13.6991946,34.8969681 5.7381448,28.8669664 5.7381448,18.7461464 C5.7381448,8.62532644 13.6991946,0.389447028 23.5213846,0.389447028 C33.3435747,0.389447028 41.3046244,8.60724548 41.3046244,18.7461464 Z" id="Shape" fill="url(#linearGradient-12)"></path>
                        <path d="M37.4042443,17.6612885 C37.4042443,24.5456158 31.050543,28.6273936 23.2141629,28.6273936 C15.3777828,28.6273936 9.02408145,24.5591766 9.02408145,17.6612885 C9.02408145,10.7634005 15.3777828,5.19446339 23.2141629,5.19446339 C31.050543,5.19446339 37.4042443,10.7860017 37.4042443,17.6612885 Z" id="Shape" fill="#1D6DCC"></path>
                        <path d="M37.4042443,17.1414608 C37.4042443,23.7410129 31.050543,27.6555418 23.2141629,27.6555418 C15.3777828,27.6555418 9.02408145,23.7410129 9.02408145,17.1414608 C9.02408145,10.5419087 15.3777828,5.19446339 23.2141629,5.19446339 C31.050543,5.19446339 37.4042443,10.5419087 37.4042443,17.1414608 Z" id="Shape" fill="#F4FAFF"></path>
                        <path d="M33.5884615,14.8542188 C32.9473032,18.2443997 29.3007149,19.618553 25.2756652,18.832031 C21.2506154,18.045509 18.3654027,15.3966477 19.0065611,12.0064668 C19.6477195,8.61628596 23.4590498,6.50985357 27.4662896,7.29637554 C31.4735294,8.0828975 34.2340724,11.4866391 33.5884615,14.8542188 Z" id="Shape" fill="#FFFFFF"></path>
                        <path d="M17.0385611,18.7054643 C17.0385611,19.9162475 16.0717392,20.8977812 14.8791041,20.8977812 C13.6864689,20.8977812 12.7196471,19.9162475 12.7196471,18.7054643 C12.7196471,17.494681 13.6864689,16.5131473 14.8791041,16.5131473 C16.0717392,16.5131473 17.0385611,17.494681 17.0385611,18.7054643 Z" id="Shape" fill="#24282D"></path>
                        <ellipse id="Oval" fill="#24282D" cx="31.5492217" cy="18.7054643" rx="2.15945701" ry="2.19231697"></ellipse>
                        <path d="M23.1429231,25.3140568 C21.3619276,25.3140568 19.9816561,24.3105633 19.9816561,23.0539363 C19.9816561,22.7743327 20.2049222,22.5476693 20.4803348,22.5476693 C20.7557475,22.5476693 20.9790136,22.7743327 20.9790136,23.0539363 C20.9790136,23.7319724 21.9897285,24.324124 23.1429231,24.324124 C24.2961176,24.324124 25.3112851,23.7319724 25.3112851,23.0539363 C25.3112851,22.7743327 25.5345511,22.5476693 25.8099638,22.5476693 C26.0853765,22.5476693 26.3086425,22.7743327 26.3086425,23.0539363 C26.3086425,24.3105633 24.9194661,25.3140568 23.1429231,25.3140568 Z" id="Shape" fill="#24282D"></path>
                    </g>
                </g>
                <path d="M212.333338,39.6125 C186.771756,39.6125 166.05,59.6807913 166.05,84.4362833 C166.05,100.289748 171.409123,113.194279 184.2223,121.191786 C186.356325,126.887072 185.306577,133.24556 181.4453,138.0125 C181.4453,138.0125 195.037985,135.299482 198.082942,127.136835 C202.689383,128.561174 207.497845,129.277609 212.333338,129.260067 L211.894864,129.378024 C237.448623,129.313577 258.166297,109.301902 258.3,84.5542406 C258.232963,59.7421322 237.466243,39.6513871 211.846145,39.6125 L212.333338,39.6125 Z" id="Shape" fill="url(#linearGradient-14)" fill-rule="nonzero" transform="translate(212.175000, 88.812500) scale(-1, 1) translate(-212.175000, -88.812500) "></path>
                <path d="M186.0375,96.1419521 L186.0375,95.257363 C186.0375,84.6422945 200.553672,83.1258562 200.553672,76.1333904 C200.553672,73.1847603 198.330096,71.2049658 195.225482,71.2049658 C192.540409,71.2049658 190.778331,72.9320205 189.9812,73.9429795 C189.39384,74.5748288 188.722572,74.8275685 188.00935,74.2378425 L187.254173,73.6481164 C186.540951,73.1005137 186.373134,72.4686644 186.876585,71.7525685 C188.00935,70.1518836 190.736376,67.2875 195.519161,67.2875 C200.93126,67.2875 204.87496,70.6994863 204.87496,75.8385274 C204.87496,85.6111301 190.694422,87.1275685 190.568559,93.9094178 L203.951966,93.9094178 C204.833006,93.9094178 205.336457,94.372774 205.336457,95.2994863 L205.336457,96.1419521 C205.336457,97.0686644 204.833006,97.5320205 203.951966,97.5320205 L187.505899,97.5320205 C186.666814,97.5320205 186.0375,97.0686644 186.0375,96.1419521 Z M210.077287,96.1419521 L210.077287,94.4991438 C210.077287,93.5724315 210.538784,93.1090753 211.461778,93.1090753 L213.056039,93.1090753 C213.979033,93.1090753 214.44053,93.5724315 214.44053,94.4991438 L214.44053,96.1419521 C214.44053,97.0686644 213.979033,97.5320205 213.056039,97.5320205 L211.461778,97.5320205 C210.538784,97.5320205 210.077287,97.0686644 210.077287,96.1419521 Z M219.684811,94.7940068 C219.013543,94.2464041 219.013543,93.5303082 219.558949,92.8984589 L220.230217,91.9717466 C220.775622,91.2556507 221.404936,91.2556507 222.118158,91.8032534 C223.041152,92.6878425 224.80323,94.077911 227.572211,94.077911 C231.054414,94.077911 234.07512,91.6768836 234.07512,88.0542808 C234.07512,84.4738014 231.138323,81.9464041 227.320486,81.9464041 C225.474498,81.9464041 224.0061,82.6203767 223.250923,82.9994863 C222.579655,83.252226 221.992295,83.2943493 221.404936,83.0837329 L221.027348,82.957363 C220.314125,82.6625 219.936537,82.1148973 220.020445,81.3145548 L221.279073,69.0988014 C221.362982,68.2142123 221.824478,67.7929795 222.705518,67.7929795 L234.95616,67.7929795 C235.879153,67.7929795 236.34065,68.2563356 236.34065,69.1830479 L236.34065,70.0255137 C236.34065,70.9101027 235.879153,71.4155822 234.95616,71.4155822 L225.013002,71.4155822 L224.299779,77.6919521 C224.257825,78.5765411 224.090008,79.2505137 224.090008,79.2505137 L224.173917,79.2505137 C224.173917,79.2505137 225.810132,78.3238014 227.991754,78.3238014 C234.242937,78.3238014 238.3125,82.6625 238.3125,88.0121575 C238.3125,93.7409247 233.781441,98.0375 227.823937,98.0375 C223.586557,98.0375 220.901485,95.9734589 219.684811,94.7940068 Z" id="2.5" fill="#F6F7F8"></path>
            </g>
        </g>
    </g>
</svg>