<?xml version="1.0" encoding="UTF-8"?>
<svg width="720px" height="470px" viewBox="0 0 720 470" version="1.1" xmlns="http://www.w3.org/2000/svg" xmlns:xlink="http://www.w3.org/1999/xlink">
    <!-- Generator: Sketch 52.5 (67469) - http://www.bohemiancoding.com/sketch -->
    <title>docs platform 3.0</title>
    <desc>Created with Sketch.</desc>
    <defs>
        <linearGradient x1="100%" y1="0%" x2="51.5592448%" y2="100%" id="linearGradient-1">
            <stop stop-color="#FFFFFF" offset="0%"></stop>
            <stop stop-color="#78E6FF" offset="100%"></stop>
        </linearGradient>
        <linearGradient x1="67.5711615%" y1="100%" x2="67.5711615%" y2="0%" id="linearGradient-2">
            <stop stop-color="#003E80" offset="0%"></stop>
            <stop stop-color="#006FE6" offset="100%"></stop>
        </linearGradient>
        <linearGradient x1="0%" y1="100%" x2="100%" y2="0%" id="linearGradient-3">
            <stop stop-color="#0044AA" offset="0%"></stop>
            <stop stop-color="#2053AF" offset="35.3783382%"></stop>
            <stop stop-color="#006FE6" offset="67.5436581%"></stop>
            <stop stop-color="#00CCE9" offset="100%"></stop>
            <stop stop-color="#00CCE9" offset="100%"></stop>
            <stop stop-color="#00CCE9" offset="100%"></stop>
        </linearGradient>
        <path d="M21.12,18.5563436 C19.70816,18.5563436 18.56,19.7042774 18.56,21.1158392 L18.56,24.5596407 L20.19392,23.7425217 C20.28224,23.6983704 20.3808,23.6753349 20.48,23.6753349 L24.96,23.6753349 C26.37184,23.6753349 27.52,22.5274011 27.52,21.1158392 C27.52,19.7042774 26.37184,18.5563436 24.96,18.5563436 L21.12,18.5563436 Z M17.92,26.2348306 C17.80288,26.2348306 17.6864,26.2028369 17.58336,26.1394894 C17.3952,26.0223924 17.28,25.8169929 17.28,25.5949567 L17.28,21.1158392 C17.28,18.9984965 19.00224,17.2765957 21.12,17.2765957 L24.96,17.2765957 C27.07776,17.2765957 28.8,18.9984965 28.8,21.1158392 C28.8,23.233182 27.07776,24.9550827 24.96,24.9550827 L20.63104,24.9550827 L18.20608,26.1676438 C18.11584,26.212435 18.01792,26.2348306 17.92,26.2348306 Z M24.96,25.5949567 C26.38848,25.5949567 27.97888,24.7196091 28.8,23.6753349 L28.8,25.1681608 L28.8,28.1544523 C28.8,28.3790481 28.68224,28.587647 28.4896,28.7028243 C28.38784,28.7636123 28.27392,28.7943262 28.16,28.7943262 C28.05632,28.7943262 27.95328,28.7693712 27.85856,28.7188211 L26.24,27.5145784 L23.68,27.5145784 C22.36352,27.5145784 21.35808,26.9207754 21.16096,25.5949567 L24.96,25.5949567 Z" id="path-4"></path>
        <polygon id="path-6" points="0 60.4680851 184.32 60.4680851 184.32 0 0 0"></polygon>
        <linearGradient x1="50%" y1="0%" x2="50%" y2="100%" id="linearGradient-8">
            <stop stop-color="#FFFFFF" offset="0%"></stop>
            <stop stop-color="#4DA3FF" offset="100%"></stop>
        </linearGradient>
        <linearGradient x1="153.365725%" y1="100%" x2="9.21967682%" y2="0%" id="linearGradient-9">
            <stop stop-color="#001B8A" offset="0%"></stop>
            <stop stop-color="#003CC1" offset="47.5247532%"></stop>
            <stop stop-color="#2A90FF" offset="100%"></stop>
        </linearGradient>
        <linearGradient x1="4.56118589%" y1="47.1469522%" x2="83.2213692%" y2="47.1469522%" id="linearGradient-10">
            <stop stop-color="#003CC1" offset="0%"></stop>
            <stop stop-color="#001B8A" offset="100%"></stop>
        </linearGradient>
        <linearGradient x1="77.1278472%" y1="77.1972656%" x2="25.093342%" y2="21.8261719%" id="linearGradient-11">
            <stop stop-color="#001B8A" offset="0%"></stop>
            <stop stop-color="#003CC1" offset="51.794776%"></stop>
            <stop stop-color="#2A90FF" offset="100%"></stop>
        </linearGradient>
        <path d="M10.24,10.2379827 L1.28,10.2379827 L1.28,7.678487 L3.92512,7.678487 C4.15744,8.47640977 4.88768,9.06509377 5.76,9.06509377 C6.63232,9.06509377 7.36256,8.47640977 7.59552,7.678487 L10.24,7.678487 L10.24,10.2379827 Z M2.4448,1.27974783 L9.0752,1.27974783 L10.0992,6.39873916 L7.04,6.39873916 C6.68672,6.39873916 6.4,6.68540268 6.4,7.03861308 C6.4,7.05716942 6.40896,7.07316627 6.41088,7.09172262 C6.40896,7.11027896 6.4,7.12627581 6.4,7.14547203 C6.4,7.49804255 6.11264,7.78534594 5.76,7.78534594 C5.40736,7.78534594 5.12,7.49804255 5.12,7.14547203 C5.12,7.12627581 5.11104,7.11027896 5.10912,7.09172262 C5.11104,7.07316627 5.12,7.05716942 5.12,7.03861308 C5.12,6.68540268 4.83328,6.39873916 4.48,6.39873916 L1.4208,6.39873916 L2.4448,1.27974783 Z M11.5072,6.91319779 L10.2272,0.514458629 C10.16768,0.214997636 9.90528,0 9.6,0 L1.92,0 C1.61472,0 1.35232,0.214997636 1.2928,0.514458629 L0.0128,6.91319779 C0.00384,6.9547896 0,6.9963814 0,7.03861308 L0,10.8778566 C0,11.231067 0.28672,11.5177305 0.64,11.5177305 L10.88,11.5177305 C11.23328,11.5177305 11.52,11.231067 11.52,10.8778566 L11.52,7.03861308 C11.52,6.9963814 11.51616,6.9547896 11.5072,6.91319779 Z M4.48,3.19936958 L7.04,3.19936958 C7.39328,3.19936958 7.68,2.91270607 7.68,2.55949567 C7.68,2.20628526 7.39328,1.91962175 7.04,1.91962175 L4.48,1.91962175 C4.12672,1.91962175 3.84,2.20628526 3.84,2.55949567 C3.84,2.91270607 4.12672,3.19936958 4.48,3.19936958 M3.2,5.75886525 C3.55328,5.75886525 3.84,5.47220173 3.84,5.11899133 L7.68,5.11899133 C7.68,5.47220173 7.96672,5.75886525 8.32,5.75886525 C8.67328,5.75886525 8.96,5.47220173 8.96,5.11899133 L8.96,5.02365012 C8.96,4.37033885 8.4288,3.8392435 7.77536,3.8392435 L3.74464,3.8392435 C3.0912,3.8392435 2.56,4.37033885 2.56,5.02365012 L2.56,5.11899133 C2.56,5.47220173 2.84672,5.75886525 3.2,5.75886525" id="path-12"></path>
        <path d="M8.06787879,8.68677317 C7.03953455,8.68677317 6.20606061,7.85346343 6.20606061,6.82532178 C6.20606061,5.79718012 7.03953455,4.96387038 8.06787879,4.96387038 C9.09622303,4.96387038 9.92969697,5.79718012 9.92969697,6.82532178 C9.92969697,7.85346343 9.09622303,8.68677317 8.06787879,8.68677317 M3.1030303,8.68677317 C2.07468606,8.68677317 1.24121212,7.85346343 1.24121212,6.82532178 C1.24121212,5.79718012 2.07468606,4.96387038 3.1030303,4.96387038 C4.13137455,4.96387038 4.96484848,5.79718012 4.96484848,6.82532178 C4.96484848,7.85346343 4.13137455,8.68677317 3.1030303,8.68677317 M10.550303,4.96387038 L9.92969697,4.96387038 L9.92969697,3.72290279 C9.92969697,3.28235929 9.69510788,2.89579788 9.34632727,2.67552614 L9.92721455,1.8037464 C10.0252703,1.83911398 10.1295321,1.86145139 10.24,1.86145139 C10.7538618,1.86145139 11.1709091,1.44510677 11.1709091,0.930725697 C11.1709091,0.416344628 10.7538618,0 10.24,0 C9.72613818,0 9.30909091,0.416344628 9.30909091,0.930725697 C9.30909091,1.10632261 9.36060121,1.26826888 9.44500364,1.40849822 L8.72696242,2.48565809 C8.7139297,2.48565809 8.70151758,2.48193519 8.68848485,2.48193519 L2.48242424,2.48193519 C2.46939152,2.48193519 2.45697939,2.48565809 2.44394667,2.48565809 L1.72590545,1.40849822 C1.81030788,1.26826888 1.86181818,1.10632261 1.86181818,0.930725697 C1.86181818,0.416344628 1.44477091,0 0.930909091,0 C0.417047273,0 0,0.416344628 0,0.930725697 C0,1.44510677 0.417047273,1.86145139 0.930909091,1.86145139 C1.04137697,1.86145139 1.14563879,1.83911398 1.24369455,1.8037464 L1.82458182,2.67552614 C1.47580121,2.89579788 1.24121212,3.28235929 1.24121212,3.72290279 L1.24121212,4.96387038 L0.620606061,4.96387038 C0.278031515,4.96387038 0,5.24184712 0,5.58435418 L0,8.06628937 C0,8.40879643 0.278031515,8.68677317 0.620606061,8.68677317 L1.24121212,8.68677317 L1.24121212,9.92774076 C1.24121212,10.6102729 1.79975758,11.1687084 2.48242424,11.1687084 L8.68848485,11.1687084 C9.37115152,11.1687084 9.92969697,10.6102729 9.92969697,9.92774076 L9.92969697,8.68677317 L10.550303,8.68677317 C10.8928776,8.68677317 11.1709091,8.40879643 11.1709091,8.06628937 L11.1709091,5.58435418 C11.1709091,5.24184712 10.8928776,4.96387038 10.550303,4.96387038 M8.06787879,6.20483798 C8.41045333,6.20483798 8.68848485,6.48281472 8.68848485,6.82532178 C8.68848485,7.16782883 8.41045333,7.44580557 8.06787879,7.44580557 C7.72530424,7.44580557 7.44727273,7.16782883 7.44727273,6.82532178 C7.44727273,6.48281472 7.72530424,6.20483798 8.06787879,6.20483798 Z M3.1030303,6.20483798 C3.44560485,6.20483798 3.72363636,6.48281472 3.72363636,6.82532178 C3.72363636,7.16782883 3.44560485,7.44580557 3.1030303,7.44580557 C2.76045576,7.44580557 2.48242424,7.16782883 2.48242424,6.82532178 C2.48242424,6.48281472 2.76045576,6.20483798 3.1030303,6.20483798 Z" id="path-14"></path>
        <polygon id="path-16" points="0.179889803 0.163236717 7.98823074 0.163236717 7.98823074 16.9901454 0.179889803 16.9901454"></polygon>
        <linearGradient x1="0%" y1="100%" x2="100%" y2="3.68582589%" id="linearGradient-18">
            <stop stop-color="#003E80" offset="0%"></stop>
            <stop stop-color="#006FE6" offset="51.3785742%"></stop>
            <stop stop-color="#00CCE9" offset="100%"></stop>
            <stop stop-color="#00CCE9" offset="100%"></stop>
            <stop stop-color="#00CCE9" offset="100%"></stop>
        </linearGradient>
    </defs>
    <g id="docs-platform-3.0" stroke="none" stroke-width="1" fill="none" fill-rule="evenodd">
        <path d="M152.096709,4.7071361 C248.895837,-14.5269124 302.244339,31.037725 355.773293,36.5854462 C403.26282,41.5068654 477.854751,22.6659991 534.925179,20.2152519 C760.525101,10.5278268 774.40443,297.347606 606.375066,405.361134 C460.554927,499.097898 213.883919,466.292421 111.128493,405.361134 C-27.7479261,323.012043 -59.9388317,46.8400633 152.096709,4.7071361" id="shape-bg" fill="url(#linearGradient-1)"></path>
        <g id="illustration" transform="translate(0.000000, 64.000000)">
            <g id="base" transform="translate(0.000000, 380.085106)">
                <polygon id="Fill-1" fill="#E2E6E8" points="0 16 720 16 720 0 0 0"></polygon>
                <polygon id="Fill-2" fill="#F6F7F8" points="35 16 685 16 685 0 35 0"></polygon>
                <path d="M695.145769,26 L24.8542313,26 C15.9550608,26 7.28763596,22.5317117 0.111531819,16.1004 L0,16 L720,16 L719.888468,16.1004 C712.712364,22.5317117 704.044939,26 695.145769,26" id="Fill-3" fill="#C2C7C8"></path>
            </g>
            <g id="screen" transform="translate(80.640000, 0.000000)">
                <path d="M541.71595,0 L17.0040496,0 C7.61291323,0 0,7.56029954 0,16.8865327 L0,380.085106 L558.72,380.085106 L558.72,16.8865327 C558.72,7.56029954 551.107087,0 541.71595,0" id="Fill-5" fill="url(#linearGradient-2)"></path>
                <polygon id="Fill-8" fill="#EDF1F2" points="20.16 368.567376 538.56 368.567376 538.56 20.1560284 20.16 20.1560284"></polygon>
                <polygon id="Fill-11" fill="#003E80" points="20.16 43.1914894 538.56 43.1914894 538.56 20.1560284 20.16 20.1560284"></polygon>
                <path d="M57.6,31.6737589 C57.6,33.2636944 56.3106799,34.5531915 54.7202778,34.5531915 C53.1298756,34.5531915 51.84,33.2636944 51.84,31.6737589 C51.84,30.0838234 53.1298756,28.7943262 54.7202778,28.7943262 C56.3106799,28.7943262 57.6,30.0838234 57.6,31.6737589" id="Fill-14" fill="#FC6627"></path>
                <path d="M46.08,31.6737589 C46.08,33.2636944 44.7906799,34.5531915 43.2002778,34.5531915 C41.6098756,34.5531915 40.32,33.2636944 40.32,31.6737589 C40.32,30.0838234 41.6098756,28.7943262 43.2002778,28.7943262 C44.7906799,28.7943262 46.08,30.0838234 46.08,31.6737589" id="Fill-14-Copy" fill="#006FE6"></path>
                <path d="M34.56,31.6737589 C34.56,33.2636944 33.2706799,34.5531915 31.6802778,34.5531915 C30.0898756,34.5531915 28.8,33.2636944 28.8,31.6737589 C28.8,30.0838234 30.0898756,28.7943262 31.6802778,28.7943262 C33.2706799,28.7943262 34.56,30.0838234 34.56,31.6737589" id="Fill-14-Copy-2" fill="#EDF1F2"></path>
            </g>
            <rect id="bar" fill="url(#linearGradient-3)" x="100.8" y="43.1914894" width="518.4" height="103.659574"></rect>
            <g id="card-2" transform="translate(285.120000, 100.780142)">
                <rect id="box" fill="#FFFFFF" x="0" y="0" width="149.76" height="92.141844" rx="2"></rect>
                <circle id="avatar" fill="#E2E6E8" cx="23.04" cy="23.035461" r="12"></circle>
                <rect id="Rectangle-2" fill="#E2E6E8" fill-rule="nonzero" x="46.08" y="20.1560284" width="57.6" height="5.75886525" rx="2.87943262"></rect>
                <rect id="Rectangle-2-Copy" fill="#E2E6E8" fill-rule="nonzero" x="11.52" y="46.070922" width="126.72" height="5.75886525" rx="2.87943262"></rect>
                <rect id="Rectangle-2-Copy-2" fill="#E2E6E8" fill-rule="nonzero" x="11.52" y="57.5886525" width="126.72" height="5.75886525" rx="2.87943262"></rect>
                <rect id="Rectangle-2-Copy-3" fill="#E2E6E8" fill-rule="nonzero" x="11.52" y="69.106383" width="92.16" height="5.75886525" rx="2.87943262"></rect>
            </g>
            <g id="card-3" transform="translate(443.520000, 100.780142)">
                <path d="M6.32,4.31914894 L152.08,4.31914894 C153.184569,4.31914894 154.08,5.21457944 154.08,6.31914894 L154.08,94.4609929 C154.08,95.5655624 153.184569,96.4609929 152.08,96.4609929 L6.32,96.4609929 C5.2154305,96.4609929 4.32,95.5655624 4.32,94.4609929 L4.32,6.31914894 C4.32,5.21457944 5.2154305,4.31914894 6.32,4.31914894 Z" id="box" fill="#2B2F33" opacity="0.247433036"></path>
                <path d="M2,0 L147.76,0 C148.864569,-2.02906125e-16 149.76,0.8954305 149.76,2 L149.76,90.141844 C149.76,91.2464135 148.864569,92.141844 147.76,92.141844 L2,92.141844 C0.8954305,92.141844 1.3527075e-16,91.2464135 0,90.141844 L0,2 C-1.3527075e-16,0.8954305 0.8954305,2.02906125e-16 2,0 Z" id="box" fill="#FFFFFF"></path>
                <path d="M64.36,64.537234 L135.8,64.537234 C136.490356,64.537234 137.05,65.0968781 137.05,65.787234 L137.05,75.3049645 C137.05,75.9953205 136.490356,76.5549645 135.8,76.5549645 L64.36,76.5549645 C63.6696441,76.5549645 63.11,75.9953205 63.11,75.3049645 L63.11,65.787234 C63.11,65.0968781 63.6696441,64.537234 64.36,64.537234 Z" id="field-box-2" stroke="#E2E6E8" stroke-width="0.5" fill="#FFFFFF"></path>
                <path d="M15.4,64.537234 L63.61,64.537234 L63.61,76.5549645 L15.4,76.5549645 C14.7096441,76.5549645 14.15,75.9953205 14.15,75.3049645 L14.15,65.787234 C14.15,65.0968781 14.7096441,64.537234 15.4,64.537234 Z" id="field-box-1" stroke="#E2E6E8" stroke-width="0.5" fill="#F6F7F8"></path>
                <path d="M64.36,48.7003546 L135.8,48.7003546 C136.490356,48.7003546 137.05,49.2599987 137.05,49.9503546 L137.05,59.4680851 C137.05,60.158441 136.490356,60.7180851 135.8,60.7180851 L64.36,60.7180851 C63.6696441,60.7180851 63.11,60.158441 63.11,59.4680851 L63.11,49.9503546 C63.11,49.2599987 63.6696441,48.7003546 64.36,48.7003546 Z" id="field-box-2" stroke="#E2E6E8" stroke-width="0.5" fill="#FFFFFF"></path>
                <path d="M15.4,48.7003546 L63.61,48.7003546 L63.61,60.7180851 L15.4,60.7180851 C14.7096441,60.7180851 14.15,60.158441 14.15,59.4680851 L14.15,49.9503546 C14.15,49.2599987 14.7096441,48.7003546 15.4,48.7003546 Z" id="field-box-1" stroke="#E2E6E8" stroke-width="0.5" fill="#F6F7F8"></path>
                <circle id="avatar" fill="#E2E6E8" cx="23.04" cy="23.035461" r="12"></circle>
                <rect id="Rectangle-2" fill="#E2E6E8" fill-rule="nonzero" x="48.96" y="20.1560284" width="57.6" height="5.75886525" rx="2.87943262"></rect>
                <mask id="mask-5" fill="white">
                    <use xlink:href="#path-4"></use>
                </mask>
                <use id="Mask" fill="#676B6D" xlink:href="#path-4"></use>
                <rect id="Rectangle-2" fill="#E2E6E8" fill-rule="nonzero" mask="url(#mask-5)" x="46.08" y="20.1560284" width="57.6" height="5.75886525" rx="2"></rect>
            </g>
            <g id="card-4" transform="translate(123.840000, 215.957447)">
                <rect id="box" fill="#FFFFFF" x="0" y="0" width="149.76" height="92.141844" rx="2"></rect>
                <circle id="avatar" fill="#E2E6E8" cx="23.04" cy="23.035461" r="12"></circle>
                <rect id="Rectangle-2" fill="#E2E6E8" fill-rule="nonzero" x="46.08" y="20.1560284" width="57.6" height="5.75886525" rx="2.87943262"></rect>
                <rect id="Rectangle-2-Copy" fill="#E2E6E8" fill-rule="nonzero" x="11.52" y="46.070922" width="126.72" height="5.75886525" rx="2.87943262"></rect>
                <rect id="Rectangle-2-Copy-3" fill="#E2E6E8" fill-rule="nonzero" x="11.52" y="57.5886525" width="57.6" height="5.75886525" rx="2.87943262"></rect>
            </g>
            <g id="card-5" transform="translate(100.800000, 308.099291)">
                <mask id="mask-7" fill="white">
                    <use xlink:href="#path-6"></use>
                </mask>
                <g id="Mask"></g>
                <g id="card-1-copy-2" mask="url(#mask-7)">
                    <g transform="translate(23.040000, 11.517730)">
                        <rect id="box" fill="#FFFFFF" fill-rule="evenodd" x="0" y="0" width="149.76" height="92.141844" rx="2"></rect>
                        <circle id="avatar" fill="#E2E6E8" fill-rule="evenodd" cx="23.04" cy="23.035461" r="12"></circle>
                        <rect id="Rectangle-2" fill="#E2E6E8" fill-rule="nonzero" x="46.08" y="20.1560284" width="57.6" height="5.75886525" rx="2.87943262"></rect>
                        <rect id="Rectangle-2-Copy" fill="#E2E6E8" fill-rule="nonzero" x="11.52" y="46.070922" width="126.72" height="5.75886525" rx="2.87943262"></rect>
                        <rect id="Rectangle-2-Copy-3" fill="#E2E6E8" fill-rule="nonzero" x="11.52" y="57.5886525" width="57.6" height="5.75886525" rx="2"></rect>
                    </g>
                </g>
            </g>
            <g id="girl-2" transform="translate(590.400000, 92.141844)">
                <path d="M102.115637,65.5382856 C101.802098,65.5382856 101.511338,65.3373406 101.411515,65.0235727 C101.289584,64.6363698 101.505309,64.2237985 101.893882,64.1016293 C108.166658,62.1315675 111.620939,58.8423456 112.162262,54.3240881 C113.292474,44.8810102 101.566275,31.567906 90.0531209,24.6483229 C89.704745,24.4386993 89.5921928,23.98674 89.8025583,23.638925 C90.0122537,23.2911099 90.4651424,23.1789546 90.8155282,23.3885783 C102.720605,30.5451562 114.827337,44.473112 113.62678,54.4983295 C113.011093,59.6421199 109.212456,63.3452484 102.337391,65.5035708 C102.263696,65.5269365 102.189331,65.5382856 102.115637,65.5382856" id="Fill-32" fill="#2B2F33"></path>
                <path d="M109.910681,121.653801 L57.2871613,135.546375 C66.0159875,144.999466 60.1753315,180.733622 64.6626811,191.43778 C64.6626811,191.43778 62.1382957,195.016736 60.109676,195.237041 C58.2264363,195.441992 52.1057397,195.646942 53.561549,192.318332 C57.4446004,183.441372 42.0075281,131.337212 42.0075281,131.337212 C41.3194857,128.356417 42.7404574,125.382966 45.2963306,123.969675 L46.5283754,123.290735 L98.8953033,94.372018 C106.077877,90.4051909 113.803112,91.4639906 117.783307,98.6212362 C121.764172,105.778482 120.493269,116.32442 113.310696,120.291247 C112.236091,120.884736 111.045583,121.347377 109.910681,121.653801" id="Fill-33" fill="#FFB7AA"></path>
                <path d="M76.2631967,7.4585164 C85.8127162,7.05996444 87.6577686,21.5493644 95.1585698,27.7579628 C105.804133,36.5688319 120.857992,55.735376 97.367407,65.5676596 C83.9683338,59.0746673 84.153241,25.4267343 84.153241,25.4267343 L71.0569868,14.963577 L76.2631967,7.4585164 Z" id="Fill-34" fill="#2B2F33"></path>
                <path d="M120.569443,109.754522 C119.805026,112.073066 119.106264,114.399621 118.418892,116.727512 C117.72549,119.054735 117.093054,121.389301 116.42712,123.719862 L114.559959,130.7269 C113.808941,133.615567 113.197943,136.216503 112.791281,137.745287 C112.203062,140.085194 111.624222,142.425769 111.081559,144.771017 C110.518798,147.113594 109.995565,149.461513 109.458932,151.806761 C108.399735,156.499927 106.519175,161.759878 105.856591,164.910241 C114.83263,190.074425 97.4567118,211.994783 96.2340464,227.692523 C96.2340464,227.692523 93.0376975,229.721333 90.5642286,228.774021 C88.0907597,227.826709 85.1623922,228.586428 86.1123865,226.122348 C86.133825,226.067606 87.8502463,222.488649 87.8730247,222.435242 L87.9775375,222.193574 L88.6193531,220.712189 L89.1955132,219.148023 C89.5385295,218.068528 89.8627871,216.974346 90.1501972,215.846784 C90.442967,214.720558 90.6901799,213.576974 90.9079148,212.41136 C91.1417286,211.255759 91.3286457,210.074123 91.5242722,208.899162 C91.6944404,207.712853 91.8458499,206.525208 91.9771608,205.325546 C92.1205309,204.132561 92.2263836,202.924888 92.3416156,201.722557 C92.5620304,199.311885 92.6518042,196.877847 92.755647,194.445145 C92.8534602,192.011107 92.8943274,189.567723 92.8789185,187.121669 C92.8829382,184.67695 92.8092433,182.226222 92.726839,179.778165 C92.640415,177.329441 92.4943651,174.880716 92.3402757,172.438 L92.0542055,168.780267 C91.9510326,167.5766 91.8398203,166.325535 91.7172188,165.195303 L91.7674653,164.161871 C91.9255744,159.36189 92.060905,154.558572 92.1392896,149.748577 C92.1714474,147.343246 92.2176742,144.938582 92.2230338,142.529913 C92.249162,140.123246 92.2391127,137.712575 92.2196841,135.300567 C92.1962357,132.887893 92.2129845,130.480559 92.1573784,128.064546 L91.9959195,120.815841 C91.8987763,118.394487 91.8344607,115.977807 91.7105193,113.553116 C91.5919375,111.129759 91.4619665,108.704401 91.2656701,106.271698 C90.601076,98.0142622 96.7793887,90.7835816 105.065376,90.1213311 C113.352032,89.458413 120.60897,95.6149393 121.273564,103.871708 C121.436363,105.898515 121.160342,107.933333 120.569443,109.754522" id="Fill-35" fill="#FFB7AA"></path>
                <path d="M98.1685376,234.646887 C98.1685376,234.646887 97.9005561,237.933439 97.3887115,238.223841 C95.6548715,239.208538 84.4197486,239.070347 83.1682751,239.365422 C80.78458,239.928869 68.0380417,239.589733 66.861603,238.099002 C65.6851644,236.608271 66.6720061,234.598821 66.6720061,234.598821 L98.1685376,234.646887 Z" id="Fill-36" fill="#E2E6E8"></path>
                <path d="M97.974854,234.962391 C98.7486505,234.675327 97.8113853,227.816495 97.2050772,227.204313 C96.5974293,226.5928 92.5448796,229.480132 89.9642181,228.247759 C87.3835566,227.016053 86.018861,224.662126 85.4386811,224.509248 C84.8578313,224.355034 77.4112963,231.802682 77.4112963,231.802682 C77.4112963,231.802682 65.821098,234.015747 66.761043,234.659972 C72.7926358,238.793697 94.8769883,236.111316 97.974854,234.962391" id="Fill-37" fill="#FFFFFF"></path>
                <path d="M85.6255312,229.675135 C85.4486634,229.675135 85.2711257,229.611714 85.1297655,229.484872 L82.3688864,226.990751 C82.0667373,226.717706 82.0446288,226.252395 82.3179699,225.951979 C82.591981,225.650228 83.0589387,225.628865 83.3604178,225.901242 L86.1212969,228.394695 C86.423446,228.66774 86.4455544,229.133051 86.1722134,229.434135 C86.0268334,229.594357 85.8265173,229.675135 85.6255312,229.675135" id="Fill-38" fill="#E2E6E8"></path>
                <path d="M82.7265747,232.475213 C82.549037,232.475213 82.3721692,232.411792 82.230809,232.28495 L79.4699299,229.790829 C79.1677808,229.517784 79.1456724,229.052473 79.4190135,228.752057 C79.6930245,228.450973 80.1599822,228.428943 80.4614614,228.70132 L83.2223404,231.194773 C83.5238195,231.467818 83.546598,231.933129 83.2732569,232.234213 C83.1278769,232.393767 82.9275608,232.475213 82.7265747,232.475213" id="Fill-39" fill="#E2E6E8"></path>
                <path d="M66.1046224,196.547857 C66.1046224,196.547857 65.8366409,199.835076 65.3247963,200.124811 C63.5909562,201.110175 52.3551634,200.971316 51.1043599,201.266391 C48.7199948,201.829838 35.9741264,201.490702 34.7976878,200.000639 C33.6212492,198.50924 34.6080909,196.500458 34.6080909,196.500458 L66.1046224,196.547857 Z" id="Fill-40" fill="#E2E6E8"></path>
                <path d="M65.9110058,196.863427 C66.6841323,196.576363 65.7475371,189.717531 65.141229,189.106017 C64.533581,188.494503 60.4810314,191.381168 57.9003699,190.148795 C55.3197084,188.917089 53.9543428,186.56383 53.3748329,186.410284 C52.7939831,186.256738 45.3474481,193.704385 45.3474481,193.704385 C45.3474481,193.704385 33.7572498,195.916783 34.6971948,196.561008 C40.7287876,200.694733 62.81314,198.012352 65.9110058,196.863427" id="Fill-41" fill="#FFFFFF"></path>
                <path d="M53.561683,191.576171 C53.3841452,191.576171 53.2072775,191.51275 53.0659172,191.385908 L50.3057082,188.891787 C50.0035591,188.618742 49.9814506,188.154099 50.2541217,187.853015 C50.5301426,187.551931 50.9957604,187.531236 51.2972396,187.802278 L54.0574487,190.296399 C54.3589278,190.568776 54.3817062,191.034087 54.1083651,191.335171 C53.9623152,191.495393 53.762669,191.576171 53.561683,191.576171" id="Fill-42" fill="#E2E6E8"></path>
                <path d="M50.6623245,194.376249 C50.4847868,194.376249 50.307919,194.312828 50.1665588,194.185986 L47.4056797,191.691865 C47.1035306,191.41882 47.0814222,190.953509 47.3547633,190.653093 C47.6281044,190.352677 48.095732,190.331314 48.3972112,190.602356 L51.1580902,193.096477 C51.4595693,193.368854 51.4823478,193.834165 51.2090067,194.135249 C51.0636267,194.295471 50.8633106,194.376249 50.6623245,194.376249" id="Fill-43" fill="#E2E6E8"></path>
                <path d="M76.2631967,7.4585164 C76.2631967,7.4585164 73.8433241,4.22003136 69.4993446,5.13062579 C65.1546951,6.04055263 37.5499244,14.5122853 36.0927752,27.0943772 C34.3709943,41.9556255 46.5581214,46.1387521 56.2516809,36.0080552 C58.9033575,33.2362165 76.2631967,7.4585164 76.2631967,7.4585164" id="Fill-44" fill="#2B2F33"></path>
                <path d="M56.2516139,36.008122 C56.6535861,35.5882071 57.3972347,34.6328841 58.3633078,33.3257404 L51.5003025,27.1859039 C46.3429993,28.4109338 37.2477084,38.0849983 49.4006678,40.7500225 C51.6838698,39.8874946 54.0327274,38.3273339 56.2516139,36.008122" id="Fill-45" fill="#2B2F33"></path>
                <path d="M55.9055158,36.3546686 C56.8548402,48.2304489 43.7599259,51.5690727 43.759256,60.6369643 C43.758586,78.5257388 63.5563866,77.4235457 61.4393331,84.948634 C59.8435035,90.6218243 55.4720558,103.001636 66.0157865,106.340927 C79.8858372,110.73301 88.8866646,78.6485756 88.8866646,78.6485756 L81.0180589,47.4033034 L55.9055158,36.3546686 Z" id="Fill-46" fill="#2B2F33"></path>
                <path d="M88.288664,68.0336081 L56.2514799,87.8497185 L55.8153401,88.1194253 C55.0576225,88.588742 54.1980719,88.8143878 53.3673294,88.8210637 L10.3522846,88.9993106 C8.31294571,89.0073217 6.65280053,87.3663824 6.64409114,85.3349023 C6.63672165,83.4142423 8.12200891,81.830716 10.0052487,81.6551395 L52.8467754,77.8051409 L49.9619549,78.7758185 L79.902854,55.9355198 C83.1420799,53.4640971 87.7781593,54.0776135 90.2583277,57.305417 C92.7384962,60.5332206 92.1228088,65.1536195 88.8835828,67.6243746 C88.693316,67.7699095 88.4883102,67.9094361 88.288664,68.0336081" id="Fill-47" fill="#FFB7AA"></path>
                <path d="M88.288664,68.0336081 L56.2514799,87.8497185 L55.8153401,88.1194253 C55.0576225,88.588742 54.1980719,88.8143878 53.3673294,88.8210637 L44.8669573,88.8557784 L44.1219689,78.5895606 L51.0198118,77.9693683 L79.902854,55.9355198 C83.1420799,53.4640971 87.7781593,54.0776135 90.2583277,57.305417 C92.7384962,60.5332206 92.1228088,65.1536195 88.8835828,67.6243746 C88.693316,67.7699095 88.4883102,67.9094361 88.288664,68.0336081" id="Fill-48" fill="#003E80"></path>
                <path d="M79.1147875,33.426747 C79.7264552,36.0997823 87.6573666,46.024861 87.6573666,46.024861 L80.4124877,57.4506849 C80.4124877,57.4506849 80.0245846,48.3567572 74.7460197,45.5655583 C69.4674548,42.7736918 79.1147875,33.426747 79.1147875,33.426747" id="Fill-49" fill="#FFB7AA"></path>
                <path d="M79.7340257,35.3646976 L73.3125198,41.9171055 C72.9494049,43.4225237 73.2307855,44.764382 74.7462207,45.5654915 C76.5530857,46.5208146 77.7871403,48.2158287 78.6286021,50.0310092 C80.3537328,45.9954203 79.5692171,37.9382617 79.7340257,35.3646976" id="Fill-50" fill="#FF9491"></path>
                <path d="M52.7696637,23.1814915 C48.1469835,31.070417 57.5524629,37.2997107 58.6980837,39.5087701 C60.5230374,43.0289787 57.7547889,45.5204291 57.7547889,45.5204291 C58.7235419,47.6119924 60.2651053,46.7474618 60.8519847,47.2695181 C61.4388641,47.7915745 60.948458,49.3644194 60.948458,49.3644194 C60.948458,49.3644194 61.5688351,49.9565728 62.8544762,49.8971572 C62.6333915,50.1982408 62.6709089,50.9773198 62.8940035,51.110838 C63.117098,51.2443563 65.0894416,51.132201 65.3627827,51.5153983 C65.7158483,52.0114186 67.0859035,53.7244577 68.5015156,52.8252123 C70.1717101,51.7650775 77.6939498,43.2980179 79.1149215,33.427014 C81.2802117,18.3828457 64.2372605,3.61105464 52.7696637,23.1814915" id="Fill-51" fill="#FFB7AA"></path>
                <path d="M80.2728024,25.2175112 C81.6837248,27.4245678 81.0325299,30.3526229 78.818333,31.75857 C76.6034662,33.1645172 73.6643795,32.5156185 72.2534571,30.3092295 C70.8425347,28.1021729 71.4937296,25.1741178 73.7085964,23.7681706 C75.9227933,22.3615559 78.86188,23.0111222 80.2728024,25.2175112" id="Fill-52" fill="#FFB7AA"></path>
                <path d="M78.457228,26.3704412 C79.2290146,27.5781138 78.8725993,29.1803327 77.661323,29.9493978 C76.4493769,30.7191305 74.8414881,30.3633044 74.0690315,29.1562994 C73.2972449,27.9486269 73.6536602,26.346408 74.8656064,25.5773429 C76.0768826,24.8076102 77.6854414,25.1627687 78.457228,26.3704412" id="Fill-53" fill="#FF9491"></path>
                <path d="M76.1022739,8.43219821 C75.7773463,8.43219821 75.479217,8.21589865 75.3907831,7.88744376 C74.8729089,5.97279212 74.9988602,3.22098109 78.5315258,0.98722084 C78.8772219,0.7695861 79.3321205,0.871059967 79.5505254,1.21353427 C79.7689303,1.55667616 79.6664273,2.01063819 79.3227411,2.22827293 C77.0623175,3.65825334 76.2416242,5.38397666 76.8151046,7.50558158 C76.9216272,7.89745763 76.6878134,8.30135033 76.2945506,8.40682974 C76.230235,8.42418711 76.1659195,8.43219821 76.1022739,8.43219821" id="Fill-54" fill="#2B2F33"></path>
                <path d="M76.4666617,8.71452254 C76.3112324,8.71452254 76.1537933,8.66578838 76.0204725,8.56364692 C75.6968849,8.31797335 75.6339093,7.85666781 75.8804522,7.53355365 C75.9494574,7.44342884 77.6096026,5.300461 80.3269347,4.2803816 C80.7094782,4.13885226 81.1342288,4.32978336 81.2775989,4.70964276 C81.4216389,5.08950217 81.2286923,5.51409019 80.8474887,5.65695472 C78.5214095,6.52882886 77.06895,8.40609539 77.054881,8.42478794 C76.909501,8.61505144 76.6897562,8.71452254 76.4666617,8.71452254" id="Fill-55" fill="#2B2F33"></path>
                <path d="M64.6941019,84.0483205 C64.6110277,84.0483205 64.5266135,84.0343011 64.4435393,84.0049271 C52.5498519,79.7410219 43.3004717,75.9217325 41.387084,68.9166977 C38.9919997,60.1438814 44.1211649,55.0708557 49.0808319,50.1653954 C51.0484858,48.2193669 53.0824651,46.2065794 54.5845012,44.0001904 C54.8136254,43.664392 55.2725436,43.5762699 55.6088604,43.8045861 C55.946517,44.0322347 56.0342809,44.4895347 55.8051568,44.8260007 C54.2240661,47.1498858 52.1378304,49.2127427 50.1206,51.2088404 C45.2453472,56.0301843 40.6420956,60.5851592 42.8107356,68.53083 C44.5372062,74.8515838 53.4589791,78.5033078 64.9439947,82.6210105 C65.3272082,82.7585342 65.5261844,83.1797843 65.3888439,83.5616465 C65.2796414,83.8620625 64.996921,84.0483205 64.6941019,84.0483205" id="Fill-56" fill="#2B2F33"></path>
                <path d="M80.4121528,57.4509519 C79.3027095,61.00454 67.1839177,68.8153574 66.3230273,73.8703582 C65.2738798,80.03089 85.8133192,109.709993 102.597668,116.694333 C119.382017,123.678672 107.762341,90.228346 107.762341,90.228346 C107.762341,90.228346 99.2773779,88.0226246 97.9863772,84.1626121 C96.6953765,80.3025996 100.824971,61.6554415 91.7893058,53.0822349 C88.4381976,49.9024979 87.1739951,47.6360257 86.9086934,46.0424855 C86.4591545,43.3380734 80.4121528,57.4509519 80.4121528,57.4509519" id="Fill-57" fill="#2053AF"></path>
                <path d="M57.3752602,17.3042186 C55.7841202,18.7535591 54.2311676,20.6869033 52.7693288,23.1816917 C51.4019533,25.5149231 51.2679626,27.7019519 51.7784673,29.6833627 C58.5644279,27.1859039 64.7266617,27.5497411 67.3066532,18.7922794 C68.5943042,14.4255652 62.2002664,16.1119006 57.3752602,17.3042186" id="Fill-58" fill="#FF9491"></path>
                <path d="M78.8651628,13.789551 L61.9582122,11.9923955 L51.5002355,17.9960434 L51.5002355,27.1854366 C53.7191221,25.7154007 63.3724844,25.7154007 65.401104,20.3853524 C65.401104,26.2167617 71.1392571,28.7402566 77.7932369,31.9300075 C76.1022739,41.5586757 80.957428,52.4878117 91.4388531,44.5541576 L95.1584358,32.5014656 L78.8651628,13.789551 Z" id="Fill-59" fill="#2B2F33"></path>
                <path d="M78.441886,29.6832959 C78.441886,27.3327072 76.5291683,25.4267343 74.1702615,25.4267343 C71.8113547,25.4267343 69.898637,27.3327072 69.898637,29.6832959 C69.898637,32.0338847 71.8113547,33.93919 74.1702615,33.93919 C76.5291683,33.93919 78.441886,32.0338847 78.441886,29.6832959" id="Fill-60" fill="#FFB7AA"></path>
                <path d="M109.910681,121.653801 L57.2871613,135.546375 C64.5708975,143.433965 61.7095254,169.622234 63.1700244,184.296556 C63.4601143,187.207254 54.3259661,187.991006 54.0285067,184.396695 C52.5954758,167.07337 42.0075281,131.337212 42.0075281,131.337212 C41.3194857,128.356417 42.7404574,125.382966 45.2963306,123.969675 L46.5283754,123.290735 L98.8953033,94.372018 C106.077877,90.4051909 114.530682,92.0147534 118.511547,99.1713313 C122.491741,106.329244 120.493269,116.32442 113.310696,120.291247 C112.236091,120.884736 111.045583,121.347377 109.910681,121.653801" id="Fill-61" fill="#2B2F33"></path>
                <path d="M120.569443,109.754522 C119.805026,112.073066 119.106264,114.399621 118.418892,116.727512 C117.72549,119.054735 117.093054,121.389301 116.42712,123.719862 L114.559959,130.7269 C113.808941,133.615567 113.197943,136.216503 112.791281,137.745287 C112.203062,140.085194 111.624222,142.425769 111.081559,144.771017 C110.518798,147.113594 109.995565,149.461513 109.458932,151.806761 C108.399735,156.499927 106.519175,161.759878 105.856591,164.910241 C113.897375,187.452127 100.792411,207.391074 97.0949369,222.58545 C92.3704236,224.827889 88.6193531,220.712189 88.6193531,220.712189 L89.1955132,219.148023 C89.5385295,218.068528 89.8627871,216.974346 90.1501972,215.846784 C90.442967,214.720558 90.6901799,213.576974 90.9079148,212.41136 C91.1417286,211.255759 91.3286457,210.074123 91.5242722,208.899162 C91.6944404,207.712853 91.8458499,206.525208 91.9771608,205.325546 C92.1205309,204.132561 92.2263836,202.924888 92.3416156,201.722557 C92.5620304,199.311885 92.6518042,196.877847 92.755647,194.445145 C92.8534602,192.011107 92.8943274,189.567723 92.8789185,187.121669 C92.8829382,184.67695 92.8092433,182.226222 92.726839,179.778165 C92.640415,177.329441 92.4943651,174.880716 92.3402757,172.438 L92.0542055,168.780267 C91.9510326,167.5766 91.8398203,166.325535 91.7172188,165.195303 L91.7674653,164.161871 C91.9255744,159.36189 92.060905,154.558572 92.1392896,149.748577 C92.1714474,147.343246 92.2176742,144.938582 92.2230338,142.529913 C92.249162,140.123246 92.2391127,137.712575 92.2196841,135.300567 C92.1962357,132.887893 92.2129845,130.480559 92.1573784,128.064546 L91.9959195,120.815841 C91.8987763,118.394487 91.8344607,115.977807 91.7105193,113.553116 C91.5919375,111.129759 91.4619665,108.704401 91.2656701,106.271698 C90.601076,98.0142622 96.7793887,90.7835816 105.065376,90.1213311 C113.352032,89.458413 120.60897,95.6149393 121.273564,103.871708 C121.436363,105.898515 121.160342,107.933333 120.569443,109.754522" id="Fill-62" fill="#2B2F33"></path>
                <path d="M76.1026088,29.6832959 C76.1026088,28.6198231 75.2370287,27.7579628 74.1704625,27.7579628 C73.1032263,27.7579628 72.2376462,28.6198231 72.2376462,29.6832959 C72.2376462,30.7467688 73.1032263,31.608629 74.1704625,31.608629 C75.2370287,31.608629 76.1026088,30.7467688 76.1026088,29.6832959" id="Fill-63" fill="#FF9491"></path>
                <path d="M84.1979939,102.488592 C91.0697086,112.417009 120.430428,119.235118 121.314767,104.86989 C121.826611,96.5690607 115.866703,91.0914747 106.471273,89.7683089 C97.5870178,88.5172429 92.4531629,90.779042 92.4531629,90.779042 C92.4531629,90.779042 78.658817,94.4861761 84.1979939,102.488592" id="Fill-89" fill="#003E80"></path>
                <path d="M10.1785657,87.866742 C7.9516397,87.9328336 4.02906101,87.2699155 3.43012244,86.8726987 L3.43012244,77.383557 L8.61623373,82.1027594 L10.1785657,87.866742 Z" id="Fill-91" fill="#FF9491"></path>
                <path d="M3.49664884,71.046247 C3.49664884,71.046247 3.52344698,71.3039372 3.56967379,71.7545613 C3.56967379,72.0302765 3.68825558,72.1137254 3.74319178,72.3113324 C3.77601951,72.4642108 3.9555671,72.7492722 4.07682871,73.0049597 C4.23091805,73.2713286 4.43123419,73.5577252 4.65499872,73.8568061 C4.90087171,74.1565545 5.14875457,74.4696548 5.46497269,74.7934366 C6.0605615,75.4403325 6.79081099,76.1232783 7.54584876,76.8549583 C8.29820672,77.5732864 9.0807126,78.3690552 9.79019353,79.1962007 C10.1399093,79.6281322 10.4856054,80.0333601 10.781055,80.4919953 C10.9311246,80.7156383 11.0825341,80.9259296 11.2171948,81.1462347 C11.344486,81.379224 11.4670875,81.6042023 11.5856693,81.8198342 C11.8342221,82.2417519 11.9983608,82.6910408 12.1504403,83.084252 C12.2254751,83.2825266 12.2944803,83.468117 12.3594658,83.6396879 C12.4043527,83.8219403 12.4452199,83.9888381 12.4827373,84.1403813 C12.6214177,84.7545653 12.6998023,85.1050507 12.6998023,85.1050507 C13.0588974,86.7019289 12.0512871,88.2861228 10.4494279,88.6439517 C8.84689877,89.0011131 7.25709874,87.9970558 6.89867353,86.4008452 C6.86048617,86.2319446 6.83770774,86.0623765 6.82899835,85.8948111 L6.81559927,85.5636858 C6.81559927,85.5636858 6.80889974,85.4101398 6.81760913,85.1284163 C6.8209589,85.0576517 6.82430867,84.9782083 6.82832839,84.8927566 C6.81492932,84.803967 6.80086029,84.7078339 6.78545136,84.6056924 C6.75530344,84.3980715 6.74525414,84.1590739 6.64945077,83.8860291 C6.61193336,83.7485053 6.573746,83.6043056 6.53354878,83.4554327 C6.4826323,83.3045571 6.41027731,83.1456704 6.34730166,82.9807754 C6.23474945,82.6523205 6.03912298,82.2951592 5.85488572,81.9219757 C5.44956376,81.170268 4.94173888,80.3564743 4.36088906,79.5026251 C3.79343831,78.6527814 3.1777509,77.771561 2.63709829,76.8542907 C2.36107738,76.4130129 2.1178842,75.931012 1.89277977,75.4810555 C1.67973451,75.0137417 1.48879772,74.5531037 1.35145722,74.1078204 C1.23488528,73.6304926 1.09955464,73.2686582 1.06873677,72.7919981 C1.03188932,72.3700804 0.977623073,71.9221267 1.02518978,71.7438798 C1.07476635,71.2939233 1.10357436,71.0362331 1.10357436,71.0362331 C1.17592936,70.3786558 1.77017825,69.9033308 2.43142252,69.9754307 C3.0055728,70.0388518 3.44104268,70.4954842 3.49664884,71.046247" id="Fill-92" fill="#FFB7AA"></path>
                <path d="M97.9866452,84.1624118 C97.2061492,81.8311833 98.4013465,74.1024796 97.4801602,66.4578925 L83.5203358,67.0894338 C85.1985697,70.0715638 88.5007713,80.0306897 99.7023965,86.4522497 C98.8957723,85.7719743 98.2686957,85.0069147 97.9866452,84.1624118" id="Fill-93" fill="#003E80"></path>
                <g id="avatar" transform="translate(70.560000, 76.304965)">
                    <ellipse fill="url(#linearGradient-8)" cx="23.04" cy="23.035461" rx="23.04" ry="23.035461"></ellipse>
                    <g id="Icons/module" transform="translate(12.672000, 12.669504)">
                        <g id="Group-13">
                            <polygon id="Path-2" fill="#006FE6" points="10.5720622 10.304891 10.5720622 19.6368365 1.06156413 14.9708637 1.06156413 6.2000529"></polygon>
                            <path d="M10.5011667,21 C10.073,21 9.66116667,20.7643333 9.45583333,20.3548333 C9.16766667,19.7785 9.40216667,19.0785 9.9785,18.7891667 L18.6666667,14.4456667 L18.6666667,5.83333333 C18.6666667,5.18933333 19.1893333,4.66666667 19.8333333,4.66666667 C20.4773333,4.66666667 21,5.18933333 21,5.83333333 L21,15.1666667 C21,15.6088333 20.7503333,16.0125 20.3548333,16.2108333 L11.0215,20.8775 C10.8546667,20.9603333 10.6761667,21 10.5011667,21" id="Fill-2" fill="url(#linearGradient-9)"></path>
                            <path d="M10.4988333,21 C10.3238333,21 10.1453333,20.9603333 9.9785,20.8775 L0.645166667,16.2108333 C0.249666667,16.0125 0,15.6088333 0,15.1666667 L0,5.83333333 C0,5.18933333 0.522666667,4.66666667 1.16666667,4.66666667 C1.81066667,4.66666667 2.33333333,5.18933333 2.33333333,5.83333333 L2.33333333,14.4456667 L11.0215,18.7891667 C11.5978333,19.0785 11.8323333,19.7785 11.5441667,20.3548333 C11.3388333,20.7643333 10.927,21 10.4988333,21" id="Fill-4" fill="url(#linearGradient-10)"></path>
                            <path d="M3.7751,5.83333333 L10.4997667,9.19566667 L17.2244333,5.83333333 L10.4997667,2.471 L3.7751,5.83333333 Z M10.4997667,11.6666667 C10.3212667,11.6666667 10.1427667,11.6258333 9.97826667,11.5441667 L0.644933333,6.8775 C0.249433333,6.67916667 -0.000233333333,6.2755 -0.000233333333,5.83333333 C-0.000233333333,5.39116667 0.249433333,4.9875 0.644933333,4.78916667 L9.97826667,0.1225 C10.3061,-0.0408333333 10.6934333,-0.0408333333 11.0212667,0.1225 L20.3546,4.78916667 C20.7501,4.9875 20.9997667,5.39116667 20.9997667,5.83333333 C20.9997667,6.2755 20.7501,6.67916667 20.3546,6.8775 L11.0212667,11.5441667 C10.8579333,11.6258333 10.6782667,11.6666667 10.4997667,11.6666667 Z" id="Fill-6" fill="url(#linearGradient-11)"></path>
                            <polygon id="Fill-9" fill="#7FBCFF" points="3.7751 5.83333333 10.4997667 9.19566667 17.2244333 5.83333333 10.4997667 2.471"></polygon>
                            <polygon id="Fill-11" fill="#006FE6" points="10.5 2.47123333 10.5 9.1959 17.2246667 5.83356667"></polygon>
                        </g>
                    </g>
                </g>
                <path d="M74.7106461,111.957439 C79.352755,112.584307 81.9334165,110.918667 84.0457804,110.22504 C86.1574744,109.531413 92.58233,109.995388 94.8507931,106.342329 C97.1199261,102.68927 100.363842,110.13358 100.363842,110.13358 C100.363842,110.13358 95.2051986,122.41125 91.8976373,122.972027 C90.9275444,123.136254 89.6861203,122.597508 88.2624688,122.530081 C87.710427,122.504713 87.1034489,123.253083 86.3859286,123.042791 C85.4473235,122.768411 85.425215,121.994006 84.673527,121.817761 C83.3483587,121.506664 82.5591533,122.77976 81.2708324,122.041405 C80.0374477,121.335761 82.8934601,114.427527 82.8934601,114.427527 C82.8934601,114.427527 77.2397212,115.305409 75.6224531,114.41284 C74.5907244,113.844052 74.7106461,111.957439 74.7106461,111.957439" id="Fill-95" fill="#FFB7AA"></path>
                <path d="M92.626011,55.5919106 L124.078325,75.5081597 L124.535904,75.7985619 C127.006693,77.3633957 127.737612,80.6279168 126.166571,83.0906609 C126.005112,83.3450131 125.803456,83.6020358 125.60783,83.8190029 L99.9365453,111.84248 C98.5611304,113.343893 96.225672,113.45004 94.7189462,112.080142 C93.3060139,110.794362 93.1345058,108.652729 94.2526584,107.155322 L117.082669,76.7872645 L118.612174,85.0974401 L85.338255,68.3769502 C81.695717,66.5464151 80.2318682,62.1202853 82.0682112,58.4899242 C83.9052242,54.8602307 88.3476869,53.4015438 91.9902249,55.232079 C92.2072899,55.3415639 92.4250249,55.4657359 92.626011,55.5919106" id="Fill-96" fill="#FFB7AA"></path>
                <path d="M92.626011,55.5919106 L124.078325,75.5081597 L124.535904,75.7985619 C127.006693,77.3633957 127.737612,80.6279168 126.166571,83.0906609 C126.005112,83.3450131 125.803456,83.6020358 125.60783,83.8190029 L117.258867,92.9329583 L108.579617,88.0975951 L112.967814,82.260845 L85.338255,68.3769502 C81.695717,66.5464151 80.2318682,62.1202853 82.0682112,58.4899242 C83.9052242,54.8602307 88.3476869,53.4015438 91.9902249,55.232079 C92.2072899,55.3415639 92.4250249,55.4657359 92.626011,55.5919106" id="Fill-97" fill="#2053AF"></path>
            </g>
            <g id="girl-1" transform="translate(296.640000, 207.319149)">
                <path d="M168.857768,163.23295 L101.757219,176.994008 C97.1479377,177.939317 92.6431692,174.983223 91.6945149,170.390196 C90.8530531,166.315886 93.0960579,162.323691 96.8297097,160.813599 L160.28772,135.093312 C167.868246,132.02039 176.513328,135.652754 179.596455,143.207216 C182.679582,150.761011 179.034364,159.375608 171.453838,162.447863 C170.625105,162.783661 169.703249,163.053368 168.857768,163.23295" id="Fill-102" fill="#2B2F33"></path>
                <path d="M151.004842,173.682956 C151.004842,173.682956 154.993747,173.650244 157.518132,174.274442 C160.042517,174.897304 158.105681,169.370984 158.105681,169.370984 L153.35638,165.661847 L149.751359,165.810052 L151.004842,173.682956 Z" id="Fill-103" fill="#FFB7AA"></path>
                <path d="M71.8927615,174.656971 C69.2028976,177.057629 67.8194432,178.757984 66.1425492,180.436976 C64.9795097,181.601923 70.9548264,186.231668 70.9548264,186.231668 L76.960291,182.270182 L77.5759784,181.170659 L77.5759784,176.000833 L71.8927615,174.656971 Z" id="Fill-104" fill="#FFB7AA"></path>
                <path d="M77.9242873,189.712288 C77.9242873,189.712288 77.6563059,192.999508 77.1444613,193.289242 C75.4106212,194.274607 64.1754983,194.136416 62.9246948,194.431491 C60.5403297,194.99427 47.7937914,194.655134 46.6173527,193.16507 C45.4409141,191.673671 46.4284258,189.664889 46.4284258,189.664889 L77.9242873,189.712288 Z" id="Fill-105" fill="#FFFFFF"></path>
                <path d="M77.7306707,190.027859 C78.5044672,189.740795 77.567872,182.881962 76.960894,182.270449 C76.3539159,181.658935 72.3006963,184.5456 69.7200348,183.313226 C67.1400432,182.08152 65.7746777,179.728261 65.1944978,179.574715 C64.6143179,179.421169 57.167113,186.868817 57.167113,186.868817 C57.167113,186.868817 45.5769147,189.081214 46.5168597,189.72544 C52.5484525,193.859165 74.6334749,191.176783 77.7306707,190.027859" id="Fill-106" fill="#FC6627"></path>
                <path d="M65.3810129,184.740603 C65.2048151,184.740603 65.0272774,184.677182 64.8859172,184.551007 L62.1250381,182.056219 C61.823559,181.783174 61.8007805,181.31853 62.0741216,181.017447 C62.3481327,180.717031 62.8137505,180.694333 63.1165695,180.96671 L65.8774486,183.460831 C66.1789277,183.733208 66.2017061,184.198519 65.9276951,184.499603 C65.7823152,184.659825 65.581999,184.740603 65.3810129,184.740603" id="Fill-107" fill="#FFFFFF"></path>
                <path d="M62.4819894,187.540681 C62.3051217,187.540681 62.1282539,187.47726 61.9862237,187.350417 L59.2260146,184.856297 C58.9238655,184.583252 58.9010871,184.118608 59.1750982,183.817525 C59.4484393,183.517109 59.914727,183.494411 60.2175461,183.766788 L62.9777551,186.260909 C63.2799042,186.533286 63.3026827,186.998597 63.0286716,187.299681 C62.8832917,187.459902 62.6829755,187.540681 62.4819894,187.540681" id="Fill-108" fill="#FFFFFF"></path>
                <path d="M72.738042,92.4063275 C73.7831697,93.2308026 83.4974978,99.5415425 95.4246829,98.5001002 C107.352538,97.4579903 95.9780646,92.1893603 95.9780646,92.1893603 L72.738042,92.4063275 Z" id="Fill-109" fill="#FFB7AA"></path>
                <path d="M139.29901,121.813521 L138.753668,122.236774 C136.443668,124.029256 133.113328,123.617352 131.313832,121.316165 C131.135625,121.088517 130.966127,120.824818 130.830796,120.578477 L111.999068,85.8129962 C111.030985,84.0251869 111.700269,81.7927619 113.495075,80.8274249 C115.183358,79.9188333 117.274284,80.4689284 118.321421,82.024416 L135.875742,107.483118 L154.845285,89.3031632 C157.925062,86.0406448 163.077005,85.8844285 166.351069,88.9533454 C169.625133,92.0235974 169.781902,97.1567064 166.701455,100.419225 C166.421414,100.716303 166.087107,101.014716 165.775579,101.259722 L139.29901,121.813521 Z" id="Fill-110" fill="#FF9491"></path>
                <g id="cards">
                    <path d="M2,0 L147.76,0 C148.864569,-2.02906125e-16 149.76,0.8954305 149.76,2 L149.76,90.141844 C149.76,91.2464135 148.864569,92.141844 147.76,92.141844 L2,92.141844 C0.8954305,92.141844 7.98370909e-15,91.2464135 0,90.141844 L0,2 C-1.3527075e-16,0.8954305 0.8954305,2.02906125e-16 2,0 Z" id="box" stroke="#C2C7C8" fill="#FFFFFF" stroke-linecap="round" stroke-linejoin="round" stroke-dasharray="2,2,2,2"></path>
                    <circle id="avatar" fill="#E2E6E8" cx="23.04" cy="23.035461" r="12"></circle>
                    <g id="ic_cms" transform="translate(17.280000, 17.276596)">
                        <mask id="mask-13" fill="white">
                            <use xlink:href="#path-12"></use>
                        </mask>
                        <use id="Mask" fill="#676B6D" xlink:href="#path-12"></use>
                    </g>
                    <rect id="Rectangle-2" fill="#E2E6E8" fill-rule="nonzero" x="46.08" y="20.1560284" width="57.6" height="5.75886525" rx="2.87943262"></rect>
                    <rect id="Rectangle-2-Copy" fill="#E2E6E8" fill-rule="nonzero" x="11.52" y="46.070922" width="126.72" height="5.75886525" rx="2.87943262"></rect>
                    <rect id="Rectangle-2-Copy-2" fill="#E2E6E8" fill-rule="nonzero" x="11.52" y="57.5886525" width="126.72" height="5.75886525" rx="2.87943262"></rect>
                    <rect id="Rectangle-2-Copy-3" fill="#E2E6E8" fill-rule="nonzero" x="11.52" y="69.106383" width="57.6" height="5.75886525" rx="2.87943262"></rect>
                </g>
                <path d="M137.276085,42.4804508 C122.497577,37.3112919 127.861896,10.7932332 151.024204,22.9200278 C167.500375,31.5473092 137.276085,42.4804508 137.276085,42.4804508" id="Fill-112" fill="#003E80"></path>
                <path d="M138.277398,44.0959548 C138.185614,44.0959548 138.091821,44.079265 138.001377,44.0425475 C130.409462,40.9863148 125.877895,36.0695055 125.569047,30.5525316 C125.332553,26.3320198 127.676721,22.3678631 131.686394,20.2088731 C137.320034,17.1733358 144.712303,18.3249306 151.462086,23.2871362 C151.789693,23.5281367 151.859368,23.988107 151.617515,24.3152267 C151.374992,24.6416788 150.913394,24.7111083 150.585786,24.4701079 C144.308991,19.8557173 137.504941,18.7455131 132.387835,21.5019973 C128.886657,23.3879425 126.837939,26.8240346 127.041605,30.4710854 C127.318296,35.3952383 131.513546,39.8454014 138.554089,42.6793262 C138.931943,42.8308694 139.11484,43.259463 138.96209,43.636652 C138.846188,43.9223811 138.569498,44.0959548 138.277398,44.0959548" id="Fill-113" fill="#003E80"></path>
                <path d="M144.704397,61.5204864 C145.380381,65.889871 144.261558,74.0985727 144.058562,75.1113086 C143.854896,76.1253796 157.991588,72.2740459 157.991588,72.2740459 C157.991588,72.2740459 152.150932,62.6427072 152.855723,58.9736258 C153.560515,55.3032093 144.704397,61.5204864 144.704397,61.5204864" id="Fill-114" fill="#FFB7AA"></path>
                <path d="M152.799179,59.7699954 C152.79248,59.481596 152.809229,59.2138919 152.855455,58.9735591 C153.560247,55.3038101 144.704129,61.5204196 144.704129,61.5204196 C145.159028,64.4571534 144.802612,69.1256189 144.458256,72.1805163 C146.43462,64.1060004 151.956378,60.5130244 152.799179,59.7699954" id="Fill-115" fill="#FF9491"></path>
                <path d="M98.9591574,177.194953 C112.383689,178.372584 148.269757,172.938391 151.005177,173.682755 C153.234783,169.62113 149.775143,165.983426 149.775143,165.983426 C149.775143,165.983426 144.426233,166.443396 141.14078,165.536807 C139.479965,165.079507 124.556077,161.618714 117.417721,161.493875 C109.976545,161.363695 91.3665725,160.439081 90.0762418,167.178414 C88.8106993,173.783562 92.7701255,176.652201 98.9591574,177.194953" id="Fill-116" fill="#484C4F"></path>
                <path d="M93.5373564,168.904204 L89.9182667,168.243289 C89.2643919,174.092056 93.1146156,176.681642 98.9592914,177.19502 C105.613271,177.778494 117.786999,176.737052 128.705904,175.630186 C109.424638,176.842532 98.6216347,174.656838 93.5373564,168.904204" id="Fill-117" fill="#676B6D"></path>
                <path d="M160.171617,169.463579 L115.871602,146.250764 C116.377417,157.162543 89.0694354,169.905524 78.3528567,180.384036 C78.0828653,180.648402 77.8235933,180.910098 77.5757104,181.170459 C77.0109395,177.991389 73.5372298,175.694208 71.8924935,174.656771 C72.1484158,174.322308 72.4545846,174.020557 72.8096601,173.764202 L73.0642425,173.579946 C73.8199502,173.032522 74.6245646,172.421676 75.4412381,171.692666 C75.8478999,171.346854 76.2559017,170.977676 76.6632335,170.594478 C77.0712353,170.225301 77.4772272,169.836095 77.8825492,169.438878 C78.695203,168.661802 79.4991474,167.837994 80.2990721,167.012184 C81.1003366,166.187041 81.890882,165.335862 82.6814273,164.486019 C85.8328893,161.05727 88.901947,157.482987 91.9214282,153.855296 C94.9382295,150.222932 97.9074641,146.533155 100.835832,142.807996 L105.19723,137.196225 L107.351801,134.374316 L109.466845,131.563757 C110.808762,129.338676 113.409522,128.331948 115.815325,128.903406 L117.835236,129.388078 L170.870107,142.056289 C178.868684,143.967602 183.798203,151.977362 181.880796,159.947066 C179.963389,167.917438 171.925284,172.829574 163.926708,170.918928 C162.606899,170.603157 161.307859,170.083771 160.171617,169.463579" id="Fill-118" fill="#2B2F33"></path>
                <path d="M141.598023,73.2587429 L157.991119,67.9073316 C157.991119,67.9073316 170.348415,78.6495421 171.835712,84.5316884 C173.323009,90.4124995 169.633574,111.120512 172.953864,118.472694 C176.274155,125.824209 199.268304,171.438714 162.256044,173.427469 C162.256044,143.591481 157.045145,138.505772 139.703394,134.611712 C141.839876,131.281767 143.151646,126.777529 142.481692,120.713798 C140.307022,101.011845 132.454496,98.5831485 134.55614,89.7609305 C136.064876,83.4281601 142.089769,81.1002695 141.598023,73.2587429" id="Fill-120" fill="#006FE6"></path>
                <path d="M144.38905,29.0262177 C147.890898,27.8933154 166.585285,28.6970953 164.221018,47.268148 C162.484498,60.9010285 138.566483,62.8997966 135.540972,62.1654463 C132.515461,61.4304283 132.260879,56.3380424 132.260879,56.3380424 C133.277869,55.273902 133.233652,55.306614 133.233652,55.306614 C133.233652,55.306614 131.726926,54.0829193 131.548718,52.4613402 L132.871207,51.7016214 C132.871207,51.7016214 131.078411,48.8256384 131.803301,46.8375517 C131.803301,46.8375517 136.481587,47.3435858 137.243994,46.0771653 C138.007072,44.8107447 134.600357,32.1932705 144.38905,29.0262177" id="Fill-121" fill="#FFB7AA"></path>
                <path d="M144.38905,29.0262177 C142.65454,29.587662 141.340091,30.4495222 140.33784,31.4882942 C140.33918,32.9349644 140.617881,41.6189911 149.957035,42.3780423 C157.843729,43.0189299 152.435864,32.3207804 150.541905,28.9427688 C147.789065,28.530865 145.423459,28.6910869 144.38905,29.0262177" id="Fill-122" fill="#FF9491"></path>
                <path d="M143.631132,29.3019997 C141.948208,39.8192319 149.956834,42.378109 149.956834,42.378109 C149.956834,42.378109 141.92275,50.6982985 155.245448,62.2970285 L160.178317,59.4764556 C160.178317,59.4764556 172.257581,51.8846081 171.314287,41.4915479 C170.094301,28.0382495 157.991588,25.8592317 151.02407,22.9198275 C148.227014,21.7408614 143.631132,29.3019997 143.631132,29.3019997" id="Fill-123" fill="#003E80"></path>
                <path d="M156.160672,52.9180393 C156.160672,50.5674506 154.248624,48.6614777 151.889717,48.6614777 C149.53081,48.6614777 147.618093,50.5674506 147.618093,52.9180393 C147.618093,55.268628 149.53081,57.1739334 151.889717,57.1739334 C154.248624,57.1739334 156.160672,55.268628 156.160672,52.9180393" id="Fill-124" fill="#FFB7AA"></path>
                <path d="M153.82173,52.9180393 C153.82173,51.8538989 152.95615,50.9920386 151.889583,50.9920386 C150.822347,50.9920386 149.956767,51.8538989 149.956767,52.9180393 C149.956767,53.9815122 150.822347,54.8433724 151.889583,54.8433724 C152.95615,54.8433724 153.82173,53.9815122 153.82173,52.9180393" id="Fill-125" fill="#FF9491"></path>
                <path d="M171.835578,67.9075319 C171.835578,61.9793218 166.675595,57.1740002 160.310365,57.1740002 C153.944465,57.1740002 148.784482,61.9793218 148.784482,67.9075319 C148.784482,73.835742 153.944465,78.6410637 160.310365,78.6410637 C166.675595,78.6410637 171.835578,73.835742 171.835578,67.9075319" id="Fill-126" fill="#003E80"></path>
                <path d="M138.017322,103.554567 C139.741783,107.457305 141.393218,112.654503 142.481893,120.713664 C142.920043,123.956155 142.23066,128.263453 142.23468,128.260783 C154.774873,121.031438 164.961518,93.5987789 165.738664,90.9224057 L138.017322,103.554567 Z" id="Fill-127" fill="#003E80"></path>
                <path d="M138.265138,115.377674 L137.736544,115.831636 C136.138035,117.202869 133.929868,117.415163 132.146451,116.549297 L96.4814678,99.1779056 C94.6491445,98.2853361 93.889417,96.082285 94.7851451,94.2557554 C95.6279468,92.5387108 97.6498669,91.7729837 99.4098352,92.430561 L131.463633,104.960451 L152.239031,82.1029247 C155.155339,78.6942039 160.293214,78.2869733 163.713997,81.1936655 C167.134781,84.1003577 167.542783,89.2194472 164.625804,92.628168 C164.361173,92.9379304 164.042275,93.2516982 163.744145,93.5113912 L138.265138,115.377674 Z" id="Fill-128" fill="#FFB7AA"></path>
                <path d="M95.4497391,95.4489412 C95.4497391,95.4489412 94.7992141,94.9602645 93.8237616,94.2272493 C93.3058874,93.8273621 92.6962296,93.3480316 92.0771924,92.7685625 C91.7629841,92.4915121 91.4581552,92.1663952 91.1452869,91.8512921 C90.8478274,91.5088178 90.5316093,91.1863713 90.2575983,90.811185 C89.9688482,90.4540237 89.7048865,90.0741643 89.4616933,89.6869614 C89.2030912,89.3157806 89.0141643,88.8965333 88.8017889,88.5220147 C88.6242512,88.1221275 88.4527431,87.737595 88.3154026,87.3657467 C88.1974907,86.9825493 88.0748892,86.6273908 87.991815,86.29226 C87.9248196,85.9537912 87.8638538,85.6440289 87.8095876,85.3689813 C87.7586711,85.0952689 87.7566612,84.8509305 87.7338828,84.6533235 C87.702395,84.2581095 87.6843062,84.0324637 87.6843062,84.0324637 C87.6353996,83.4282936 88.0882883,82.8988938 88.6945964,82.8501596 C89.235249,82.8067662 89.7156057,83.1605895 89.8489265,83.6652885 L89.885774,83.8048151 C89.885774,83.8048151 89.9320008,83.9790564 90.0123952,84.2848131 C90.0579521,84.4356888 90.08743,84.6239495 90.1651446,84.8275648 C90.2428593,85.0285098 90.3299532,85.2554908 90.4250867,85.5038347 C90.5329492,85.7455028 90.6763193,85.9958495 90.8076302,86.2635535 C90.9603796,86.5239141 91.1405972,86.7869451 91.3188048,87.0593223 C91.5351999,87.3123394 91.7140775,87.5940629 91.9646402,87.8410716 C92.1957742,88.0980942 92.4423171,88.3491085 92.7123085,88.5834331 C92.9622012,88.8297742 93.2636803,89.0400655 93.5309918,89.2630409 C93.8251015,89.468659 94.0977726,89.6796179 94.3938922,89.8598675 C94.9626828,90.2350538 95.538173,90.5461513 96.0413082,90.8131878 C97.1319928,91.3739644 97.8595624,91.7484831 97.8595624,91.7484831 C98.950917,92.3099273 99.3783474,93.6464449 98.8149164,94.733951 C98.2521553,95.8214571 96.9102381,96.2480479 95.8188836,95.6866037 C95.7090112,95.6298585 95.6058383,95.5657697 95.510035,95.4943374 L95.4497391,95.4489412 Z" id="Fill-129" fill="#FFB7AA"></path>
                <path d="M163.744145,93.5113912 L147.897731,107.110892 L139.145457,97.4027805 L152.239031,82.1029247 C155.155339,78.6942039 160.293214,78.2869733 163.713997,81.1936655 C167.134781,84.1003577 167.542783,89.2194472 164.625804,92.628168 C164.361173,92.9379304 164.042275,93.2516982 163.744145,93.5113912" id="Fill-130" fill="#006FE6"></path>
                <path d="M147.89753,107.84571 C147.695874,107.84571 147.494218,107.763596 147.348838,107.602039 L138.165784,97.4152644 L151.677409,81.6267319 C151.941371,81.3169696 152.408328,81.2795845 152.716507,81.5439506 C153.027366,81.8069815 153.064213,82.2709574 152.799581,82.5793846 L140.126068,97.389896 L148.446222,106.619345 C148.718894,106.921096 148.693435,107.387075 148.390616,107.658117 C148.249926,107.783624 148.073058,107.84571 147.89753,107.84571" id="Fill-131" fill="#003E80"></path>
                <path d="M162.767688,79.4854331 C160.409451,79.4861006 157.943352,78.899288 155.535538,77.7176515 C155.170413,77.5367343 155.019674,77.0967916 155.200561,76.7322868 C155.380779,76.3684496 155.822278,76.2195768 156.188073,76.397156 C161.094144,78.8064928 166.025673,78.5554785 169.721137,75.7115398 C172.908106,73.2581421 174.463739,69.2318994 173.684583,65.4540006 C173.070905,62.4785465 170.493594,57.0890826 160.126061,54.4253936 C159.731458,54.3232521 159.493624,53.9226974 159.595457,53.5294861 C159.69729,53.1356073 160.100602,52.9019504 160.494535,53.0007539 C171.637874,55.8647203 174.44699,61.8463376 175.130343,65.1575901 C176.022051,69.4815785 174.253373,74.0806145 170.623565,76.8751514 C168.37051,78.6095534 165.649159,79.4854331 162.767688,79.4854331" id="Fill-132" fill="#003E80"></path>
                <path d="M152.654536,160.344817 C152.654536,160.344817 154.659708,157.720516 155.247257,157.751225 C157.240369,157.854034 166.62709,164.008557 167.840376,164.432478 C170.152386,165.239596 180.702816,172.375478 180.887054,174.262759 C181.070621,176.150707 179.151204,177.311648 179.151204,177.311648 L152.654536,160.344817 Z" id="Fill-133" fill="#FFFFFF"></path>
                <path d="M152.988575,160.183126 C152.422464,160.060289 150.906359,162.888873 150.058868,165.013149 C149.698433,165.917067 148.708241,165.087919 148.708241,165.796233 C148.708241,167.362402 154.593784,167.717561 156.09984,170.142252 C157.605896,172.566944 157.482624,175.281369 157.887276,175.722647 C158.293268,176.163925 168.595146,173.89545 168.595146,173.89545 C168.595146,173.89545 179.552238,178.260829 179.109399,177.213378 C176.268125,170.490067 156.218422,160.880091 152.988575,160.183126" id="Fill-134" fill="#FC6627"></path>
                <path d="M161.101915,176.209922 C160.776988,176.209922 160.479528,175.994958 160.390424,175.667838 L159.415642,172.082873 C159.309119,171.690997 159.540923,171.287772 159.934856,171.181625 C160.328789,171.072808 160.734111,171.306465 160.839293,171.698341 L161.814076,175.282638 C161.921268,175.674514 161.688795,176.078407 161.295532,176.184554 C161.230546,176.201911 161.166231,176.209922 161.101915,176.209922" id="Fill-135" fill="#FFFFFF"></path>
                <path d="M165.058862,175.410615 C164.733935,175.410615 164.436475,175.194983 164.347372,174.867863 L163.372589,171.283566 C163.266066,170.891022 163.49854,170.487797 163.891803,170.38165 C164.285066,170.273501 164.691058,170.50649 164.796911,170.898366 L165.771023,174.482663 C165.878216,174.874539 165.645742,175.278432 165.253149,175.384579 C165.187494,175.401936 165.123178,175.410615 165.058862,175.410615" id="Fill-136" fill="#FFFFFF"></path>
            </g>
            <g id="box-1" transform="translate(593.280000, 292.262411)">
                <polygon id="Fill-137" fill="#4DA3FF" points="2.88 87.822695 103.68 87.822695 103.68 38.8723404 2.88 38.8723404"></polygon>
                <polygon id="Fill-138" fill="#006FE6" points="17.28 44.6312057 74.88 44.6312057 74.88 0 17.28 0"></polygon>
                <polygon id="Fill-139" fill="#006FE6" points="15.84 7.19858156 77.76 7.19858156 77.76 0 15.84 0"></polygon>
                <polygon id="Fill-140" fill="#4DA3FF" points="0 47.5106383 108 47.5106383 108 38.8723404 0 38.8723404"></polygon>
                <polygon id="Fill-141" fill="#4DA3FF" points="17.28 8.63829787 74.88 8.63829787 74.88 7.19858156 17.28 7.19858156"></polygon>
                <polygon id="Fill-142" fill="#006FE6" points="2.88 48.9503546 103.68 48.9503546 103.68 47.5106383 2.88 47.5106383"></polygon>
            </g>
            <g id="man-1" transform="translate(44.640000, 94.503546)">
                <path d="M9.00141865,280.758723 L9.00141865,265.93219 C9.00141865,262.886639 11.4789073,260.417886 14.5352359,260.417886 C17.5908945,260.417886 20.0683832,262.886639 20.0683832,265.93219 L20.0683832,280.758723 C20.0683832,283.804274 9.00141865,283.804274 9.00141865,280.758723" id="Fill-147" fill="#FFB7AA"></path>
                <path d="M30.798495,279.460659 L34.6105313,263.776271 C35.3300616,260.816171 38.316045,258.99832 41.2913092,259.715313 C44.2612138,260.431639 46.0854976,263.412433 45.3666373,266.372533 L41.554601,282.056921 C40.9409235,284.580416 30.0789648,282.420758 30.798495,279.460659" id="Fill-148" fill="#FFB7AA"></path>
                <path d="M29.3420827,281.370237 C29.3420827,281.370237 29.699838,285.264296 30.219722,285.540679 C31.9796903,286.47731 43.2074437,286.034029 44.4656167,286.295725 C46.8640508,286.793748 59.5965201,286.109467 60.7320916,284.586691 C61.8669931,283.064583 60.8252151,281.082505 60.8252151,281.082505 L29.3420827,281.370237 Z" id="Fill-149" fill="#E2E6E8"></path>
                <path d="M29.5671872,281.762046 C28.7860212,281.496345 29.6227933,274.907219 30.2123525,274.279684 C30.8025817,273.652148 34.8223037,276.668325 37.3687975,275.366522 C39.9139515,274.064719 41.2150015,271.676078 41.7904917,271.50651 C42.3659819,271.336942 50.0141729,278.578971 50.0141729,278.578971 C50.0141729,278.578971 61.6599774,280.476265 60.7381211,281.145859 C54.8224303,285.442477 32.6945308,282.826187 29.5671872,281.762046" id="Fill-150" fill="#FFFFFF"></path>
                <path d="M42.3198221,277.45201 C42.1255355,277.45201 41.9319189,277.375905 41.7872089,277.225029 C41.5051584,276.931957 41.5152077,276.466646 41.8093174,276.18559 L44.5011912,273.617366 C44.7946309,273.33631 45.2622586,273.34766 45.5436391,273.640064 C45.8256896,273.933137 45.8156403,274.398448 45.5208607,274.680172 L42.8296568,277.247727 C42.6869567,277.383916 42.5033894,277.45201 42.3198221,277.45201" id="Fill-151" fill="#E2E6E8"></path>
                <path d="M44.6990285,279.396103 C44.504742,279.396103 44.3111254,279.319997 44.1664154,279.169122 C43.8850348,278.876717 43.8944142,278.410738 44.1891938,278.129682 L46.8803976,275.561459 C47.1738373,275.28107 47.641465,275.291084 47.9235155,275.584157 C48.204896,275.877229 48.1948467,276.342541 47.9007371,276.624264 L45.2095332,279.19182 C45.0668331,279.328009 44.8825958,279.396103 44.6990285,279.396103" id="Fill-152" fill="#E2E6E8"></path>
                <g id="cards" transform="translate(38.880000, 0.000000)">
                    <path d="M6.32,4.31914894 L152.08,4.31914894 C153.184569,4.31914894 154.08,5.21457944 154.08,6.31914894 L154.08,94.4609929 C154.08,95.5655624 153.184569,96.4609929 152.08,96.4609929 L6.32,96.4609929 C5.2154305,96.4609929 4.32,95.5655624 4.32,94.4609929 L4.32,6.31914894 C4.32,5.21457944 5.2154305,4.31914894 6.32,4.31914894 Z" id="box" fill="#2B2F33" opacity="0.247433036"></path>
                    <path d="M2,0 L147.76,0 C148.864569,1.54939706e-14 149.76,0.8954305 149.76,2 L149.76,90.141844 C149.76,91.2464135 148.864569,92.141844 147.76,92.141844 L2,92.141844 C0.8954305,92.141844 1.3527075e-16,91.2464135 0,90.141844 L0,2 C-1.3527075e-16,0.8954305 0.8954305,2.02906125e-16 2,0 Z" id="box" fill="#FFFFFF"></path>
                    <circle id="avatar" fill="#E2E6E8" cx="23.04" cy="20.1560284" r="12"></circle>
                    <g id="ic_bot" transform="translate(17.280000, 14.397163)">
                        <mask id="mask-15" fill="white">
                            <use xlink:href="#path-14"></use>
                        </mask>
                        <use id="Mask" fill="#676B6D" xlink:href="#path-14"></use>
                    </g>
                    <rect id="Rectangle-2" fill="#E2E6E8" fill-rule="nonzero" x="46.08" y="17.2765957" width="34.56" height="5.75886525" rx="2.87943262"></rect>
                    <rect id="Rectangle-2-Copy" fill="#E2E6E8" fill-rule="nonzero" x="11.52" y="40.3120567" width="126.72" height="5.75886525" rx="2.87943262"></rect>
                    <rect id="Rectangle-3" fill="#006FE6" fill-rule="nonzero" x="11.52" y="57.5886525" width="126.72" height="23.035461" rx="2"></rect>
                </g>
                <path d="M7.62158209,268.756368 C7.33752173,258.89738 6.53089753,231.189674 6.3607293,228.474581 C6.08939806,225.529168 4.62420941,163.774309 4.62420941,163.774309 C3.98507362,155.58697 10.1272088,148.434398 18.3428505,147.796848 C26.5591622,147.159299 33.7377157,153.279775 34.3775214,161.467114 C34.4934234,162.959848 34.3661322,164.485294 34.0599634,165.876554 C34.0599634,165.876554 33.6867992,167.534183 33.0938902,170.43954 C32.8051402,171.892886 32.4333159,173.656662 32.0547921,175.682134 C31.6709086,177.708273 31.21802,179.992103 30.7792003,182.487559 C30.335691,184.983015 29.8238464,187.684089 29.3535389,190.546053 C28.8785418,193.407349 28.3358793,196.421523 27.8501629,199.54585 C27.357077,202.669509 26.8472423,205.896645 26.3293681,209.176521 C25.8456616,212.458399 25.3545855,215.79235 24.8628395,219.126301 L24.5024045,221.62643 L24.4166504,222.251963 L24.3731034,222.564395 C24.3556846,222.868149 24.3911922,222.193215 24.3858325,222.277331 L24.3824828,222.316719 L24.3737734,222.394827 L24.3583644,222.551044 L24.2310732,223.804112 L24.1037821,225.054511 L24.0401365,225.678709 L24.0086486,225.989806 L24.0006092,226.067914 C24.0106585,225.446387 24.0019491,225.918374 24.003959,225.789529 L24.0012791,225.828249 L23.9912298,225.985133 C23.9389734,226.817619 23.888057,227.648103 23.8371405,228.474581 C23.6294549,231.782495 23.4639763,235.038338 23.3105569,238.189368 C23.2315024,239.764216 23.1537878,241.313695 23.077413,242.829795 C23.0191271,244.345894 22.9615111,245.829282 22.9059049,247.272614 C22.7879931,250.161282 22.6928596,252.89173 22.6379234,255.412554 C22.5628886,257.932711 22.5153219,260.242577 22.4938834,262.290747 C22.456366,264.338916 22.4503364,266.124055 22.4476566,267.594091 C22.4382772,270.534831 7.68388778,270.91202 7.62158209,268.756368" id="Fill-154" fill="#003E80"></path>
                <path d="M24.0011451,225.828449 L24.003825,225.789061 C24.0018151,225.918574 24.0111945,225.446587 24.0011451,226.067447 L24.0085146,225.990006 L24.0406724,225.678241 L24.1036481,225.054711 L24.2309393,223.804313 L24.3582305,222.551244 L24.3743093,222.39436 L24.3823488,222.316252 L24.3863685,222.277531 C24.3910582,222.193415 24.3555506,222.867682 24.3736394,222.563928 L24.4165164,222.252163 L24.5029404,221.62663 L24.8627056,219.126501 C25.3544515,215.79255 25.8455276,212.4586 26.3299041,209.176721 C26.8477783,205.896846 27.356943,202.66971 27.8506989,199.54605 C28.3357453,196.421723 28.8784078,193.407549 29.3534049,190.545585 C29.8237124,187.683622 30.335557,184.982548 30.7790663,182.487759 C30.856111,182.049152 30.9344956,181.625231 31.0115403,181.199308 L26.1242283,176.988143 C22.7731201,182.85627 22.3182216,213.808469 23.8370065,228.474781 C23.887923,227.648303 23.9395094,226.817152 23.9910958,225.984666 L24.0011451,225.828449 Z" id="Fill-155" fill="#102A59"></path>
                <path d="M56.821974,213.742711 L56.8728905,214.402292 L56.8976788,214.732749 L56.9767333,218.188201 L56.9774033,218.690898 L56.9459154,219.140854 C56.8347031,220.325829 56.7857965,221.512138 56.5801207,222.676417 L56.2592129,224.416828 C56.2592129,224.416828 48.3865875,258.7911 45.6806446,270.671553 C45.1420019,273.035494 32.0691961,270.247633 32.3137292,268.722855 C32.822894,265.677971 38.692358,221.729105 38.692358,221.729105 L38.7245158,220.851223 C38.7519839,220.269083 38.6501509,219.682271 38.6434514,219.108142 C38.6387617,219.038713 38.4129873,217.735575 38.4129873,217.735575 L22.5886818,166.674192 C19.853931,158.941483 23.9279192,150.464409 31.6873225,147.739302 C39.4473958,145.014195 47.9551373,149.073817 50.6898881,156.806526 C51.1494764,158.105659 56.821974,213.742711 56.821974,213.742711" id="Fill-156" fill="#003E80"></path>
                <path d="M39.2834581,31.770628 L20.8161854,56.4494729 L22.7650806,52.0133292 L23.7472327,87.0445112 C23.9187408,93.1663228 19.0776557,98.2673873 12.9335107,98.4389583 C6.79070556,98.6098616 1.67091968,93.7858474 1.49941154,87.6640359 C1.47797303,86.8909652 1.54898811,86.0765039 1.67962908,85.344824 L8.05356821,50.8797593 L8.33628865,49.3503078 C8.55335364,48.1766824 9.16368142,47.1699548 10.0031334,46.4436156 L33.3369494,26.2676735 C35.0393017,24.7956348 37.6172834,24.9772196 39.0945312,26.6742365 C40.3748126,28.1442724 40.4063004,30.2718857 39.2834581,31.770628" id="Fill-157" fill="#FFB7AA"></path>
                <path d="M22.9019522,56.8913515 L23.7474337,87.0444445 C23.9189418,93.166256 19.0778567,98.2679882 12.9337117,98.4388915 C6.79023659,98.6097949 1.67112067,93.7857807 1.49961253,87.6639691 C1.47750406,86.8915661 1.54851915,86.0764372 1.67916011,85.3447572 L7.2772929,55.0788413 L22.9019522,56.8913515 Z" id="Fill-158" fill="#006FE6"></path>
                <path d="M17.1478542,66.4218171 C17.1478542,66.4218171 17.4218652,70.9854707 16.2856238,73.160483 C15.1500524,75.3361628 32.5145813,76.1012223 32.5145813,76.1012223 C32.5145813,76.1012223 31.8727657,73.9722739 32.3035459,71.7131452 C32.7336561,69.4540165 24.5119848,63.1439442 24.5119848,63.1439442 L17.1478542,66.4218171 Z" id="Fill-159" fill="#FFB7AA"></path>
                <path d="M17.5629575,71.6034599 C27.9840867,70.1327565 31.6071961,76.0709804 34.4196615,77.5416839 C37.232127,79.0117198 45.1637084,78.643877 47.3765653,80.8495984 C49.5900922,83.0553198 50.6948458,136.050047 45.7164202,143.34081 C43.1927047,147.037931 11.4965271,149.925263 8.75574664,143.34081 C3.2219294,130.047734 -1.88110763,83.912507 2.74559235,82.5038895 C13.2658747,79.2994516 14.3264113,72.0600923 17.5629575,71.6034599" id="Fill-160" fill="#4DA3FF"></path>
                <path d="M32.4399485,76.0979511 C32.4848354,76.0999539 32.5149833,76.1012891 32.5149833,76.1012891 C32.5149833,76.1012891 31.8724977,73.9716731 32.3032779,71.7132119 C32.4962246,70.6991409 30.9439419,68.8672705 29.1759342,67.1575694 L23.9683844,66.0179912 C24.9277581,66.9065551 26.8706237,71.7886497 32.4399485,76.0979511" id="Fill-162" fill="#FF9491"></path>
                <path d="M82.4058984,97.7460331 L107.697719,84.2857572 C109.668053,83.1982511 112.150901,83.907233 113.242925,85.8706188 C114.19694,87.5863283 113.771519,89.691911 112.335808,90.9222816 L87.6835234,112.062225 C86.0474965,113.465502 83.8701471,113.836015 81.9527398,113.234516 L80.6088127,112.807257 L41.4299226,100.39006 C35.5818971,98.5361596 32.3487008,92.3095362 34.2084921,86.4821324 C36.0689534,80.6547285 42.3176112,77.4336009 48.1656367,79.2868341 C48.7913735,79.4851087 49.4412285,79.7641619 50.0039896,80.0565668 L82.4058984,97.7460331 Z" id="Fill-164" fill="#FFB7AA"></path>
                <path d="M21.4207516,63.0215747 C24.538716,67.8228908 34.2470145,74.4300412 38.3900079,72.3952231 C42.755426,70.2509201 43.8621894,42.9244084 33.1027336,42.9264112 C24.9219295,42.9277464 15.3342226,53.6479263 21.4207516,63.0215747" id="Fill-165" fill="#FFB7AA"></path>
                <path d="M17.1478542,66.4218171 C17.1478542,66.4218171 27.3847461,68.045399 31.5036212,60.3867924 C35.0021192,53.8831187 36.3105387,49.7266957 39.733332,48.6772423 C44.1161688,47.3347163 45.198144,44.4580657 43.2619779,41.8851691 C41.3251419,39.311605 36.8833491,41.2416112 34.3013477,40.5980533 C31.7193463,39.9551629 25.7909264,35.8895323 18.162164,40.0472905 C6.35758052,46.479532 16.1951801,59.5910237 17.1478542,66.4218171" id="Fill-166" fill="#102A59"></path>
                <path d="M33.9630881,58.8553381 C33.9630881,56.7237193 32.229248,54.9959932 30.090086,54.9959932 C27.950254,54.9959932 26.2164139,56.7237193 26.2164139,58.8553381 C26.2164139,60.9869569 27.950254,62.7153506 30.090086,62.7153506 C32.229248,62.7153506 33.9630881,60.9869569 33.9630881,58.8553381" id="Fill-167" fill="#FFB7AA"></path>
                <path d="M32.3032109,58.8553381 C32.3032109,57.6369841 31.3123494,56.6496167 30.089684,56.6496167 C28.8676885,56.6496167 27.8768271,57.6369841 27.8768271,58.8553381 C27.8768271,60.0736921 28.8676885,61.0610595 30.089684,61.0610595 C31.3123494,61.0610595 32.3032109,60.0736921 32.3032109,58.8553381" id="Fill-168" fill="#FF9491"></path>
                <path d="M4.57831758,160.984779 C4.57831758,160.984779 6.17347725,148.545552 8.75547866,143.340343 L45.7168221,143.340343 C45.7168221,143.340343 50.1385163,152.678609 50.6898881,156.806326 C51.2405901,160.93471 4.57831758,160.984779 4.57831758,160.984779" id="Fill-169" fill="#003E80"></path>
                <path d="M32.3146671,269.457872 C32.2744699,269.457872 32.2336027,269.455202 32.1927356,269.447859 C31.7907634,269.381767 31.5194321,269.002575 31.5864275,268.602688 C32.0875528,265.603868 37.9020807,222.072247 37.9610366,221.632305 L37.9871648,220.825187 C38.0012338,220.526106 37.9764455,220.219682 37.9503173,219.895232 C37.9288788,219.634204 37.9087802,219.375179 37.9054304,219.117488 C37.8913614,219.044053 37.7319124,218.126115 37.6937251,217.906478 L21.8834886,166.890492 C21.762897,166.502621 21.9819718,166.090717 22.3712149,165.971218 C22.7611279,165.853722 23.1731494,166.069354 23.2937411,166.457225 L39.1180465,217.518607 C39.1274259,217.548649 39.1347954,217.579358 39.140155,217.610735 C39.3726289,218.953261 39.3766487,219.016015 39.3793285,219.063414 C39.3833482,219.322439 39.4027769,219.54942 39.4208656,219.777069 C39.4496736,220.132895 39.4791516,220.501405 39.4610628,220.886605 L39.429575,221.755809 C39.183702,223.621059 33.5467119,265.821503 33.0415668,268.843689 C32.981271,269.20352 32.6690726,269.457872 32.3146671,269.457872" id="Fill-170" fill="#102A59"></path>
                <path d="M42.6933882,205.463646 C42.5848558,205.463646 42.4749834,205.439612 42.3718105,205.389543 C35.7908557,202.210474 30.9959973,194.837596 28.889663,189.49019 C28.7402634,189.113001 28.9278504,188.685743 29.3070442,188.537538 C29.685568,188.388665 30.1143383,188.574923 30.263068,188.953447 C32.2722591,194.053844 36.8178946,201.072231 43.014966,204.067045 C43.3821006,204.243956 43.53485,204.683899 43.3573123,205.049071 C43.2300211,205.310767 42.9673993,205.463646 42.6933882,205.463646" id="Fill-171" fill="#102A59"></path>
                <path d="M40.7326349,273.229362 C40.7058367,273.229362 40.6790386,273.228027 40.6522404,273.225357 C40.2469185,273.181963 39.9541487,272.818794 39.9976957,272.414901 C40.7379945,265.592786 44.9359241,254.807182 48.9958433,244.378072 C53.0249446,234.02707 56.8309514,224.250197 56.2494316,220.720642 C56.1831062,220.320087 56.4557773,219.941563 56.8577495,219.876139 C57.2664213,219.806042 57.6395855,220.081757 57.7052409,220.482312 C58.3517462,224.407748 54.653602,233.908907 50.3719281,244.908807 C46.3461766,255.250463 42.1837545,265.943939 41.4648942,272.573788 C41.424027,272.950309 41.1044592,273.229362 40.7326349,273.229362" id="Fill-172" fill="#102A59"></path>
                <path d="M14.3859032,272.494011 C11.815961,272.494011 9.36393057,272.01201 7.34402029,271.232931 C7.12293558,271.148147 6.4590115,266.227332 7.2743451,266.079794 C7.76408123,265.991004 8.28396527,266.041741 8.7737014,266.256038 C11.0394847,267.247411 16.5317648,268.385654 21.1041985,265.589115 C21.7105066,265.219269 22.5204806,264.888144 23.049744,265.278017 C23.7062985,265.761353 23.3706518,270.233547 23.150907,270.354381 C20.3819885,271.871148 17.3075711,272.494011 14.3859032,272.494011" id="Fill-161" fill="#2053AF"></path>
                <path d="M39.3960103,273.64921 C41.9612629,273.806762 44.4380816,273.476304 46.5028788,272.8234 C46.7286531,272.7513 47.6953963,267.880555 46.8907819,267.682948 C46.4077453,267.564784 45.8851815,267.583477 45.3833862,267.767064 C43.0606568,268.617575 37.5080809,269.416015 33.1178746,266.344427 C32.5356848,265.937197 31.7478193,265.558005 31.1951076,265.914499 C30.509745,266.356444 30.5680309,270.841322 30.7804062,270.97484 C33.4495016,272.659173 36.479702,273.468961 39.3960103,273.64921" id="Fill-163" fill="#2053AF"></path>
                <path d="M48.7328195,126.369774 C49.3853544,116.261107 49.3665957,103.807193 48.9579239,94.4682592 L33.7580153,91.0902476 C34.977331,95.0176868 38.7866875,115.341834 48.7328195,126.369774" id="Fill-173" fill="#006FE6"></path>
                <path d="M50.0039896,80.0565668 L78.4763502,94.6173991 L73.2393225,110.472023 L41.4299226,100.39006 C35.5818971,98.5361596 32.3487008,92.3095362 34.2084921,86.4821324 C36.0689534,80.6547285 42.3176112,77.4336009 48.1656367,79.2868341 C48.7913735,79.4851087 49.4412285,79.7641619 50.0039896,80.0565668" id="Fill-174" fill="#4DA3FF"></path>
                <path d="M46.5669263,44.0904232 C46.5669263,40.1229286 43.3390896,36.906474 39.357555,36.906474 C35.3760204,36.906474 32.1481836,40.1229286 32.1481836,44.0904232 C32.1481836,48.0579179 35.3760204,51.2743724 39.357555,51.2743724 C43.3390896,51.2743724 46.5669263,48.0579179 46.5669263,44.0904232" id="Fill-175" fill="#102A59"></path>
                <path d="M27.2112281,38.8729308 C27.2112281,36.4956384 29.1453843,34.5683025 31.5310893,34.5683025 C33.9167943,34.5683025 35.8509505,36.4956384 35.8509505,38.8729308 C35.8509505,41.2502231 33.9167943,43.177559 31.5310893,43.177559 C29.1453843,43.177559 27.2112281,41.2502231 27.2112281,38.8729308" id="Fill-176" fill="#102A59"></path>
                <path d="M40.4830101,53.4347644 C38.8992397,53.4347644 37.0354286,53.1543761 34.8553994,52.4427238 C34.4681662,52.3158815 34.2578007,51.9006398 34.383752,51.5154396 C34.5103732,51.1289043 34.9270844,50.9179455 35.3149876,51.0454554 C39.5705332,52.4347127 43.101859,52.2444492 45.5257513,50.4946926 C47.4478484,49.1067705 48.596149,46.7127883 48.596149,44.09049 C48.596149,41.6190673 47.0318072,39.1122622 44.7037182,37.8545203 C42.0366327,36.4131909 38.8161654,36.75433 35.6365654,38.8158517 C35.294219,39.0361568 34.8379806,38.9400237 34.615556,38.6002197 C34.3931314,38.2597482 34.4902746,37.804451 34.8312811,37.5828107 C39.7628099,34.3863839 43.5741763,35.5713583 45.4071695,36.5620637 C48.1975265,38.0694847 50.0713869,41.0956758 50.0713869,44.09049 C50.0713869,47.182105 48.6959721,50.0213705 46.3913315,51.6856754 C45.1425378,52.5875911 43.2358497,53.4347644 40.4830101,53.4347644" id="Fill-177" fill="#102A59"></path>
                <path d="M41.4781593,57.8500793 L42.9393282,61.0611931 C42.9393282,61.0611931 42.8167267,62.7762349 40.9723443,62.7154841 C39.1279619,62.6540657 41.4781593,57.8500793 41.4781593,57.8500793" id="Fill-178" fill="#FFB7AA"></path>
                <path d="M120.867333,73.0648171 C120.867333,73.0648171 120.859294,73.1235652 120.843885,73.2343853 C120.825796,73.3512138 120.817087,73.4860672 120.751431,73.7657879 C120.721953,73.8959682 120.689795,74.0401679 120.654288,74.1977194 C120.616101,74.3345756 120.575233,74.4834485 120.531016,74.6423352 C120.447272,74.9661169 120.322661,75.3019153 120.1947,75.6817747 C119.921359,76.4254714 119.551544,77.2653011 119.096646,78.1358401 C118.854122,78.5604281 118.618969,79.0143901 118.334238,79.4436513 C118.065587,79.8849291 117.765448,80.3155254 117.455929,80.7421162 C116.835552,81.5919599 116.149519,82.3997453 115.452768,83.1120651 C115.097022,83.4585449 114.767405,83.8157063 114.415679,84.1087788 C114.067973,84.4065245 113.754435,84.7122813 113.431517,84.9499437 C113.113289,85.1956173 112.82186,85.4212632 112.562588,85.6208729 C112.293266,85.8051281 112.057442,85.9660176 111.863826,86.0982007 C111.472573,86.3612316 111.248808,86.5114396 111.248808,86.5114396 C110.060981,87.307876 108.449742,86.9947757 107.649817,85.8111364 C106.850563,84.6274972 107.165441,83.0219403 108.353269,82.2255039 C108.452422,82.1587448 108.554925,82.0993292 108.659438,82.0485923 L108.784719,81.9885091 C108.784719,81.9885091 108.973646,81.8977167 109.303933,81.7388299 C109.469411,81.658719 109.671068,81.5612507 109.902202,81.4497629 C110.125966,81.3235882 110.378539,81.1813913 110.65322,81.0265101 C110.93661,80.8803076 111.209951,80.6740219 111.52081,80.4817557 C111.835018,80.2934949 112.129797,80.0471538 112.455395,79.814832 C113.091851,79.3321636 113.737016,78.7667138 114.339975,78.1525299 C114.640114,77.8441027 114.937573,77.5303348 115.207565,77.2025476 C115.494975,76.8861093 115.735488,76.5449702 115.988731,76.2258616 C116.463728,75.5689518 116.86704,74.9273967 117.174549,74.3632821 C117.316579,74.0815586 117.462629,73.8198628 117.557762,73.5902114 C117.609348,73.4747181 117.657585,73.3665684 117.701802,73.2670973 C117.73597,73.1823132 117.766788,73.1048726 117.794926,73.0347755 C117.853882,72.9152767 117.900108,72.727016 117.931596,72.6255421 C117.962414,72.5180599 117.979163,72.4606471 117.979163,72.4606471 L117.981843,72.4519684 C118.208957,71.6702191 119.02965,71.2202626 119.814166,71.446576 C120.529676,71.6535293 120.967156,72.3511621 120.867333,73.0648171" id="Fill-179" fill="#FFB7AA"></path>
                <path d="M112.875657,90.2233136 C114.781675,90.6519072 124.68024,90.0851222 128.276552,80.6046592 L116.964384,80.6046592 L111.615474,85.506114 L112.875657,90.2233136 Z" id="Fill-180" fill="#FFB7AA"></path>
                <path d="M49.6454974,11.3517495 C49.6454974,11.3517495 49.6354481,11.4011512 49.6166894,11.4932788 C49.5979307,11.5847388 49.5751523,11.7129163 49.5135165,11.9305511 C49.4579104,12.1455154 49.3895751,12.3885186 49.3172201,12.6275163 C49.2408454,12.8751926 49.1537514,13.1549134 49.0592879,13.459335 C48.6713848,14.6656723 48.0865152,16.229171 47.3696648,17.7833233 C47.0159293,18.5610671 46.6099373,19.3328026 46.1972459,20.0584742 C45.9694616,20.4196411 45.7718253,20.7707941 45.5373415,21.1032545 C45.2954883,21.4357149 45.0991918,21.7494828 44.8412597,22.0412202 C44.5947167,22.33229 44.389041,22.5979913 44.1257492,22.8356537 C43.8664771,23.0733162 43.6963089,23.2749288 43.4470861,23.4431618 C42.9915176,23.7769574 42.7161667,23.9525339 42.7161667,23.9525339 C41.5176196,24.7175934 39.9237998,24.3691108 39.1567029,23.1747901 C38.3896059,21.981137 38.7386518,20.3929374 39.9371989,19.6285455 C39.950598,19.6198668 39.963997,19.6118557 39.9773961,19.603177 L40.3425209,19.3822043 C40.3425209,19.3822043 40.4068364,19.3428164 40.5455168,19.3007582 C40.6091624,19.3014258 40.7331038,19.1845973 40.8570453,19.1185058 C40.9836665,19.0570874 41.1437854,18.9055442 41.3173034,18.7660176 C41.4941712,18.6391753 41.6824282,18.4222081 41.8881039,18.2292743 C42.0937797,18.0303321 42.3001254,17.7739771 42.5225501,17.532309 C42.9519904,17.0102527 43.4062189,16.4261104 43.8329794,15.7999098 C44.6931999,14.5575225 45.4830753,13.214329 46.0156885,12.19692 C46.1456595,11.9432353 46.2649112,11.7109135 46.3700939,11.5046278 C46.4625475,11.3150319 46.5436119,11.1494693 46.6099373,11.0132807 C46.6702332,10.901793 46.7218196,10.7642692 46.7559872,10.674812 C46.7901549,10.5866899 46.8089136,10.5406261 46.8089136,10.5406261 L46.8162831,10.521266 C47.1137425,9.76221474 47.9719531,9.38769607 48.7330205,9.68343898 C49.4143634,9.9484727 49.7868576,10.6614601 49.6454974,11.3517495" id="Fill-181" fill="#FFB7AA"></path>
                <path d="M38.9432556,4.2680057 C38.9432556,4.2680057 35.930474,5.30944802 35.5619995,8.74019934 C35.192855,12.1709507 35.8507495,22.1574478 34.2703289,25.6496175 L39.6192389,31.0711259 C40.6389084,29.60109 44.2265102,24.0060079 44.9152226,21.9738602 C47.6734218,13.8252417 41.5292768,18.9717025 38.8816199,14.9281024 L38.9432556,4.2680057 Z" id="Fill-182" fill="#FFB7AA"></path>
                <path d="M40.3592985,141.441438 C36.341947,135.203931 31.1743576,123.772962 33.0368102,115.186686 C33.1232342,114.790137 33.5124773,114.538455 33.9137795,114.623239 C34.3124019,114.709358 34.5656444,115.100567 34.4792204,115.497783 C32.3715462,125.214574 40.2642703,139.884223 44.0957353,144.004596 C44.3724261,144.302342 44.3550073,144.767653 44.056208,145.043368 C43.9141778,145.174216 43.7339603,145.23964 43.5544127,145.23964 C43.3561064,145.23964 43.1584701,145.160197 43.0130901,145.003313 C42.9703179,144.957317 42.9268736,144.909803 42.8827822,144.860793 C42.8405725,144.868176 42.7976629,144.871931 42.754555,144.871931 C42.624584,144.871931 42.493943,144.837884 42.3746913,144.766451 C35.9216976,140.89509 32.4560273,133.23181 31.7874136,129.311047 C31.7190783,128.91116 31.9897396,128.530633 32.3910418,128.463206 C32.7977037,128.393777 33.1742177,128.665486 33.241883,129.064706 C33.7630515,132.120018 36.1010915,137.605372 40.3592985,141.441438 Z M73.2394564,111.207508 C73.1630817,111.207508 73.0853671,111.194824 73.0089924,111.170123 C72.6217592,111.043281 72.4113937,110.627372 72.5386849,110.242171 L77.5780764,94.984374 L49.6671369,80.7106059 C49.1057157,80.4188686 48.494048,80.1625135 47.9420062,79.986937 C42.4926031,78.2605461 36.6459175,81.2733853 34.9120775,86.7055752 C34.788136,87.0921105 34.3727648,87.3050721 33.9848616,87.1835705 C33.5969584,87.0600661 33.3819033,86.6461595 33.5051748,86.2596242 C35.4855578,80.0550313 42.162316,76.6135986 48.3895353,78.5863306 C49.0199617,78.786608 49.7147036,79.0770102 50.34513,79.4047975 L78.8128009,93.9629594 C79.1363886,94.128522 79.2904779,94.5037083 79.1765858,94.8468502 L73.940228,110.701474 C73.838395,111.011237 73.549645,111.207508 73.2394564,111.207508 Z" id="Combined-Shape" fill="#2053AF"></path>
                <path d="M47.3081631,146.890994 C46.4244942,144.834813 45.7170231,143.340744 45.7170231,143.340744 L8.75567964,143.340744 C8.27264305,144.314092 7.8237741,145.540457 7.41443242,146.890994 L47.3081631,146.890994 Z" id="Fill-186" fill="#102A59"></path>
                <path d="M20.6830657,281.983686 C20.6830657,278.600334 17.9302261,275.857202 14.5349009,275.857202 C11.1395758,275.857202 8.38673616,278.600334 8.38673616,281.983686 C8.38673616,285.367039 20.6830657,285.367039 20.6830657,281.983686" id="Fill-187" fill="#FFFFFF"></path>
                <path d="M21.314095,280.507041 C21.7562644,281.57452 21.488283,282.697408 20.7151564,283.015182 C19.9420299,283.332955 18.957198,282.725447 18.5150286,281.658636 C18.0728592,280.591158 18.3415106,279.468269 19.1139672,279.150496 C19.8870937,278.832055 20.8719256,279.439563 21.314095,280.507041" id="Fill-188" fill="#E2E6E8"></path>
                <path d="M7.78645768,280.507041 C7.34428827,281.57452 7.61293968,282.697408 8.38539626,283.015182 C9.15852278,283.332955 10.1433547,282.725447 10.5855241,281.658636 C11.0276935,280.591158 10.7590421,279.468269 9.98658551,279.150496 C9.21345898,278.832055 8.2286271,279.439563 7.78645768,280.507041" id="Fill-189" fill="#E2E6E8"></path>
                <path d="M20.9905744,286.173088 L8.63260916,286.173088 C7.40994373,286.173088 6.41908226,285.185721 6.41908226,283.967367 C6.41908226,282.749013 7.40994373,281.762313 8.63260916,281.762313 L20.9905744,281.762313 C22.2125699,281.762313 23.2041013,282.749013 23.2041013,283.967367 C23.2041013,285.185721 22.2125699,286.173088 20.9905744,286.173088" id="Fill-190" fill="#E2E6E8"></path>
            </g>
            <g id="[-K-]" transform="translate(116.000000, 58.000000)">
                <path d="M7.96751288,8.41407512 L7.96751288,4.04105627 C7.96751288,1.81847532 6.17479929,0 3.9837049,0 C1.79261051,0 0.000154610918,1.81847532 0.000154610918,4.04105627 L0.000154610918,19.5789961 C0.000154610918,21.801577 1.79261051,23.6200523 3.9837049,23.6200523 C6.17479929,23.6200523 7.96751288,21.801577 7.96751288,19.5789961 C7.96751288,20.134968 7.85516228,20.6655854 7.65287966,21.1488915 L5.74137335,19.2099164 L3.12638736,19.2099164 L4.43439573,17.883373 C2.83700726,16.2515286 2.8398418,13.6156935 4.44393007,11.9882927 L7.96751288,8.41407512 Z" id="Fill-1" fill="#FFFFFF"></path>
                <g id="Group-5" transform="translate(7.472861, 6.629842)">
                    <mask id="mask-17" fill="white">
                        <use xlink:href="#path-16"></use>
                    </mask>
                    <g id="Clip-4"></g>
                    <path d="M7.23246681,12.0652714 L6.12236042,10.9392125 C4.70921663,9.50576151 4.70921663,7.18097791 6.12236042,5.7475269 L6.70910885,5.15234675 C7.73417923,4.11254585 7.73417923,2.42633278 6.70910885,1.38653189 C5.10115531,-0.24452834 2.49467292,-0.24452834 0.886977065,1.38653189 L0.494780705,1.78410282 L0.494780705,12.9492851 C0.494780705,13.5052571 0.382430105,14.0358745 0.179889803,14.5191806 L1.41033502,15.7670462 C3.01803088,17.3978451 5.62477095,17.3978451 7.23246681,15.7670462 C8.2402723,14.7447583 8.2402723,13.0875593 7.23246681,12.0652714" id="Fill-3" fill="#FFFFFF" mask="url(#mask-17)"></path>
                </g>
            </g>
        </g>
        <g id="bubble" transform="translate(592.000000, 0.000000)">
            <path d="M64.219699,2.63650508e-13 C28.7521386,2.63650508e-13 0,28.552447 0,63.7736754 C0,86.3294174 7.43596514,104.689523 25.2146818,116.068089 C28.1757144,124.17114 26.7191527,133.217768 21.3614999,140 C21.3614999,140 40.2218115,136.140014 44.4467917,124.526492 C50.8383847,126.552992 57.5102895,127.57231 64.219699,127.547351 L63.6113018,127.715176 C99.0680083,127.623484 127.814482,99.1515881 128,63.9415008 C127.906984,28.6397206 99.0924558,0.0553271655 63.5437021,-4.55931589e-13 L64.219699,2.63650508e-13 Z" id="Shape" fill="url(#linearGradient-18)" fill-rule="nonzero"></path>
            <path d="M53.1950783,65.0848401 C53.9348285,66.9763655 54.304698,69.1831121 54.304698,71.705146 C54.304698,73.7079377 54.0457893,75.4881702 53.5279642,77.0458971 C52.8252016,79.2712211 51.6323723,80.9680053 49.9494407,82.1363004 C48.2665091,83.3045955 46.1674995,83.8887344 43.652349,83.8887344 C41.100211,83.8887344 38.9364742,83.2118751 37.1610738,81.8581363 C35.3856734,80.5043975 34.1835975,78.6963488 33.5548098,76.433936 C33.2589098,75.4696289 33.073975,74.1529986 33,72.4840056 C33,72.0389408 33.2219217,71.8164117 33.6657718,71.8164117 L35.3302013,71.8164117 C35.7740514,71.8164117 35.9959732,72.0389408 35.9959732,72.4840056 C36.0699482,73.5595789 36.1624156,74.5424156 36.2733781,75.4325452 C36.6802407,77.2128045 37.5309406,78.6314273 38.8255034,79.6884562 C40.1200661,80.7454851 41.7289986,81.2739917 43.652349,81.2739917 C45.4277494,81.2739917 46.9072275,80.8660217 48.0908277,80.0500695 C49.274428,79.2341174 50.1251279,78.0287516 50.642953,76.433936 C51.1237906,74.9874754 51.3642058,73.3926837 51.3642058,71.6495132 C51.3642058,69.3500117 51.0313232,67.4214264 50.3655481,65.8636996 C49.1819478,62.9707783 46.9257437,61.5243394 43.596868,61.5243394 C43.1160304,61.5243394 42.5982131,61.6170598 42.0434004,61.8025035 C41.9694254,61.8395922 41.876958,61.8581363 41.7659955,61.8581363 C41.4700955,61.8581363 41.2481737,61.7468718 41.1002237,61.5243394 L40.3789709,60.6342142 C40.2680084,60.4487705 40.212528,60.2818737 40.212528,60.1335188 C40.212528,59.9480751 40.2680084,59.7997224 40.3789709,59.6884562 L50.2545861,47.3936022 C50.3285611,47.3194248 50.3470546,47.2545204 50.3100671,47.1988873 C50.2730796,47.1432542 50.2175992,47.1154381 50.1436242,47.1154381 L33.8876957,47.1154381 C33.7027582,47.1154381 33.5455637,47.0505338 33.4161074,46.9207232 C33.2866511,46.7909127 33.2219239,46.6332879 33.2219239,46.4478442 L33.2219239,45.1682893 C33.2219239,44.9828456 33.2866511,44.8252209 33.4161074,44.6954103 C33.5455637,44.5655997 33.7027582,44.5006954 33.8876957,44.5006954 L53.4724832,44.5006954 C53.6574208,44.5006954 53.8146153,44.5655997 53.9440716,44.6954103 C54.0735279,44.8252209 54.138255,44.9828456 54.138255,45.1682893 L54.138255,46.6703755 C54.138255,46.9670854 54.0457877,47.2452467 53.8608501,47.5048679 L44.5955257,59.2433936 C44.5215507,59.3175711 44.5030572,59.3824754 44.5400447,59.4381085 C44.5770323,59.4937416 44.6510062,59.5215577 44.7619687,59.5215577 C46.8332691,59.5957352 48.5809026,60.1149697 50.0049217,61.0792768 C51.4289408,62.0435839 52.4923157,63.3787583 53.1950783,65.0848401 Z M64,83.2211405 C63.1492873,83.2211405 62.4372885,82.9337071 61.8639821,82.3588317 C61.2906757,81.7839563 61.0040268,81.088553 61.0040268,80.2726008 C61.0040268,79.4937374 61.3091692,78.8168782 61.9194631,78.2420028 C62.529757,77.6671274 63.2232623,77.379694 64,77.379694 C64.8137252,77.379694 65.525724,77.6671274 66.1360179,78.2420028 C66.7463118,78.8168782 67.0514541,79.4937374 67.0514541,80.2726008 C67.0514541,81.088553 66.7555585,81.7839563 66.1637584,82.3588317 C65.5719583,82.9337071 64.8507127,83.2211405 64,83.2211405 Z M83.5709172,84 C80.1680665,84 77.4402787,83.0078912 75.387472,81.0236439 C73.3346654,79.0393967 72.3082774,76.396864 72.3082774,73.0959666 L72.3082774,54.8484006 C72.3082774,51.5475032 73.3346654,48.9142426 75.387472,46.9485396 C77.4402787,44.9828367 80.1680665,44 83.5709172,44 C87.0107555,44 89.7755302,44.9921088 91.8653244,46.9763561 C93.9551186,48.9606033 95,51.5845919 95,54.8484006 L95,73.0959666 C95,76.396864 93.9551186,79.0393967 91.8653244,81.0236439 C89.7755302,83.0078912 87.0107555,84 83.5709172,84 Z M83.5709172,81.3296245 C86.1600428,81.3296245 88.2220654,80.597133 89.757047,79.132128 C91.2920286,77.6671229 92.0595078,75.7292656 92.0595078,73.3184979 L92.0595078,54.6815021 C92.0595078,52.2707344 91.2920286,50.323605 89.757047,48.8400556 C88.2220654,47.3565063 86.1600428,46.6147427 83.5709172,46.6147427 C81.0557667,46.6147427 79.0399778,47.3565063 77.5234899,48.8400556 C76.0070021,50.323605 75.2487696,52.2707344 75.2487696,54.6815021 L75.2487696,73.3184979 C75.2487696,75.7292656 76.0070021,77.6671229 77.5234899,79.132128 C79.0399778,80.597133 81.0557667,81.3296245 83.5709172,81.3296245 Z" id="3.0" fill="#FFFFFF"></path>
        </g>
    </g>
</svg>